<?xml version="1.0" encoding="utf-8" standalone="no"?>
<!DOCTYPE svg PUBLIC "-//W3C//DTD SVG 1.1//EN"
  "http://www.w3.org/Graphics/SVG/1.1/DTD/svg11.dtd">
<svg xmlns:xlink="http://www.w3.org/1999/xlink" width="393.132188pt" height="292.183594pt" viewBox="0 0 393.132188 292.183594" xmlns="http://www.w3.org/2000/svg" version="1.1">
 <metadata>
  <rdf:RDF xmlns:dc="http://purl.org/dc/elements/1.1/" xmlns:cc="http://creativecommons.org/ns#" xmlns:rdf="http://www.w3.org/1999/02/22-rdf-syntax-ns#">
   <cc:Work>
    <dc:type rdf:resource="http://purl.org/dc/dcmitype/StillImage"/>
    <dc:date>2026-06-26T16:16:09.524780</dc:date>
    <dc:format>image/svg+xml</dc:format>
    <dc:creator>
     <cc:Agent>
      <dc:title>Matplotlib v3.5.1, https://matplotlib.org/</dc:title>
     </cc:Agent>
    </dc:creator>
   </cc:Work>
  </rdf:RDF>
 </metadata>
 <defs>
  <style type="text/css">*{stroke-linejoin: round; stroke-linecap: butt}</style>
 </defs>
 <g id="figure_1">
  <g id="patch_1">
   <path d="M 0 292.183594 
L 393.132188 292.183594 
L 393.132188 0 
L 0 0 
z
" style="fill: #ffffff"/>
  </g>
  <g id="axes_1">
   <g id="patch_2">
    <path d="M 44.7325 261.522031 
L 375.9225 261.522031 
L 375.9225 13.642031 
L 44.7325 13.642031 
z
" style="fill: #ffffff"/>
   </g>
   <g id="matplotlib.axis_1">
    <g id="xtick_1">
     <g id="line2d_1">
      <path d="M 44.7325 261.522031 
L 44.7325 13.642031 
" clip-path="url(#p1d3ba1b4b1)" style="fill: none; stroke: #b0b0b0; stroke-opacity: 0.25; stroke-width: 0.8; stroke-linecap: square"/>
     </g>
     <g id="line2d_2">
      <defs>
       <path id="md4476d4bee" d="M 0 0 
L 0 3.5 
" style="stroke: #000000; stroke-width: 0.8"/>
      </defs>
      <g>
       <use xlink:href="#md4476d4bee" x="44.7325" y="261.522031" style="stroke: #000000; stroke-width: 0.8"/>
      </g>
     </g>
     <g id="text_1">
      <!-- −10 -->
      <g transform="translate(29.46625 281.406094)scale(0.18 -0.18)">
       <defs>
        <path id="ArialMT-2212" d="M 3381 1997 
L 356 1997 
L 356 2522 
L 3381 2522 
L 3381 1997 
z
" transform="scale(0.015625)"/>
        <path id="ArialMT-31" d="M 2384 0 
L 1822 0 
L 1822 3584 
Q 1619 3391 1289 3197 
Q 959 3003 697 2906 
L 697 3450 
Q 1169 3672 1522 3987 
Q 1875 4303 2022 4600 
L 2384 4600 
L 2384 0 
z
" transform="scale(0.015625)"/>
        <path id="ArialMT-30" d="M 266 2259 
Q 266 3072 433 3567 
Q 600 4063 929 4331 
Q 1259 4600 1759 4600 
Q 2128 4600 2406 4451 
Q 2684 4303 2865 4023 
Q 3047 3744 3150 3342 
Q 3253 2941 3253 2259 
Q 3253 1453 3087 958 
Q 2922 463 2592 192 
Q 2263 -78 1759 -78 
Q 1097 -78 719 397 
Q 266 969 266 2259 
z
M 844 2259 
Q 844 1131 1108 757 
Q 1372 384 1759 384 
Q 2147 384 2411 759 
Q 2675 1134 2675 2259 
Q 2675 3391 2411 3762 
Q 2147 4134 1753 4134 
Q 1366 4134 1134 3806 
Q 844 3388 844 2259 
z
" transform="scale(0.015625)"/>
       </defs>
       <use xlink:href="#ArialMT-2212"/>
       <use xlink:href="#ArialMT-31" x="58.398438"/>
       <use xlink:href="#ArialMT-30" x="114.013672"/>
      </g>
     </g>
    </g>
    <g id="xtick_2">
     <g id="line2d_3">
      <path d="M 127.53 261.522031 
L 127.53 13.642031 
" clip-path="url(#p1d3ba1b4b1)" style="fill: none; stroke: #b0b0b0; stroke-opacity: 0.25; stroke-width: 0.8; stroke-linecap: square"/>
     </g>
     <g id="line2d_4">
      <g>
       <use xlink:href="#md4476d4bee" x="127.53" y="261.522031" style="stroke: #000000; stroke-width: 0.8"/>
      </g>
     </g>
     <g id="text_2">
      <!-- −5 -->
      <g transform="translate(117.268594 281.406094)scale(0.18 -0.18)">
       <defs>
        <path id="ArialMT-35" d="M 266 1200 
L 856 1250 
Q 922 819 1161 601 
Q 1400 384 1738 384 
Q 2144 384 2425 690 
Q 2706 997 2706 1503 
Q 2706 1984 2436 2262 
Q 2166 2541 1728 2541 
Q 1456 2541 1237 2417 
Q 1019 2294 894 2097 
L 366 2166 
L 809 4519 
L 3088 4519 
L 3088 3981 
L 1259 3981 
L 1013 2750 
Q 1425 3038 1878 3038 
Q 2478 3038 2890 2622 
Q 3303 2206 3303 1553 
Q 3303 931 2941 478 
Q 2500 -78 1738 -78 
Q 1113 -78 717 272 
Q 322 622 266 1200 
z
" transform="scale(0.015625)"/>
       </defs>
       <use xlink:href="#ArialMT-2212"/>
       <use xlink:href="#ArialMT-35" x="58.398438"/>
      </g>
     </g>
    </g>
    <g id="xtick_3">
     <g id="line2d_5">
      <path d="M 210.3275 261.522031 
L 210.3275 13.642031 
" clip-path="url(#p1d3ba1b4b1)" style="fill: none; stroke: #b0b0b0; stroke-opacity: 0.25; stroke-width: 0.8; stroke-linecap: square"/>
     </g>
     <g id="line2d_6">
      <g>
       <use xlink:href="#md4476d4bee" x="210.3275" y="261.522031" style="stroke: #000000; stroke-width: 0.8"/>
      </g>
     </g>
     <g id="text_3">
      <!-- 0 -->
      <g transform="translate(205.322656 281.406094)scale(0.18 -0.18)">
       <use xlink:href="#ArialMT-30"/>
      </g>
     </g>
    </g>
    <g id="xtick_4">
     <g id="line2d_7">
      <path d="M 293.125 261.522031 
L 293.125 13.642031 
" clip-path="url(#p1d3ba1b4b1)" style="fill: none; stroke: #b0b0b0; stroke-opacity: 0.25; stroke-width: 0.8; stroke-linecap: square"/>
     </g>
     <g id="line2d_8">
      <g>
       <use xlink:href="#md4476d4bee" x="293.125" y="261.522031" style="stroke: #000000; stroke-width: 0.8"/>
      </g>
     </g>
     <g id="text_4">
      <!-- 5 -->
      <g transform="translate(288.120156 281.406094)scale(0.18 -0.18)">
       <use xlink:href="#ArialMT-35"/>
      </g>
     </g>
    </g>
    <g id="xtick_5">
     <g id="line2d_9">
      <path d="M 375.9225 261.522031 
L 375.9225 13.642031 
" clip-path="url(#p1d3ba1b4b1)" style="fill: none; stroke: #b0b0b0; stroke-opacity: 0.25; stroke-width: 0.8; stroke-linecap: square"/>
     </g>
     <g id="line2d_10">
      <g>
       <use xlink:href="#md4476d4bee" x="375.9225" y="261.522031" style="stroke: #000000; stroke-width: 0.8"/>
      </g>
     </g>
     <g id="text_5">
      <!-- 10 -->
      <g transform="translate(365.912813 281.406094)scale(0.18 -0.18)">
       <use xlink:href="#ArialMT-31"/>
       <use xlink:href="#ArialMT-30" x="55.615234"/>
      </g>
     </g>
    </g>
   </g>
   <g id="matplotlib.axis_2">
    <g id="ytick_1">
     <g id="line2d_11">
      <path d="M 44.7325 261.522031 
L 375.9225 261.522031 
" clip-path="url(#p1d3ba1b4b1)" style="fill: none; stroke: #b0b0b0; stroke-opacity: 0.25; stroke-width: 0.8; stroke-linecap: square"/>
     </g>
     <g id="line2d_12">
      <defs>
       <path id="m12153a44a7" d="M 0 0 
L -3.5 0 
" style="stroke: #000000; stroke-width: 0.8"/>
      </defs>
      <g>
       <use xlink:href="#m12153a44a7" x="44.7325" y="261.522031" style="stroke: #000000; stroke-width: 0.8"/>
      </g>
     </g>
     <g id="text_6">
      <!-- −40 -->
      <g transform="translate(7.2 267.964063)scale(0.18 -0.18)">
       <defs>
        <path id="ArialMT-34" d="M 2069 0 
L 2069 1097 
L 81 1097 
L 81 1613 
L 2172 4581 
L 2631 4581 
L 2631 1613 
L 3250 1613 
L 3250 1097 
L 2631 1097 
L 2631 0 
L 2069 0 
z
M 2069 1613 
L 2069 3678 
L 634 1613 
L 2069 1613 
z
" transform="scale(0.015625)"/>
       </defs>
       <use xlink:href="#ArialMT-2212"/>
       <use xlink:href="#ArialMT-34" x="58.398438"/>
       <use xlink:href="#ArialMT-30" x="114.013672"/>
      </g>
     </g>
    </g>
    <g id="ytick_2">
     <g id="line2d_13">
      <path d="M 44.7325 199.552031 
L 375.9225 199.552031 
" clip-path="url(#p1d3ba1b4b1)" style="fill: none; stroke: #b0b0b0; stroke-opacity: 0.25; stroke-width: 0.8; stroke-linecap: square"/>
     </g>
     <g id="line2d_14">
      <g>
       <use xlink:href="#m12153a44a7" x="44.7325" y="199.552031" style="stroke: #000000; stroke-width: 0.8"/>
      </g>
     </g>
     <g id="text_7">
      <!-- −30 -->
      <g transform="translate(7.2 205.994062)scale(0.18 -0.18)">
       <defs>
        <path id="ArialMT-33" d="M 269 1209 
L 831 1284 
Q 928 806 1161 595 
Q 1394 384 1728 384 
Q 2125 384 2398 659 
Q 2672 934 2672 1341 
Q 2672 1728 2419 1979 
Q 2166 2231 1775 2231 
Q 1616 2231 1378 2169 
L 1441 2663 
Q 1497 2656 1531 2656 
Q 1891 2656 2178 2843 
Q 2466 3031 2466 3422 
Q 2466 3731 2256 3934 
Q 2047 4138 1716 4138 
Q 1388 4138 1169 3931 
Q 950 3725 888 3313 
L 325 3413 
Q 428 3978 793 4289 
Q 1159 4600 1703 4600 
Q 2078 4600 2393 4439 
Q 2709 4278 2876 4000 
Q 3044 3722 3044 3409 
Q 3044 3113 2884 2869 
Q 2725 2625 2413 2481 
Q 2819 2388 3044 2092 
Q 3269 1797 3269 1353 
Q 3269 753 2831 336 
Q 2394 -81 1725 -81 
Q 1122 -81 723 278 
Q 325 638 269 1209 
z
" transform="scale(0.015625)"/>
       </defs>
       <use xlink:href="#ArialMT-2212"/>
       <use xlink:href="#ArialMT-33" x="58.398438"/>
       <use xlink:href="#ArialMT-30" x="114.013672"/>
      </g>
     </g>
    </g>
    <g id="ytick_3">
     <g id="line2d_15">
      <path d="M 44.7325 137.582031 
L 375.9225 137.582031 
" clip-path="url(#p1d3ba1b4b1)" style="fill: none; stroke: #b0b0b0; stroke-opacity: 0.25; stroke-width: 0.8; stroke-linecap: square"/>
     </g>
     <g id="line2d_16">
      <g>
       <use xlink:href="#m12153a44a7" x="44.7325" y="137.582031" style="stroke: #000000; stroke-width: 0.8"/>
      </g>
     </g>
     <g id="text_8">
      <!-- −20 -->
      <g transform="translate(7.2 144.024063)scale(0.18 -0.18)">
       <defs>
        <path id="ArialMT-32" d="M 3222 541 
L 3222 0 
L 194 0 
Q 188 203 259 391 
Q 375 700 629 1000 
Q 884 1300 1366 1694 
Q 2113 2306 2375 2664 
Q 2638 3022 2638 3341 
Q 2638 3675 2398 3904 
Q 2159 4134 1775 4134 
Q 1369 4134 1125 3890 
Q 881 3647 878 3216 
L 300 3275 
Q 359 3922 746 4261 
Q 1134 4600 1788 4600 
Q 2447 4600 2831 4234 
Q 3216 3869 3216 3328 
Q 3216 3053 3103 2787 
Q 2991 2522 2730 2228 
Q 2469 1934 1863 1422 
Q 1356 997 1212 845 
Q 1069 694 975 541 
L 3222 541 
z
" transform="scale(0.015625)"/>
       </defs>
       <use xlink:href="#ArialMT-2212"/>
       <use xlink:href="#ArialMT-32" x="58.398438"/>
       <use xlink:href="#ArialMT-30" x="114.013672"/>
      </g>
     </g>
    </g>
    <g id="ytick_4">
     <g id="line2d_17">
      <path d="M 44.7325 75.612031 
L 375.9225 75.612031 
" clip-path="url(#p1d3ba1b4b1)" style="fill: none; stroke: #b0b0b0; stroke-opacity: 0.25; stroke-width: 0.8; stroke-linecap: square"/>
     </g>
     <g id="line2d_18">
      <g>
       <use xlink:href="#m12153a44a7" x="44.7325" y="75.612031" style="stroke: #000000; stroke-width: 0.8"/>
      </g>
     </g>
     <g id="text_9">
      <!-- −10 -->
      <g transform="translate(7.2 82.054062)scale(0.18 -0.18)">
       <use xlink:href="#ArialMT-2212"/>
       <use xlink:href="#ArialMT-31" x="58.398438"/>
       <use xlink:href="#ArialMT-30" x="114.013672"/>
      </g>
     </g>
    </g>
    <g id="ytick_5">
     <g id="line2d_19">
      <path d="M 44.7325 13.642031 
L 375.9225 13.642031 
" clip-path="url(#p1d3ba1b4b1)" style="fill: none; stroke: #b0b0b0; stroke-opacity: 0.25; stroke-width: 0.8; stroke-linecap: square"/>
     </g>
     <g id="line2d_20">
      <g>
       <use xlink:href="#m12153a44a7" x="44.7325" y="13.642031" style="stroke: #000000; stroke-width: 0.8"/>
      </g>
     </g>
     <g id="text_10">
      <!-- 0 -->
      <g transform="translate(27.722813 20.084063)scale(0.18 -0.18)">
       <use xlink:href="#ArialMT-30"/>
      </g>
     </g>
    </g>
   </g>
   <g id="line2d_21">
    <path d="M 79.413282 242.483769 
L 80.168837 238.529326 
L 80.168837 240.803131 
L 80.924392 235.925985 
L 80.924392 237.112318 
L 81.075502 234.317845 
L 81.679946 242.978074 
L 81.679946 241.989463 
L 81.679946 232.498802 
L 82.435501 239.748613 
L 82.435501 240.934945 
L 82.624389 229.335248 
L 82.624389 238.331604 
L 83.191055 243.373518 
L 83.191055 242.384908 
L 83.191055 235.135097 
L 83.342166 233.526957 
L 83.379944 227.951193 
L 83.94661 240.012242 
L 83.94661 241.198575 
L 84.513276 229.928414 
L 84.702165 237.244133 
L 85.079942 233.28969 
L 85.079942 232.103358 
L 85.457719 234.476023 
L 85.457719 227.358027 
L 85.646608 235.810647 
L 85.646608 231.114747 
L 87.119939 229.730692 
L 87.346606 227.951193 
L 87.724383 236.914596 
L 87.724383 235.925985 
L 87.724383 231.378377 
L 87.875494 234.317845 
L 89.235492 228.939804 
L 89.235492 232.498802 
L 89.991047 237.046411 
L 89.991047 227.753471 
L 89.991047 236.0578 
L 90.93549 224.441626 
L 91.502156 230.389766 
L 91.502156 236.255522 
L 91.502156 223.139955 
L 91.653267 232.340624 
L 91.653267 228.781626 
L 91.879933 235.266912 
L 93.013265 232.696524 
L 93.013265 231.707914 
L 93.164376 222.37543 
L 93.164376 224.748095 
L 93.76882 229.631831 
L 93.76882 230.719303 
L 93.76882 228.28073 
L 95.279929 222.085437 
L 95.279929 225.314899 
L 96.035484 230.257951 
L 96.035484 232.564709 
L 96.186595 228.702537 
L 96.791038 223.008141 
L 97.168816 224.194473 
L 97.168816 225.183084 
L 98.302148 233.091968 
L 98.302148 227.358027 
L 99.057702 226.171694 
L 99.813257 222.296341 
L 99.813257 233.091968 
L 100.191034 232.103358 
L 100.568811 229.730692 
L 100.568811 220.76729 
L 100.7577 231.114747 
L 102.079921 219.844587 
L 102.079921 228.939804 
L 102.835475 223.205863 
L 102.835475 221.030919 
L 103.024364 227.506319 
L 103.59103 226.171694 
L 104.346584 220.240031 
L 104.497695 222.217252 
L 105.102139 223.205863 
L 105.102139 227.358027 
L 105.25325 228.860715 
L 106.613248 222.480882 
L 106.613248 229.53297 
L 106.802137 221.030919 
L 107.368803 223.799029 
L 107.368803 227.358027 
L 107.519914 228.860715 
L 108.124357 226.171694 
L 108.879912 221.558178 
L 108.879912 222.744511 
L 108.879912 220.371846 
L 109.068801 224.886501 
L 109.068801 216.928186 
L 109.257689 228.54436 
L 109.635467 215.626515 
L 109.635467 227.061444 
L 109.887318 223.667214 
L 110.391021 225.380806 
L 111.146576 214.703812 
L 111.146576 223.996751 
L 111.146576 217.076477 
L 111.90213 215.890144 
L 111.90213 222.810418 
L 113.41324 221.426364 
L 113.41324 214.835626 
L 113.602128 216.977616 
L 114.168794 218.130995 
L 114.168794 224.458103 
L 114.420646 216.021959 
L 114.924349 225.77625 
L 115.679904 221.525225 
L 115.679904 216.681033 
L 116.435458 218.26281 
L 116.435458 224.721732 
L 117.191013 225.842157 
L 117.342124 220.398209 
L 118.702122 224.721732 
L 118.702122 225.578528 
L 118.702122 218.790069 
L 118.853233 215.4947 
L 118.891011 223.304724 
L 119.457677 221.294549 
L 119.646565 213.814062 
L 119.646565 219.844587 
L 120.213231 223.799029 
L 120.213231 212.462961 
L 120.591008 222.414974 
L 120.968786 220.240031 
L 120.968786 221.426364 
L 121.119897 215.455156 
L 121.346563 219.053698 
L 121.875451 211.698436 
L 121.913229 213.912923 
L 123.23545 213.517479 
L 123.23545 214.50609 
L 123.424338 215.989005 
L 123.991004 211.276628 
L 123.991004 212.578299 
L 125.502113 217.406014 
L 125.653224 216.048322 
L 126.257668 212.09388 
L 127.164334 214.15019 
L 127.768777 217.471921 
L 127.768777 215.890144 
L 128.524332 207.585816 
L 128.524332 208.772148 
L 128.524332 212.331146 
L 129.279886 214.835626 
L 129.279886 204.619984 
L 129.430997 203.235929 
L 129.468775 213.418618 
L 129.657664 217.076477 
L 130.035441 201.522338 
L 130.186552 199.914198 
L 130.22433 215.791283 
L 130.790996 210.353925 
L 130.790996 207.98126 
L 130.790996 213.912923 
L 131.168773 196.414516 
L 131.294699 212.99022 
L 131.357662 204.422262 
L 131.697661 202.682307 
L 131.697661 195.327045 
L 132.302105 210.156203 
L 132.302105 209.167593 
L 132.302105 199.676931 
L 132.805808 204.949521 
L 133.05766 203.235929 
L 133.561363 202.115504 
L 133.813214 200.46782 
L 136.835433 200.138283 
L 139.102096 199.281487 
L 139.102096 200.270097 
L 139.253207 197.69971 
L 140.613206 188.868122 
L 140.613206 199.479209 
L 140.990983 198.490598 
L 140.990983 185.737522 
L 141.36876 185.045495 
L 141.36876 197.172451 
L 141.36876 179.113831 
L 141.36876 183.859162 
L 141.973204 193.903445 
L 142.124315 192.558935 
L 142.502092 191.570324 
L 142.502092 189.197659 
L 142.502092 190.383992 
L 151.757636 187.665313 
L 151.946525 185.309124 
L 151.946525 186.495457 
L 151.946525 173.973056 
L 151.946525 179.90472 
L 161.01318 176.872981 
L 161.01318 167.382319 
L 161.01318 170.941317 
L 161.202069 165.965311 
L 161.768735 162.702896 
L 162.6754 164.16604 
L 162.6754 161.872463 
L 162.902067 177.334332 
L 162.902067 173.973056 
L 163.279844 154.200845 
L 163.279844 176.477536 
L 163.279844 168.041393 
L 163.468733 172.984446 
L 164.035399 148.269182 
L 164.035399 149.455514 
L 164.224287 150.839569 
L 164.790953 145.896516 
L 164.790953 176.345722 
L 165.16873 170.414058 
L 165.16873 169.227726 
L 165.16873 173.182168 
L 165.546508 156.57351 
L 165.546508 160.132508 
L 165.546508 167.975486 
L 165.546508 141.678444 
L 165.546508 155.387178 
L 165.697619 140.123031 
L 166.302062 162.505174 
L 166.302062 148.269182 
L 166.302062 164.877839 
L 166.302062 149.455514 
L 166.490951 138.481937 
L 166.67984 161.121119 
L 167.057617 155.387178 
L 167.057617 160.132508 
L 167.057617 145.896516 
L 167.057617 157.759843 
L 167.246506 137.196743 
L 167.435394 154.003123 
L 167.813172 148.269182 
L 167.813172 149.455514 
L 167.813172 151.037291 
L 167.813172 140.360297 
L 167.813172 142.732962 
L 168.568726 139.173964 
L 169.324281 136.801299 
L 169.324281 146.983988 
L 170.079835 142.601148 
L 170.079835 141.678444 
L 170.268724 140.261436 
L 171.024279 139.075103 
L 171.402056 147.18171 
L 171.590945 137.592187 
L 171.742056 145.501072 
L 172.346499 141.052324 
L 172.346499 143.655666 
L 172.598351 147.610108 
L 173.102054 139.223395 
L 173.857608 135.219522 
L 173.857608 146.423775 
L 174.008719 144.868361 
L 174.235386 147.577154 
L 174.613163 143.128407 
L 174.613163 131.660524 
L 174.613163 134.033189 
L 175.368718 129.287859 
L 175.368718 146.489683 
L 175.746495 145.402211 
L 175.746495 144.314739 
L 176.124272 143.128407 
L 176.124272 135.219522 
L 176.50205 139.964853 
L 176.879827 131.660524 
L 176.879827 134.033189 
L 177.257604 138.580798 
L 177.635381 129.287859 
L 177.635381 130.474191 
L 177.635381 137.592187 
L 178.390936 131.660524 
L 178.390936 134.033189 
L 179.146491 130.671913 
L 179.146491 129.683303 
L 180.090934 127.854373 
L 182.924264 109.120203 
L 182.924264 111.690591 
L 184.435373 114.260978 
L 184.435373 108.263407 
L 184.586484 104.849405 
L 185.190928 116.633643 
L 185.190928 109.515647 
L 185.190928 118.21542 
L 185.946482 114.260978 
L 185.946482 103.583984 
L 186.702037 105.956649 
L 186.702037 104.770317 
L 186.702037 111.690591 
L 188.402035 103.485123 
L 188.968701 106.220279 
L 188.968701 108.263407 
L 189.157589 104.770317 
L 190.102033 102.793095 
L 190.102033 99.234097 
L 190.47981 97.981857 
L 190.47981 96.861432 
L 191.235364 89.743436 
L 191.235364 93.697878 
L 191.80203 85.492411 
L 191.990919 88.557103 
L 191.990919 96.861432 
L 192.14203 83.96995 
L 192.746474 93.697878 
L 192.746474 80.12096 
L 192.746474 81.307292 
L 192.935362 78.769859 
L 193.124251 90.830908 
L 193.502028 88.557103 
L 193.502028 76.825591 
L 193.653139 75.270177 
L 193.690917 89.545714 
L 195.013137 79.363025 
L 195.013137 80.780034 
L 195.013137 83.020884 
L 195.202026 71.651863 
L 195.768692 85.393549 
L 195.768692 84.207217 
L 195.768692 76.825591 
L 195.919803 75.270177 
L 196.524247 73.530223 
L 196.524247 82.823162 
L 196.524247 81.834551 
L 197.279801 71.157557 
L 197.279801 72.34389 
L 197.531653 77.286943 
L 197.657579 74.716555 
L 197.657579 75.902888 
L 198.413133 73.332501 
L 198.790911 71.157557 
L 198.790911 72.34389 
L 201.057574 52.967123 
L 201.057574 49.408125 
L 201.057574 51.78079 
L 201.813129 46.046849 
L 201.813129 41.894685 
L 202.568684 40.115185 
L 202.568684 36.75391 
L 202.568684 39.126575 
L 202.946461 33.590356 
L 203.324238 30.822246 
L 203.324238 32.008579 
L 203.324238 28.449581 
L 203.324238 29.635913 
L 204.079793 26.076915 
L 204.079793 27.065526 
L 204.079793 24.890583 
L 204.45757 23.308806 
L 205.590902 17.377142 
L 205.590902 18.563475 
L 206.346457 15.399921 
L 206.346457 16.388532 
L 213.902003 16.19081 
L 214.657557 17.377142 
L 215.413112 19.354364 
L 216.168667 22.517917 
L 216.168667 24.099694 
L 216.924221 26.47236 
L 217.679776 31.21769 
L 217.679776 32.404023 
L 218.43533 37.74252 
L 219.190885 46.442293 
L 219.190885 43.081017 
L 219.190885 44.26735 
L 219.94644 52.176234 
L 219.94644 56.921565 
L 220.198291 61.535081 
L 220.324217 60.085119 
L 220.701994 64.83045 
L 220.701994 63.644117 
L 220.701994 62.457784 
L 221.079771 66.016782 
L 221.079771 73.826806 
L 221.7094 78.934627 
L 221.835326 83.416328 
L 221.835326 75.112 
L 221.835326 77.484665 
L 222.213103 85.920808 
L 222.213103 142.732962 
L 222.590881 87.173049 
L 222.590881 92.90699 
L 222.779769 154.794011 
L 222.779769 99.827264 
L 222.968658 98.443209 
L 222.968658 96.070544 
L 222.968658 153.409957 
L 222.968658 97.256876 
L 223.346435 104.374872 
L 223.346435 111.394007 
L 223.346435 100.815874 
L 223.724213 114.260978 
L 223.724213 166.064172 
L 223.724213 105.824835 
L 223.724213 156.968955 
L 224.227916 112.679201 
L 224.328656 167.56686 
L 224.479767 174.302593 
L 224.479767 171.995835 
L 224.479767 140.360297 
L 224.479767 170.809503 
L 225.235322 175.554833 
L 225.235322 136.999021 
L 225.235322 177.927499 
L 225.235322 152.223624 
L 225.739025 136.142225 
L 225.990876 141.54663 
L 225.990876 140.360297 
L 225.990876 134.428634 
L 225.990876 179.047924 
L 225.990876 162.505174 
L 226.368654 142.930685 
L 226.746431 148.664626 
L 226.746431 174.368501 
L 226.746431 144.314739 
L 226.746431 171.995835 
L 227.124208 154.991733 
L 227.501986 177.927499 
L 227.501986 156.57351 
L 227.501986 164.877839 
L 227.653097 179.588364 
L 227.879763 166.261894 
L 228.25754 173.182168 
L 228.25754 171.995835 
L 228.25754 167.448227 
L 228.635318 174.368501 
L 229.264946 179.443368 
L 229.768649 175.818463 
L 229.768649 178.191128 
L 231.657536 175.851416 
L 232.035313 177.532054 
L 233.735311 179.113831 
L 234.301977 178.322943 
L 234.453088 176.899344 
L 235.813086 179.838812 
L 236.568641 176.345722 
L 236.568641 178.718387 
L 237.324196 185.836383 
L 237.324196 186.956808 
L 237.324196 183.463718 
L 237.324196 184.65005 
L 238.07975 188.209049 
L 238.07975 191.702139 
L 238.457528 176.938888 
L 238.457528 194.041851 
L 238.835305 178.059313 
L 239.024193 193.05324 
L 239.401971 198.787182 
L 239.590859 185.177309 
L 239.590859 187.549975 
L 239.74197 183.621896 
L 239.779748 197.205405 
L 240.346414 188.999937 
L 240.346414 190.18627 
L 240.346414 191.372602 
L 240.346414 179.90472 
L 240.535303 199.627501 
L 241.857523 183.068274 
L 241.857523 184.254606 
L 241.857523 197.69971 
L 242.613078 200.072375 
L 242.613078 190.449899 
L 242.801967 198.787182 
L 242.801967 189.098798 
L 243.557521 192.855518 
L 244.124187 199.281487 
L 244.124187 184.122792 
L 244.124187 185.309124 
L 244.313076 182.77169 
L 244.501964 198.095154 
L 244.501964 179.509276 
L 244.879742 191.504417 
L 244.879742 181.091052 
L 245.257519 193.349823 
L 245.635296 184.65005 
L 245.635296 182.277385 
L 245.635296 183.463718 
L 246.390851 188.209049 
L 247.146406 190.977158 
L 247.146406 192.163491 
L 247.90196 193.844129 
L 247.90196 197.567895 
L 248.090849 198.886043 
L 248.468626 207.388094 
L 248.657515 202.445041 
L 248.657515 204.817706 
L 248.657515 206.004039 
L 249.035292 221.228641 
L 249.413069 219.053698 
L 249.413069 191.636232 
L 249.413069 213.122035 
L 250.168624 238.760002 
L 250.168624 195.590674 
L 250.168624 226.962583 
L 250.357513 194.239573 
L 250.924179 242.516722 
L 250.924179 241.33039 
L 250.924179 202.445041 
L 250.924179 248.184756 
L 250.924179 206.004039 
L 251.075289 246.734794 
L 251.113067 239.913381 
L 251.301956 191.372602 
L 251.301956 192.558935 
L 251.679733 196.117933 
L 251.679733 193.745268 
L 251.679733 221.294549 
L 251.679733 217.867366 
L 251.868622 244.757573 
L 251.931585 198.886043 
L 252.435288 207.190371 
L 252.435288 206.004039 
L 252.435288 202.445041 
L 252.435288 238.035021 
L 252.435288 233.28969 
L 252.586399 224.43174 
L 253.190842 248.84383 
L 253.190842 247.789312 
L 253.190842 220.240031 
L 253.190842 241.857649 
L 253.379731 239.320215 
L 253.379731 246.438211 
L 253.379731 222.711557 
L 253.946397 229.335248 
L 253.946397 228.148915 
L 253.946397 245.548461 
L 253.946397 210.749369 
L 254.135286 244.263268 
L 254.701952 248.316571 
L 254.701952 208.376704 
L 254.701952 231.707914 
L 254.853063 227.278938 
L 255.205655 247.196146 
L 255.457506 245.548461 
L 255.457506 204.422262 
L 255.457506 238.82591 
L 255.608617 202.840485 
L 256.213061 237.639577 
L 256.213061 231.707914 
L 256.213061 210.749369 
L 256.213061 216.681033 
L 256.401949 201.060986 
L 256.590838 230.323859 
L 256.590838 225.77625 
L 256.968615 208.376704 
L 256.968615 223.403585 
L 257.72417 216.681033 
L 257.72417 218.855976 
L 257.72417 204.554077 
L 257.72417 205.608595 
L 257.875281 202.998663 
L 258.479725 200.20419 
L 258.479725 213.122035 
L 258.668613 210.650508 
L 259.235279 207.09151 
L 259.235279 209.563037 
L 259.235279 202.840485 
L 259.990834 204.554077 
L 259.990834 205.740409 
L 260.368611 201.654152 
L 260.746388 215.4947 
L 260.746388 213.122035 
L 260.746388 200.863264 
L 260.746388 211.935702 
L 261.313054 220.042309 
L 261.501943 208.640334 
L 261.501943 209.826666 
L 261.501943 218.658254 
L 261.690832 207.289232 
L 262.257498 205.114289 
L 262.257498 223.337677 
L 263.013052 207.98126 
L 263.013052 224.062658 
L 263.013052 213.912923 
L 263.39083 209.167593 
L 263.39083 210.353925 
L 263.768607 220.371846 
L 263.919718 218.816432 
L 264.524162 215.296978 
L 264.524162 213.122035 
L 264.524162 223.205863 
L 265.279716 218.26281 
L 265.279716 219.449142 
L 266.035271 220.76729 
L 266.035271 224.273562 
L 266.790825 223.008141 
L 266.790825 221.953623 
L 266.790825 225.512621 
L 267.54638 226.501231 
L 268.301935 220.76729 
L 268.490823 224.095612 
L 268.490823 219.350281 
L 268.679712 225.479667 
L 269.057489 217.99918 
L 269.057489 223.008141 
L 269.813044 224.194473 
L 270.568598 217.076477 
L 270.568598 220.635475 
L 271.072301 222.01953 
L 271.324153 218.26281 
L 271.324153 223.008141 
L 272.457485 217.076477 
L 272.835262 226.567139 
L 272.835262 218.26281 
L 272.835262 219.745726 
L 273.21304 223.008141 
L 273.590817 228.050054 
L 273.590817 232.498802 
L 274.346371 233.685135 
L 274.346371 239.550891 
L 274.346371 224.985362 
L 274.724149 226.369416 
L 275.101926 246.273443 
L 275.668592 250.194931 
L 275.857481 227.951193 
L 275.857481 248.84383 
L 276.046369 247.426822 
L 276.613035 237.244133 
L 276.613035 233.685135 
L 276.613035 236.0578 
L 276.801924 250.886959 
L 277.36859 242.253093 
L 277.36859 245.812091 
L 277.36859 227.753471 
L 277.557479 244.46099 
L 278.124144 232.894246 
L 278.124144 249.502904 
L 278.124144 248.316571 
L 278.275255 231.312469 
L 278.313033 246.833655 
L 278.375996 243.043981 
L 278.879699 237.375947 
L 278.879699 238.56228 
L 278.879699 239.748613 
L 279.068588 229.730692 
L 279.383402 250.030163 
L 279.635254 244.757573 
L 279.635254 241.198575 
L 280.390808 226.270555 
L 280.390808 248.316571 
L 281.146363 238.82591 
L 281.146363 224.491056 
L 281.146363 244.757573 
L 281.146363 234.476023 
L 281.52414 241.198575 
L 281.901918 243.373518 
L 281.901918 219.580957 
L 281.901918 223.139955 
L 282.053028 218.025543 
L 282.279695 232.894246 
L 282.506361 226.092605 
L 282.657472 230.521581 
L 283.413027 224.589917 
L 283.413027 234.476023 
L 283.790804 221.030919 
L 284.168581 223.403585 
L 284.168581 226.962583 
L 284.168581 217.471921 
L 284.35747 228.346638 
L 284.35747 220.042309 
L 284.924136 225.77625 
L 284.924136 232.894246 
L 285.490802 239.023632 
L 285.679691 237.639577 
L 285.679691 224.589917 
L 285.679691 234.080579 
L 286.057468 218.26281 
L 286.057468 219.449142 
L 286.435245 228.54436 
L 286.435245 220.371846 
L 286.435245 240.012242 
L 286.624134 241.396297 
L 287.1908 231.707914 
L 287.1908 232.894246 
L 287.379688 225.875111 
L 287.946354 235.266912 
L 287.946354 238.82591 
L 288.135243 224.392195 
L 288.701909 242.187186 
L 288.701909 241.198575 
L 288.701909 227.852332 
L 288.701909 240.012242 
L 289.457464 226.072833 
L 289.457464 238.82591 
L 289.457464 237.639577 
L 290.213018 236.749827 
L 290.213018 220.734336 
L 290.590796 241.198575 
L 290.968573 218.954837 
L 290.968573 228.610267 
L 291.724127 235.662356 
L 291.724127 217.867366 
L 291.724127 236.848688 
L 291.724127 234.476023 
L 291.875238 225.538984 
L 292.101905 233.190829 
L 292.101905 220.240031 
L 292.479682 223.667214 
L 292.479682 221.426364 
L 292.479682 228.54436 
L 293.235237 227.094398 
L 293.990791 226.468278 
L 294.141902 224.985362 
L 294.746346 233.948764 
L 294.746346 232.762431 
L 294.746346 222.217252 
L 294.746346 223.403585 
L 294.935235 230.224998 
L 295.313012 237.837299 
L 295.690789 235.168051 
L 296.257455 223.008141 
L 296.257455 239.155446 
L 296.257455 226.567139 
L 297.01301 229.730692 
L 297.01301 233.28969 
L 297.768564 235.925985 
L 297.768564 239.76509 
L 297.768564 225.380806 
L 297.957453 234.574884 
L 298.524119 226.567139 
L 299.279674 235.266912 
L 299.279674 229.335248 
L 299.279674 239.81452 
L 300.035228 239.023632 
L 300.035228 237.903206 
L 300.186339 234.159668 
L 301.546337 228.148915 
L 301.546337 232.366987 
L 303.057447 235.596448 
L 303.435224 240.308825 
L 304.00189 239.320215 
L 304.568556 243.307611 
L 304.568556 244.230314 
L 304.719667 241.752197 
L 305.32411 236.0578 
L 306.079665 238.82591 
L 306.079665 240.012242 
L 306.268554 247.476252 
L 306.83522 245.943906 
L 306.83522 241.198575 
L 306.83522 242.384908 
L 307.212997 236.0578 
L 308.346329 240.275872 
L 308.346329 247.426822 
L 308.535217 238.924771 
L 309.101883 245.153017 
L 309.101883 242.780352 
L 309.101883 246.141628 
L 309.290772 241.297436 
L 309.857438 247.32796 
L 310.612993 238.133882 
L 310.612993 239.484983 
L 311.368547 246.141628 
L 311.368547 243.83487 
L 311.519658 241.000853 
L 312.879656 249.041552 
L 312.879656 238.166836 
L 312.879656 239.353169 
L 313.030767 247.68386 
L 313.635211 240.473594 
L 313.635211 245.943906 
L 314.390766 239.221354 
L 314.995209 248.712015 
L 315.335209 247.229099 
L 315.901875 240.70427 
L 315.901875 246.33935 
L 316.052986 243.729418 
L 316.846318 241.890602 
L 317.261873 247.960671 
L 318.168539 245.153017 
L 318.168539 246.33935 
L 318.31965 240.012242 
L 318.31965 243.57124 
L 318.924093 241.857649 
L 319.679648 244.362129 
L 319.679648 245.548461 
L 319.830759 247.248872 
L 320.435203 239.616798 
L 320.435203 240.803131 
L 320.435203 243.373518 
L 321.190757 250.227885 
L 321.190757 249.10746 
L 321.379646 241.890602 
L 321.795201 251.79648 
L 321.946312 246.734794 
L 321.946312 247.921127 
L 322.324089 240.209964 
L 322.701866 243.225227 
L 323.079644 241.791741 
L 323.457421 250.821051 
L 323.608532 249.265637 
L 324.212976 247.657497 
L 324.212976 246.471165 
L 324.401864 251.925 
L 325.724085 250.689236 
L 325.875196 249.10746 
L 326.479639 247.723405 
L 326.63075 246.33935 
L 326.63075 252.112836 
L 327.990749 249.10746 
L 328.179637 250.491514 
L 328.494452 251.61194 
L 328.746303 247.921127 
L 328.746303 245.548461 
L 328.746303 246.734794 
L 330.257412 250.623329 
L 330.257412 254.973216 
L 330.408523 249.10746 
L 330.63519 246.141628 
L 331.012967 256.159548 
L 331.012967 247.262053 
L 332.146299 248.316571 
L 332.146299 249.502904 
L 332.524076 250.557422 
L 332.524076 256.818622 
L 332.675187 253.85279 
L 334.412963 256.818622 
L 334.79074 253.457346 
L 334.79074 255.830011 
L 336.301849 252.271013 
L 337.057404 254.775493 
L 337.057404 255.895919 
L 337.246293 253.358485 
L 337.96407 251.084681 
L 338.001847 257.214066 
L 338.190736 259.883315 
L 338.757402 258.795843 
L 339.324068 254.643679 
L 339.324068 255.830011 
L 339.475179 253.061902 
L 339.475179 261.208053 
L 339.701845 251.282403 
L 340.268511 257.214066 
L 340.835177 253.061902 
L 340.835177 259.916268 
L 340.835177 258.729936 
L 341.212954 254.643679 
L 341.212954 255.830011 
L 341.590732 261.036694 
L 341.968509 257.411788 
L 343.101841 258.729936 
L 343.101841 259.916268 
L 344.008506 261.326686 
L 345.368505 259.784454 
L 345.368505 258.598121 
L 346.124059 260.970786 
L 346.879614 261.662814 
L 347.635169 259.12538 
L 348.579612 260.179898 
L 349.335166 261.366231 
L 350.657387 260.311713 
L 350.808498 258.756299 
L 351.412942 261.62986 
L 352.924051 257.939047 
L 352.924051 260.311713 
L 353.868494 261.168508 
L 354.812937 258.400399 
L 355.190715 259.520824 
L 356.09738 260.852153 
L 366.675145 260.852153 
L 368.538846 261.366231 
L 369.042549 259.916268 
L 370.868473 261.217939 
L 371.057361 259.916268 
L 372.568471 260.773064 
L 372.568471 260.773064 
" clip-path="url(#p1d3ba1b4b1)" style="fill: none; stroke: #00ff90; stroke-width: 2.5; stroke-linecap: square"/>
   </g>
   <g id="line2d_22">
    <path d="M 46.735545 213.912923 
L 47.075545 210.986636 
L 47.679989 215.099256 
L 47.679989 216.219681 
L 48.435543 217.471921 
L 48.435543 218.592347 
L 49.191098 222.151345 
L 49.191098 210.353925 
L 49.946653 231.839728 
L 49.946653 216.417403 
L 49.946653 229.467063 
L 50.135541 223.304724 
L 50.135541 215.000395 
L 50.702207 217.603736 
L 50.702207 236.585059 
L 50.702207 210.749369 
L 50.891096 237.88673 
L 51.079984 212.331146 
L 51.079984 213.517479 
L 51.457762 221.821808 
L 51.608873 220.240031 
L 51.961465 215.231071 
L 52.213316 231.971543 
L 52.213316 224.853547 
L 52.213316 223.502446 
L 52.213316 227.226212 
L 52.591094 238.331604 
L 52.968871 235.266912 
L 52.968871 237.639577 
L 53.119982 218.26281 
L 53.119982 233.685135 
L 53.913314 220.042309 
L 54.47998 214.703812 
L 54.47998 232.498802 
L 54.631091 213.122035 
L 54.668869 223.996751 
L 54.857758 238.331604 
L 55.235535 235.003282 
L 55.235535 205.114289 
L 55.235535 236.189615 
L 55.235535 208.903963 
L 55.424423 237.540716 
L 55.991089 221.558178 
L 55.991089 222.744511 
L 56.1422 203.394107 
L 56.1422 220.002764 
L 56.746644 236.0578 
L 56.746644 200.46782 
L 56.746644 237.046411 
L 56.746644 213.517479 
L 57.250347 233.948764 
L 57.502199 206.531298 
L 57.502199 207.71763 
L 57.502199 223.008141 
L 57.502199 220.635475 
L 57.691087 218.163949 
L 57.691087 199.182626 
L 57.879976 219.646865 
L 58.257753 216.285589 
L 58.257753 196.80996 
L 58.257753 204.026818 
L 58.635531 212.430007 
L 59.164419 201.021441 
L 59.768862 211.078906 
L 59.768862 209.958481 
L 59.768862 195.722489 
L 59.768862 206.399483 
L 60.524417 198.226969 
L 60.524417 204.158632 
L 60.713306 196.80996 
L 60.713306 202.741624 
L 61.279972 201.851874 
L 61.431083 200.309642 
L 62.035526 211.672073 
L 62.035526 196.117933 
L 62.035526 206.926742 
L 62.224415 205.509733 
L 62.413304 197.501988 
L 62.413304 198.688321 
L 62.791081 212.884768 
L 62.791081 200.072375 
L 62.791081 204.619984 
L 62.942192 203.077751 
L 63.546636 201.654152 
L 63.546636 213.978831 
L 64.30219 206.1029 
L 64.30219 211.012999 
L 65.057745 212.62773 
L 65.057745 203.137068 
L 65.813299 213.912923 
L 65.96441 201.416886 
L 66.568854 205.608595 
L 66.568854 210.353925 
L 66.757743 211.73798 
L 67.324409 203.235929 
L 67.324409 204.422262 
L 67.324409 212.726591 
L 68.079963 200.863264 
L 68.079963 202.049596 
L 68.835518 211.672073 
L 68.835518 210.48574 
L 68.835518 206.926742 
L 68.835518 208.113075 
L 69.024406 205.509733 
L 69.024406 213.814062 
L 69.402184 221.525225 
L 69.591072 204.817706 
L 69.591072 220.240031 
L 69.742183 203.235929 
L 69.779961 215.296978 
L 69.842924 212.858405 
L 69.96885 201.45643 
L 70.346627 228.807989 
L 70.346627 224.062658 
L 70.535516 222.612696 
L 71.102182 232.498802 
L 71.102182 236.0578 
L 71.102182 202.840485 
L 71.102182 230.126137 
L 71.479959 204.026818 
L 71.668848 243.373518 
L 71.857736 237.244133 
L 71.857736 241.989463 
L 71.857736 212.331146 
L 71.857736 219.449142 
L 72.613291 209.958481 
L 72.613291 206.399483 
L 72.613291 229.203433 
L 72.613291 228.017101 
L 72.764402 244.559851 
L 72.802179 221.920669 
L 73.368845 236.453244 
L 73.368845 234.080579 
L 73.368845 231.707914 
L 73.368845 232.894246 
L 73.557734 230.224998 
L 74.1244 243.307611 
L 74.1244 240.934945 
L 74.1244 216.021959 
L 74.1244 219.580957 
L 74.275511 238.193199 
L 74.275511 214.466545 
L 74.879955 227.094398 
L 74.879955 225.908065 
L 74.879955 228.28073 
L 74.879955 223.535399 
L 75.068843 222.118391 
L 75.068843 212.62773 
L 75.068843 244.559851 
L 75.635509 233.157876 
L 75.635509 236.716874 
L 75.635509 208.244889 
L 75.635509 234.344208 
L 75.78662 206.63675 
L 75.824398 229.335248 
L 76.013287 242.780352 
L 76.013287 241.594019 
L 76.391064 220.50366 
L 76.391064 243.768962 
L 76.391064 215.75833 
L 76.391064 219.317328 
L 76.579953 214.407229 
L 76.579953 204.916567 
L 76.768841 227.753471 
L 76.768841 226.567139 
L 77.146618 230.521581 
L 77.146618 234.476023 
L 77.146618 200.46782 
L 77.146618 224.194473 
L 77.297729 198.886043 
L 77.335507 221.525225 
L 77.335507 212.924313 
L 77.902173 218.26281 
L 77.902173 219.449142 
L 77.902173 193.844129 
L 78.27995 217.175338 
L 78.405876 214.571997 
L 78.657728 190.18627 
L 78.657728 192.558935 
L 78.808839 205.21315 
L 78.808839 188.604493 
L 79.035505 212.331146 
L 79.413282 207.190371 
L 79.413282 210.749369 
L 79.413282 184.65005 
L 79.413282 200.072375 
L 79.564393 198.490598 
L 79.564393 183.068274 
L 80.168837 181.486497 
L 80.168837 205.608595 
L 80.319948 194.140712 
L 80.319948 179.90472 
L 80.924392 178.322943 
L 80.924392 203.631373 
L 80.924392 199.676931 
L 81.075502 176.741166 
L 81.075502 188.604493 
L 81.302169 198.095154 
L 81.679946 195.327045 
L 81.679946 184.518236 
L 81.679946 196.513377 
L 81.679946 185.704568 
L 81.831057 182.910096 
L 81.831057 174.605767 
L 82.435501 192.756657 
L 82.435501 190.581714 
L 82.435501 181.354682 
L 82.624389 180.003581 
L 83.191055 178.718387 
L 83.191055 188.011326 
L 83.191055 176.444583 
L 83.191055 177.795684 
L 83.442907 189.659011 
L 83.94661 173.841242 
L 83.94661 175.027574 
L 83.94661 186.890901 
L 83.94661 185.704568 
L 84.097721 182.910096 
L 84.702165 181.222867 
L 84.891053 179.805859 
L 85.268831 194.437295 
L 85.457719 193.086194 
L 85.457719 176.246861 
L 85.457719 188.110187 
L 85.835496 174.763945 
L 86.213274 186.627272 
L 86.364385 195.722489 
L 86.364385 182.672829 
L 86.968828 180.201303 
L 86.968828 181.486497 
L 86.968828 178.322943 
L 87.119939 197.857888 
L 87.724383 186.627272 
L 87.724383 183.068274 
L 87.724383 202.115504 
L 87.724383 189.131752 
L 87.913272 187.714743 
L 87.913272 199.57807 
L 88.479938 195.063415 
L 88.479938 204.488169 
L 89.046604 208.96987 
L 89.235492 190.18627 
L 89.235492 192.558935 
L 89.235492 207.71763 
L 89.386603 206.162216 
L 89.386603 197.857888 
L 89.991047 216.351496 
L 89.991047 215.231071 
L 89.991047 200.995079 
L 90.179935 199.57807 
L 90.179935 210.255064 
L 90.746601 195.327045 
L 90.746601 196.513377 
L 90.746601 204.817706 
L 90.93549 203.433651 
L 90.93549 217.620213 
L 91.502156 207.585816 
L 91.502156 198.095154 
L 91.691045 206.201761 
L 92.257711 200.863264 
L 92.257711 216.285589 
L 92.446599 199.479209 
L 92.446599 210.156203 
L 93.013265 203.367744 
L 93.013265 204.554077 
L 93.013265 217.590555 
L 93.76882 195.722489 
L 93.76882 193.349823 
L 93.76882 208.508519 
L 93.919931 191.768047 
L 93.919931 206.004039 
L 94.146597 215.692422 
L 94.524374 202.313226 
L 94.524374 216.878755 
L 94.524374 183.167135 
L 94.713263 209.760759 
L 95.279929 179.509276 
L 95.279929 180.695608 
L 95.43104 204.026818 
L 95.43104 177.927499 
L 96.035484 198.754228 
L 96.035484 210.749369 
L 96.035484 192.822565 
L 96.035484 196.381563 
L 96.186595 191.214425 
L 96.224372 205.608595 
L 96.413261 209.365315 
L 96.413261 201.258708 
L 96.791038 199.808746 
L 96.791038 176.345722 
L 96.791038 203.631373 
L 96.791038 188.340863 
L 97.546593 177.532054 
L 97.546593 178.718387 
L 97.546593 182.277385 
L 98.302148 198.490598 
L 98.302148 196.117933 
L 98.302148 192.69075 
L 98.302148 197.304266 
L 98.302148 193.877082 
L 98.453258 191.135336 
L 99.057702 176.345722 
L 99.057702 189.527196 
L 99.813257 199.825223 
L 99.813257 178.850202 
L 99.813257 182.4092 
L 100.002145 177.433193 
L 100.379923 204.323401 
L 100.568811 202.9723 
L 100.568811 190.878297 
L 100.568811 195.854304 
L 101.324366 185.309124 
L 101.324366 186.495457 
L 101.324366 207.058557 
L 101.324366 182.672829 
L 101.475477 205.766772 
L 101.513255 183.958023 
L 101.702143 180.695608 
L 101.702143 177.13661 
L 101.702143 179.509276 
L 102.079921 200.599634 
L 102.268809 199.182626 
L 102.835475 204.158632 
L 102.835475 190.878297 
L 102.835475 207.783538 
L 102.835475 194.667971 
L 103.59103 207.322186 
L 103.59103 185.836383 
L 103.59103 188.209049 
L 103.742141 205.766772 
L 103.742141 184.254606 
L 104.346584 200.599634 
L 104.535473 182.475107 
L 104.535473 199.182626 
L 104.598436 189.593103 
L 105.102139 198.095154 
L 105.102139 207.190371 
L 105.102139 191.108973 
L 105.102139 195.854304 
L 105.291028 180.89333 
L 105.605842 205.740409 
L 105.857694 185.836383 
L 105.857694 188.209049 
L 106.008805 184.254606 
L 106.235471 200.863264 
L 106.613248 199.281487 
L 106.613248 204.619984 
L 106.802137 182.672829 
L 107.368803 203.532512 
L 107.368803 202.445041 
L 107.368803 179.90472 
L 107.368803 194.140712 
L 108.124357 185.968198 
L 108.124357 187.154531 
L 108.124357 188.340863 
L 108.313246 184.551189 
L 108.879912 201.522338 
L 108.879912 183.66144 
L 109.031023 198.727865 
L 109.031023 182.119207 
L 109.068801 189.395381 
L 109.484356 204.501351 
L 109.635467 193.613453 
L 109.824355 192.262352 
L 109.824355 180.399025 
L 109.824355 202.939346 
L 110.391021 185.144356 
L 110.391021 187.68179 
L 111.146576 200.20419 
L 111.146576 205.015428 
L 111.146576 178.619526 
L 111.146576 190.713529 
L 111.90213 197.436081 
L 111.90213 170.150429 
L 111.90213 204.488169 
L 111.90213 176.082092 
L 112.053241 180.458342 
L 112.053241 202.998663 
L 112.053241 168.595015 
L 112.657685 188.472678 
L 112.657685 186.100013 
L 112.657685 162.373359 
L 112.657685 165.932357 
L 112.846574 184.748912 
L 112.846574 161.022258 
L 113.035462 201.654152 
L 113.41324 189.659011 
L 113.41324 203.631373 
L 113.41324 153.904262 
L 113.41324 157.628028 
L 113.791017 197.501988 
L 113.791017 193.94299 
L 113.916943 192.42712 
L 114.168794 171.336762 
L 114.168794 150.93843 
L 114.168794 174.89576 
L 114.546572 188.604493 
L 114.546572 187.41816 
L 114.672497 184.781865 
L 114.924349 181.881941 
L 114.924349 162.636989 
L 114.924349 189.988548 
L 115.07546 161.081575 
L 115.302126 178.224082 
L 115.679904 175.950277 
L 115.679904 177.13661 
L 115.679904 154.859919 
L 115.868792 153.508818 
L 115.868792 149.94982 
L 116.057681 168.436837 
L 116.435458 151.300921 
L 117.191013 167.448227 
L 117.191013 162.768803 
L 117.191013 163.955136 
L 117.342124 161.160663 
L 117.946567 159.473435 
L 117.946567 149.982773 
L 117.946567 154.728104 
L 118.135456 153.311095 
L 118.702122 151.300921 
L 118.702122 168.832281 
L 119.079899 172.687863 
L 119.457677 167.11869 
L 119.457677 171.86402 
L 119.457677 162.373359 
L 119.457677 164.746024 
L 119.646565 170.512919 
L 119.646565 161.022258 
L 119.835454 154.200845 
L 120.213231 160.132508 
L 120.213231 155.518992 
L 120.213231 156.705325 
L 120.364342 174.131234 
L 121.157674 168.931142 
L 121.157674 175.900847 
L 121.72434 168.041393 
L 121.72434 172.918538 
L 121.72434 162.010868 
L 121.72434 165.800542 
L 121.913229 170.315197 
L 122.479895 159.34162 
L 122.479895 160.527953 
L 122.668784 174.467362 
L 123.23545 175.752555 
L 123.991004 169.491355 
L 123.991004 173.050353 
L 123.991004 162.208591 
L 123.991004 167.11869 
L 124.746559 158.550732 
L 124.746559 159.737064 
L 124.746559 175.159389 
L 124.89767 156.968955 
L 125.250262 173.709427 
L 125.502113 171.995835 
L 125.502113 154.892872 
L 125.879891 167.645949 
L 125.879891 168.73342 
L 126.257668 162.604035 
L 126.446557 164.086951 
L 127.013223 161.187026 
L 127.013223 154.06903 
L 127.164334 152.46089 
L 127.164334 156.019888 
L 127.768777 162.505174 
L 129.090998 159.242759 
L 129.279886 151.959994 
L 129.279886 155.518992 
L 129.279886 157.891658 
L 130.035441 160.290686 
L 130.790996 166.459616 
L 130.790996 152.223624 
L 130.790996 167.580041 
L 130.790996 164.086951 
L 131.54655 153.541771 
L 131.54655 154.728104 
L 131.54655 173.709427 
L 131.54655 172.523094 
L 131.735439 168.73342 
L 132.302105 184.518236 
L 132.302105 182.14557 
L 132.302105 160.791582 
L 132.302105 178.586572 
L 132.490994 174.763945 
L 132.490994 159.34162 
L 133.05766 189.395381 
L 133.05766 154.991733 
L 133.05766 190.515807 
L 133.05766 187.022716 
L 133.813214 196.645192 
L 133.813214 195.458859 
L 133.813214 158.550732 
L 133.813214 198.95195 
L 134.002103 167.942532 
L 134.002103 191.669186 
L 134.190991 161.121119 
L 134.568769 179.113831 
L 134.568769 185.045495 
L 134.757657 174.170778 
L 135.324323 199.479209 
L 135.324323 162.505174 
L 135.324323 186.363642 
L 136.079878 198.886043 
L 136.079878 197.69971 
L 136.079878 169.227726 
L 136.079878 192.954379 
L 136.230989 191.372602 
L 136.230989 167.645949 
L 136.835433 185.440939 
L 136.835433 183.068274 
L 136.835433 175.950277 
L 136.986544 174.368501 
L 137.590987 198.490598 
L 137.590987 194.9316 
L 137.590987 158.649593 
L 137.590987 165.932357 
L 137.968764 193.94299 
L 138.346542 192.624842 
L 138.346542 155.683761 
L 138.724319 186.231827 
L 139.102096 183.727347 
L 139.102096 190.18627 
L 139.102096 175.554833 
L 139.102096 177.927499 
L 139.253207 173.973056 
L 139.253207 153.805401 
L 139.857651 159.868879 
L 139.857651 166.986875 
L 139.857651 163.427877 
L 140.008762 158.313465 
L 140.235428 171.995835 
L 140.613206 169.62317 
L 140.613206 156.705325 
L 140.802094 155.288317 
L 140.802094 168.337976 
L 141.36876 153.278142 
L 141.36876 154.398567 
L 142.124315 166.591431 
L 142.124315 165.405098 
L 142.124315 159.473435 
L 142.124315 161.8461 
L 142.313204 158.056426 
L 142.690981 178.619526 
L 142.879869 174.89576 
L 142.879869 153.805401 
L 142.879869 177.268425 
L 142.879869 172.523094 
L 143.446535 186.330688 
L 143.635424 183.859162 
L 143.635424 185.045495 
L 143.635424 181.486497 
L 143.635424 182.672829 
L 143.786535 179.90472 
L 144.139127 158.287102 
L 144.390979 196.645192 
L 144.390979 189.527196 
L 144.390979 161.055212 
L 144.54209 187.971782 
L 145.146533 173.445797 
L 145.146533 178.191128 
L 145.146533 169.886799 
L 145.146533 172.259465 
L 145.335422 168.535698 
L 145.902088 183.068274 
L 145.902088 197.501988 
L 146.090977 179.212692 
L 146.657643 196.513377 
L 146.657643 193.218009 
L 146.657643 165.668728 
L 146.657643 194.404341 
L 146.657643 190.845343 
L 147.413197 177.268425 
L 147.413197 168.73342 
L 147.413197 172.523094 
L 147.790974 197.304266 
L 148.168752 185.177309 
L 148.168752 163.823321 
L 148.168752 187.549975 
L 148.168752 186.363642 
L 148.319863 162.267907 
L 148.319863 178.876565 
L 148.546529 196.019072 
L 148.546529 194.9316 
L 148.924306 193.745268 
L 148.924306 158.287102 
L 148.924306 167.777763 
L 149.113195 188.901076 
L 149.113195 156.870094 
L 149.679861 172.786724 
L 149.679861 177.532054 
L 149.679861 154.991733 
L 149.679861 170.414058 
L 149.830972 153.409957 
L 149.86875 169.030004 
L 150.057638 187.121577 
L 150.057638 180.102442 
L 150.435416 178.65248 
L 150.435416 163.691506 
L 150.586526 162.10973 
L 150.586526 151.432735 
L 151.19097 159.209805 
L 151.19097 167.514134 
L 151.19097 160.396138 
L 151.342081 157.601665 
L 151.379859 166.064172 
L 151.946525 174.763945 
L 151.946525 177.13661 
L 151.946525 149.850959 
L 151.946525 170.018614 
L 152.702079 162.900618 
L 152.702079 151.037291 
L 152.702079 164.086951 
L 153.457634 166.591431 
L 153.457634 178.402032 
L 153.457634 158.287102 
L 153.457634 159.473435 
L 153.646523 165.174422 
L 153.646523 156.870094 
L 154.213189 187.022716 
L 154.213189 184.65005 
L 154.213189 150.246403 
L 154.213189 173.973056 
L 154.3643 153.409957 
L 154.402077 179.706998 
L 154.402077 169.030004 
L 154.968743 151.56455 
L 154.968743 163.427877 
L 155.724298 167.777763 
L 155.724298 159.473435 
L 155.875409 165.036017 
L 155.875409 157.918021 
L 156.479852 187.41816 
L 156.479852 182.277385 
L 156.479852 145.501072 
L 156.479852 152.619068 
L 157.235407 143.128407 
L 157.235407 163.296062 
L 157.235407 134.824078 
L 157.235407 140.755741 
L 157.990962 166.986875 
L 157.990962 187.022716 
L 157.990962 130.210562 
L 158.17985 164.383534 
L 158.17985 128.793553 
L 158.368739 184.847773 
L 158.368739 181.288775 
L 158.746516 174.236686 
L 158.746516 175.357111 
L 158.746516 126.783379 
L 158.897627 145.342894 
L 158.897627 125.175239 
L 158.935405 169.227726 
L 159.124294 162.505174 
L 159.502071 167.250504 
L 159.502071 166.064172 
L 159.502071 136.669484 
L 159.502071 141.414815 
L 159.69096 135.268953 
L 159.69096 123.455056 
L 159.879848 157.562121 
L 160.257625 130.869636 
L 160.257625 156.178066 
L 160.257625 151.432735 
L 160.446514 121.97214 
L 160.635403 145.105628 
L 161.01318 142.732962 
L 161.01318 143.919295 
L 161.01318 127.047008 
L 161.01318 136.801299 
L 161.164291 125.491594 
L 161.768735 134.230912 
L 161.957623 123.652778 
L 162.524289 121.642604 
L 162.524289 133.341162 
L 162.524289 131.133265 
L 162.6754 129.525125 
L 163.279844 126.651564 
L 163.279844 127.837897 
L 163.468733 125.234555 
L 164.035399 123.883454 
L 164.413176 122.565307 
L 164.790953 133.110486 
L 164.790953 130.737821 
L 164.790953 129.38672 
L 164.979842 134.379203 
L 165.294656 125.201602 
L 165.546508 127.969711 
L 166.67984 135.0218 
L 167.057617 129.287859 
L 167.057617 130.474191 
L 167.057617 132.846857 
L 167.246506 134.230912 
L 167.813172 126.915193 
L 167.813172 128.101526 
L 168.568726 132.846857 
L 168.568726 133.835467 
L 168.568726 125.99249 
L 168.757615 124.641389 
L 168.946503 131.957107 
L 169.324281 130.869636 
L 169.324281 122.565307 
L 169.475392 120.98353 
L 169.475392 129.287859 
L 170.268724 119.401753 
L 170.268724 127.706082 
L 170.83539 126.387934 
L 170.83539 130.671913 
L 171.024279 117.918837 
L 171.024279 125.036833 
L 171.213167 129.485581 
L 171.590945 122.960751 
L 171.590945 123.949362 
L 171.590945 128.101526 
L 171.779833 116.435921 
L 172.346499 125.728861 
L 172.535388 119.797197 
L 173.102054 118.21542 
L 173.66872 123.257334 
L 173.857608 115.97457 
L 173.857608 117.160902 
L 174.046497 121.675557 
L 174.613163 120.98353 
L 174.613163 124.081176 
L 174.764274 119.401753 
L 175.519829 125.728861 
L 175.746495 116.831366 
L 176.124272 117.951791 
L 176.124272 122.466446 
L 176.313161 126.915193 
L 176.879827 119.500614 
L 176.879827 120.851715 
L 176.879827 124.245945 
L 177.635381 127.50836 
L 178.390936 123.356195 
L 178.390936 126.915193 
L 178.542047 125.333416 
L 178.542047 121.774418 
L 179.146491 117.918837 
L 179.146491 120.192641 
L 179.902045 116.139338 
L 180.405748 126.651564 
L 180.6576 123.092566 
L 180.6576 124.278898 
L 180.6576 125.465231 
L 180.808711 121.497607 
L 181.413155 115.051867 
L 181.413155 119.797197 
L 182.168709 129.419673 
L 182.357598 116.139338 
L 182.357598 128.002665 
L 182.735375 132.055968 
L 182.924264 124.806157 
L 182.924264 122.433492 
L 183.075375 120.825352 
L 183.113152 130.474191 
L 183.49093 136.999021 
L 183.679818 119.006309 
L 183.679818 135.614966 
L 183.679818 115.447311 
L 183.679818 117.819976 
L 184.057596 116.633643 
L 184.624262 128.595831 
L 184.624262 138.086493 
L 184.939076 120.324456 
L 185.002039 139.569409 
L 185.190928 125.201602 
L 185.190928 121.642604 
L 185.946482 136.801299 
L 185.946482 141.283 
L 185.946482 128.49697 
L 186.097593 134.033189 
L 186.890925 137.987632 
L 187.457591 131.528709 
L 187.457591 132.715042 
L 187.64648 139.66827 
L 187.709443 130.210562 
L 188.213146 135.219522 
L 188.213146 142.139796 
L 188.402035 133.736606 
L 188.402035 140.854602 
L 188.968701 128.892414 
L 189.119812 137.987632 
L 189.119812 127.310638 
L 189.724255 118.709726 
L 189.724255 141.942074 
L 189.724255 123.619825 
L 190.47981 135.087707 
L 190.47981 112.547386 
L 190.47981 140.887556 
L 190.47981 136.27404 
L 190.630921 110.939247 
L 190.630921 139.411231 
L 191.235364 128.101526 
L 191.235364 106.747538 
L 191.235364 137.460373 
L 191.235364 109.120203 
L 191.990919 123.619825 
L 191.990919 136.405855 
L 191.990919 101.079504 
L 191.990919 102.265837 
L 192.179808 99.728403 
L 192.179808 130.573052 
L 192.179808 118.709726 
L 192.746474 111.888313 
L 192.746474 113.074645 
L 192.746474 128.892414 
L 192.746474 127.706082 
L 192.935362 98.245487 
L 193.502028 124.937972 
L 193.502028 126.124305 
L 193.502028 96.729617 
L 193.502028 120.192641 
L 194.257583 117.424532 
L 194.257583 92.808129 
L 194.257583 115.842755 
L 195.013137 107.142982 
L 195.013137 91.02863 
L 195.768692 88.062798 
L 195.768692 105.561205 
L 195.768692 102.793095 
L 196.524247 100.486337 
L 196.524247 93.697878 
L 196.675358 92.116101 
L 196.713135 99.036375 
L 196.902024 97.454598 
L 197.279801 87.074187 
L 197.279801 90.40251 
L 197.783504 95.806914 
L 198.035356 94.093322 
L 198.035356 88.853686 
L 198.790911 93.104712 
L 198.790911 84.998105 
L 198.942021 91.720657 
L 198.942021 83.416328 
L 199.546465 87.865076 
L 199.546465 76.001749 
L 199.546465 90.007065 
L 199.546465 79.725516 
L 200.30202 67.104254 
L 200.30202 68.521262 
L 200.30202 74.452926 
L 200.553871 92.90699 
L 201.057574 84.734476 
L 201.057574 87.107141 
L 201.057574 62.194155 
L 201.208685 60.638741 
L 201.208685 91.483391 
L 201.208685 89.110725 
L 201.813129 80.252775 
L 201.813129 56.526121 
L 201.813129 75.507444 
L 202.568684 71.948446 
L 202.568684 90.929769 
L 202.568684 48.221792 
L 202.568684 70.762113 
L 202.946461 82.62544 
L 203.324238 79.066442 
L 203.324238 44.794609 
L 203.324238 81.439107 
L 203.324238 76.693776 
L 203.513127 59.986258 
L 203.513127 43.3776 
L 203.702015 75.112 
L 204.079793 68.784892 
L 204.079793 69.971225 
L 204.079793 73.530223 
L 204.079793 36.457326 
L 204.079793 42.685573 
L 204.230904 56.526121 
L 204.835347 62.06234 
L 204.835347 31.019968 
L 204.835347 66.016782 
L 205.087199 29.504099 
L 205.590902 59.689675 
L 205.590902 45.585497 
L 205.779791 44.168489 
L 205.968679 23.111084 
L 205.968679 27.856414 
L 205.968679 55.735232 
L 205.968679 24.297416 
L 205.968679 25.483749 
L 206.094605 21.595214 
L 206.094605 35.831206 
L 206.346457 43.278739 
L 206.346457 39.785649 
L 206.346457 37.412983 
L 206.346457 54.153456 
L 206.346457 49.408125 
L 207.102011 45.849127 
L 207.102011 19.94753 
L 207.102011 47.035459 
L 207.102011 34.183522 
L 207.253122 18.405297 
L 207.353863 29.108655 
L 207.857566 39.126575 
L 207.857566 16.718069 
L 207.857566 42.487851 
L 208.046454 15.30106 
L 208.361269 35.303947 
L 208.61312 30.031358 
L 208.61312 31.21769 
L 208.61312 22.781547 
L 208.61312 33.590356 
L 208.802009 13.917005 
L 208.990898 28.746164 
L 209.368675 18.168031 
L 209.368675 19.354364 
L 210.12423 16.981698 
L 210.12423 15.795366 
L 210.879784 13.4227 
L 210.879784 24.099694 
L 211.635339 19.486178 
L 211.635339 26.538267 
L 211.824228 25.187166 
L 211.824228 18.06917 
L 212.390893 13.818144 
L 212.390893 27.81687 
L 212.390893 17.17942 
L 212.542004 15.637188 
L 212.957559 34.183522 
L 213.146448 30.426802 
L 213.146448 20.93614 
L 213.146448 29.240469 
L 213.902003 36.358465 
L 213.902003 38.731131 
L 213.902003 17.377142 
L 214.468669 50.891041 
L 214.657557 28.185951 
L 214.657557 41.235611 
L 214.657557 49.53994 
L 214.846446 39.818602 
L 214.846446 26.768943 
L 215.035335 23.506528 
L 215.035335 21.133863 
L 215.035335 22.320195 
L 215.224223 65.324755 
L 215.413112 58.107898 
L 215.413112 24.890583 
L 215.413112 64.039561 
L 215.413112 55.735232 
L 215.602001 51.978512 
L 215.602001 29.438191 
L 216.168667 77.221035 
L 216.168667 76.034703 
L 216.168667 26.47236 
L 216.168667 70.103039 
L 216.546444 28.054137 
L 216.735332 89.842297 
L 216.924221 84.998105 
L 216.924221 87.370771 
L 216.924221 29.635913 
L 216.924221 88.557103 
L 216.924221 80.252775 
L 217.075332 78.670998 
L 217.075332 39.522019 
L 217.301998 34.776688 
L 217.490887 104.770317 
L 217.679776 36.358465 
L 217.679776 103.452169 
L 217.679776 64.303191 
L 218.43533 112.547386 
L 218.43533 39.126575 
L 218.43533 76.957406 
L 218.586441 67.044937 
L 218.586441 106.193916 
L 218.813108 50.989902 
L 219.001996 126.025444 
L 219.190885 54.5489 
L 219.190885 124.674343 
L 219.190885 52.176234 
L 219.190885 87.89803 
L 219.379774 113.766673 
L 219.379774 78.176692 
L 219.568662 65.423616 
L 219.757551 134.329773 
L 219.94644 130.606006 
L 219.94644 131.792339 
L 219.94644 132.978671 
L 219.94644 66.807671 
L 219.94644 98.575024 
L 220.324217 76.693776 
L 220.701994 88.952548 
L 220.701994 78.275553 
L 220.701994 138.251261 
L 220.853105 135.773144 
L 220.853105 106.114827 
L 221.079771 90.13888 
L 221.457549 92.511546 
L 221.457549 91.325213 
L 221.457549 125.860675 
L 221.835326 104.572595 
L 222.213103 110.70198 
L 222.213103 109.515647 
L 222.213103 105.956649 
L 222.213103 134.165004 
L 222.213103 129.419673 
L 222.590881 112.283757 
L 222.779769 138.432506 
L 222.968658 137.328558 
L 223.119769 135.773144 
L 223.724213 124.806157 
L 223.724213 114.260978 
L 223.724213 118.874494 
L 224.10199 134.428634 
L 224.479767 128.628785 
L 224.479767 129.815118 
L 224.479767 137.196743 
L 224.668656 127.211777 
L 225.990876 124.674343 
L 225.990876 131.858246 
L 225.990876 115.183681 
L 226.141987 113.628267 
L 226.746431 129.584442 
L 228.25754 126.25612 
L 228.25754 113.20646 
L 228.25754 119.138124 
L 228.824206 132.550274 
L 229.201984 127.50836 
L 229.768649 117.424532 
L 229.768649 137.394465 
L 229.768649 113.865534 
L 229.768649 116.238199 
L 229.957538 133.637745 
L 230.146427 118.610865 
L 230.524204 122.301677 
L 230.524204 138.857609 
L 231.279759 141.54663 
L 231.279759 128.49697 
L 231.279759 129.683303 
L 231.468647 140.162575 
L 231.468647 127.112915 
L 231.846425 147.873737 
L 232.035313 145.369257 
L 232.035313 125.333416 
L 232.035313 146.55559 
L 232.224202 142.732962 
L 232.224202 133.242301 
L 232.790868 151.498643 
L 232.790868 130.078747 
L 232.790868 131.26508 
L 232.979757 138.284215 
L 232.979757 148.961209 
L 233.546423 136.405855 
L 233.546423 155.255363 
L 233.546423 132.846857 
L 233.546423 134.033189 
L 233.735311 152.619068 
L 233.735311 139.569409 
L 234.301977 137.592187 
L 234.301977 160.132508 
L 234.301977 147.082849 
L 234.868643 169.919753 
L 235.057532 166.195987 
L 235.057532 139.964853 
L 235.057532 168.568652 
L 235.057532 163.823321 
L 235.24642 161.21998 
L 235.24642 148.170321 
L 235.435309 141.348908 
L 235.813086 143.919295 
L 235.813086 142.732962 
L 235.813086 155.650807 
L 236.001975 170.809503 
L 236.001975 151.82818 
L 236.568641 172.628546 
L 236.568641 158.418917 
L 236.75753 157.067816 
L 236.946418 147.873737 
L 237.324196 174.961667 
L 237.324196 168.173208 
L 237.324196 149.191885 
L 237.324196 163.427877 
L 237.513084 160.824536 
L 237.513084 173.874195 
L 238.07975 153.146327 
L 238.07975 155.518992 
L 238.268639 170.710641 
L 238.268639 151.729319 
L 238.835305 159.209805 
L 239.024193 156.57351 
L 239.024193 171.995835 
L 239.590859 174.763945 
L 239.590859 143.919295 
L 240.346414 140.623927 
L 240.346414 154.859919 
L 240.346414 153.673586 
L 240.535303 170.117475 
L 240.535303 139.272825 
L 240.724191 172.786724 
L 241.101969 167.250504 
L 241.101969 174.170778 
L 241.101969 157.364399 
L 241.101969 158.550732 
L 241.290857 155.881483 
L 241.290857 137.78991 
L 241.479746 161.121119 
L 242.008634 144.868361 
L 242.235301 153.805401 
L 242.613078 140.887556 
L 242.613078 142.073889 
L 242.801967 151.284444 
L 242.801967 139.470548 
L 243.368632 137.460373 
L 243.368632 157.562121 
L 244.124187 149.587329 
L 244.124187 146.028331 
L 244.313076 144.611322 
L 244.690853 161.714285 
L 244.879742 141.414815 
L 244.879742 153.278142 
L 244.879742 160.396138 
L 244.879742 137.987632 
L 245.030853 139.806675 
L 245.030853 158.787998 
L 245.06863 150.641847 
L 245.446408 171.50153 
L 245.635296 155.914437 
L 245.635296 164.218765 
L 245.635296 170.150429 
L 245.824185 162.801757 
L 245.824185 154.497428 
L 246.201962 179.90472 
L 246.390851 140.755741 
L 246.390851 178.586572 
L 246.390851 139.569409 
L 246.390851 173.841242 
L 246.541962 144.94745 
L 246.57974 172.391279 
L 246.768628 141.942074 
L 246.768628 143.128407 
L 247.146406 186.956808 
L 247.146406 181.091052 
L 247.146406 150.246403 
L 247.146406 159.737064 
L 247.90196 168.041393 
L 247.90196 146.687405 
L 247.90196 189.329474 
L 247.90196 165.668728 
L 248.279737 149.06007 
L 248.657515 160.923397 
L 248.657515 158.550732 
L 248.657515 150.246403 
L 248.657515 179.90472 
L 248.657515 178.718387 
L 248.846403 190.087409 
L 249.413069 187.022716 
L 249.413069 181.091052 
L 249.413069 182.277385 
L 250.168624 168.173208 
L 250.168624 170.545873 
L 250.168624 163.427877 
L 250.168624 169.35954 
L 250.357513 188.110187 
L 250.357513 162.010868 
L 250.546401 190.581714 
L 250.924179 173.182168 
L 250.924179 177.927499 
L 250.924179 180.300164 
L 251.113067 171.798113 
L 251.113067 189.593103 
L 251.679733 186.495457 
L 251.679733 182.936459 
L 251.830844 159.974331 
L 251.868622 181.486497 
L 252.05751 187.813604 
L 252.435288 189.395381 
L 252.435288 163.164247 
L 252.435288 166.723246 
L 252.624176 161.813146 
L 252.813065 179.90472 
L 252.813065 175.159389 
L 253.190842 182.672829 
L 253.190842 157.364399 
L 253.190842 181.486497 
L 253.341953 155.782622 
L 253.379731 171.303808 
L 254.097508 160.290686 
L 254.701952 163.427877 
L 254.701952 169.35954 
L 254.89084 162.010868 
L 255.457506 158.814361 
L 255.457506 155.255363 
L 255.457506 171.86402 
L 255.457506 156.441696 
L 255.646395 170.414058 
L 256.213061 174.500315 
L 256.213061 176.807073 
L 256.401949 160.033647 
L 256.401949 173.083307 
L 256.968615 180.563793 
L 256.968615 155.782622 
L 256.968615 184.122792 
L 256.968615 163.955136 
L 257.157504 161.318841 
L 257.157504 177.927499 
L 257.346393 158.155287 
L 257.72417 187.945419 
L 257.72417 159.34162 
L 257.72417 190.252177 
L 257.72417 189.131752 
L 257.913059 185.342078 
L 257.913059 169.919753 
L 258.479725 173.973056 
L 258.479725 176.345722 
L 258.479725 163.296062 
L 258.479725 165.668728 
L 258.668613 172.589002 
L 258.668613 191.520894 
L 258.857502 167.052782 
L 258.857502 168.239115 
L 259.235279 170.809503 
L 259.235279 169.62317 
L 259.235279 183.727347 
L 259.235279 178.982017 
L 259.424168 177.532054 
L 259.990834 189.790825 
L 259.990834 185.045495 
L 259.990834 186.231827 
L 260.746388 173.37989 
L 260.746388 174.500315 
L 260.746388 192.031676 
L 260.935277 190.878297 
L 260.99824 171.86402 
L 261.501943 181.881941 
L 261.501943 184.254606 
L 261.501943 178.322943 
L 261.501943 179.509276 
L 261.690832 176.938888 
L 261.87972 189.197659 
L 262.257498 169.919753 
L 262.257498 190.977158 
L 263.013052 174.236686 
L 263.013052 168.140254 
L 263.768607 177.037749 
L 263.768607 187.022716 
L 263.768607 185.836383 
L 263.957496 184.551189 
L 264.524162 170.809503 
L 264.524162 167.250504 
L 264.675272 169.227726 
L 264.675272 165.668728 
L 264.901939 176.148 
L 265.279716 174.104871 
L 265.279716 175.225296 
L 265.430827 172.549457 
L 266.790825 170.941317 
L 266.790825 165.009654 
L 266.790825 167.382319 
L 267.54638 175.950277 
L 267.54638 178.322943 
L 267.54638 173.577612 
L 267.54638 177.13661 
L 267.735269 172.193557 
L 268.113046 183.463718 
L 268.301935 180.959238 
L 268.301935 182.14557 
L 268.301935 165.668728 
L 268.490823 179.509276 
L 268.679712 166.85506 
L 269.057489 168.305022 
L 269.057489 170.677688 
L 269.246378 184.65005 
L 269.813044 176.609351 
L 269.813044 171.86402 
L 269.813044 186.100013 
L 269.813044 174.236686 
L 270.568598 181.091052 
L 270.568598 183.463718 
L 270.719709 179.509276 
L 271.324153 176.741166 
L 271.324153 175.554833 
L 271.324153 187.022716 
L 271.70193 178.322943 
L 272.079708 179.90472 
L 272.079708 181.091052 
L 272.835262 192.295306 
L 272.835262 195.854304 
L 272.835262 182.804644 
L 272.986373 188.367226 
L 272.986373 185.915472 
L 273.590817 199.808746 
L 273.590817 204.488169 
L 273.779705 197.205405 
L 274.346371 183.463718 
L 274.346371 216.483311 
L 274.346371 211.803887 
L 274.53526 205.608595 
L 274.724149 184.65005 
L 275.101926 195.590674 
L 275.101926 224.062658 
L 275.101926 186.100013 
L 275.101926 189.659011 
L 275.290815 217.966227 
L 275.668592 225.380806 
L 275.857481 196.777007 
L 275.857481 197.963339 
L 276.613035 216.417403 
L 276.613035 205.509733 
L 276.613035 210.48574 
L 277.36859 226.171694 
L 277.36859 224.062658 
L 277.36859 187.022716 
L 277.36859 195.590674 
L 278.124144 203.499559 
L 278.124144 204.685891 
L 278.124144 198.754228 
L 278.124144 201.126893 
L 278.275255 197.146088 
L 278.879699 225.973972 
L 278.879699 186.100013 
L 278.879699 211.012999 
L 279.068588 206.1029 
L 279.068588 225.034792 
L 279.068588 184.699481 
L 279.257476 223.008141 
L 279.257476 220.635475 
L 279.635254 194.667971 
L 279.635254 219.51505 
L 279.635254 179.245646 
L 279.635254 191.108973 
L 279.786365 177.690232 
L 279.824142 187.319299 
L 279.824142 218.163949 
L 280.390808 213.912923 
L 280.390808 176.213907 
L 280.390808 216.285589 
L 280.390808 210.353925 
L 280.579697 174.862806 
L 280.768586 206.794927 
L 281.335252 185.193786 
L 281.335252 173.37989 
L 281.52414 196.315655 
L 281.901918 180.827423 
L 281.901918 197.501988 
L 281.901918 179.64109 
L 281.901918 184.254606 
L 282.053028 178.085676 
L 282.090806 186.627272 
L 282.846361 175.060528 
L 283.413027 173.050353 
L 283.413027 174.170778 
L 284.168581 179.245646 
L 284.168581 183.925069 
L 284.35747 177.828638 
L 284.924136 185.045495 
L 284.924136 175.455972 
L 284.924136 176.741166 
L 285.301913 173.973056 
L 286.435245 186.627272 
L 286.435245 174.763945 
L 286.435245 187.747697 
L 286.435245 179.377461 
L 286.586356 177.769321 
L 287.757466 192.855518 
L 287.946354 191.504417 
L 287.946354 178.322943 
L 287.946354 179.509276 
L 288.135243 190.087409 
L 288.324132 180.89333 
L 288.324132 183.265996 
L 288.701909 196.18384 
L 288.701909 195.063415 
L 288.701909 184.386421 
L 288.701909 186.528411 
L 289.268575 205.410872 
L 289.457464 201.785967 
L 289.457464 204.158632 
L 289.457464 199.413302 
L 289.457464 200.599634 
L 289.608575 197.857888 
L 289.608575 188.367226 
L 289.835241 185.243217 
L 290.213018 192.822565 
L 290.401907 190.285131 
L 290.401907 206.893788 
L 290.590796 187.022716 
L 290.779684 209.563037 
L 290.968573 195.19523 
L 290.968573 208.244889 
L 290.968573 194.008897 
L 290.968573 196.381563 
L 291.472276 188.472678 
L 291.724127 204.422262 
L 291.724127 210.897661 
L 291.724127 190.18627 
L 291.724127 191.372602 
L 291.875238 198.095154 
L 292.101905 192.756657 
L 292.479682 206.926742 
L 293.235237 209.958481 
L 293.235237 194.338434 
L 293.235237 212.067517 
L 293.235237 195.722489 
L 293.386348 208.376704 
L 293.990791 205.872224 
L 293.990791 198.589459 
L 293.990791 201.126893 
L 294.746346 212.858405 
L 295.5019 197.304266 
L 295.5019 211.540258 
L 295.5019 188.999937 
L 295.5019 194.9316 
L 296.257455 205.740409 
L 296.257455 199.808746 
L 296.257455 200.995079 
L 296.446344 198.391737 
L 296.446344 187.714743 
L 296.635232 185.5398 
L 296.635232 212.133424 
L 297.01301 207.190371 
L 297.01301 186.627272 
L 297.01301 210.749369 
L 297.01301 208.376704 
L 297.164121 184.254606 
L 297.768564 201.851874 
L 297.768564 199.676931 
L 297.768564 179.805859 
L 298.272267 198.226969 
L 298.524119 187.714743 
L 299.027822 178.850202 
L 299.279674 192.558935 
L 299.279674 185.045495 
L 299.279674 193.745268 
L 299.279674 190.18627 
L 299.430784 183.621896 
L 300.035228 181.881941 
L 300.035228 180.695608 
L 300.035228 189.197659 
L 300.979671 187.714743 
L 301.546337 178.586572 
L 301.546337 179.772905 
L 301.546337 186.824994 
L 301.697448 182.910096 
L 302.301892 196.777007 
L 302.301892 194.404341 
L 302.301892 190.845343 
L 302.301892 192.031676 
L 302.490781 189.494242 
L 302.490781 180.992191 
L 302.868558 216.087867 
L 303.057447 179.113831 
L 303.057447 214.835626 
L 303.057447 199.413302 
L 303.246335 188.209049 
L 303.246335 197.996293 
L 303.813001 223.403585 
L 303.813001 180.300164 
L 303.813001 229.269341 
L 303.813001 221.030919 
L 304.379667 234.278301 
L 304.568556 230.521581 
L 304.568556 232.894246 
L 304.568556 190.18627 
L 304.568556 194.9316 
L 304.946333 187.813604 
L 305.32411 186.627272 
L 305.32411 185.045495 
L 305.32411 235.135097 
L 305.32411 207.98126 
L 306.079665 196.117933 
L 306.079665 190.18627 
L 306.079665 229.335248 
L 306.079665 226.962583 
L 306.83522 197.304266 
L 306.83522 234.344208 
L 307.024108 230.620442 
L 307.590774 210.749369 
L 307.590774 216.681033 
L 307.590774 201.258708 
L 307.590774 208.376704 
L 307.842626 235.003282 
L 308.346329 225.77625 
L 308.346329 229.335248 
L 308.346329 219.844587 
L 308.346329 223.403585 
L 308.49744 218.26281 
L 308.724106 233.586274 
L 309.857438 210.353925 
L 309.857438 222.612696 
L 309.857438 200.863264 
L 309.857438 209.167593 
L 310.612993 219.943448 
L 311.746325 201.258708 
L 312.124102 211.935702 
L 312.124102 210.749369 
L 312.124102 215.4947 
L 312.124102 202.445041 
L 312.124102 204.817706 
L 312.728546 220.556386 
L 312.879656 216.681033 
L 312.879656 219.053698 
L 313.635211 203.631373 
L 314.390766 215.890144 
L 314.390766 205.21315 
L 314.390766 221.030919 
L 314.390766 207.585816 
L 315.14632 218.394625 
L 315.14632 219.580957 
L 316.279652 220.240031 
L 316.65743 216.285589 
L 316.65743 204.422262 
L 316.65743 219.053698 
L 316.65743 205.608595 
L 316.80854 202.840485 
L 317.412984 201.45643 
L 317.412984 199.281487 
L 317.412984 200.46782 
L 317.564095 197.69971 
L 317.564095 217.709188 
L 318.168539 195.030461 
L 318.168539 196.117933 
L 318.546316 216.087867 
L 318.924093 206.663112 
L 318.924093 209.035778 
L 318.924093 210.156203 
L 318.924093 193.613453 
L 318.924093 205.47678 
L 319.075204 202.682307 
L 319.075204 192.005313 
L 319.679648 201.126893 
L 319.679648 190.449899 
L 319.868537 189.098798 
L 319.868537 197.403127 
L 320.435203 185.836383 
L 320.435203 188.011326 
L 320.435203 205.015428 
L 320.586314 184.254606 
L 320.586314 194.9316 
L 320.81298 202.445041 
L 321.190757 198.886043 
L 321.190757 201.258708 
L 321.190757 192.262352 
L 321.190757 193.349823 
L 321.946312 190.713529 
L 321.946312 196.711099 
L 321.946312 180.992191 
L 321.946312 182.4092 
L 322.324089 194.338434 
L 322.701866 183.958023 
L 322.701866 186.495457 
L 322.701866 192.954379 
L 323.205569 191.504417 
L 323.457421 189.790825 
L 323.608532 179.746542 
L 323.835198 188.406771 
L 324.212976 181.486497 
L 324.212976 182.672829 
L 324.212976 187.41816 
L 324.212976 186.231827 
L 324.716679 185.309124 
L 324.96853 177.927499 
L 325.157419 184.056884 
L 325.724085 180.431979 
L 325.724085 182.672829 
L 325.912973 176.642305 
L 325.912973 179.01497 
L 326.479639 175.291204 
L 326.479639 181.354682 
L 327.990749 174.368501 
L 327.990749 180.300164 
L 328.746303 185.111402 
L 328.746303 182.804644 
L 328.746303 183.990977 
L 328.935192 175.455972 
L 328.935192 181.387636 
L 329.501858 188.868122 
L 329.501858 193.547546 
L 329.690747 186.231827 
L 330.257412 174.763945 
L 330.257412 198.622413 
L 330.257412 178.454758 
L 330.446301 177.037749 
L 330.446301 194.832739 
L 331.012967 208.113075 
L 331.012967 205.740409 
L 331.012967 180.827423 
L 331.012967 209.299407 
L 331.012967 200.995079 
L 331.768522 212.462961 
L 331.768522 179.509276 
L 331.768522 188.736308 
L 331.919633 185.994561 
L 331.919633 210.907547 
L 332.524076 196.381563 
L 332.524076 198.754228 
L 332.524076 180.695608 
L 332.524076 183.068274 
L 332.712965 195.030461 
L 332.901854 184.65005 
L 333.279631 192.163491 
L 333.279631 190.977158 
L 333.279631 186.231827 
L 333.279631 213.863493 
L 333.279631 204.685891 
L 333.657408 193.547546 
L 334.035186 212.726591 
L 334.186296 211.144814 
L 334.79074 197.436081 
L 334.79074 194.9316 
L 334.79074 196.117933 
L 335.546295 200.171236 
L 335.546295 214.044738 
L 336.301849 211.441397 
L 336.301849 212.858405 
L 337.057404 213.715201 
L 337.057404 193.481638 
L 337.057404 194.667971 
L 337.208515 191.926224 
L 337.435181 210.353925 
L 337.812959 212.528869 
L 337.812959 202.181411 
L 337.812959 211.540258 
L 338.001847 190.087409 
L 338.001847 200.764403 
L 338.568513 188.999937 
L 338.568513 186.528411 
L 338.568513 187.945419 
L 338.946291 199.281487 
L 339.324068 193.481638 
L 339.324068 194.667971 
L 339.324068 204.817706 
L 339.475179 191.926224 
L 340.079622 185.440939 
L 340.268511 190.087409 
L 340.835177 189.197659 
L 340.835177 188.077234 
L 341.024066 186.528411 
L 341.590732 194.140712 
L 341.77962 191.669186 
L 342.535175 190.285131 
L 343.101841 187.68179 
L 343.101841 188.868122 
L 343.101841 186.495457 
L 343.857395 193.745268 
L 343.857395 196.117933 
L 344.008506 192.163491 
L 344.61295 197.238358 
L 344.61295 187.813604 
L 344.801839 190.581714 
L 344.990727 188.999937 
L 346.124059 196.513377 
L 346.124059 194.140712 
L 346.27517 192.558935 
L 346.879614 190.845343 
L 346.879614 197.370173 
L 348.390723 193.877082 
L 348.390723 196.249748 
L 348.541834 189.949003 
L 348.541834 192.321668 
L 349.146278 197.633803 
L 349.901832 200.20419 
L 350.090721 198.787182 
L 350.657387 202.70867 
L 350.657387 189.659011 
L 350.657387 193.218009 
L 350.846276 201.258708 
L 351.224053 205.608595 
L 351.412942 209.760759 
L 351.60183 204.125679 
L 352.168496 192.954379 
L 352.168496 191.768047 
L 352.168496 209.299407 
L 352.319607 198.253332 
L 352.357385 206.696066 
L 352.546273 195.327045 
L 352.546273 196.513377 
L 352.924051 214.440182 
L 352.924051 212.067517 
L 352.924051 202.576855 
L 353.112939 201.159847 
L 353.112939 210.650508 
L 353.679605 205.081336 
L 353.679605 215.652878 
L 353.679605 198.095154 
L 353.679605 199.281487 
L 353.868494 203.631373 
L 354.43516 206.399483 
L 354.43516 208.772148 
L 354.43516 200.46782 
L 354.43516 201.654152 
L 354.624049 216.582172 
L 355.190715 202.840485 
L 355.190715 213.781109 
L 355.190715 211.408443 
L 355.379603 210.057342 
L 355.568492 205.608595 
L 355.946269 214.967441 
L 355.946269 207.190371 
L 355.946269 208.376704 
L 356.701824 216.285589 
L 357.457378 209.958481 
L 357.457378 213.517479 
L 358.401822 214.604951 
L 359.157376 215.890144 
L 359.724042 219.976401 
L 359.724042 210.48574 
L 359.724042 211.672073 
L 359.912931 217.37306 
L 360.479597 214.044738 
L 360.479597 223.469492 
L 361.386262 215.4947 
L 361.990706 213.122035 
L 361.990706 220.240031 
L 362.141817 217.471921 
L 362.179595 211.639119 
L 362.179595 224.243904 
L 362.746261 221.920669 
L 362.746261 223.008141 
L 363.652926 214.308368 
L 364.25737 212.726591 
L 364.25737 205.608595 
L 364.25737 223.799029 
L 364.25737 221.030919 
L 364.408481 204.026818 
L 364.446259 217.274199 
L 364.635147 222.414974 
L 365.012925 202.313226 
L 365.164035 200.705086 
L 365.768479 219.053698 
L 365.768479 217.867366 
L 365.768479 214.308368 
L 366.146256 213.122035 
L 366.524034 204.949521 
L 366.524034 207.322186 
L 366.524034 212.00161 
L 366.712922 203.532512 
L 367.279588 200.072375 
L 367.279588 202.445041 
L 368.035143 209.958481 
L 368.790698 208.574426 
L 368.790698 205.21315 
L 368.790698 206.399483 
L 368.941808 203.631373 
L 369.546252 200.863264 
L 369.546252 202.049596 
L 371.057361 207.454001 
L 371.057361 203.730234 
L 371.057361 208.508519 
L 371.812916 198.391737 
L 371.812916 199.808746 
L 371.812916 202.181411 
L 372.568471 207.98126 
L 372.719582 196.513377 
L 372.946248 206.992649 
L 373.324025 205.872224 
L 373.324025 192.657796 
L 374.07958 199.676931 
L 374.07958 201.983689 
L 374.230691 190.977158 
L 374.230691 198.095154 
L 374.986245 195.959755 
L 375.590689 189.395381 
L 375.590689 194.140712 
L 376.346244 190.581714 
L 376.346244 190.581714 
" clip-path="url(#p1d3ba1b4b1)" style="fill: none; stroke: #000000; stroke-width: 1.8; stroke-linecap: square"/>
   </g>
   <g id="line2d_23">
    <path d="M 127.53 261.522031 
L 127.53 13.642031 
" clip-path="url(#p1d3ba1b4b1)" style="fill: none; stroke-dasharray: 5.55,2.4; stroke-dashoffset: 0; stroke: #595959; stroke-width: 1.5"/>
   </g>
   <g id="LineCollection_1">
    <path d="M 293.125 261.522031 
L 293.125 88.006031 
" clip-path="url(#p1d3ba1b4b1)" style="fill: none; stroke-dasharray: 5.55,2.4; stroke-dashoffset: 0; stroke: #595959; stroke-width: 1.5"/>
   </g>
   <g id="patch_3">
    <path d="M 44.7325 261.522031 
L 44.7325 13.642031 
" style="fill: none; stroke: #000000; stroke-width: 0.8; stroke-linejoin: miter; stroke-linecap: square"/>
   </g>
   <g id="patch_4">
    <path d="M 375.9225 261.522031 
L 375.9225 13.642031 
" style="fill: none; stroke: #000000; stroke-width: 0.8; stroke-linejoin: miter; stroke-linecap: square"/>
   </g>
   <g id="patch_5">
    <path d="M 44.7325 261.522031 
L 375.9225 261.522031 
" style="fill: none; stroke: #000000; stroke-width: 0.8; stroke-linejoin: miter; stroke-linecap: square"/>
   </g>
   <g id="patch_6">
    <path d="M 44.7325 13.642031 
L 375.9225 13.642031 
" style="fill: none; stroke: #000000; stroke-width: 0.8; stroke-linejoin: miter; stroke-linecap: square"/>
   </g>
   <g id="legend_1">
    <g id="patch_7">
     <path d="M 225.396275 78.965156 
L 370.2344 78.965156 
L 370.2344 22.642031 
L 225.396275 22.642031 
z
" style="fill: #ffffff; opacity: 0.8; stroke: #808080; stroke-width: 0.8; stroke-linejoin: miter"/>
    </g>
    <g id="line2d_24">
     <path d="M 232.596275 36.426094 
L 250.596275 36.426094 
L 268.596275 36.426094 
" style="fill: none; stroke: #00ff90; stroke-width: 2.5; stroke-linecap: square"/>
    </g>
    <g id="text_11">
     <!-- Simulated -->
     <g transform="translate(282.996275 42.726094)scale(0.18 -0.18)">
      <defs>
       <path id="ArialMT-53" d="M 288 1472 
L 859 1522 
Q 900 1178 1048 958 
Q 1197 738 1509 602 
Q 1822 466 2213 466 
Q 2559 466 2825 569 
Q 3091 672 3220 851 
Q 3350 1031 3350 1244 
Q 3350 1459 3225 1620 
Q 3100 1781 2813 1891 
Q 2628 1963 1997 2114 
Q 1366 2266 1113 2400 
Q 784 2572 623 2826 
Q 463 3081 463 3397 
Q 463 3744 659 4045 
Q 856 4347 1234 4503 
Q 1613 4659 2075 4659 
Q 2584 4659 2973 4495 
Q 3363 4331 3572 4012 
Q 3781 3694 3797 3291 
L 3216 3247 
Q 3169 3681 2898 3903 
Q 2628 4125 2100 4125 
Q 1550 4125 1298 3923 
Q 1047 3722 1047 3438 
Q 1047 3191 1225 3031 
Q 1400 2872 2139 2705 
Q 2878 2538 3153 2413 
Q 3553 2228 3743 1945 
Q 3934 1663 3934 1294 
Q 3934 928 3725 604 
Q 3516 281 3123 101 
Q 2731 -78 2241 -78 
Q 1619 -78 1198 103 
Q 778 284 539 648 
Q 300 1013 288 1472 
z
" transform="scale(0.015625)"/>
       <path id="ArialMT-69" d="M 425 3934 
L 425 4581 
L 988 4581 
L 988 3934 
L 425 3934 
z
M 425 0 
L 425 3319 
L 988 3319 
L 988 0 
L 425 0 
z
" transform="scale(0.015625)"/>
       <path id="ArialMT-6d" d="M 422 0 
L 422 3319 
L 925 3319 
L 925 2853 
Q 1081 3097 1340 3245 
Q 1600 3394 1931 3394 
Q 2300 3394 2536 3241 
Q 2772 3088 2869 2813 
Q 3263 3394 3894 3394 
Q 4388 3394 4653 3120 
Q 4919 2847 4919 2278 
L 4919 0 
L 4359 0 
L 4359 2091 
Q 4359 2428 4304 2576 
Q 4250 2725 4106 2815 
Q 3963 2906 3769 2906 
Q 3419 2906 3187 2673 
Q 2956 2441 2956 1928 
L 2956 0 
L 2394 0 
L 2394 2156 
Q 2394 2531 2256 2718 
Q 2119 2906 1806 2906 
Q 1569 2906 1367 2781 
Q 1166 2656 1075 2415 
Q 984 2175 984 1722 
L 984 0 
L 422 0 
z
" transform="scale(0.015625)"/>
       <path id="ArialMT-75" d="M 2597 0 
L 2597 488 
Q 2209 -75 1544 -75 
Q 1250 -75 995 37 
Q 741 150 617 320 
Q 494 491 444 738 
Q 409 903 409 1263 
L 409 3319 
L 972 3319 
L 972 1478 
Q 972 1038 1006 884 
Q 1059 663 1231 536 
Q 1403 409 1656 409 
Q 1909 409 2131 539 
Q 2353 669 2445 892 
Q 2538 1116 2538 1541 
L 2538 3319 
L 3100 3319 
L 3100 0 
L 2597 0 
z
" transform="scale(0.015625)"/>
       <path id="ArialMT-6c" d="M 409 0 
L 409 4581 
L 972 4581 
L 972 0 
L 409 0 
z
" transform="scale(0.015625)"/>
       <path id="ArialMT-61" d="M 2588 409 
Q 2275 144 1986 34 
Q 1697 -75 1366 -75 
Q 819 -75 525 192 
Q 231 459 231 875 
Q 231 1119 342 1320 
Q 453 1522 633 1644 
Q 813 1766 1038 1828 
Q 1203 1872 1538 1913 
Q 2219 1994 2541 2106 
Q 2544 2222 2544 2253 
Q 2544 2597 2384 2738 
Q 2169 2928 1744 2928 
Q 1347 2928 1158 2789 
Q 969 2650 878 2297 
L 328 2372 
Q 403 2725 575 2942 
Q 747 3159 1072 3276 
Q 1397 3394 1825 3394 
Q 2250 3394 2515 3294 
Q 2781 3194 2906 3042 
Q 3031 2891 3081 2659 
Q 3109 2516 3109 2141 
L 3109 1391 
Q 3109 606 3145 398 
Q 3181 191 3288 0 
L 2700 0 
Q 2613 175 2588 409 
z
M 2541 1666 
Q 2234 1541 1622 1453 
Q 1275 1403 1131 1340 
Q 988 1278 909 1158 
Q 831 1038 831 891 
Q 831 666 1001 516 
Q 1172 366 1500 366 
Q 1825 366 2078 508 
Q 2331 650 2450 897 
Q 2541 1088 2541 1459 
L 2541 1666 
z
" transform="scale(0.015625)"/>
       <path id="ArialMT-74" d="M 1650 503 
L 1731 6 
Q 1494 -44 1306 -44 
Q 1000 -44 831 53 
Q 663 150 594 308 
Q 525 466 525 972 
L 525 2881 
L 113 2881 
L 113 3319 
L 525 3319 
L 525 4141 
L 1084 4478 
L 1084 3319 
L 1650 3319 
L 1650 2881 
L 1084 2881 
L 1084 941 
Q 1084 700 1114 631 
Q 1144 563 1211 522 
Q 1278 481 1403 481 
Q 1497 481 1650 503 
z
" transform="scale(0.015625)"/>
       <path id="ArialMT-65" d="M 2694 1069 
L 3275 997 
Q 3138 488 2766 206 
Q 2394 -75 1816 -75 
Q 1088 -75 661 373 
Q 234 822 234 1631 
Q 234 2469 665 2931 
Q 1097 3394 1784 3394 
Q 2450 3394 2872 2941 
Q 3294 2488 3294 1666 
Q 3294 1616 3291 1516 
L 816 1516 
Q 847 969 1125 678 
Q 1403 388 1819 388 
Q 2128 388 2347 550 
Q 2566 713 2694 1069 
z
M 847 1978 
L 2700 1978 
Q 2663 2397 2488 2606 
Q 2219 2931 1791 2931 
Q 1403 2931 1139 2672 
Q 875 2413 847 1978 
z
" transform="scale(0.015625)"/>
       <path id="ArialMT-64" d="M 2575 0 
L 2575 419 
Q 2259 -75 1647 -75 
Q 1250 -75 917 144 
Q 584 363 401 755 
Q 219 1147 219 1656 
Q 219 2153 384 2558 
Q 550 2963 881 3178 
Q 1213 3394 1622 3394 
Q 1922 3394 2156 3267 
Q 2391 3141 2538 2938 
L 2538 4581 
L 3097 4581 
L 3097 0 
L 2575 0 
z
M 797 1656 
Q 797 1019 1065 703 
Q 1334 388 1700 388 
Q 2069 388 2326 689 
Q 2584 991 2584 1609 
Q 2584 2291 2321 2609 
Q 2059 2928 1675 2928 
Q 1300 2928 1048 2622 
Q 797 2316 797 1656 
z
" transform="scale(0.015625)"/>
      </defs>
      <use xlink:href="#ArialMT-53"/>
      <use xlink:href="#ArialMT-69" x="66.699219"/>
      <use xlink:href="#ArialMT-6d" x="88.916016"/>
      <use xlink:href="#ArialMT-75" x="172.216797"/>
      <use xlink:href="#ArialMT-6c" x="227.832031"/>
      <use xlink:href="#ArialMT-61" x="250.048828"/>
      <use xlink:href="#ArialMT-74" x="305.664062"/>
      <use xlink:href="#ArialMT-65" x="333.447266"/>
      <use xlink:href="#ArialMT-64" x="389.0625"/>
     </g>
    </g>
    <g id="line2d_25">
     <path d="M 232.596275 61.887656 
L 250.596275 61.887656 
L 268.596275 61.887656 
" style="fill: none; stroke: #000000; stroke-width: 1.8; stroke-linecap: square"/>
    </g>
    <g id="text_12">
     <!-- Measured -->
     <g transform="translate(282.996275 68.187656)scale(0.18 -0.18)">
      <defs>
       <path id="ArialMT-4d" d="M 475 0 
L 475 4581 
L 1388 4581 
L 2472 1338 
Q 2622 884 2691 659 
Q 2769 909 2934 1394 
L 4031 4581 
L 4847 4581 
L 4847 0 
L 4263 0 
L 4263 3834 
L 2931 0 
L 2384 0 
L 1059 3900 
L 1059 0 
L 475 0 
z
" transform="scale(0.015625)"/>
       <path id="ArialMT-73" d="M 197 991 
L 753 1078 
Q 800 744 1014 566 
Q 1228 388 1613 388 
Q 2000 388 2187 545 
Q 2375 703 2375 916 
Q 2375 1106 2209 1216 
Q 2094 1291 1634 1406 
Q 1016 1563 777 1677 
Q 538 1791 414 1992 
Q 291 2194 291 2438 
Q 291 2659 392 2848 
Q 494 3038 669 3163 
Q 800 3259 1026 3326 
Q 1253 3394 1513 3394 
Q 1903 3394 2198 3281 
Q 2494 3169 2634 2976 
Q 2775 2784 2828 2463 
L 2278 2388 
Q 2241 2644 2061 2787 
Q 1881 2931 1553 2931 
Q 1166 2931 1000 2803 
Q 834 2675 834 2503 
Q 834 2394 903 2306 
Q 972 2216 1119 2156 
Q 1203 2125 1616 2013 
Q 2213 1853 2448 1751 
Q 2684 1650 2818 1456 
Q 2953 1263 2953 975 
Q 2953 694 2789 445 
Q 2625 197 2315 61 
Q 2006 -75 1616 -75 
Q 969 -75 630 194 
Q 291 463 197 991 
z
" transform="scale(0.015625)"/>
       <path id="ArialMT-72" d="M 416 0 
L 416 3319 
L 922 3319 
L 922 2816 
Q 1116 3169 1280 3281 
Q 1444 3394 1641 3394 
Q 1925 3394 2219 3213 
L 2025 2691 
Q 1819 2813 1613 2813 
Q 1428 2813 1281 2702 
Q 1134 2591 1072 2394 
Q 978 2094 978 1738 
L 978 0 
L 416 0 
z
" transform="scale(0.015625)"/>
      </defs>
      <use xlink:href="#ArialMT-4d"/>
      <use xlink:href="#ArialMT-65" x="83.300781"/>
      <use xlink:href="#ArialMT-61" x="138.916016"/>
      <use xlink:href="#ArialMT-73" x="194.53125"/>
      <use xlink:href="#ArialMT-75" x="244.53125"/>
      <use xlink:href="#ArialMT-72" x="300.146484"/>
      <use xlink:href="#ArialMT-65" x="333.447266"/>
      <use xlink:href="#ArialMT-64" x="389.0625"/>
     </g>
    </g>
   </g>
  </g>
 </g>
 <defs>
  <clipPath id="p1d3ba1b4b1">
   <rect x="44.7325" y="13.642031" width="331.19" height="247.88"/>
  </clipPath>
 </defs>
</svg>
