<?xml version="1.0" encoding="utf-8" standalone="no"?>
<!DOCTYPE svg PUBLIC "-//W3C//DTD SVG 1.1//EN"
  "http://www.w3.org/Graphics/SVG/1.1/DTD/svg11.dtd">
<svg xmlns:xlink="http://www.w3.org/1999/xlink" width="407.532188pt" height="292.183594pt" viewBox="0 0 407.532188 292.183594" xmlns="http://www.w3.org/2000/svg" version="1.1">
 <metadata>
  <rdf:RDF xmlns:dc="http://purl.org/dc/elements/1.1/" xmlns:cc="http://creativecommons.org/ns#" xmlns:rdf="http://www.w3.org/1999/02/22-rdf-syntax-ns#">
   <cc:Work>
    <dc:type rdf:resource="http://purl.org/dc/dcmitype/StillImage"/>
    <dc:date>2026-06-26T16:16:09.430085</dc:date>
    <dc:format>image/svg+xml</dc:format>
    <dc:creator>
     <cc:Agent>
      <dc:title>Matplotlib v3.5.1, https://matplotlib.org/</dc:title>
     </cc:Agent>
    </dc:creator>
   </cc:Work>
  </rdf:RDF>
 </metadata>
 <defs>
  <style type="text/css">*{stroke-linejoin: round; stroke-linecap: butt}</style>
 </defs>
 <g id="figure_1">
  <g id="patch_1">
   <path d="M 0 292.183594 
L 407.532188 292.183594 
L 407.532188 0 
L 0 0 
z
" style="fill: #ffffff"/>
  </g>
  <g id="axes_1">
   <g id="patch_2">
    <path d="M 44.7325 261.522031 
L 390.3225 261.522031 
L 390.3225 13.642031 
L 44.7325 13.642031 
z
" style="fill: #ffffff"/>
   </g>
   <g id="matplotlib.axis_1">
    <g id="xtick_1">
     <g id="line2d_1">
      <path d="M 44.7325 261.522031 
L 44.7325 13.642031 
" clip-path="url(#p95233726e2)" style="fill: none; stroke: #b0b0b0; stroke-opacity: 0.25; stroke-width: 0.8; stroke-linecap: square"/>
     </g>
     <g id="line2d_2">
      <defs>
       <path id="mc54c88fe41" d="M 0 0 
L 0 3.5 
" style="stroke: #000000; stroke-width: 0.8"/>
      </defs>
      <g>
       <use xlink:href="#mc54c88fe41" x="44.7325" y="261.522031" style="stroke: #000000; stroke-width: 0.8"/>
      </g>
     </g>
     <g id="text_1">
      <!-- −10 -->
      <g transform="translate(29.46625 281.406094)scale(0.18 -0.18)">
       <defs>
        <path id="ArialMT-2212" d="M 3381 1997 
L 356 1997 
L 356 2522 
L 3381 2522 
L 3381 1997 
z
" transform="scale(0.015625)"/>
        <path id="ArialMT-31" d="M 2384 0 
L 1822 0 
L 1822 3584 
Q 1619 3391 1289 3197 
Q 959 3003 697 2906 
L 697 3450 
Q 1169 3672 1522 3987 
Q 1875 4303 2022 4600 
L 2384 4600 
L 2384 0 
z
" transform="scale(0.015625)"/>
        <path id="ArialMT-30" d="M 266 2259 
Q 266 3072 433 3567 
Q 600 4063 929 4331 
Q 1259 4600 1759 4600 
Q 2128 4600 2406 4451 
Q 2684 4303 2865 4023 
Q 3047 3744 3150 3342 
Q 3253 2941 3253 2259 
Q 3253 1453 3087 958 
Q 2922 463 2592 192 
Q 2263 -78 1759 -78 
Q 1097 -78 719 397 
Q 266 969 266 2259 
z
M 844 2259 
Q 844 1131 1108 757 
Q 1372 384 1759 384 
Q 2147 384 2411 759 
Q 2675 1134 2675 2259 
Q 2675 3391 2411 3762 
Q 2147 4134 1753 4134 
Q 1366 4134 1134 3806 
Q 844 3388 844 2259 
z
" transform="scale(0.015625)"/>
       </defs>
       <use xlink:href="#ArialMT-2212"/>
       <use xlink:href="#ArialMT-31" x="58.398438"/>
       <use xlink:href="#ArialMT-30" x="114.013672"/>
      </g>
     </g>
    </g>
    <g id="xtick_2">
     <g id="line2d_3">
      <path d="M 131.13 261.522031 
L 131.13 13.642031 
" clip-path="url(#p95233726e2)" style="fill: none; stroke: #b0b0b0; stroke-opacity: 0.25; stroke-width: 0.8; stroke-linecap: square"/>
     </g>
     <g id="line2d_4">
      <g>
       <use xlink:href="#mc54c88fe41" x="131.13" y="261.522031" style="stroke: #000000; stroke-width: 0.8"/>
      </g>
     </g>
     <g id="text_2">
      <!-- −5 -->
      <g transform="translate(120.868594 281.406094)scale(0.18 -0.18)">
       <defs>
        <path id="ArialMT-35" d="M 266 1200 
L 856 1250 
Q 922 819 1161 601 
Q 1400 384 1738 384 
Q 2144 384 2425 690 
Q 2706 997 2706 1503 
Q 2706 1984 2436 2262 
Q 2166 2541 1728 2541 
Q 1456 2541 1237 2417 
Q 1019 2294 894 2097 
L 366 2166 
L 809 4519 
L 3088 4519 
L 3088 3981 
L 1259 3981 
L 1013 2750 
Q 1425 3038 1878 3038 
Q 2478 3038 2890 2622 
Q 3303 2206 3303 1553 
Q 3303 931 2941 478 
Q 2500 -78 1738 -78 
Q 1113 -78 717 272 
Q 322 622 266 1200 
z
" transform="scale(0.015625)"/>
       </defs>
       <use xlink:href="#ArialMT-2212"/>
       <use xlink:href="#ArialMT-35" x="58.398438"/>
      </g>
     </g>
    </g>
    <g id="xtick_3">
     <g id="line2d_5">
      <path d="M 217.5275 261.522031 
L 217.5275 13.642031 
" clip-path="url(#p95233726e2)" style="fill: none; stroke: #b0b0b0; stroke-opacity: 0.25; stroke-width: 0.8; stroke-linecap: square"/>
     </g>
     <g id="line2d_6">
      <g>
       <use xlink:href="#mc54c88fe41" x="217.5275" y="261.522031" style="stroke: #000000; stroke-width: 0.8"/>
      </g>
     </g>
     <g id="text_3">
      <!-- 0 -->
      <g transform="translate(212.522656 281.406094)scale(0.18 -0.18)">
       <use xlink:href="#ArialMT-30"/>
      </g>
     </g>
    </g>
    <g id="xtick_4">
     <g id="line2d_7">
      <path d="M 303.925 261.522031 
L 303.925 13.642031 
" clip-path="url(#p95233726e2)" style="fill: none; stroke: #b0b0b0; stroke-opacity: 0.25; stroke-width: 0.8; stroke-linecap: square"/>
     </g>
     <g id="line2d_8">
      <g>
       <use xlink:href="#mc54c88fe41" x="303.925" y="261.522031" style="stroke: #000000; stroke-width: 0.8"/>
      </g>
     </g>
     <g id="text_4">
      <!-- 5 -->
      <g transform="translate(298.920156 281.406094)scale(0.18 -0.18)">
       <use xlink:href="#ArialMT-35"/>
      </g>
     </g>
    </g>
    <g id="xtick_5">
     <g id="line2d_9">
      <path d="M 390.3225 261.522031 
L 390.3225 13.642031 
" clip-path="url(#p95233726e2)" style="fill: none; stroke: #b0b0b0; stroke-opacity: 0.25; stroke-width: 0.8; stroke-linecap: square"/>
     </g>
     <g id="line2d_10">
      <g>
       <use xlink:href="#mc54c88fe41" x="390.3225" y="261.522031" style="stroke: #000000; stroke-width: 0.8"/>
      </g>
     </g>
     <g id="text_5">
      <!-- 10 -->
      <g transform="translate(380.312813 281.406094)scale(0.18 -0.18)">
       <use xlink:href="#ArialMT-31"/>
       <use xlink:href="#ArialMT-30" x="55.615234"/>
      </g>
     </g>
    </g>
   </g>
   <g id="matplotlib.axis_2">
    <g id="ytick_1">
     <g id="line2d_11">
      <path d="M 44.7325 261.522031 
L 390.3225 261.522031 
" clip-path="url(#p95233726e2)" style="fill: none; stroke: #b0b0b0; stroke-opacity: 0.25; stroke-width: 0.8; stroke-linecap: square"/>
     </g>
     <g id="line2d_12">
      <defs>
       <path id="m52d0e0f0b1" d="M 0 0 
L -3.5 0 
" style="stroke: #000000; stroke-width: 0.8"/>
      </defs>
      <g>
       <use xlink:href="#m52d0e0f0b1" x="44.7325" y="261.522031" style="stroke: #000000; stroke-width: 0.8"/>
      </g>
     </g>
     <g id="text_6">
      <!-- −40 -->
      <g transform="translate(7.2 267.964063)scale(0.18 -0.18)">
       <defs>
        <path id="ArialMT-34" d="M 2069 0 
L 2069 1097 
L 81 1097 
L 81 1613 
L 2172 4581 
L 2631 4581 
L 2631 1613 
L 3250 1613 
L 3250 1097 
L 2631 1097 
L 2631 0 
L 2069 0 
z
M 2069 1613 
L 2069 3678 
L 634 1613 
L 2069 1613 
z
" transform="scale(0.015625)"/>
       </defs>
       <use xlink:href="#ArialMT-2212"/>
       <use xlink:href="#ArialMT-34" x="58.398438"/>
       <use xlink:href="#ArialMT-30" x="114.013672"/>
      </g>
     </g>
    </g>
    <g id="ytick_2">
     <g id="line2d_13">
      <path d="M 44.7325 199.552031 
L 390.3225 199.552031 
" clip-path="url(#p95233726e2)" style="fill: none; stroke: #b0b0b0; stroke-opacity: 0.25; stroke-width: 0.8; stroke-linecap: square"/>
     </g>
     <g id="line2d_14">
      <g>
       <use xlink:href="#m52d0e0f0b1" x="44.7325" y="199.552031" style="stroke: #000000; stroke-width: 0.8"/>
      </g>
     </g>
     <g id="text_7">
      <!-- −30 -->
      <g transform="translate(7.2 205.994062)scale(0.18 -0.18)">
       <defs>
        <path id="ArialMT-33" d="M 269 1209 
L 831 1284 
Q 928 806 1161 595 
Q 1394 384 1728 384 
Q 2125 384 2398 659 
Q 2672 934 2672 1341 
Q 2672 1728 2419 1979 
Q 2166 2231 1775 2231 
Q 1616 2231 1378 2169 
L 1441 2663 
Q 1497 2656 1531 2656 
Q 1891 2656 2178 2843 
Q 2466 3031 2466 3422 
Q 2466 3731 2256 3934 
Q 2047 4138 1716 4138 
Q 1388 4138 1169 3931 
Q 950 3725 888 3313 
L 325 3413 
Q 428 3978 793 4289 
Q 1159 4600 1703 4600 
Q 2078 4600 2393 4439 
Q 2709 4278 2876 4000 
Q 3044 3722 3044 3409 
Q 3044 3113 2884 2869 
Q 2725 2625 2413 2481 
Q 2819 2388 3044 2092 
Q 3269 1797 3269 1353 
Q 3269 753 2831 336 
Q 2394 -81 1725 -81 
Q 1122 -81 723 278 
Q 325 638 269 1209 
z
" transform="scale(0.015625)"/>
       </defs>
       <use xlink:href="#ArialMT-2212"/>
       <use xlink:href="#ArialMT-33" x="58.398438"/>
       <use xlink:href="#ArialMT-30" x="114.013672"/>
      </g>
     </g>
    </g>
    <g id="ytick_3">
     <g id="line2d_15">
      <path d="M 44.7325 137.582031 
L 390.3225 137.582031 
" clip-path="url(#p95233726e2)" style="fill: none; stroke: #b0b0b0; stroke-opacity: 0.25; stroke-width: 0.8; stroke-linecap: square"/>
     </g>
     <g id="line2d_16">
      <g>
       <use xlink:href="#m52d0e0f0b1" x="44.7325" y="137.582031" style="stroke: #000000; stroke-width: 0.8"/>
      </g>
     </g>
     <g id="text_8">
      <!-- −20 -->
      <g transform="translate(7.2 144.024063)scale(0.18 -0.18)">
       <defs>
        <path id="ArialMT-32" d="M 3222 541 
L 3222 0 
L 194 0 
Q 188 203 259 391 
Q 375 700 629 1000 
Q 884 1300 1366 1694 
Q 2113 2306 2375 2664 
Q 2638 3022 2638 3341 
Q 2638 3675 2398 3904 
Q 2159 4134 1775 4134 
Q 1369 4134 1125 3890 
Q 881 3647 878 3216 
L 300 3275 
Q 359 3922 746 4261 
Q 1134 4600 1788 4600 
Q 2447 4600 2831 4234 
Q 3216 3869 3216 3328 
Q 3216 3053 3103 2787 
Q 2991 2522 2730 2228 
Q 2469 1934 1863 1422 
Q 1356 997 1212 845 
Q 1069 694 975 541 
L 3222 541 
z
" transform="scale(0.015625)"/>
       </defs>
       <use xlink:href="#ArialMT-2212"/>
       <use xlink:href="#ArialMT-32" x="58.398438"/>
       <use xlink:href="#ArialMT-30" x="114.013672"/>
      </g>
     </g>
    </g>
    <g id="ytick_4">
     <g id="line2d_17">
      <path d="M 44.7325 75.612031 
L 390.3225 75.612031 
" clip-path="url(#p95233726e2)" style="fill: none; stroke: #b0b0b0; stroke-opacity: 0.25; stroke-width: 0.8; stroke-linecap: square"/>
     </g>
     <g id="line2d_18">
      <g>
       <use xlink:href="#m52d0e0f0b1" x="44.7325" y="75.612031" style="stroke: #000000; stroke-width: 0.8"/>
      </g>
     </g>
     <g id="text_9">
      <!-- −10 -->
      <g transform="translate(7.2 82.054062)scale(0.18 -0.18)">
       <use xlink:href="#ArialMT-2212"/>
       <use xlink:href="#ArialMT-31" x="58.398438"/>
       <use xlink:href="#ArialMT-30" x="114.013672"/>
      </g>
     </g>
    </g>
    <g id="ytick_5">
     <g id="line2d_19">
      <path d="M 44.7325 13.642031 
L 390.3225 13.642031 
" clip-path="url(#p95233726e2)" style="fill: none; stroke: #b0b0b0; stroke-opacity: 0.25; stroke-width: 0.8; stroke-linecap: square"/>
     </g>
     <g id="line2d_20">
      <g>
       <use xlink:href="#m52d0e0f0b1" x="44.7325" y="13.642031" style="stroke: #000000; stroke-width: 0.8"/>
      </g>
     </g>
     <g id="text_10">
      <!-- 0 -->
      <g transform="translate(27.722813 20.084063)scale(0.18 -0.18)">
       <use xlink:href="#ArialMT-30"/>
      </g>
     </g>
    </g>
   </g>
   <g id="line2d_21">
    <path d="M 80.184461 235.847578 
L 80.974018 234.558442 
L 81.131929 233.170142 
L 81.763575 231.451294 
L 82.553132 229.897719 
L 82.553132 235.797996 
L 83.342688 234.360113 
L 83.5006 232.773485 
L 84.132245 235.946742 
L 84.290157 228.806912 
L 84.329634 230.988527 
L 84.921802 233.963456 
L 85.31658 232.575156 
L 86.500915 231.583513 
L 86.500915 228.145817 
L 86.500915 230.52576 
L 88.672197 231.236438 
L 88.869586 228.806912 
L 88.869586 229.996884 
L 91.040867 231.186856 
L 91.396167 228.251592 
L 92.027813 226.426969 
L 92.225202 231.781841 
L 92.975281 223.134713 
L 93.606926 228.939131 
L 93.606926 232.178499 
L 93.764838 221.111761 
L 93.804315 227.517776 
L 94.001705 231.28602 
L 94.396483 226.625297 
L 94.593872 219.386302 
L 95.18604 229.203569 
L 95.18604 228.013598 
L 95.18604 222.956218 
L 95.383429 217.898838 
L 95.975597 226.823626 
L 96.172986 221.072096 
L 96.765153 223.848696 
L 96.962542 219.683795 
L 97.159932 222.658725 
L 97.55471 216.907195 
L 97.55471 218.097166 
L 98.344267 221.468753 
L 99.133824 219.287138 
L 99.133824 220.47711 
L 99.92338 217.039414 
L 99.92338 218.229385 
L 100.555026 221.746413 
L 101.660405 219.842458 
L 102.292051 218.097166 
L 103.081607 221.270424 
L 103.871164 220.47711 
L 104.029075 216.748532 
L 104.029075 219.128475 
L 104.660721 214.923908 
L 105.450278 211.552322 
L 106.239834 216.11388 
L 106.239834 220.080453 
L 106.397746 209.926027 
L 107.029391 215.056128 
L 107.22678 208.2799 
L 107.818948 216.510537 
L 107.818948 218.097166 
L 108.016337 206.792435 
L 108.608505 215.320566 
L 108.805894 210.164021 
L 109.398061 211.948979 
L 109.595451 208.676557 
L 110.187618 206.296613 
L 110.187618 207.387421 
L 111.135086 210.283019 
L 112.556288 206.329668 
L 112.556288 207.51964 
L 113.148456 211.254829 
L 113.345845 209.6682 
L 114.332791 211.998561 
L 115.122348 207.387421 
L 115.714516 210.230131 
L 115.714516 212.345636 
L 116.504072 211.88287 
L 117.135718 208.577392 
L 117.293629 205.933011 
L 117.293629 207.122983 
L 117.491018 204.511656 
L 118.083186 203.619177 
L 118.872743 200.396337 
L 119.030654 209.053381 
L 119.662299 205.007477 
L 119.662299 207.387421 
L 119.662299 199.454276 
L 120.057078 203.817506 
L 121.241413 206.792435 
L 130.716094 203.817506 
L 130.716094 204.809149 
L 131.242465 202.891972 
L 132.295207 195.586868 
L 132.295207 198.132085 
L 132.492597 199.355112 
L 133.084764 194.165513 
L 133.874321 197.074332 
L 134.663878 195.091046 
L 135.650824 193.901074 
L 136.242991 195.487703 
L 140.980332 181.208043 
L 148.086343 176.580375 
L 148.086343 177.572018 
L 148.244254 175.020189 
L 150.060235 175.85317 
L 150.060235 177.93562 
L 150.191827 174.33265 
L 155.192353 161.705728 
L 155.192353 160.581866 
L 155.350265 157.170613 
L 155.718725 165.606191 
L 156.179299 155.326157 
L 156.376689 153.838693 
L 156.771467 157.408608 
L 156.771467 160.383537 
L 157.561024 153.243707 
L 166.838316 144.517247 
L 167.29889 148.153272 
L 167.430483 145.50889 
L 167.430483 146.698862 
L 167.825262 141.343989 
L 167.825262 148.880477 
L 167.983173 140.114352 
L 168.22004 138.36906 
L 168.614818 144.318919 
L 168.614818 137.179088 
L 175.720829 139.030155 
L 175.720829 139.889579 
L 175.878741 137.417083 
L 177.299943 135.592459 
L 177.457854 132.33987 
L 177.694721 139.06321 
L 178.089499 136.782431 
L 178.089499 137.972403 
L 178.089499 124.287728 
L 178.484278 122.106113 
L 178.484278 123.296085 
L 179.273835 132.419201 
L 179.668613 135.52635 
L 179.668613 127.262657 
L 179.668613 136.584102 
L 183.813786 110.107231 
L 184.011175 114.966282 
L 184.011175 116.05709 
L 184.405954 117.147897 
L 191.511964 108.223109 
L 191.906743 103.760715 
L 191.906743 106.537316 
L 192.459432 100.289964 
L 193.091078 95.001201 
L 193.091078 98.571116 
L 193.248989 93.388128 
L 193.880635 88.489411 
L 193.880635 89.778547 
L 193.880635 86.406961 
L 194.670191 93.943448 
L 194.670191 95.13342 
L 194.670191 74.97001 
L 194.828103 73.555266 
L 195.459748 71.730643 
L 196.249305 70.540671 
L 196.841472 75.598051 
L 197.236251 72.82145 
L 197.43364 76.589694 
L 197.828418 77.680501 
L 198.025808 71.43315 
L 198.617975 73.317272 
L 198.617975 74.507243 
L 198.815364 67.317831 
L 199.407532 72.1273 
L 200.789256 67.863234 
L 201.144557 66.177441 
L 201.381424 64.392484 
L 201.776202 68.755713 
L 201.776202 63.004183 
L 202.565759 59.037611 
L 202.565759 60.029254 
L 210.461327 41.386363 
L 210.461327 42.972992 
L 212.04044 33.651547 
L 212.04044 31.271603 
L 212.04044 32.461575 
L 212.829997 29.684974 
L 212.829997 27.305031 
L 212.829997 28.495003 
L 214.40911 21.75183 
L 215.198667 20.363529 
L 215.593445 19.173557 
L 217.567337 12.694822 
L 219.541229 13.124534 
L 220.725564 14.47978 
L 221.317732 16.000299 
L 222.304678 17.520819 
L 223.094235 19.900762 
L 223.489013 20.859351 
L 225.068127 25.520073 
L 225.068127 27.800853 
L 225.462905 26.908374 
L 225.989276 28.95777 
L 226.515647 32.726013 
L 227.436797 33.651547 
L 227.436797 36.03149 
L 227.634186 37.518955 
L 228.226354 38.609763 
L 228.226354 39.799734 
L 228.423743 41.287199 
L 229.805467 45.947922 
L 229.805467 48.228701 
L 230.989802 51.104466 
L 231.779359 54.277724 
L 231.779359 57.054324 
L 232.568916 59.037611 
L 232.568916 92.753477 
L 233.358473 95.926735 
L 233.358473 98.703335 
L 233.753251 99.992471 
L 234.148029 68.557385 
L 234.148029 69.747356 
L 234.542808 106.63648 
L 234.937586 107.33063 
L 235.332364 108.421438 
L 235.332364 109.512245 
L 235.727143 115.230721 
L 235.727143 112.850777 
L 235.727143 114.040749 
L 236.31931 117.842047 
L 236.5167 122.106113 
L 236.5167 123.296085 
L 236.714089 116.453747 
L 237.306256 131.625887 
L 237.306256 129.245943 
L 237.306256 124.486056 
L 237.306256 128.055972 
L 237.937902 139.955689 
L 238.095813 134.799145 
L 238.095813 138.36906 
L 238.095813 143.128947 
L 238.095813 116.552911 
L 238.095813 120.916141 
L 238.490591 123.692742 
L 238.490591 122.50277 
L 238.88537 153.904802 
L 238.88537 144.318919 
L 239.280148 125.279371 
L 239.280148 130.039258 
L 239.280148 131.625887 
L 239.674927 165.341753 
L 239.674927 159.391894 
L 240.069705 134.799145 
L 240.069705 135.989116 
L 240.267094 175.059855 
L 240.306572 139.995355 
L 240.464483 173.671555 
L 240.464483 170.10164 
L 240.464483 137.443526 
L 240.464483 168.911668 
L 241.25404 153.970912 
L 241.25404 182.728562 
L 241.25404 144.583357 
L 241.25404 151.723187 
L 241.885686 184.301969 
L 242.043597 157.01195 
L 242.043597 165.341753 
L 242.833154 173.671555 
L 242.833154 153.838693 
L 242.833154 174.861527 
L 242.833154 171.291611 
L 243.227932 152.450392 
L 243.425321 185.372944 
L 243.62271 162.168495 
L 243.62271 182.794671 
L 243.62271 160.581866 
L 243.62271 165.341753 
L 244.412267 173.671555 
L 244.412267 171.291611 
L 244.412267 186.166258 
L 244.412267 183.984643 
L 245.991381 181.869138 
L 245.991381 183.05911 
L 246.18877 180.513892 
L 246.18877 185.273779 
L 246.780937 186.364587 
L 247.044123 184.116862 
L 248.360051 181.208043 
L 248.360051 182.398014 
L 248.360051 180.018071 
L 248.754829 183.587986 
L 248.754829 184.777958 
L 257.045175 184.777958 
L 257.045175 185.967929 
L 257.834732 188.645366 
L 258.032121 187.058737 
L 259.019067 185.372944 
L 259.413846 188.942859 
L 259.808624 188.347873 
L 259.940217 186.893463 
L 265.572388 194.416729 
L 266.125078 192.909431 
L 271.651975 189.934502 
L 271.651975 191.124474 
L 272.678399 192.909431 
L 274.020646 197.47099 
L 274.415424 206.990764 
L 274.415424 204.61082 
L 274.415424 198.660961 
L 274.415424 201.437562 
L 275.007592 208.379064 
L 275.599759 209.271543 
L 275.994538 201.437562 
L 276.389316 206.891599 
L 276.389316 205.800792 
L 276.389316 204.61082 
L 283.100548 207.982407 
L 283.100548 216.907195 
L 283.692716 218.295495 
L 284.679662 219.683795 
L 284.679662 209.370707 
L 284.679662 211.552322 
L 285.07444 210.858172 
L 285.469219 214.527251 
L 285.469219 216.907195 
L 287.048332 219.36647 
L 287.837889 217.039414 
L 287.837889 215.849442 
L 289.417002 219.634213 
L 289.417002 216.907195 
L 289.614392 218.196331 
L 289.811781 214.923908 
L 289.811781 216.11388 
L 290.996116 220.278781 
L 296.128235 214.527251 
L 296.523013 218.295495 
L 296.917792 217.700509 
L 297.049384 216.246099 
L 303.431635 221.022514 
L 303.629024 219.683795 
L 304.418581 217.303852 
L 304.418581 218.493824 
L 304.418581 216.11388 
L 305.997694 221.005986 
L 305.997694 223.38593 
L 306.392473 216.312209 
L 306.589862 225.931147 
L 306.787251 217.436071 
L 306.787251 218.493824 
L 306.787251 224.575901 
L 307.734719 227.101286 
L 308.168975 231.781841 
L 308.366365 218.097166 
L 308.366365 230.393541 
L 308.366365 219.78296 
L 308.958532 234.161785 
L 309.155921 232.773485 
L 309.313833 225.078334 
L 309.748089 235.351757 
L 309.945478 222.063739 
L 309.945478 223.253711 
L 310.142867 226.674879 
L 310.735035 231.847951 
L 310.735035 236.012852 
L 310.735035 224.84034 
L 310.932424 230.492705 
L 311.524592 234.360113 
L 311.721981 232.872649 
L 312.708927 235.054264 
L 313.261617 230.790198 
L 313.893262 232.872649 
L 313.893262 233.864292 
L 315.472375 230.922417 
L 315.472375 232.112389 
L 315.630287 229.362232 
L 316.261932 233.500689 
L 317.841046 229.996884 
L 317.841046 228.806912 
L 317.841046 232.376827 
L 318.630602 234.88899 
L 318.827992 233.467635 
L 319.420159 235.550085 
L 319.814938 229.401898 
L 320.209716 230.657979 
L 320.209716 239.913315 
L 320.604494 242.194094 
L 320.999273 233.170142 
L 320.999273 234.360113 
L 321.196662 241.202451 
L 321.78883 235.285647 
L 321.78883 231.98017 
L 321.946741 243.562562 
L 322.578386 238.326686 
L 322.578386 239.516658 
L 322.578386 233.963456 
L 323.367943 242.161039 
L 323.565332 240.805794 
L 324.1575 243.324567 
L 324.947057 239.318329 
L 325.736613 240.442191 
L 325.736613 241.632163 
L 326.52617 242.557697 
L 327.473638 239.12 
L 328.263195 241.26195 
L 329.09223 242.590751 
L 329.684397 239.516658 
L 329.684397 238.326686 
L 330.631865 243.879887 
L 330.671343 240.607465 
L 331.4609 242.09493 
L 331.4609 245.615263 
L 331.658289 238.921672 
L 332.842624 249.036432 
L 332.842624 240.607465 
L 332.842624 250.226403 
L 333.000536 244.03855 
L 333.434792 251.614704 
L 333.82957 242.392423 
L 334.421738 252.804675 
L 334.816516 244.276545 
L 335.211294 250.490842 
L 335.211294 245.466516 
L 335.408684 249.135596 
L 336.000851 251.680813 
L 336.000851 253.53188 
L 337.579965 253.796319 
L 337.579965 252.705511 
L 343.896419 253.449243 
L 344.843887 251.813032 
L 345.475532 249.829746 
L 345.633444 254.43097 
L 346.462478 255.68044 
L 346.659867 251.416375 
L 347.054646 252.606347 
L 348.041592 253.895483 
L 348.633759 255.977933 
L 348.633759 255.250728 
L 350.212873 253.928538 
L 350.80504 255.035872 
L 352.581543 250.75528 
L 354.160657 253.135223 
L 354.318568 251.654369 
L 356.529327 251.680813 
L 356.529327 253.928538 
L 358.10844 254.391304 
L 358.897997 251.019718 
L 358.897997 252.20969 
L 359.055909 253.716987 
L 360.477111 253.59799 
L 361.266667 251.548594 
L 361.266667 252.606347 
L 363.635338 251.945251 
L 363.793249 250.464398 
L 364.424894 248.639774 
L 365.41184 253.300497 
L 366.004008 251.416375 
L 366.004008 254.906959 
L 366.161919 249.829746 
L 366.596176 256.473755 
L 367.583122 250.226403 
L 367.741033 257.921554 
L 367.9779 251.416375 
L 368.372678 252.606347 
L 368.372678 254.98629 
L 368.570067 259.299938 
L 369.359624 256.275426 
L 369.951792 257.630672 
L 369.951792 254.589633 
L 370.741349 259.34952 
L 371.530905 257.366234 
L 371.530905 255.977933 
L 372.91263 259.547849 
L 373.899576 255.647386 
L 376.070857 257.267069 
L 376.268246 254.721852 
L 376.268246 255.911824 
L 377.057803 259.41563 
L 377.255192 258.159548 
L 378.242138 255.184619 
L 378.636916 256.308481 
L 379.426473 259.151191 
L 379.584384 257.762891 
L 381.005586 258.952863 
L 386.927262 260.936149 
L 397.74419 261.174143 
L 399.954949 260.638656 
L 399.954949 261.531135 
L 401.928841 261.630299 
L 402.323619 260.936149 
L 402.323619 260.936149 
" clip-path="url(#p95233726e2)" style="fill: none; stroke: #ff4b17; stroke-width: 2.5; stroke-linecap: square"/>
   </g>
   <g id="line2d_22">
    <path d="M 87.290472 198.264304 
L 88.080029 199.454276 
L 88.080029 200.644248 
L 88.869586 201.702 
L 89.659142 197.206551 
L 89.659142 198.396523 
L 90.448699 201.040905 
L 90.646088 199.652604 
L 91.435645 202.429205 
L 91.633034 198.065975 
L 92.225202 203.520013 
L 92.81737 201.040905 
L 92.81737 199.652604 
L 93.014759 205.106642 
L 93.606926 206.461887 
L 94.238572 208.260067 
L 94.396483 200.24759 
L 95.18604 210.031802 
L 95.343951 205.16614 
L 96.172986 206.891599 
L 96.765153 203.685286 
L 97.159932 210.858172 
L 97.55471 205.007477 
L 97.752099 209.965693 
L 98.541656 206.296613 
L 98.739045 208.97405 
L 99.133824 204.346382 
L 99.133824 210.164021 
L 99.291735 202.786197 
L 99.331213 207.635332 
L 100.12077 199.751769 
L 100.712937 198.85929 
L 100.712937 195.355484 
L 100.870848 193.742411 
L 100.870848 205.642129 
L 101.107715 207.189092 
L 101.699883 202.528369 
L 102.292051 192.182226 
L 102.292051 201.635891 
L 102.449962 190.569154 
L 102.449962 200.088927 
L 103.081607 197.338771 
L 103.081607 202.627534 
L 103.081607 194.958827 
L 103.278997 193.603581 
L 103.278997 188.843694 
L 103.871164 200.049262 
L 104.068553 187.35623 
L 104.660721 192.446664 
L 104.660721 194.892717 
L 104.818632 190.886479 
L 105.055499 193.702746 
L 105.450278 189.141187 
L 106.239834 186.761244 
L 106.239834 187.951216 
L 107.029391 191.421967 
L 107.029391 190.529488 
L 108.016337 189.042023 
L 108.608505 187.157901 
L 108.608505 188.347873 
L 109.200672 192.41361 
L 110.187618 187.951216 
L 110.385007 193.454835 
L 110.582397 189.141187 
L 111.174564 194.991882 
L 111.766732 190.727816 
L 111.766732 191.917788 
L 111.964121 196.231436 
L 112.753678 193.10776 
L 113.543234 194.793553 
L 114.135402 196.320684 
L 114.135402 191.223638 
L 115.08287 193.10776 
L 115.714516 189.835338 
L 115.714516 194.826608 
L 116.504072 196.132271 
L 116.661984 191.679794 
L 117.293629 188.74453 
L 117.293629 193.504417 
L 118.280575 189.835338 
L 118.280575 194.446478 
L 118.872743 192.578884 
L 119.070132 191.124474 
L 120.451856 196.214908 
L 120.451856 199.454276 
L 120.451856 189.141187 
L 120.451856 195.091046 
L 121.241413 190.331159 
L 121.241413 203.420848 
L 122.03097 207.056873 
L 122.03097 205.933011 
L 122.228359 202.131712 
L 122.228359 204.511656 
L 122.820526 194.000239 
L 122.820526 200.24759 
L 122.978438 198.660961 
L 123.017916 208.379064 
L 123.807472 209.618618 
L 124.39964 203.288629 
L 124.39964 204.478601 
L 124.39964 206.858544 
L 124.39964 195.884361 
L 124.597029 201.933384 
L 124.794418 197.47099 
L 125.189197 199.983152 
L 125.189197 201.040905 
L 125.189197 198.79318 
L 125.386586 208.081571 
L 125.583975 210.858172 
L 126.176143 209.866529 
L 126.76831 204.346382 
L 126.76831 206.726325 
L 126.926221 202.786197 
L 127.557867 198.9254 
L 127.557867 210.560679 
L 127.557867 192.975541 
L 127.755256 191.620295 
L 127.755256 208.2799 
L 127.952645 209.767364 
L 128.347424 186.860408 
L 128.347424 190.331159 
L 128.742202 206.792435 
L 129.13698 183.191329 
L 129.13698 185.571272 
L 129.13698 208.180735 
L 129.294892 181.6047 
L 129.294892 203.024191 
L 129.531759 201.239233 
L 129.926537 178.69588 
L 129.926537 179.885852 
L 129.926537 200.115371 
L 129.926537 177.505908 
L 130.084449 191.362468 
L 130.084449 175.892835 
L 130.716094 189.670064 
L 130.716094 188.480092 
L 130.716094 174.200431 
L 130.716094 203.817506 
L 130.913483 187.058737 
L 130.913483 172.779076 
L 131.505651 198.065975 
L 131.505651 170.762735 
L 131.505651 186.166258 
L 131.663562 181.04938 
L 131.663562 169.149662 
L 132.295207 175.654841 
L 132.295207 187.35623 
L 133.084764 181.6047 
L 133.084764 173.274898 
L 133.084764 174.464869 
L 133.874321 168.515011 
L 133.874321 172.084926 
L 134.466489 178.233113 
L 134.663878 175.654841 
L 134.663878 176.844813 
L 135.453434 173.274898 
L 135.453434 174.464869 
L 135.848213 182.695507 
L 136.242991 181.869138 
L 136.242991 168.779449 
L 136.242991 172.349364 
L 136.44038 179.323921 
L 137.032548 185.571272 
L 137.032548 188.843694 
L 137.032548 177.24147 
L 137.032548 186.761244 
L 137.190459 183.984643 
L 137.190459 175.654841 
L 137.822105 193.636636 
L 137.822105 196.01658 
L 137.822105 171.291611 
L 138.019494 174.068212 
L 138.019494 189.835338 
L 138.216883 172.481583 
L 138.611662 178.431442 
L 138.611662 202.495315 
L 138.611662 198.9254 
L 138.809051 197.570154 
L 138.809051 179.720578 
L 139.00644 176.448156 
L 139.00644 177.638127 
L 139.401218 203.685286 
L 139.401218 183.455767 
L 139.401218 185.83571 
L 140.190775 191.388912 
L 140.190775 196.148799 
L 140.348686 189.775839 
L 140.980332 205.734682 
L 140.980332 204.61082 
L 140.980332 180.811385 
L 140.980332 198.660961 
L 141.769889 184.645739 
L 141.769889 185.83571 
L 141.769889 188.215654 
L 141.967278 183.290493 
L 141.967278 203.520013 
L 142.559445 194.165513 
L 142.559445 196.545456 
L 142.559445 179.720578 
L 142.756834 206.346195 
L 143.349002 171.985762 
L 143.349002 178.167004 
L 143.349002 201.966438 
L 143.546391 205.404135 
L 144.138559 170.498297 
L 144.138559 188.347873 
L 144.29647 168.911668 
L 144.29647 203.381183 
L 144.533337 191.521131 
L 144.533337 192.711103 
L 144.928116 199.057619 
L 144.928116 201.437562 
L 144.928116 160.284373 
L 144.928116 161.639618 
L 145.086027 190.172496 
L 145.717672 186.364587 
L 145.717672 188.74453 
L 145.717672 158.863018 
L 145.717672 183.984643 
L 145.875584 171.529606 
L 145.875584 157.249945 
L 146.112451 182.695507 
L 146.112451 181.6047 
L 146.507229 169.837201 
L 146.507229 180.414728 
L 146.507229 179.224756 
L 146.704618 168.415846 
L 146.704618 155.326157 
L 147.296786 175.258184 
L 147.296786 171.688269 
L 147.296786 153.970912 
L 147.296786 176.844813 
L 148.086343 169.506654 
L 148.086343 158.598579 
L 148.086343 168.515011 
L 148.244254 157.01195 
L 149.033811 153.204041 
L 149.073289 155.425322 
L 149.665456 163.556795 
L 149.665456 159.788551 
L 149.665456 164.548438 
L 150.652402 157.309443 
L 150.849791 152.847049 
L 151.24457 177.836456 
L 151.24457 174.33265 
L 151.24457 154.103131 
L 151.24457 167.19282 
L 151.402481 165.579747 
L 151.402481 172.719577 
L 151.836737 180.712221 
L 152.034126 158.995237 
L 152.034126 162.697371 
L 152.231516 170.79579 
L 152.231516 179.125592 
L 152.231516 160.086044 
L 152.428905 158.003594 
L 152.626294 191.521131 
L 152.823683 186.629025 
L 152.823683 189.008968 
L 152.823683 183.05911 
L 152.823683 190.19894 
L 153.021072 181.6047 
L 153.61324 166.663943 
L 153.61324 169.043887 
L 153.61324 197.603209 
L 153.61324 195.223265 
L 153.810629 165.242588 
L 153.810629 192.611938 
L 153.810629 172.382419 
L 154.008018 160.780194 
L 154.008018 163.160138 
L 154.402797 179.885852 
L 154.402797 198.819624 
L 154.402797 164.151781 
L 154.600186 178.431442 
L 154.600186 170.10164 
L 155.192353 190.860035 
L 155.192353 182.530233 
L 155.192353 189.670064 
L 155.389743 199.900515 
L 155.389743 181.108878 
L 155.784521 165.73841 
L 155.98191 176.844813 
L 155.98191 197.074332 
L 156.179299 168.217518 
L 156.179299 192.116117 
L 156.771467 179.489194 
L 156.771467 171.159392 
L 156.968856 198.264304 
L 156.968856 169.556236 
L 156.968856 178.034785 
L 157.561024 157.507772 
L 157.561024 199.520385 
L 157.561024 182.133576 
L 157.758413 180.712221 
L 157.758413 160.482701 
L 158.35058 175.125965 
L 158.35058 154.896445 
L 158.35058 197.867647 
L 158.508492 153.283372 
L 158.54797 167.721696 
L 158.54797 191.521131 
L 158.54797 159.094401 
L 158.613766 165.209534 
L 159.140137 189.537845 
L 159.140137 187.157901 
L 159.140137 170.564406 
L 159.337526 177.538963 
L 159.337526 151.359585 
L 159.337526 169.209161 
L 159.534916 184.777958 
L 159.534916 180.216399 
L 159.929694 162.432933 
L 159.929694 150.467106 
L 160.087605 160.81986 
L 160.087605 157.249945 
L 160.087605 148.920143 
L 160.456065 175.919279 
L 160.719251 168.515011 
L 160.719251 144.715576 
L 160.719251 166.068958 
L 161.508808 162.565152 
L 161.508808 163.755124 
L 161.508808 143.525604 
L 162.298364 150.665435 
L 162.298364 148.285491 
L 162.298364 156.615293 
L 163.087921 144.715576 
L 163.087921 145.905548 
L 163.087921 155.425322 
L 163.877478 151.855406 
L 163.877478 143.525604 
L 164.469645 159.391894 
L 164.667035 149.739901 
L 164.667035 150.929873 
L 164.667035 158.069703 
L 164.864424 148.384655 
L 164.864424 156.714458 
L 165.259202 167.82086 
L 165.456591 162.961809 
L 165.456591 171.48994 
L 165.456591 144.913904 
L 165.65398 160.284373 
L 166.246148 171.027173 
L 166.404059 169.466988 
L 166.640926 148.682148 
L 166.838316 173.869883 
L 167.035705 149.87212 
L 167.035705 158.201922 
L 167.035705 172.481583 
L 167.825262 167.853915 
L 167.825262 153.574254 
L 167.825262 160.714085 
L 168.022651 159.29273 
L 168.022651 174.71278 
L 168.022651 152.152899 
L 168.614818 171.42383 
L 168.614818 170.233859 
L 169.404375 145.905548 
L 169.404375 148.285491 
L 169.404375 150.665435 
L 169.562286 172.87824 
L 169.562286 144.318919 
L 169.562286 157.408608 
L 170.193932 160.978523 
L 170.193932 174.464869 
L 170.193932 137.179088 
L 170.193932 153.838693 
L 170.351843 152.252064 
L 170.351843 159.391894 
L 170.351843 135.592459 
L 170.983489 172.87824 
L 170.983489 134.402487 
L 171.1414 169.863645 
L 171.1414 132.974521 
L 171.773045 168.118353 
L 171.773045 162.168495 
L 171.773045 144.318919 
L 171.773045 157.408608 
L 172.167824 159.689387 
L 172.167824 152.648721 
L 172.562602 126.733781 
L 172.562602 143.393385 
L 172.562602 141.013442 
L 172.759991 125.378535 
L 172.759991 151.508331 
L 172.759991 136.088281 
L 173.352159 149.87212 
L 173.352159 147.492177 
L 173.352159 124.486056 
L 173.51007 123.05809 
L 173.549548 132.716694 
L 174.141716 120.122827 
L 174.141716 121.312798 
L 174.141716 141.938975 
L 174.141716 117.742883 
L 174.141716 118.932855 
L 174.931272 131.09701 
L 174.931272 136.517993 
L 174.931272 114.437406 
L 174.931272 128.717067 
L 175.128662 126.17185 
L 175.128662 113.08216 
L 175.326051 134.799145 
L 175.326051 133.609173 
L 175.720829 112.189682 
L 175.720829 125.279371 
L 175.878741 122.661433 
L 175.878741 110.761716 
L 175.918218 132.220873 
L 176.510386 129.245943 
L 176.510386 130.435915 
L 176.510386 119.990608 
L 176.510386 121.180579 
L 176.707775 118.635362 
L 176.707775 109.115588 
L 177.299943 108.024781 
L 177.299943 124.089399 
L 177.457854 106.63648 
L 177.457854 113.776311 
L 177.694721 122.800263 
L 178.247411 111.158373 
L 178.879056 121.709456 
L 178.879056 119.329512 
L 179.076445 109.313917 
L 179.668613 106.107604 
L 179.668613 118.13954 
L 179.826524 113.934974 
L 180.45817 127.262657 
L 180.45817 110.99971 
L 180.45817 122.899427 
L 181.247726 130.039258 
L 181.247726 107.429795 
L 181.247726 132.419201 
L 181.247726 109.809738 
L 181.405638 135.394131 
L 182.037283 112.189682 
L 182.037283 143.062837 
L 182.037283 133.609173 
L 182.432062 110.603053 
L 182.82684 146.698862 
L 182.82684 145.641109 
L 182.82684 124.221618 
L 182.82684 127.791533 
L 183.024229 126.370178 
L 183.024229 122.800263 
L 183.024229 144.219754 
L 183.616397 131.361449 
L 183.616397 136.121336 
L 183.616397 119.230348 
L 183.616397 128.981505 
L 184.405954 117.808993 
L 184.405954 142.864509 
L 184.563865 137.734408 
L 184.603343 116.453747 
L 185.19551 146.764972 
L 185.19551 145.641109 
L 185.19551 124.221618 
L 185.392899 133.510009 
L 185.392899 144.219754 
L 185.392899 122.800263 
L 185.392899 126.370178 
L 185.590289 111.098874 
L 185.985067 134.931364 
L 185.985067 131.361449 
L 185.985067 136.121336 
L 185.985067 113.08216 
L 185.985067 125.279371 
L 186.142978 109.809738 
L 186.774624 146.698862 
L 186.774624 140.220127 
L 186.774624 101.777429 
L 187.169402 145.707219 
L 187.300995 144.1867 
L 187.564181 133.510009 
L 187.564181 94.042613 
L 187.564181 111.892189 
L 187.958959 136.782431 
L 187.958959 132.022544 
L 188.353737 143.128947 
L 188.353737 91.563505 
L 188.353737 138.36906 
L 188.511649 129.404606 
L 188.511649 89.976876 
L 188.511649 118.694861 
L 188.748516 125.279371 
L 189.143294 126.469343 
L 189.143294 85.878084 
L 189.143294 127.659314 
L 189.143294 104.917632 
L 189.301205 84.265012 
L 189.301205 100.924616 
L 189.538072 112.189682 
L 189.932851 110.99971 
L 189.932851 119.131183 
L 189.932851 82.572607 
L 190.13024 81.151252 
L 190.13024 94.240941 
L 190.459222 108.487547 
L 190.722408 91.166848 
L 190.722408 80.457102 
L 190.722408 106.63648 
L 190.722408 93.546791 
L 190.880319 89.580219 
L 190.880319 78.870473 
L 191.248779 100.554402 
L 191.511964 85.481427 
L 191.511964 98.703335 
L 191.511964 87.861371 
L 191.669876 83.868354 
L 191.669876 76.728524 
L 192.301521 93.150134 
L 192.49891 82.142895 
L 192.827892 89.249671 
L 193.248989 78.632479 
L 193.880635 75.829434 
L 193.880635 87.795261 
L 194.078024 83.927853 
L 194.867581 82.539553 
L 195.459748 79.796007 
L 195.459748 80.985978 
L 195.657137 78.374651 
L 195.657137 89.034815 
L 195.854527 76.292201 
L 196.249305 95.19953 
L 196.249305 90.505752 
L 196.249305 77.283844 
L 196.249305 87.99359 
L 197.038862 104.124318 
L 197.038862 78.473816 
L 197.038862 107.694233 
L 197.038862 101.744374 
L 197.43364 79.862116 
L 197.43364 81.052088 
L 197.828418 114.503516 
L 197.98633 89.183561 
L 197.98633 109.413081 
L 198.223197 85.01866 
L 198.35479 83.498141 
L 198.420586 126.766835 
L 198.617975 125.41159 
L 198.617975 86.142523 
L 199.407532 133.080297 
L 199.407532 128.155136 
L 199.407532 97.215871 
L 199.407532 105.710947 
L 200.197089 113.644092 
L 200.197089 114.767954 
L 200.197089 88.654685 
L 200.355 109.651075 
L 200.986645 133.807502 
L 200.986645 91.166848 
L 200.986645 118.536198 
L 201.776202 106.768699 
L 201.776202 133.014187 
L 201.776202 98.438897 
L 201.776202 104.388756 
L 201.973591 128.155136 
L 201.973591 97.017542 
L 202.565759 115.495159 
L 202.565759 112.982996 
L 202.565759 77.283844 
L 202.565759 85.613646 
L 202.72367 75.697215 
L 202.763148 109.214752 
L 203.355316 119.329512 
L 203.355316 132.419201 
L 203.355316 64.458593 
L 203.513227 62.84552 
L 203.513227 60.386245 
L 203.552705 91.563505 
L 203.750094 127.56015 
L 204.144872 107.694233 
L 204.144872 115.759597 
L 204.144872 57.71542 
L 204.144872 99.364431 
L 204.342262 96.819213 
L 204.342262 56.360174 
L 204.539651 111.396367 
L 204.539651 109.016424 
L 204.934429 85.349208 
L 204.934429 52.029999 
L 204.934429 84.159236 
L 205.092341 75.459221 
L 205.092341 50.469814 
L 205.329208 95.13342 
L 205.329208 93.943448 
L 205.723986 47.66677 
L 205.723986 98.703335 
L 205.723986 44.096854 
L 205.723986 96.323392 
L 205.921375 42.675499 
L 206.513543 82.440388 
L 206.513543 39.469187 
L 206.513543 75.300558 
L 206.671454 37.856114 
L 206.671454 56.895662 
L 207.3031 52.691095 
L 207.3031 69.747356 
L 207.3031 32.461575 
L 207.3031 33.651547 
L 207.697878 60.822568 
L 208.092656 46.873455 
L 208.092656 59.830925 
L 208.092656 29.023879 
L 208.092656 56.26101 
L 208.290045 27.602524 
L 208.290045 43.072157 
L 208.882213 52.889423 
L 208.882213 51.89778 
L 208.882213 24.032609 
L 208.882213 37.122298 
L 209.67177 22.247651 
L 209.67177 45.947922 
L 209.67177 44.361293 
L 210.461327 39.204748 
L 210.461327 18.08275 
L 210.461327 40.791377 
L 210.461327 27.602524 
L 210.987698 36.428148 
L 211.250883 24.925088 
L 211.250883 26.115059 
L 211.250883 34.841519 
L 211.408795 16.198628 
L 211.645662 32.164082 
L 212.04044 28.495003 
L 212.04044 21.61961 
L 212.04044 30.874946 
L 212.04044 29.684974 
L 212.829997 25.321745 
L 212.829997 14.116178 
L 212.829997 20.29742 
L 213.356368 23.07402 
L 213.777465 15.960634 
L 214.014332 21.355172 
L 214.40911 13.02537 
L 214.40911 20.165201 
L 215.198667 14.215342 
L 215.988224 15.405314 
L 215.988224 16.595285 
L 216.777781 13.157589 
L 217.172559 19.074393 
L 217.725249 17.785257 
L 217.764727 14.41367 
L 218.356894 20.561858 
L 218.554283 15.801971 
L 219.146451 23.404568 
L 219.34384 22.049322 
L 219.541229 14.017013 
L 219.541229 25.817566 
L 220.093919 17.3886 
L 220.133397 24.726759 
L 220.330786 15.603642 
L 220.528175 28.990824 
L 220.883476 27.305031 
L 220.922954 20.363529 
L 221.515121 23.206239 
L 221.515121 31.469932 
L 221.515121 17.3886 
L 221.515121 18.578572 
L 221.71251 21.75183 
L 221.71251 30.081632 
L 221.9099 35.139012 
L 222.304678 25.98284 
L 222.304678 34.312642 
L 222.304678 19.768543 
L 222.502067 24.627595 
L 222.502067 32.957397 
L 222.896846 39.403077 
L 223.094235 22.941801 
L 223.094235 28.627222 
L 223.094235 38.146996 
L 223.252146 36.586811 
L 223.291624 27.205867 
L 223.686402 43.369649 
L 223.883791 30.081632 
L 223.883791 31.271603 
L 223.883791 41.981349 
L 223.883791 24.131773 
L 223.883791 25.321745 
L 224.475959 45.749593 
L 224.673348 26.511716 
L 224.673348 32.461575 
L 224.673348 44.361293 
L 225.462905 47.931208 
L 225.462905 49.12118 
L 225.462905 31.271603 
L 226.055073 50.50948 
L 226.252462 32.461575 
L 226.252462 33.651547 
L 226.252462 43.171321 
L 226.252462 34.841519 
L 226.64724 54.971874 
L 227.042018 45.815702 
L 227.042018 54.145505 
L 227.042018 36.03149 
L 227.239408 51.600287 
L 227.239408 44.460457 
L 227.436797 39.998063 
L 227.831575 49.517837 
L 227.831575 41.584692 
L 227.831575 61.615883 
L 227.989487 56.26101 
L 228.028964 46.8404 
L 228.779043 60.782903 
L 229.01591 69.648192 
L 229.410689 48.327865 
L 229.410689 47.137893 
L 229.410689 68.821823 
L 229.410689 65.251908 
L 229.608078 62.70669 
L 229.608078 50.806973 
L 230.200246 75.829434 
L 230.200246 73.58171 
L 230.200246 55.732134 
L 230.200246 71.036492 
L 230.989802 51.501123 
L 230.989802 54.277724 
L 231.147714 60.862234 
L 231.779359 78.077158 
L 231.779359 56.657667 
L 231.779359 82.837045 
L 231.779359 69.747356 
L 232.568916 61.417554 
L 232.568916 60.227582 
L 232.568916 86.671399 
L 232.568916 75.961653 
L 232.766305 84.126182 
L 232.766305 71.036492 
L 233.358473 68.160727 
L 233.358473 64.987469 
L 233.358473 88.68774 
L 233.516384 90.373533 
L 234.148029 72.1273 
L 234.148029 95.794515 
L 234.148029 70.937328 
L 234.148029 73.317272 
L 234.305941 77.521838 
L 234.345419 91.960162 
L 234.542808 75.697215 
L 234.937586 85.216989 
L 234.937586 99.49665 
L 235.332364 102.967401 
L 235.727143 82.837045 
L 235.727143 102.141031 
L 235.727143 80.457102 
L 235.924532 100.785786 
L 235.924532 87.696097 
L 236.31931 109.61141 
L 236.5167 84.820332 
L 236.5167 112.38801 
L 236.5167 94.075667 
L 236.674611 104.4152 
L 236.714089 91.464341 
L 237.306256 99.232212 
L 237.306256 88.390247 
L 237.306256 89.580219 
L 237.503646 97.810856 
L 237.503646 110.900546 
L 237.898424 114.966282 
L 238.095813 102.934346 
L 238.095813 92.356819 
L 238.095813 101.744374 
L 238.253724 113.220991 
L 238.293202 100.289964 
L 238.687981 117.742883 
L 238.88537 109.280862 
L 238.88537 97.116706 
L 238.88537 108.09089 
L 239.082759 116.255418 
L 239.082759 104.355701 
L 239.280148 98.703335 
L 239.477537 123.692742 
L 239.674927 101.479936 
L 239.674927 122.370551 
L 239.674927 100.289964 
L 239.674927 119.990608 
L 240.069705 102.868236 
L 240.464483 104.256537 
L 240.464483 127.923752 
L 240.464483 105.446508 
L 240.622395 113.220991 
L 240.622395 125.120708 
L 240.859262 109.016424 
L 241.056651 136.484938 
L 241.056651 131.92338 
L 241.25404 110.206395 
L 241.25404 117.478445 
L 241.25404 130.568134 
L 241.411951 134.799145 
L 241.648819 111.594696 
L 241.846208 137.823656 
L 242.043597 132.948078 
L 242.043597 118.668417 
L 242.043597 121.04836 
L 242.438375 113.379653 
L 242.438375 114.569625 
L 242.438375 149.17797 
L 242.635764 140.749003 
L 242.833154 148.285491 
L 242.833154 144.715576 
L 242.833154 116.156254 
L 242.833154 124.981878 
L 242.991065 143.128947 
L 243.227932 151.855406 
L 243.62271 117.742883 
L 243.62271 136.782431 
L 243.780622 129.245943 
L 243.780622 134.00583 
L 243.780622 150.665435 
L 244.017489 119.131183 
L 244.017489 121.511127 
L 244.412267 125.279371 
L 244.412267 126.469343 
L 244.570179 141.542318 
L 244.609656 138.170731 
L 244.807046 127.659314 
L 245.201824 134.00583 
L 245.201824 132.419201 
L 245.201824 128.849286 
L 245.201824 154.037021 
L 245.201824 148.153272 
L 245.359735 152.490058 
L 245.399213 139.559032 
L 245.596602 161.276016 
L 245.596602 135.195802 
L 245.596602 136.385774 
L 245.991381 160.449647 
L 245.991381 156.879731 
L 246.18877 155.524486 
L 246.18877 150.764599 
L 246.386159 137.972403 
L 246.517752 141.27788 
L 246.780937 165.209534 
L 246.780937 139.559032 
L 246.780937 144.318919 
L 247.175716 145.707219 
L 247.570494 169.374435 
L 247.570494 166.829217 
L 247.570494 146.831081 
L 247.570494 152.549556 
L 248.096865 150.797654 
L 248.360051 171.985762 
L 248.360051 170.994118 
L 248.360051 155.524486 
L 248.360051 159.259675 
L 249.149608 176.844813 
L 249.149608 153.045378 
L 249.149608 178.034785 
L 249.307519 163.358466 
L 249.346997 173.076569 
L 249.741775 183.092164 
L 249.939164 159.391894 
L 249.939164 181.736919 
L 249.939164 168.64723 
L 250.728721 171.390776 
L 250.728721 185.83571 
L 251.518278 174.861527 
L 251.518278 178.431442 
L 251.518278 165.341753 
L 251.518278 177.24147 
L 251.676189 187.554558 
L 251.676189 173.274898 
L 251.913056 167.920025 
L 251.913056 170.299968 
L 252.307835 171.688269 
L 252.307835 190.397269 
L 253.097392 176.051498 
L 253.097392 192.182226 
L 253.097392 186.496806 
L 253.255303 184.936621 
L 253.49217 177.24147 
L 253.886948 178.431442 
L 253.886948 187.951216 
L 254.281727 199.751769 
L 254.676505 198.9254 
L 254.676505 181.075823 
L 254.873894 195.19021 
L 254.873894 179.720578 
L 254.873894 189.240352 
L 255.466062 185.967929 
L 255.466062 187.157901 
L 255.466062 184.777958 
L 255.623973 201.040905 
L 255.663451 191.620295 
L 256.255619 205.668573 
L 256.41353 193.504417 
L 256.41353 203.024191 
L 256.650397 188.74453 
L 257.045175 199.454276 
L 257.045175 198.264304 
L 257.045175 189.934502 
L 257.045175 197.074332 
L 257.203087 195.487703 
L 257.834732 206.461887 
L 257.992643 191.679794 
L 257.992643 201.199568 
L 258.624289 193.504417 
L 258.624289 204.214163 
L 258.821678 205.602463 
L 259.413846 196.01658 
L 259.413846 199.586495 
L 259.413846 198.396523 
L 259.611235 189.835338 
L 259.611235 194.595225 
L 260.203402 191.256693 
L 260.203402 205.007477 
L 260.598181 203.123355 
L 260.992959 188.347873 
L 261.15087 186.761244 
L 261.782516 197.47099 
L 261.782516 201.040905 
L 261.782516 195.091046 
L 261.940427 193.504417 
L 261.940427 189.934502 
L 262.769462 191.917788 
L 263.361629 199.057619 
L 263.361629 187.025682 
L 263.361629 188.215654 
L 263.559019 185.670437 
L 263.756408 195.487703 
L 264.151186 190.727816 
L 264.309097 193.901074 
L 264.348575 189.240352 
L 264.940743 192.050007 
L 265.7303 187.157901 
L 265.7303 184.777958 
L 266.519856 188.347873 
L 266.519856 190.727816 
L 267.309413 193.239979 
L 267.309413 194.363841 
L 267.506802 191.818624 
L 267.704192 197.966811 
L 268.09897 187.554558 
L 268.09897 197.074332 
L 268.09897 185.174615 
L 268.09897 186.364587 
L 268.296359 195.686032 
L 268.888527 190.331159 
L 268.888527 199.586495 
L 269.085916 188.942859 
L 269.480694 209.866529 
L 269.678083 185.967929 
L 269.678083 208.577392 
L 269.678083 203.817506 
L 269.875473 201.239233 
L 269.875473 191.71946 
L 270.46764 188.74453 
L 270.46764 213.601718 
L 270.46764 198.132085 
L 270.665029 210.957336 
L 270.665029 195.438121 
L 270.862419 189.934502 
L 271.059808 223.650368 
L 271.257197 229.005241 
L 271.257197 191.124474 
L 271.454586 199.355112 
L 271.454586 215.023073 
L 271.651975 192.314445 
L 271.651975 193.405253 
L 272.046754 205.800792 
L 272.046754 228.542474 
L 272.046754 202.230877 
L 272.244143 200.842576 
L 272.244143 224.741175 
L 272.441532 196.479346 
L 272.441532 197.669318 
L 272.83631 199.057619 
L 272.83631 213.601718 
L 272.83631 211.221774 
L 273.0337 209.866529 
L 273.0337 230.096048 
L 273.625867 204.61082 
L 273.625867 200.644248 
L 273.625867 235.021209 
L 273.625867 231.451294 
L 274.415424 213.337279 
L 274.415424 228.674693 
L 274.573335 224.681677 
L 275.204981 229.996884 
L 275.204981 235.748414 
L 275.994538 233.699018 
L 275.994538 234.88899 
L 275.994538 219.419357 
L 275.994538 221.799301 
L 276.191927 231.087691 
L 276.191927 217.998002 
L 276.784094 226.823626 
L 276.784094 235.946742 
L 276.981483 224.245354 
L 277.573651 234.360113 
L 277.573651 208.180735 
L 277.573651 212.940622 
L 277.731562 206.594106 
L 278.100022 230.52576 
L 278.363208 228.806912 
L 278.363208 219.154919 
L 278.521119 204.452157 
L 278.560597 217.700509 
L 278.757986 225.137833 
L 279.152765 201.569781 
L 279.152765 202.759753 
L 279.350154 200.148426 
L 279.350154 223.898279 
L 279.942321 220.873767 
L 279.942321 198.79318 
L 279.942321 222.063739 
L 279.942321 212.279527 
L 280.468692 217.436071 
L 280.889789 197.074332 
L 280.889789 204.214163 
L 281.521435 210.560679 
L 281.521435 215.915552 
L 281.521435 195.355484 
L 281.521435 209.370707 
L 281.916213 207.189092 
L 281.916213 208.379064 
L 282.047806 205.668573 
L 282.310992 203.817506 
L 282.468903 198.502298 
L 282.468903 193.742411 
L 283.297938 196.776839 
L 283.495327 199.950097 
L 284.048016 192.076451 
L 284.087494 195.487703 
L 284.679662 193.901074 
L 284.679662 198.462633 
L 285.469219 197.47099 
L 286.258775 191.65335 
L 286.258775 196.413237 
L 286.456165 194.991882 
L 287.048332 198.561797 
L 287.048332 193.901074 
L 287.837889 192.711103 
L 288.627446 196.413237 
L 288.627446 197.603209 
L 288.824835 194.991882 
L 288.824835 199.702187 
L 289.022224 202.330041 
L 289.417002 194.297732 
L 289.614392 201.239233 
L 289.680188 198.79318 
L 290.00917 205.404135 
L 290.364471 203.658843 
L 290.601338 211.254829 
L 290.996116 210.42846 
L 290.996116 194.694389 
L 290.996116 215.320566 
L 290.996116 209.238488 
L 291.193505 195.983525 
L 291.193505 213.932265 
L 291.785673 217.832728 
L 291.785673 220.212672 
L 291.785673 198.660961 
L 291.983062 212.345636 
L 292.37784 224.542847 
L 292.575229 205.404135 
L 292.575229 223.253711 
L 292.733141 203.817506 
L 292.733141 221.667082 
L 293.364786 201.834219 
L 293.364786 233.269306 
L 293.364786 208.577392 
L 293.522698 214.130594 
L 293.522698 206.990764 
L 293.522698 226.030311 
L 294.154343 237.79781 
L 294.154343 236.607838 
L 294.154343 205.007477 
L 294.154343 240.177753 
L 294.154343 218.758262 
L 294.9439 223.253711 
L 294.9439 248.243117 
L 294.9439 210.164021 
L 294.9439 211.353993 
L 295.101811 221.667082 
L 295.101811 241.896601 
L 295.338678 213.932265 
L 295.733456 230.657979 
L 295.733456 233.037923 
L 295.733456 218.890481 
L 295.930846 225.633654 
L 296.523013 240.309972 
L 296.523013 237.930029 
L 296.523013 220.080453 
L 296.680925 217.898838 
L 297.31257 247.714241 
L 297.31257 246.524269 
L 297.31257 222.724834 
L 297.509959 221.369589 
L 297.509959 241.599108 
L 298.102127 231.186856 
L 298.102127 248.798437 
L 298.102127 226.426969 
L 298.102127 232.376827 
L 298.260038 216.510537 
L 298.299516 224.939504 
L 298.891684 240.442191 
L 298.891684 238.062248 
L 298.891684 215.320566 
L 299.049595 218.652487 
L 299.049595 213.8926 
L 299.049595 235.312091 
L 299.286462 246.656488 
L 299.286462 243.086573 
L 299.68124 247.84646 
L 299.68124 203.817506 
L 299.68124 212.147308 
L 300.076019 233.566799 
L 300.470797 240.706629 
L 300.470797 200.512028 
L 300.470797 230.261322 
L 300.668186 224.146189 
L 300.668186 199.156783 
L 300.668186 217.006359 
L 301.260354 220.741548 
L 301.260354 194.396896 
L 301.260354 218.361605 
L 301.786725 222.328177 
L 302.049911 210.957336 
L 302.049911 225.038668 
L 302.049911 191.917788 
L 302.049911 193.10776 
L 302.207822 190.331159 
L 302.207822 204.61082 
L 302.576282 216.774976 
L 302.839467 187.29012 
L 302.839467 198.958454 
L 302.839467 220.675439 
L 302.839467 185.868765 
L 302.839467 213.733937 
L 303.629024 205.404135 
L 303.629024 184.3813 
L 303.629024 203.817506 
L 303.786935 194.694389 
L 303.786935 182.794671 
L 304.418581 199.057619 
L 304.418581 191.256693 
L 304.418581 193.504417 
L 304.576492 189.696508 
L 305.208138 185.571272 
L 305.208138 195.091046 
L 305.997694 182.001357 
L 305.997694 183.191329 
L 305.997694 184.3813 
L 306.787251 191.455021 
L 306.787251 189.141187 
L 307.576808 187.025682 
L 307.576808 192.446664 
L 307.971586 182.398014 
L 308.366365 183.587986 
L 308.366365 195.19021 
L 308.524276 193.901074 
L 309.155921 199.850933 
L 309.155921 191.521131 
L 309.313833 189.934502 
L 309.353311 195.983525 
L 309.682293 186.100149 
L 309.945478 187.554558 
L 309.945478 188.546202 
L 310.142867 201.189651 
L 310.735035 205.139696 
L 310.735035 189.934502 
L 310.735035 194.429951 
L 310.892946 192.869766 
L 310.932424 202.528369 
L 311.129813 191.124474 
L 311.524592 197.074332 
L 311.524592 207.784078 
L 312.116759 209.172378 
L 312.314148 200.644248 
L 312.314148 194.694389 
L 313.103705 199.454276 
L 313.103705 209.965693 
L 313.103705 204.478601 
L 313.301094 201.933384 
L 313.893262 206.858544 
L 313.893262 208.048516 
L 314.051173 211.036667 
L 314.682819 203.024191 
L 314.682819 204.214163 
L 315.472375 205.800792 
L 315.472375 212.279527 
L 315.669765 209.073214 
L 316.261932 210.42846 
L 316.261932 211.353993 
L 316.261932 206.858544 
L 316.261932 207.784078 
L 317.841046 212.015089 
L 317.998957 205.404135 
L 317.998957 208.97405 
L 318.827992 207.387421 
L 318.827992 210.957336 
L 320.209716 215.386675 
L 320.209716 204.743039 
L 320.604494 217.799673 
L 320.999273 208.577392 
L 320.999273 212.147308 
L 321.196662 216.708866 
L 321.196662 207.189092 
L 321.78883 219.039227 
L 321.78883 205.404135 
L 322.380997 223.749532 
L 322.578386 215.320566 
L 322.578386 222.460396 
L 322.578386 206.990764 
L 322.736298 213.733937 
L 322.736298 220.873767 
L 322.973165 208.379064 
L 323.367943 212.147308 
L 323.367943 228.806912 
L 323.565332 216.708866 
L 323.565332 225.038668 
L 324.1575 214.923908 
L 324.1575 229.864665 
L 324.1575 213.733937 
L 324.354889 219.485467 
L 324.947057 223.650368 
L 324.947057 231.335602 
L 324.947057 222.460396 
L 325.144446 221.072096 
L 325.341835 216.708866 
L 325.341835 217.898838 
L 325.736613 228.806912 
L 325.736613 219.287138 
L 325.934003 225.038668 
L 326.684081 232.138833 
L 326.723559 229.996884 
L 327.315727 223.253711 
L 328.105284 232.575156 
L 328.105284 225.898092 
L 328.105284 227.088064 
L 328.302673 224.542847 
L 328.89484 231.781841 
L 329.09223 229.302734 
L 329.842308 223.015716 
L 330.473954 230.59187 
L 330.473954 226.294749 
L 330.473954 229.600227 
L 330.671343 224.939504 
L 332.053067 223.518149 
L 332.053067 222.328177 
L 332.842624 226.16253 
L 332.842624 227.352502 
L 333.040013 224.741175 
L 333.632181 229.996884 
L 333.82957 228.608583 
L 334.421738 223.253711 
L 334.421738 231.120746 
L 335.211294 227.088064 
L 335.211294 234.227894 
L 335.211294 224.708121 
L 335.211294 225.898092 
L 335.369206 232.614822 
L 336.000851 229.732446 
L 336.000851 243.945997 
L 336.19824 228.31109 
L 336.19824 235.450921 
L 336.790408 225.236997 
L 336.790408 245.387185 
L 336.948319 248.639774 
L 336.987797 230.988527 
L 337.579965 233.831237 
L 337.579965 228.013598 
L 337.579965 229.203569 
L 337.777354 232.376827 
L 337.777354 250.226403 
L 338.369521 238.855562 
L 338.369521 243.615449 
L 338.369521 230.393541 
L 338.369521 240.045534 
L 338.566911 251.713868 
L 338.566911 235.054264 
L 339.159078 231.98017 
L 339.159078 233.170142 
L 339.356467 253.003004 
L 339.356467 244.871531 
L 340.146024 249.829746 
L 340.146024 246.259831 
L 340.738192 242.02882 
L 340.738192 243.218792 
L 340.738192 239.714986 
L 340.738192 240.838849 
L 340.935581 251.317211 
L 341.13297 253.697154 
L 341.527748 244.408764 
L 341.527748 247.747296 
L 341.725138 252.90384 
L 342.475217 246.021837 
L 342.475217 249.591752 
L 343.106862 240.838849 
L 343.106862 242.02882 
L 343.106862 252.606347 
L 343.304251 239.417493 
L 343.304251 251.218046 
L 343.896419 238.525015 
L 344.05433 247.687797 
L 344.05433 236.978051 
L 344.093808 244.276545 
L 344.291197 245.863174 
L 344.291197 249.23476 
L 344.685976 232.773485 
L 344.685976 235.153428 
L 345.080754 242.293258 
L 345.475532 244.673202 
L 345.475532 230.657979 
L 345.475532 241.301615 
L 345.672921 240.012479 
L 345.672921 229.302734 
L 346.265089 228.211926 
L 346.265089 238.921672 
L 346.423 236.3434 
L 346.423 226.823626 
L 347.054646 234.955099 
L 347.212557 233.566799 
L 347.252035 225.038668 
L 347.449424 240.012479 
L 347.844203 238.723343 
L 347.844203 231.319075 
L 348.002114 229.758889 
L 348.238981 236.3434 
L 348.633759 228.145817 
L 348.633759 235.153428 
L 348.831149 226.724462 
L 349.423316 224.708121 
L 349.423316 225.831983 
L 349.581227 233.685796 
L 350.212873 230.922417 
L 350.212873 232.112389 
L 350.410262 229.501062 
L 351.00243 227.121119 
L 351.00243 228.410255 
L 351.397208 225.633654 
L 351.791986 234.756771 
L 351.949898 233.566799 
L 352.581543 229.699391 
L 352.581543 231.98017 
L 352.976321 227.021954 
L 353.3711 228.145817 
L 353.765878 234.558442 
L 354.950213 231.583513 
L 354.950213 229.203569 
L 354.950213 230.393541 
L 355.73977 228.013598 
L 356.529327 232.575156 
L 357.318884 230.790198 
L 357.318884 231.781841 
L 357.476795 229.203569 
L 358.30583 227.61694 
L 358.700608 235.748414 
L 358.897997 233.170142 
L 358.897997 234.360113 
L 359.490165 238.128357 
L 359.687554 230.790198 
L 359.687554 236.740057 
L 359.687554 229.600227 
L 359.687554 231.98017 
L 360.477111 227.352502 
L 360.477111 228.542474 
L 360.635022 239.199332 
L 361.266667 234.624552 
L 361.266667 235.814523 
L 361.424579 233.011479 
L 362.056224 239.516658 
L 362.056224 231.451294 
L 362.253613 237.235879 
L 362.253613 230.096048 
L 363.04317 238.723343 
L 363.635338 234.756771 
L 363.635338 235.946742 
L 363.793249 228.410255 
L 363.793249 233.170142 
L 364.424894 226.327804 
L 364.424894 237.268933 
L 365.214451 223.352875 
L 365.214451 238.392795 
L 366.004008 236.211181 
L 366.004008 229.07135 
L 366.004008 233.831237 
L 366.161919 227.458277 
L 366.161919 221.508419 
L 366.161919 232.218164 
L 366.398786 237.434207 
L 366.793565 218.758262 
L 366.793565 219.948234 
L 366.990954 217.403016 
L 366.990954 230.492705 
L 367.583122 216.510537 
L 367.583122 232.773485 
L 367.583122 228.806912 
L 367.741033 215.082571 
L 367.741033 223.412374 
L 368.372678 226.426969 
L 368.372678 213.337279 
L 369.162235 212.411746 
L 369.162235 223.848696 
L 369.359624 211.0565 
L 369.359624 218.196331 
L 369.557013 222.460396 
L 370.109703 214.685914 
L 370.149181 209.767364 
L 371.530905 213.072841 
L 371.728295 211.651486 
L 371.728295 218.64257 
L 372.320462 209.635145 
L 372.320462 210.759007 
L 372.320462 217.898838 
L 372.517851 214.130594 
L 373.899576 225.633654 
L 373.899576 220.873767 
L 373.899576 223.253711 
L 374.057487 212.147308 
L 374.057487 219.287138 
L 374.294354 210.36235 
L 374.689132 233.170142 
L 374.689132 231.98017 
L 374.689132 215.320566 
L 374.886522 227.021954 
L 374.886522 213.932265 
L 375.2813 234.657606 
L 375.478689 212.147308 
L 376.268246 219.386302 
L 376.268246 238.789453 
L 376.663024 216.708866 
L 377.057803 229.732446 
L 377.057803 233.302361 
L 377.215714 240.508301 
L 377.847359 222.460396 
L 377.847359 223.650368 
L 378.005271 234.717105 
L 378.636916 238.458905 
L 378.636916 239.648877 
L 378.636916 226.426969 
L 378.794828 236.89872 
L 379.426473 229.600227 
L 379.426473 230.790198 
L 379.426473 240.706629 
L 379.584384 228.013598 
L 380.21603 239.12 
L 380.373941 234.717105 
L 380.610808 238.227522 
L 381.005586 226.559188 
L 381.005586 236.690475 
L 381.163498 224.999002 
L 381.400365 232.773485 
L 381.795143 231.715732 
L 381.795143 234.955099 
L 381.795143 223.38593 
L 381.795143 230.52576 
L 381.992532 221.964575 
L 381.992532 227.914433 
L 382.742611 219.525132 
L 383.374257 228.806912 
L 383.374257 224.84034 
L 383.374257 226.030311 
L 384.163813 227.021954 
L 384.163813 222.460396 
L 384.95337 218.890481 
L 384.95337 221.270424 
L 385.742927 226.294749 
L 385.940316 224.939504 
L 386.532484 227.484721 
L 386.532484 228.674693 
L 386.532484 222.55956 
L 386.532484 223.650368 
L 387.124651 237.830864 
L 387.32204 220.080453 
L 387.32204 236.475619 
L 387.32204 221.270424 
L 387.479952 230.393541 
L 388.111597 247.978679 
L 388.111597 243.218792 
L 388.111597 226.426969 
L 388.111597 242.02882 
L 388.269509 239.278663 
L 388.269509 224.84034 
L 388.901154 253.003004 
L 388.901154 258.952863 
L 388.901154 220.873767 
L 388.901154 251.813032 
L 389.098543 227.61694 
L 389.690711 237.665591 
L 389.690711 236.475619 
L 389.690711 224.443682 
L 389.690711 234.095675 
L 389.8881 230.294377 
L 390.480268 228.410255 
L 390.480268 228.410255 
" clip-path="url(#p95233726e2)" style="fill: none; stroke: #000000; stroke-width: 1.8; stroke-linecap: square"/>
   </g>
   <g id="line2d_23">
    <path d="M 131.13 261.522031 
L 131.13 13.642031 
" clip-path="url(#p95233726e2)" style="fill: none; stroke-dasharray: 5.55,2.4; stroke-dashoffset: 0; stroke: #595959; stroke-width: 1.5"/>
   </g>
   <g id="LineCollection_1">
    <path d="M 303.925 261.522031 
L 303.925 75.612031 
" clip-path="url(#p95233726e2)" style="fill: none; stroke-dasharray: 5.55,2.4; stroke-dashoffset: 0; stroke: #595959; stroke-width: 1.5"/>
   </g>
   <g id="patch_3">
    <path d="M 44.7325 261.522031 
L 44.7325 13.642031 
" style="fill: none; stroke: #000000; stroke-width: 0.8; stroke-linejoin: miter; stroke-linecap: square"/>
   </g>
   <g id="patch_4">
    <path d="M 390.3225 261.522031 
L 390.3225 13.642031 
" style="fill: none; stroke: #000000; stroke-width: 0.8; stroke-linejoin: miter; stroke-linecap: square"/>
   </g>
   <g id="patch_5">
    <path d="M 44.7325 261.522031 
L 390.3225 261.522031 
" style="fill: none; stroke: #000000; stroke-width: 0.8; stroke-linejoin: miter; stroke-linecap: square"/>
   </g>
   <g id="patch_6">
    <path d="M 44.7325 13.642031 
L 390.3225 13.642031 
" style="fill: none; stroke: #000000; stroke-width: 0.8; stroke-linejoin: miter; stroke-linecap: square"/>
   </g>
   <g id="legend_1">
    <g id="patch_7">
     <path d="M 239.940275 78.965156 
L 384.7784 78.965156 
L 384.7784 22.642031 
L 239.940275 22.642031 
z
" style="fill: #ffffff; opacity: 0.8; stroke: #808080; stroke-width: 0.8; stroke-linejoin: miter"/>
    </g>
    <g id="line2d_24">
     <path d="M 247.140275 36.426094 
L 265.140275 36.426094 
L 283.140275 36.426094 
" style="fill: none; stroke: #ff4b17; stroke-width: 2.5; stroke-linecap: square"/>
    </g>
    <g id="text_11">
     <!-- Simulated -->
     <g transform="translate(297.540275 42.726094)scale(0.18 -0.18)">
      <defs>
       <path id="ArialMT-53" d="M 288 1472 
L 859 1522 
Q 900 1178 1048 958 
Q 1197 738 1509 602 
Q 1822 466 2213 466 
Q 2559 466 2825 569 
Q 3091 672 3220 851 
Q 3350 1031 3350 1244 
Q 3350 1459 3225 1620 
Q 3100 1781 2813 1891 
Q 2628 1963 1997 2114 
Q 1366 2266 1113 2400 
Q 784 2572 623 2826 
Q 463 3081 463 3397 
Q 463 3744 659 4045 
Q 856 4347 1234 4503 
Q 1613 4659 2075 4659 
Q 2584 4659 2973 4495 
Q 3363 4331 3572 4012 
Q 3781 3694 3797 3291 
L 3216 3247 
Q 3169 3681 2898 3903 
Q 2628 4125 2100 4125 
Q 1550 4125 1298 3923 
Q 1047 3722 1047 3438 
Q 1047 3191 1225 3031 
Q 1400 2872 2139 2705 
Q 2878 2538 3153 2413 
Q 3553 2228 3743 1945 
Q 3934 1663 3934 1294 
Q 3934 928 3725 604 
Q 3516 281 3123 101 
Q 2731 -78 2241 -78 
Q 1619 -78 1198 103 
Q 778 284 539 648 
Q 300 1013 288 1472 
z
" transform="scale(0.015625)"/>
       <path id="ArialMT-69" d="M 425 3934 
L 425 4581 
L 988 4581 
L 988 3934 
L 425 3934 
z
M 425 0 
L 425 3319 
L 988 3319 
L 988 0 
L 425 0 
z
" transform="scale(0.015625)"/>
       <path id="ArialMT-6d" d="M 422 0 
L 422 3319 
L 925 3319 
L 925 2853 
Q 1081 3097 1340 3245 
Q 1600 3394 1931 3394 
Q 2300 3394 2536 3241 
Q 2772 3088 2869 2813 
Q 3263 3394 3894 3394 
Q 4388 3394 4653 3120 
Q 4919 2847 4919 2278 
L 4919 0 
L 4359 0 
L 4359 2091 
Q 4359 2428 4304 2576 
Q 4250 2725 4106 2815 
Q 3963 2906 3769 2906 
Q 3419 2906 3187 2673 
Q 2956 2441 2956 1928 
L 2956 0 
L 2394 0 
L 2394 2156 
Q 2394 2531 2256 2718 
Q 2119 2906 1806 2906 
Q 1569 2906 1367 2781 
Q 1166 2656 1075 2415 
Q 984 2175 984 1722 
L 984 0 
L 422 0 
z
" transform="scale(0.015625)"/>
       <path id="ArialMT-75" d="M 2597 0 
L 2597 488 
Q 2209 -75 1544 -75 
Q 1250 -75 995 37 
Q 741 150 617 320 
Q 494 491 444 738 
Q 409 903 409 1263 
L 409 3319 
L 972 3319 
L 972 1478 
Q 972 1038 1006 884 
Q 1059 663 1231 536 
Q 1403 409 1656 409 
Q 1909 409 2131 539 
Q 2353 669 2445 892 
Q 2538 1116 2538 1541 
L 2538 3319 
L 3100 3319 
L 3100 0 
L 2597 0 
z
" transform="scale(0.015625)"/>
       <path id="ArialMT-6c" d="M 409 0 
L 409 4581 
L 972 4581 
L 972 0 
L 409 0 
z
" transform="scale(0.015625)"/>
       <path id="ArialMT-61" d="M 2588 409 
Q 2275 144 1986 34 
Q 1697 -75 1366 -75 
Q 819 -75 525 192 
Q 231 459 231 875 
Q 231 1119 342 1320 
Q 453 1522 633 1644 
Q 813 1766 1038 1828 
Q 1203 1872 1538 1913 
Q 2219 1994 2541 2106 
Q 2544 2222 2544 2253 
Q 2544 2597 2384 2738 
Q 2169 2928 1744 2928 
Q 1347 2928 1158 2789 
Q 969 2650 878 2297 
L 328 2372 
Q 403 2725 575 2942 
Q 747 3159 1072 3276 
Q 1397 3394 1825 3394 
Q 2250 3394 2515 3294 
Q 2781 3194 2906 3042 
Q 3031 2891 3081 2659 
Q 3109 2516 3109 2141 
L 3109 1391 
Q 3109 606 3145 398 
Q 3181 191 3288 0 
L 2700 0 
Q 2613 175 2588 409 
z
M 2541 1666 
Q 2234 1541 1622 1453 
Q 1275 1403 1131 1340 
Q 988 1278 909 1158 
Q 831 1038 831 891 
Q 831 666 1001 516 
Q 1172 366 1500 366 
Q 1825 366 2078 508 
Q 2331 650 2450 897 
Q 2541 1088 2541 1459 
L 2541 1666 
z
" transform="scale(0.015625)"/>
       <path id="ArialMT-74" d="M 1650 503 
L 1731 6 
Q 1494 -44 1306 -44 
Q 1000 -44 831 53 
Q 663 150 594 308 
Q 525 466 525 972 
L 525 2881 
L 113 2881 
L 113 3319 
L 525 3319 
L 525 4141 
L 1084 4478 
L 1084 3319 
L 1650 3319 
L 1650 2881 
L 1084 2881 
L 1084 941 
Q 1084 700 1114 631 
Q 1144 563 1211 522 
Q 1278 481 1403 481 
Q 1497 481 1650 503 
z
" transform="scale(0.015625)"/>
       <path id="ArialMT-65" d="M 2694 1069 
L 3275 997 
Q 3138 488 2766 206 
Q 2394 -75 1816 -75 
Q 1088 -75 661 373 
Q 234 822 234 1631 
Q 234 2469 665 2931 
Q 1097 3394 1784 3394 
Q 2450 3394 2872 2941 
Q 3294 2488 3294 1666 
Q 3294 1616 3291 1516 
L 816 1516 
Q 847 969 1125 678 
Q 1403 388 1819 388 
Q 2128 388 2347 550 
Q 2566 713 2694 1069 
z
M 847 1978 
L 2700 1978 
Q 2663 2397 2488 2606 
Q 2219 2931 1791 2931 
Q 1403 2931 1139 2672 
Q 875 2413 847 1978 
z
" transform="scale(0.015625)"/>
       <path id="ArialMT-64" d="M 2575 0 
L 2575 419 
Q 2259 -75 1647 -75 
Q 1250 -75 917 144 
Q 584 363 401 755 
Q 219 1147 219 1656 
Q 219 2153 384 2558 
Q 550 2963 881 3178 
Q 1213 3394 1622 3394 
Q 1922 3394 2156 3267 
Q 2391 3141 2538 2938 
L 2538 4581 
L 3097 4581 
L 3097 0 
L 2575 0 
z
M 797 1656 
Q 797 1019 1065 703 
Q 1334 388 1700 388 
Q 2069 388 2326 689 
Q 2584 991 2584 1609 
Q 2584 2291 2321 2609 
Q 2059 2928 1675 2928 
Q 1300 2928 1048 2622 
Q 797 2316 797 1656 
z
" transform="scale(0.015625)"/>
      </defs>
      <use xlink:href="#ArialMT-53"/>
      <use xlink:href="#ArialMT-69" x="66.699219"/>
      <use xlink:href="#ArialMT-6d" x="88.916016"/>
      <use xlink:href="#ArialMT-75" x="172.216797"/>
      <use xlink:href="#ArialMT-6c" x="227.832031"/>
      <use xlink:href="#ArialMT-61" x="250.048828"/>
      <use xlink:href="#ArialMT-74" x="305.664062"/>
      <use xlink:href="#ArialMT-65" x="333.447266"/>
      <use xlink:href="#ArialMT-64" x="389.0625"/>
     </g>
    </g>
    <g id="line2d_25">
     <path d="M 247.140275 61.887656 
L 265.140275 61.887656 
L 283.140275 61.887656 
" style="fill: none; stroke: #000000; stroke-width: 1.8; stroke-linecap: square"/>
    </g>
    <g id="text_12">
     <!-- Measured -->
     <g transform="translate(297.540275 68.187656)scale(0.18 -0.18)">
      <defs>
       <path id="ArialMT-4d" d="M 475 0 
L 475 4581 
L 1388 4581 
L 2472 1338 
Q 2622 884 2691 659 
Q 2769 909 2934 1394 
L 4031 4581 
L 4847 4581 
L 4847 0 
L 4263 0 
L 4263 3834 
L 2931 0 
L 2384 0 
L 1059 3900 
L 1059 0 
L 475 0 
z
" transform="scale(0.015625)"/>
       <path id="ArialMT-73" d="M 197 991 
L 753 1078 
Q 800 744 1014 566 
Q 1228 388 1613 388 
Q 2000 388 2187 545 
Q 2375 703 2375 916 
Q 2375 1106 2209 1216 
Q 2094 1291 1634 1406 
Q 1016 1563 777 1677 
Q 538 1791 414 1992 
Q 291 2194 291 2438 
Q 291 2659 392 2848 
Q 494 3038 669 3163 
Q 800 3259 1026 3326 
Q 1253 3394 1513 3394 
Q 1903 3394 2198 3281 
Q 2494 3169 2634 2976 
Q 2775 2784 2828 2463 
L 2278 2388 
Q 2241 2644 2061 2787 
Q 1881 2931 1553 2931 
Q 1166 2931 1000 2803 
Q 834 2675 834 2503 
Q 834 2394 903 2306 
Q 972 2216 1119 2156 
Q 1203 2125 1616 2013 
Q 2213 1853 2448 1751 
Q 2684 1650 2818 1456 
Q 2953 1263 2953 975 
Q 2953 694 2789 445 
Q 2625 197 2315 61 
Q 2006 -75 1616 -75 
Q 969 -75 630 194 
Q 291 463 197 991 
z
" transform="scale(0.015625)"/>
       <path id="ArialMT-72" d="M 416 0 
L 416 3319 
L 922 3319 
L 922 2816 
Q 1116 3169 1280 3281 
Q 1444 3394 1641 3394 
Q 1925 3394 2219 3213 
L 2025 2691 
Q 1819 2813 1613 2813 
Q 1428 2813 1281 2702 
Q 1134 2591 1072 2394 
Q 978 2094 978 1738 
L 978 0 
L 416 0 
z
" transform="scale(0.015625)"/>
      </defs>
      <use xlink:href="#ArialMT-4d"/>
      <use xlink:href="#ArialMT-65" x="83.300781"/>
      <use xlink:href="#ArialMT-61" x="138.916016"/>
      <use xlink:href="#ArialMT-73" x="194.53125"/>
      <use xlink:href="#ArialMT-75" x="244.53125"/>
      <use xlink:href="#ArialMT-72" x="300.146484"/>
      <use xlink:href="#ArialMT-65" x="333.447266"/>
      <use xlink:href="#ArialMT-64" x="389.0625"/>
     </g>
    </g>
   </g>
  </g>
 </g>
 <defs>
  <clipPath id="p95233726e2">
   <rect x="44.7325" y="13.642031" width="345.59" height="247.88"/>
  </clipPath>
 </defs>
</svg>
