<?xml version="1.0" encoding="utf-8" standalone="no"?>
<!DOCTYPE svg PUBLIC "-//W3C//DTD SVG 1.1//EN"
  "http://www.w3.org/Graphics/SVG/1.1/DTD/svg11.dtd">
<svg xmlns:xlink="http://www.w3.org/1999/xlink" width="576pt" height="331.2pt" viewBox="0 0 576 331.2" xmlns="http://www.w3.org/2000/svg" version="1.1">
 <metadata>
  <rdf:RDF xmlns:dc="http://purl.org/dc/elements/1.1/" xmlns:cc="http://creativecommons.org/ns#" xmlns:rdf="http://www.w3.org/1999/02/22-rdf-syntax-ns#">
   <cc:Work>
    <dc:type rdf:resource="http://purl.org/dc/dcmitype/StillImage"/>
    <dc:date>2026-07-11T15:45:23.914561</dc:date>
    <dc:format>image/svg+xml</dc:format>
    <dc:creator>
     <cc:Agent>
      <dc:title>Matplotlib v3.5.1, https://matplotlib.org/</dc:title>
     </cc:Agent>
    </dc:creator>
   </cc:Work>
  </rdf:RDF>
 </metadata>
 <defs>
  <style type="text/css">*{stroke-linejoin: round; stroke-linecap: butt}</style>
 </defs>
 <g id="figure_1">
  <g id="patch_1">
   <path d="M 0 331.2 
L 576 331.2 
L 576 0 
L 0 0 
z
" style="fill: #ffffff"/>
  </g>
  <g id="axes_1">
   <g id="patch_2">
    <path d="M 60.701802 284.276635 
L 572.99976 284.276635 
L 572.99976 3.00024 
L 60.701802 3.00024 
z
" style="fill: #ffffff"/>
   </g>
   <g id="matplotlib.axis_1">
    <g id="xtick_1">
     <g id="line2d_1">
      <defs>
       <path id="m07b0b61024" d="M 0 0 
L 0 3.5 
" style="stroke: #000000; stroke-width: 0.8"/>
      </defs>
      <g>
       <use xlink:href="#m07b0b61024" x="60.701802" y="284.276635" style="stroke: #000000; stroke-width: 0.8"/>
      </g>
     </g>
     <g id="text_1">
      <text style="font: 18px 'Arial'; text-anchor: middle" x="60.701802" y="304.160697" transform="rotate(-0, 60.701802, 304.160697)">0</text>
     </g>
    </g>
    <g id="xtick_2">
     <g id="line2d_2">
      <g>
       <use xlink:href="#m07b0b61024" x="137.393114" y="284.276635" style="stroke: #000000; stroke-width: 0.8"/>
      </g>
     </g>
     <g id="text_2">
      <text style="font: 18px 'Arial'; text-anchor: middle" x="137.393114" y="304.160697" transform="rotate(-0, 137.393114, 304.160697)">100</text>
     </g>
    </g>
    <g id="xtick_3">
     <g id="line2d_3">
      <g>
       <use xlink:href="#m07b0b61024" x="214.084425" y="284.276635" style="stroke: #000000; stroke-width: 0.8"/>
      </g>
     </g>
     <g id="text_3">
      <text style="font: 18px 'Arial'; text-anchor: middle" x="214.084425" y="304.160697" transform="rotate(-0, 214.084425, 304.160697)">200</text>
     </g>
    </g>
    <g id="xtick_4">
     <g id="line2d_4">
      <g>
       <use xlink:href="#m07b0b61024" x="290.775736" y="284.276635" style="stroke: #000000; stroke-width: 0.8"/>
      </g>
     </g>
     <g id="text_4">
      <text style="font: 18px 'Arial'; text-anchor: middle" x="290.775736" y="304.160697" transform="rotate(-0, 290.775736, 304.160697)">300</text>
     </g>
    </g>
    <g id="xtick_5">
     <g id="line2d_5">
      <g>
       <use xlink:href="#m07b0b61024" x="367.467047" y="284.276635" style="stroke: #000000; stroke-width: 0.8"/>
      </g>
     </g>
     <g id="text_5">
      <text style="font: 18px 'Arial'; text-anchor: middle" x="367.467047" y="304.160697" transform="rotate(-0, 367.467047, 304.160697)">400</text>
     </g>
    </g>
    <g id="xtick_6">
     <g id="line2d_6">
      <g>
       <use xlink:href="#m07b0b61024" x="444.158358" y="284.276635" style="stroke: #000000; stroke-width: 0.8"/>
      </g>
     </g>
     <g id="text_6">
      <text style="font: 18px 'Arial'; text-anchor: middle" x="444.158358" y="304.160697" transform="rotate(-0, 444.158358, 304.160697)">500</text>
     </g>
    </g>
    <g id="xtick_7">
     <g id="line2d_7">
      <g>
       <use xlink:href="#m07b0b61024" x="520.849669" y="284.276635" style="stroke: #000000; stroke-width: 0.8"/>
      </g>
     </g>
     <g id="text_7">
      <text style="font: 18px 'Arial'; text-anchor: middle" x="520.849669" y="304.160697" transform="rotate(-0, 520.849669, 304.160697)">600</text>
     </g>
    </g>
    <g id="text_8">
     <text style="font: 18px 'Arial'; text-anchor: middle" x="316.850781" y="324.62226" transform="rotate(-0, 316.850781, 324.62226)">x pixel</text>
    </g>
   </g>
   <g id="matplotlib.axis_2">
    <g id="ytick_1">
     <g id="line2d_8">
      <defs>
       <path id="m89337166ff" d="M 0 0 
L -3.5 0 
" style="stroke: #000000; stroke-width: 0.8"/>
      </defs>
      <g>
       <use xlink:href="#m89337166ff" x="60.701802" y="271.491344" style="stroke: #000000; stroke-width: 0.8"/>
      </g>
     </g>
     <g id="text_9">
      <text style="font: 18px 'Arial'; text-anchor: end" x="53.701802" y="277.933376" transform="rotate(-0, 53.701802, 277.933376)">0</text>
     </g>
    </g>
    <g id="ytick_2">
     <g id="line2d_9">
      <g>
       <use xlink:href="#m89337166ff" x="60.701802" y="226.630675" style="stroke: #000000; stroke-width: 0.8"/>
      </g>
     </g>
     <g id="text_10">
      <text style="font: 18px 'Arial'; text-anchor: end" x="53.701802" y="233.072707" transform="rotate(-0, 53.701802, 233.072707)">20</text>
     </g>
    </g>
    <g id="ytick_3">
     <g id="line2d_10">
      <g>
       <use xlink:href="#m89337166ff" x="60.701802" y="181.770006" style="stroke: #000000; stroke-width: 0.8"/>
      </g>
     </g>
     <g id="text_11">
      <text style="font: 18px 'Arial'; text-anchor: end" x="53.701802" y="188.212037" transform="rotate(-0, 53.701802, 188.212037)">40</text>
     </g>
    </g>
    <g id="ytick_4">
     <g id="line2d_11">
      <g>
       <use xlink:href="#m89337166ff" x="60.701802" y="136.909337" style="stroke: #000000; stroke-width: 0.8"/>
      </g>
     </g>
     <g id="text_12">
      <text style="font: 18px 'Arial'; text-anchor: end" x="53.701802" y="143.351368" transform="rotate(-0, 53.701802, 143.351368)">60</text>
     </g>
    </g>
    <g id="ytick_5">
     <g id="line2d_12">
      <g>
       <use xlink:href="#m89337166ff" x="60.701802" y="92.048668" style="stroke: #000000; stroke-width: 0.8"/>
      </g>
     </g>
     <g id="text_13">
      <text style="font: 18px 'Arial'; text-anchor: end" x="53.701802" y="98.490699" transform="rotate(-0, 53.701802, 98.490699)">80</text>
     </g>
    </g>
    <g id="ytick_6">
     <g id="line2d_13">
      <g>
       <use xlink:href="#m89337166ff" x="60.701802" y="47.187999" style="stroke: #000000; stroke-width: 0.8"/>
      </g>
     </g>
     <g id="text_14">
      <text style="font: 18px 'Arial'; text-anchor: end" x="53.701802" y="53.63003" transform="rotate(-0, 53.701802, 53.63003)">100</text>
     </g>
    </g>
    <g id="text_15">
     <text style="font: 18px 'Arial'; text-anchor: middle" x="15.884303" y="143.638437" transform="rotate(-90, 15.884303, 143.638437)">Intensity [a.u.]</text>
    </g>
   </g>
   <g id="line2d_14">
    <path d="M 60.701802 271.491344 
L 75.273152 271.491344 
L 76.040065 269.248311 
L 76.806978 215.415508 
L 77.573891 246.817976 
L 78.340804 271.491344 
L 92.14524 271.491344 
L 92.912153 262.519211 
L 93.679066 213.172475 
L 94.445979 258.033144 
L 95.212892 215.415508 
L 95.979806 249.06101 
L 96.746719 269.248311 
L 97.513632 271.491344 
L 107.483502 271.491344 
L 108.250415 269.248311 
L 109.017328 271.491344 
L 138.160027 271.491344 
L 138.92694 269.248311 
L 139.693853 271.491344 
L 140.460766 269.248311 
L 141.227679 271.491344 
L 145.062245 271.491344 
L 145.829158 269.248311 
L 146.596071 271.491344 
L 165.768899 271.491344 
L 166.535812 253.547077 
L 167.302725 213.172475 
L 168.069638 264.762244 
L 168.836551 269.248311 
L 169.603464 271.491344 
L 170.370377 269.248311 
L 171.13729 271.491344 
L 174.204943 271.491344 
L 174.971856 269.248311 
L 175.738769 271.491344 
L 178.039508 271.491344 
L 178.806421 267.005277 
L 179.573335 204.200341 
L 180.340248 249.06101 
L 181.107161 269.248311 
L 181.874074 271.491344 
L 189.543205 271.491344 
L 190.310118 269.248311 
L 191.077031 177.283939 
L 191.843944 201.957307 
L 192.610857 269.248311 
L 193.377771 271.491344 
L 211.016772 271.491344 
L 211.783685 269.248311 
L 212.550598 271.491344 
L 213.317511 244.574943 
L 214.084425 199.714274 
L 214.851338 264.762244 
L 215.618251 271.491344 
L 229.422687 271.491344 
L 230.1896 269.248311 
L 230.956513 271.491344 
L 231.723426 271.491344 
L 232.490339 269.248311 
L 233.257252 271.491344 
L 240.15947 271.491344 
L 240.926383 269.248311 
L 241.693296 271.491344 
L 265.467603 271.491344 
L 266.234516 269.248311 
L 267.001429 219.901575 
L 267.768342 222.144608 
L 268.535255 269.248311 
L 269.302168 271.491344 
L 275.437473 271.491344 
L 276.204386 269.248311 
L 276.9713 271.491344 
L 283.106604 271.491344 
L 283.873518 269.248311 
L 284.640431 271.491344 
L 285.407344 269.248311 
L 286.174257 222.144608 
L 286.94117 217.658541 
L 287.708083 269.248311 
L 288.474996 271.491344 
L 289.241909 271.491344 
L 290.008822 251.304043 
L 290.775736 181.770006 
L 291.542649 258.033144 
L 292.309562 271.491344 
L 294.610301 271.491344 
L 295.377214 159.339672 
L 296.144127 161.582705 
L 296.91104 271.491344 
L 303.813258 271.491344 
L 304.580171 269.248311 
L 305.347085 271.491344 
L 313.016216 271.491344 
L 313.783129 213.172475 
L 314.550042 222.144608 
L 315.316955 271.491344 
L 319.151521 271.491344 
L 319.918434 264.762244 
L 320.685347 213.172475 
L 321.45226 255.79011 
L 322.219173 269.248311 
L 322.986086 217.658541 
L 323.752999 237.845843 
L 324.519912 271.491344 
L 325.286825 269.248311 
L 326.053739 217.658541 
L 326.820652 145.881471 
L 327.587565 262.519211 
L 328.354478 269.248311 
L 329.121391 246.817976 
L 329.888304 15.785531 
L 330.655217 197.47124 
L 331.42213 181.770006 
L 332.189043 222.144608 
L 332.955957 271.491344 
L 333.72287 244.574943 
L 334.489783 76.347434 
L 335.256696 58.403166 
L 336.023609 264.762244 
L 336.790522 258.033144 
L 337.557435 199.714274 
L 338.324348 262.519211 
L 339.091261 267.005277 
L 339.858175 204.200341 
L 340.625088 179.526973 
L 341.392001 192.985173 
L 342.158914 197.47124 
L 342.925827 237.845843 
L 343.69274 271.491344 
L 345.993479 271.491344 
L 346.760393 269.248311 
L 347.527306 269.248311 
L 348.294219 271.491344 
L 362.865568 271.491344 
L 363.632481 269.248311 
L 364.399394 269.248311 
L 365.166307 271.491344 
L 407.346528 271.491344 
L 408.113441 269.248311 
L 408.880354 233.359776 
L 409.647268 228.873709 
L 410.414181 271.491344 
L 411.948007 271.491344 
L 412.71492 269.248311 
L 413.481833 271.491344 
L 414.248746 269.248311 
L 415.015659 271.491344 
L 419.617138 271.491344 
L 420.384051 269.248311 
L 421.150964 271.491344 
L 421.917877 249.06101 
L 422.68479 166.068772 
L 423.451704 253.547077 
L 424.218617 271.491344 
L 431.120835 271.491344 
L 431.887748 258.033144 
L 432.654661 199.714274 
L 433.421574 255.79011 
L 434.188487 267.005277 
L 434.9554 175.040906 
L 436.489226 271.491344 
L 438.023053 181.770006 
L 438.789966 163.825739 
L 439.556879 163.825739 
L 440.323792 246.817976 
L 441.090705 179.526973 
L 441.857618 260.276177 
L 442.624531 271.491344 
L 444.158358 271.491344 
L 444.925271 269.248311 
L 445.692184 186.256073 
L 446.459097 206.443374 
L 447.22601 271.491344 
L 448.759836 271.491344 
L 449.526749 269.248311 
L 450.293662 271.491344 
L 451.060576 264.762244 
L 451.827489 222.144608 
L 452.594402 260.276177 
L 453.361315 269.248311 
L 454.128228 271.491344 
L 461.030446 271.491344 
L 461.797359 269.248311 
L 462.564272 271.491344 
L 463.331185 269.248311 
L 464.098098 271.491344 
L 464.865011 269.248311 
L 465.631925 271.491344 
L 467.165751 271.491344 
L 467.932664 269.248311 
L 468.699577 271.491344 
L 469.46649 269.248311 
L 470.233403 271.491344 
L 471.000316 271.491344 
L 471.767229 269.248311 
L 472.534143 217.658541 
L 473.301056 251.304043 
L 474.067969 199.714274 
L 474.834882 210.929441 
L 475.601795 269.248311 
L 476.368708 271.491344 
L 477.135621 231.116742 
L 477.902534 161.582705 
L 478.669447 262.519211 
L 479.436361 271.491344 
L 480.970187 267.005277 
L 481.7371 181.770006 
L 482.504013 112.235969 
L 483.270926 213.172475 
L 484.037839 204.200341 
L 484.804752 190.74214 
L 485.571665 269.248311 
L 486.338579 231.116742 
L 487.105492 172.797872 
L 487.872405 249.06101 
L 488.639318 175.040906 
L 489.406231 253.547077 
L 490.173144 197.47124 
L 490.940057 150.367538 
L 491.70697 233.359776 
L 492.473883 271.491344 
L 494.00771 157.096638 
L 495.541536 271.491344 
L 498.609188 271.491344 
L 499.376101 267.005277 
L 500.143015 208.686408 
L 500.909928 244.574943 
L 501.676841 271.491344 
L 503.210667 136.909337 
L 503.97758 150.367538 
L 504.744493 228.873709 
L 505.511406 269.248311 
L 506.278319 269.248311 
L 507.045233 271.491344 
L 510.112885 271.491344 
L 510.879798 269.248311 
L 511.646711 226.630675 
L 512.413624 233.359776 
L 513.180537 271.491344 
L 516.24819 271.491344 
L 517.015103 269.248311 
L 517.782016 271.491344 
L 518.548929 269.248311 
L 519.315842 269.248311 
L 520.082755 219.901575 
L 520.849669 246.817976 
L 521.616582 269.248311 
L 522.383495 271.491344 
L 530.819539 271.491344 
L 531.586452 269.248311 
L 532.353365 240.088876 
L 533.120278 222.144608 
L 533.887191 269.248311 
L 534.654104 271.491344 
L 560.72915 271.491344 
L 561.496063 269.248311 
L 562.262976 271.491344 
L 563.02989 269.248311 
L 563.796803 271.491344 
L 572.99976 271.491344 
L 572.99976 271.491344 
" clip-path="url(#p97cb53def9)" style="fill: none; stroke: #000000; stroke-width: 2; stroke-linecap: square"/>
   </g>
   <g id="line2d_15">
    <path d="M 60.701802 271.491344 
L 75.273152 271.491344 
L 76.040065 269.248311 
L 76.806978 215.415508 
L 77.573891 246.817976 
L 78.340804 271.491344 
L 92.14524 271.491344 
L 92.912153 262.519211 
L 93.679066 213.172475 
L 94.445979 258.033144 
L 95.212892 215.415508 
L 95.979806 249.06101 
L 96.746719 269.248311 
L 97.513632 271.491344 
L 107.483502 271.491344 
L 108.250415 269.248311 
L 109.017328 271.491344 
L 138.160027 271.491344 
L 138.92694 269.248311 
L 139.693853 271.491344 
L 140.460766 269.248311 
L 141.227679 271.491344 
L 145.062245 271.491344 
L 145.829158 269.248311 
L 146.596071 271.491344 
L 165.768899 271.491344 
L 166.535812 253.547077 
L 167.302725 213.172475 
L 168.069638 264.762244 
L 168.836551 269.248311 
L 169.603464 271.491344 
L 170.370377 269.248311 
L 171.13729 271.491344 
L 174.204943 271.491344 
L 174.971856 269.248311 
L 175.738769 271.491344 
L 178.039508 271.491344 
L 178.806421 267.005277 
L 179.573335 204.200341 
L 180.340248 249.06101 
L 181.107161 269.248311 
L 181.874074 271.491344 
L 189.543205 271.491344 
L 190.310118 269.248311 
L 191.077031 177.283939 
L 191.843944 201.957307 
L 192.610857 269.248311 
L 193.377771 271.491344 
L 211.016772 271.491344 
L 211.783685 269.248311 
L 212.550598 271.491344 
L 213.317511 244.574943 
L 214.084425 199.714274 
L 214.851338 264.762244 
L 215.618251 271.491344 
L 229.422687 271.491344 
L 230.1896 269.248311 
L 230.956513 271.491344 
L 231.723426 271.491344 
L 232.490339 269.248311 
L 233.257252 271.491344 
L 240.15947 271.491344 
L 240.926383 269.248311 
L 241.693296 271.491344 
L 265.467603 271.491344 
L 266.234516 269.248311 
L 267.001429 219.901575 
L 267.768342 222.144608 
L 268.535255 269.248311 
L 269.302168 271.491344 
L 275.437473 271.491344 
L 276.204386 269.248311 
L 276.9713 271.491344 
L 283.106604 271.491344 
L 283.873518 269.248311 
L 284.640431 271.491344 
L 285.407344 269.248311 
L 286.174257 224.387642 
L 286.94117 219.901575 
L 287.708083 271.491344 
L 289.241909 271.491344 
L 290.008822 253.547077 
L 290.775736 184.01304 
L 291.542649 260.276177 
L 292.309562 271.491344 
L 294.610301 271.491344 
L 295.377214 161.582705 
L 296.144127 163.825739 
L 296.91104 271.491344 
L 303.813258 271.491344 
L 304.580171 269.248311 
L 305.347085 271.491344 
L 313.016216 271.491344 
L 313.783129 213.172475 
L 314.550042 222.144608 
L 315.316955 271.491344 
L 319.151521 271.491344 
L 319.918434 267.005277 
L 320.685347 215.415508 
L 321.45226 258.033144 
L 322.219173 271.491344 
L 322.986086 219.901575 
L 323.752999 240.088876 
L 324.519912 271.491344 
L 325.286825 271.491344 
L 326.053739 228.873709 
L 326.820652 161.582705 
L 327.587565 271.491344 
L 329.121391 271.491344 
L 329.888304 47.187999 
L 330.655217 235.602809 
L 331.42213 222.144608 
L 332.189043 264.762244 
L 332.955957 271.491344 
L 333.72287 271.491344 
L 334.489783 116.722036 
L 335.256696 96.534735 
L 336.023609 271.491344 
L 336.790522 271.491344 
L 337.557435 226.630675 
L 338.324348 271.491344 
L 339.091261 271.491344 
L 339.858175 224.387642 
L 340.625088 199.714274 
L 341.392001 213.172475 
L 342.158914 215.415508 
L 342.925827 253.547077 
L 343.69274 271.491344 
L 362.865568 271.491344 
L 363.632481 269.248311 
L 364.399394 269.248311 
L 365.166307 271.491344 
L 407.346528 271.491344 
L 408.113441 269.248311 
L 408.880354 233.359776 
L 409.647268 228.873709 
L 410.414181 271.491344 
L 411.948007 271.491344 
L 412.71492 269.248311 
L 413.481833 271.491344 
L 414.248746 269.248311 
L 415.015659 271.491344 
L 419.617138 271.491344 
L 420.384051 269.248311 
L 421.150964 271.491344 
L 421.917877 249.06101 
L 422.68479 166.068772 
L 423.451704 253.547077 
L 424.218617 271.491344 
L 431.120835 271.491344 
L 431.887748 260.276177 
L 432.654661 201.957307 
L 433.421574 260.276177 
L 434.188487 271.491344 
L 434.9554 179.526973 
L 436.489226 271.491344 
L 438.023053 188.499107 
L 438.789966 170.554839 
L 439.556879 172.797872 
L 440.323792 255.79011 
L 441.090705 188.499107 
L 441.857618 269.248311 
L 442.624531 271.491344 
L 444.925271 271.491344 
L 445.692184 192.985173 
L 446.459097 213.172475 
L 447.22601 271.491344 
L 451.060576 271.491344 
L 451.827489 228.873709 
L 452.594402 269.248311 
L 453.361315 271.491344 
L 471.767229 271.491344 
L 472.534143 244.574943 
L 473.301056 271.491344 
L 474.067969 226.630675 
L 474.834882 237.845843 
L 475.601795 271.491344 
L 476.368708 271.491344 
L 477.135621 262.519211 
L 477.902534 192.985173 
L 478.669447 271.491344 
L 480.970187 271.491344 
L 481.7371 217.658541 
L 482.504013 148.124504 
L 483.270926 249.06101 
L 484.037839 240.088876 
L 484.804752 226.630675 
L 485.571665 271.491344 
L 486.338579 262.519211 
L 487.105492 204.200341 
L 487.872405 271.491344 
L 488.639318 206.443374 
L 489.406231 271.491344 
L 490.940057 181.770006 
L 491.70697 264.762244 
L 492.473883 271.491344 
L 493.240797 244.574943 
L 494.00771 188.499107 
L 494.774623 242.331909 
L 495.541536 271.491344 
L 499.376101 271.491344 
L 500.143015 231.116742 
L 500.909928 264.762244 
L 501.676841 271.491344 
L 502.443754 224.387642 
L 503.210667 152.610571 
L 503.97758 163.825739 
L 504.744493 242.331909 
L 505.511406 271.491344 
L 510.879798 271.491344 
L 511.646711 231.116742 
L 512.413624 237.845843 
L 513.180537 271.491344 
L 517.782016 271.491344 
L 518.548929 269.248311 
L 519.315842 269.248311 
L 520.082755 219.901575 
L 520.849669 246.817976 
L 521.616582 269.248311 
L 522.383495 271.491344 
L 530.819539 271.491344 
L 531.586452 269.248311 
L 532.353365 240.088876 
L 533.120278 222.144608 
L 533.887191 269.248311 
L 534.654104 271.491344 
L 560.72915 271.491344 
L 561.496063 269.248311 
L 562.262976 271.491344 
L 563.02989 269.248311 
L 563.796803 271.491344 
L 572.99976 271.491344 
L 572.99976 271.491344 
" clip-path="url(#p97cb53def9)" style="fill: none; stroke: #d62728; stroke-width: 1.8; stroke-linecap: square"/>
   </g>
   <g id="patch_3">
    <path d="M 60.701802 284.276635 
L 60.701802 3.00024 
" style="fill: none; stroke: #000000; stroke-linejoin: miter; stroke-linecap: square"/>
   </g>
   <g id="patch_4">
    <path d="M 572.99976 284.276635 
L 572.99976 3.00024 
" style="fill: none; stroke: #000000; stroke-linejoin: miter; stroke-linecap: square"/>
   </g>
   <g id="patch_5">
    <path d="M 60.701802 284.276635 
L 572.99976 284.276635 
" style="fill: none; stroke: #000000; stroke-linejoin: miter; stroke-linecap: square"/>
   </g>
   <g id="patch_6">
    <path d="M 60.701802 3.00024 
L 572.99976 3.00024 
" style="fill: none; stroke: #000000; stroke-linejoin: miter; stroke-linecap: square"/>
   </g>
   <g id="legend_1">
    <g id="patch_7">
     <path d="M 319.69476 68.74524 
L 560.39976 68.74524 
Q 563.99976 68.74524 563.99976 65.14524 
L 563.99976 15.60024 
Q 563.99976 12.00024 560.39976 12.00024 
L 319.69476 12.00024 
Q 316.09476 12.00024 316.09476 15.60024 
L 316.09476 65.14524 
Q 316.09476 68.74524 319.69476 68.74524 
z
" style="fill: #ffffff; opacity: 0.8; stroke: #cccccc; stroke-linejoin: miter"/>
    </g>
    <g id="line2d_16">
     <path d="M 323.29476 25.784302 
L 341.29476 25.784302 
L 359.29476 25.784302 
" style="fill: none; stroke: #000000; stroke-width: 2; stroke-linecap: square"/>
    </g>
    <g id="text_16">
     <text style="font: 18px 'Arial'; text-anchor: start" x="373.69476" y="32.084302" transform="rotate(-0, 373.69476, 32.084302)">raw intensity</text>
    </g>
    <g id="line2d_17">
     <path d="M 323.29476 51.456802 
L 341.29476 51.456802 
L 359.29476 51.456802 
" style="fill: none; stroke: #d62728; stroke-width: 1.8; stroke-linecap: square"/>
    </g>
    <g id="text_17">
     <text style="font: 18px 'Arial'; text-anchor: start" x="373.69476" y="57.756802" transform="rotate(-0, 373.69476, 57.756802)">background subtracted</text>
    </g>
   </g>
  </g>
 </g>
 <defs>
  <clipPath id="p97cb53def9">
   <rect x="60.701802" y="3.00024" width="512.297958" height="281.276395"/>
  </clipPath>
 </defs>
</svg>
