<?xml version="1.0" encoding="utf-8" standalone="no"?>
<!DOCTYPE svg PUBLIC "-//W3C//DTD SVG 1.1//EN"
  "http://www.w3.org/Graphics/SVG/1.1/DTD/svg11.dtd">
<svg xmlns:xlink="http://www.w3.org/1999/xlink" width="576pt" height="331.2pt" viewBox="0 0 576 331.2" xmlns="http://www.w3.org/2000/svg" version="1.1">
 <metadata>
  <rdf:RDF xmlns:dc="http://purl.org/dc/elements/1.1/" xmlns:cc="http://creativecommons.org/ns#" xmlns:rdf="http://www.w3.org/1999/02/22-rdf-syntax-ns#">
   <cc:Work>
    <dc:type rdf:resource="http://purl.org/dc/dcmitype/StillImage"/>
    <dc:date>2026-07-11T15:46:16.806425</dc:date>
    <dc:format>image/svg+xml</dc:format>
    <dc:creator>
     <cc:Agent>
      <dc:title>Matplotlib v3.5.1, https://matplotlib.org/</dc:title>
     </cc:Agent>
    </dc:creator>
   </cc:Work>
  </rdf:RDF>
 </metadata>
 <defs>
  <style type="text/css">*{stroke-linejoin: round; stroke-linecap: butt}</style>
 </defs>
 <g id="figure_1">
  <g id="patch_1">
   <path d="M 0 331.2 
L 576 331.2 
L 576 0 
L 0 0 
z
" style="fill: #ffffff"/>
  </g>
  <g id="axes_1">
   <g id="patch_2">
    <path d="M 60.701802 284.276635 
L 572.99976 284.276635 
L 572.99976 3.00024 
L 60.701802 3.00024 
z
" style="fill: #ffffff"/>
   </g>
   <g id="matplotlib.axis_1">
    <g id="xtick_1">
     <g id="line2d_1">
      <defs>
       <path id="mc1c4610692" d="M 0 0 
L 0 3.5 
" style="stroke: #000000; stroke-width: 0.8"/>
      </defs>
      <g>
       <use xlink:href="#mc1c4610692" x="60.701802" y="284.276635" style="stroke: #000000; stroke-width: 0.8"/>
      </g>
     </g>
     <g id="text_1">
      <text style="font: 18px 'Arial'; text-anchor: middle" x="60.701802" y="304.160697" transform="rotate(-0, 60.701802, 304.160697)">0</text>
     </g>
    </g>
    <g id="xtick_2">
     <g id="line2d_2">
      <g>
       <use xlink:href="#mc1c4610692" x="137.393114" y="284.276635" style="stroke: #000000; stroke-width: 0.8"/>
      </g>
     </g>
     <g id="text_2">
      <text style="font: 18px 'Arial'; text-anchor: middle" x="137.393114" y="304.160697" transform="rotate(-0, 137.393114, 304.160697)">100</text>
     </g>
    </g>
    <g id="xtick_3">
     <g id="line2d_3">
      <g>
       <use xlink:href="#mc1c4610692" x="214.084425" y="284.276635" style="stroke: #000000; stroke-width: 0.8"/>
      </g>
     </g>
     <g id="text_3">
      <text style="font: 18px 'Arial'; text-anchor: middle" x="214.084425" y="304.160697" transform="rotate(-0, 214.084425, 304.160697)">200</text>
     </g>
    </g>
    <g id="xtick_4">
     <g id="line2d_4">
      <g>
       <use xlink:href="#mc1c4610692" x="290.775736" y="284.276635" style="stroke: #000000; stroke-width: 0.8"/>
      </g>
     </g>
     <g id="text_4">
      <text style="font: 18px 'Arial'; text-anchor: middle" x="290.775736" y="304.160697" transform="rotate(-0, 290.775736, 304.160697)">300</text>
     </g>
    </g>
    <g id="xtick_5">
     <g id="line2d_5">
      <g>
       <use xlink:href="#mc1c4610692" x="367.467047" y="284.276635" style="stroke: #000000; stroke-width: 0.8"/>
      </g>
     </g>
     <g id="text_5">
      <text style="font: 18px 'Arial'; text-anchor: middle" x="367.467047" y="304.160697" transform="rotate(-0, 367.467047, 304.160697)">400</text>
     </g>
    </g>
    <g id="xtick_6">
     <g id="line2d_6">
      <g>
       <use xlink:href="#mc1c4610692" x="444.158358" y="284.276635" style="stroke: #000000; stroke-width: 0.8"/>
      </g>
     </g>
     <g id="text_6">
      <text style="font: 18px 'Arial'; text-anchor: middle" x="444.158358" y="304.160697" transform="rotate(-0, 444.158358, 304.160697)">500</text>
     </g>
    </g>
    <g id="xtick_7">
     <g id="line2d_7">
      <g>
       <use xlink:href="#mc1c4610692" x="520.849669" y="284.276635" style="stroke: #000000; stroke-width: 0.8"/>
      </g>
     </g>
     <g id="text_7">
      <text style="font: 18px 'Arial'; text-anchor: middle" x="520.849669" y="304.160697" transform="rotate(-0, 520.849669, 304.160697)">600</text>
     </g>
    </g>
    <g id="text_8">
     <text style="font: 18px 'Arial'; text-anchor: middle" x="316.850781" y="324.62226" transform="rotate(-0, 316.850781, 324.62226)">x pixel</text>
    </g>
   </g>
   <g id="matplotlib.axis_2">
    <g id="ytick_1">
     <g id="line2d_8">
      <defs>
       <path id="m9f937cde69" d="M 0 0 
L -3.5 0 
" style="stroke: #000000; stroke-width: 0.8"/>
      </defs>
      <g>
       <use xlink:href="#m9f937cde69" x="60.701802" y="271.491344" style="stroke: #000000; stroke-width: 0.8"/>
      </g>
     </g>
     <g id="text_9">
      <text style="font: 18px 'Arial'; text-anchor: end" x="53.701802" y="277.933376" transform="rotate(-0, 53.701802, 277.933376)">0</text>
     </g>
    </g>
    <g id="ytick_2">
     <g id="line2d_9">
      <g>
       <use xlink:href="#m9f937cde69" x="60.701802" y="224.829699" style="stroke: #000000; stroke-width: 0.8"/>
      </g>
     </g>
     <g id="text_10">
      <text style="font: 18px 'Arial'; text-anchor: end" x="53.701802" y="231.271731" transform="rotate(-0, 53.701802, 231.271731)">25</text>
     </g>
    </g>
    <g id="ytick_3">
     <g id="line2d_10">
      <g>
       <use xlink:href="#m9f937cde69" x="60.701802" y="178.168055" style="stroke: #000000; stroke-width: 0.8"/>
      </g>
     </g>
     <g id="text_11">
      <text style="font: 18px 'Arial'; text-anchor: end" x="53.701802" y="184.610086" transform="rotate(-0, 53.701802, 184.610086)">50</text>
     </g>
    </g>
    <g id="ytick_4">
     <g id="line2d_11">
      <g>
       <use xlink:href="#m9f937cde69" x="60.701802" y="131.50641" style="stroke: #000000; stroke-width: 0.8"/>
      </g>
     </g>
     <g id="text_12">
      <text style="font: 18px 'Arial'; text-anchor: end" x="53.701802" y="137.948441" transform="rotate(-0, 53.701802, 137.948441)">75</text>
     </g>
    </g>
    <g id="ytick_5">
     <g id="line2d_12">
      <g>
       <use xlink:href="#m9f937cde69" x="60.701802" y="84.844765" style="stroke: #000000; stroke-width: 0.8"/>
      </g>
     </g>
     <g id="text_13">
      <text style="font: 18px 'Arial'; text-anchor: end" x="53.701802" y="91.286796" transform="rotate(-0, 53.701802, 91.286796)">100</text>
     </g>
    </g>
    <g id="ytick_6">
     <g id="line2d_13">
      <g>
       <use xlink:href="#m9f937cde69" x="60.701802" y="38.18312" style="stroke: #000000; stroke-width: 0.8"/>
      </g>
     </g>
     <g id="text_14">
      <text style="font: 18px 'Arial'; text-anchor: end" x="53.701802" y="44.625151" transform="rotate(-0, 53.701802, 44.625151)">125</text>
     </g>
    </g>
    <g id="text_15">
     <text style="font: 18px 'Arial'; text-anchor: middle" x="15.884303" y="143.638437" transform="rotate(-90, 15.884303, 143.638437)">Intensity [a.u.]</text>
    </g>
   </g>
   <g id="line2d_14">
    <path d="M 60.701802 271.491344 
L 64.536368 271.491344 
L 65.303281 269.624879 
L 66.070194 264.025481 
L 66.837107 269.624879 
L 67.60402 271.491344 
L 72.205499 271.491344 
L 72.972412 269.624879 
L 73.739325 271.491344 
L 79.87463 271.491344 
L 80.641543 269.624879 
L 81.408456 271.491344 
L 86.776848 271.491344 
L 87.543761 256.559618 
L 88.310674 260.29255 
L 89.077588 271.491344 
L 91.378327 271.491344 
L 92.14524 269.624879 
L 92.912153 264.025481 
L 93.679066 269.624879 
L 94.445979 271.491344 
L 99.814371 271.491344 
L 100.581284 269.624879 
L 101.348197 271.491344 
L 109.784242 271.491344 
L 110.551155 269.624879 
L 111.318068 271.491344 
L 112.084981 271.491344 
L 112.851894 269.624879 
L 113.618807 271.491344 
L 125.889417 271.491344 
L 126.65633 219.230302 
L 127.423243 204.298576 
L 128.190156 269.624879 
L 128.957069 260.29255 
L 129.723982 241.627892 
L 130.490896 269.624879 
L 131.257809 271.491344 
L 132.024722 271.491344 
L 132.791635 269.624879 
L 133.558548 260.29255 
L 134.325461 267.758413 
L 135.092374 271.491344 
L 148.89681 271.491344 
L 149.663723 249.093755 
L 150.430636 127.773478 
L 151.197549 236.028494 
L 151.964463 271.491344 
L 153.498289 271.491344 
L 154.265202 269.624879 
L 155.032115 271.491344 
L 155.799028 230.429097 
L 156.565941 196.832713 
L 157.332854 267.758413 
L 158.866681 271.491344 
L 161.16742 271.491344 
L 161.934333 269.624879 
L 162.701246 262.159015 
L 163.468159 264.025481 
L 164.235072 271.491344 
L 165.001985 271.491344 
L 165.768899 234.162028 
L 166.535812 187.500384 
L 167.302725 265.891947 
L 168.069638 264.025481 
L 168.836551 269.624879 
L 169.603464 271.491344 
L 170.370377 271.491344 
L 171.13729 269.624879 
L 171.904203 271.491344 
L 174.204943 271.491344 
L 174.971856 269.624879 
L 175.738769 271.491344 
L 176.505682 271.491344 
L 177.272595 267.758413 
L 178.039508 260.29255 
L 178.806421 267.758413 
L 179.573335 271.491344 
L 180.340248 269.624879 
L 181.107161 271.491344 
L 197.979249 271.491344 
L 198.746162 269.624879 
L 199.513075 271.491344 
L 204.881467 271.491344 
L 205.64838 256.559618 
L 206.415293 183.767452 
L 207.182207 254.693152 
L 207.94912 271.491344 
L 208.716033 269.624879 
L 209.482946 271.491344 
L 210.249859 271.491344 
L 211.016772 224.829699 
L 211.783685 109.10882 
L 212.550598 127.773478 
L 213.317511 267.758413 
L 214.084425 269.624879 
L 214.851338 264.025481 
L 215.618251 269.624879 
L 216.385164 271.491344 
L 217.152077 271.491344 
L 217.91899 264.025481 
L 219.452816 271.491344 
L 220.219729 269.624879 
L 220.986642 271.491344 
L 221.753556 269.624879 
L 222.520469 237.89496 
L 223.287382 194.966247 
L 224.054295 241.627892 
L 224.821208 146.438136 
L 225.588121 250.960221 
L 226.355034 258.426084 
L 227.121947 267.758413 
L 228.655774 271.491344 
L 234.024165 271.491344 
L 234.791078 269.624879 
L 235.557992 271.491344 
L 236.324905 260.29255 
L 237.858731 271.491344 
L 241.693296 271.491344 
L 243.227123 264.025481 
L 243.994036 269.624879 
L 244.760949 262.159015 
L 245.527862 269.624879 
L 246.294775 271.491344 
L 249.362428 271.491344 
L 250.896254 267.758413 
L 251.663167 260.29255 
L 252.43008 269.624879 
L 253.196993 271.491344 
L 253.963906 271.491344 
L 254.730819 260.29255 
L 255.497732 267.758413 
L 256.264646 271.491344 
L 257.031559 271.491344 
L 257.798472 269.624879 
L 258.565385 271.491344 
L 259.332298 271.491344 
L 260.099211 264.025481 
L 260.866124 258.426084 
L 261.633037 269.624879 
L 262.39995 269.624879 
L 263.166864 260.29255 
L 263.933777 269.624879 
L 264.70069 271.491344 
L 267.001429 271.491344 
L 268.535255 267.758413 
L 269.302168 264.025481 
L 270.069082 271.491344 
L 270.835995 264.025481 
L 271.602908 243.494357 
L 272.369821 267.758413 
L 273.136734 271.491344 
L 276.204386 271.491344 
L 276.9713 269.624879 
L 277.738213 271.491344 
L 278.505126 269.624879 
L 279.272039 271.491344 
L 282.339691 271.491344 
L 283.106604 264.025481 
L 284.640431 271.491344 
L 285.407344 271.491344 
L 286.174257 265.891947 
L 286.94117 264.025481 
L 287.708083 271.491344 
L 288.474996 215.497371 
L 289.241909 140.838739 
L 290.008822 236.028494 
L 290.775736 109.10882 
L 291.542649 245.360823 
L 292.309562 265.891947 
L 293.076475 269.624879 
L 293.843388 271.491344 
L 296.91104 271.491344 
L 297.677953 237.89496 
L 298.444867 193.099781 
L 299.21178 264.025481 
L 299.978693 271.491344 
L 308.414737 271.491344 
L 309.18165 269.624879 
L 309.948563 271.491344 
L 319.151521 271.491344 
L 319.918434 262.159015 
L 320.685347 189.366849 
L 321.45226 228.562631 
L 322.219173 155.770465 
L 323.752999 271.491344 
L 324.519912 262.159015 
L 325.286825 260.29255 
L 326.053739 267.758413 
L 327.587565 264.025481 
L 328.354478 245.360823 
L 329.121391 265.891947 
L 329.888304 269.624879 
L 330.655217 271.491344 
L 331.42213 262.159015 
L 332.955957 269.624879 
L 333.72287 194.966247 
L 334.489783 176.301589 
L 335.256696 269.624879 
L 336.023609 271.491344 
L 339.858175 271.491344 
L 340.625088 269.624879 
L 341.392001 265.891947 
L 342.158914 267.758413 
L 342.925827 271.491344 
L 349.828045 271.491344 
L 350.594958 269.624879 
L 351.361871 271.491344 
L 355.196437 271.491344 
L 355.96335 269.624879 
L 356.730263 271.491344 
L 360.564829 271.491344 
L 361.331742 249.093755 
L 362.098655 252.826686 
L 363.632481 148.304602 
L 364.399394 267.758413 
L 365.166307 271.491344 
L 372.068525 271.491344 
L 372.835438 265.891947 
L 373.602351 258.426084 
L 374.369265 269.624879 
L 375.136178 271.491344 
L 379.737656 271.491344 
L 380.504569 267.758413 
L 381.271482 260.29255 
L 382.038396 264.025481 
L 382.805309 271.491344 
L 383.572222 271.491344 
L 384.339135 269.624879 
L 385.106048 262.159015 
L 385.872961 262.159015 
L 386.639874 187.500384 
L 387.406787 245.360823 
L 388.1737 237.89496 
L 388.940614 250.960221 
L 389.707527 269.624879 
L 390.47444 271.491344 
L 392.008266 260.29255 
L 392.775179 271.491344 
L 402.74505 271.491344 
L 403.511963 269.624879 
L 404.278876 271.491344 
L 421.150964 271.491344 
L 421.917877 252.826686 
L 422.68479 185.633918 
L 423.451704 258.426084 
L 424.218617 269.624879 
L 424.98553 271.491344 
L 425.752443 269.624879 
L 426.519356 258.426084 
L 427.286269 260.29255 
L 428.053182 264.025481 
L 428.820095 264.025481 
L 429.587008 271.491344 
L 430.353922 271.491344 
L 431.120835 250.960221 
L 431.887748 165.102794 
L 432.654661 172.568657 
L 433.421574 254.693152 
L 434.188487 269.624879 
L 434.9554 271.491344 
L 436.489226 271.491344 
L 437.25614 250.960221 
L 438.023053 249.093755 
L 438.789966 228.562631 
L 439.556879 187.500384 
L 440.323792 252.826686 
L 441.090705 269.624879 
L 441.857618 271.491344 
L 443.391444 271.491344 
L 444.158358 267.758413 
L 444.925271 146.438136 
L 445.692184 193.099781 
L 446.459097 262.159015 
L 447.22601 250.960221 
L 447.992923 250.960221 
L 448.759836 269.624879 
L 449.526749 271.491344 
L 450.293662 267.758413 
L 451.060576 243.494357 
L 451.827489 262.159015 
L 452.594402 267.758413 
L 453.361315 260.29255 
L 454.128228 243.494357 
L 454.895141 250.960221 
L 455.662054 264.025481 
L 456.428967 269.624879 
L 457.19588 260.29255 
L 457.962793 241.627892 
L 458.729707 252.826686 
L 459.49662 265.891947 
L 460.263533 247.227289 
L 461.030446 265.891947 
L 461.797359 241.627892 
L 462.564272 224.829699 
L 463.331185 241.627892 
L 464.098098 265.891947 
L 464.865011 249.093755 
L 465.631925 247.227289 
L 466.398838 271.491344 
L 467.165751 269.624879 
L 467.932664 219.230302 
L 468.699577 88.577697 
L 469.46649 157.636931 
L 470.233403 150.171068 
L 471.000316 226.696165 
L 471.767229 129.639944 
L 472.534143 86.711231 
L 473.301056 193.099781 
L 474.067969 135.239341 
L 474.834882 15.785531 
L 475.601795 125.907012 
L 476.368708 269.624879 
L 477.135621 271.491344 
L 477.902534 271.491344 
L 478.669447 228.562631 
L 479.436361 86.711231 
L 480.203274 236.028494 
L 480.970187 271.491344 
L 481.7371 271.491344 
L 482.504013 269.624879 
L 483.270926 174.435123 
L 484.037839 94.177094 
L 484.804752 84.844765 
L 485.571665 153.903999 
L 486.338579 252.826686 
L 487.105492 252.826686 
L 487.872405 269.624879 
L 488.639318 262.159015 
L 489.406231 256.559618 
L 490.173144 237.89496 
L 490.940057 260.29255 
L 491.70697 262.159015 
L 493.240797 269.624879 
L 494.00771 250.960221 
L 494.774623 247.227289 
L 495.541536 265.891947 
L 496.308449 269.624879 
L 497.075362 260.29255 
L 497.842275 269.624879 
L 498.609188 258.426084 
L 499.376101 153.903999 
L 500.143015 234.162028 
L 500.909928 269.624879 
L 501.676841 269.624879 
L 502.443754 265.891947 
L 503.210667 265.891947 
L 503.97758 271.491344 
L 504.744493 237.89496 
L 505.511406 163.236328 
L 506.278319 187.500384 
L 507.045233 260.29255 
L 507.812146 271.491344 
L 510.879798 271.491344 
L 511.646711 264.025481 
L 512.413624 265.891947 
L 513.180537 271.491344 
L 513.947451 271.491344 
L 515.481277 260.29255 
L 516.24819 269.624879 
L 517.015103 271.491344 
L 517.782016 271.491344 
L 518.548929 243.494357 
L 519.315842 146.438136 
L 520.082755 222.963234 
L 520.849669 269.624879 
L 521.616582 271.491344 
L 526.21806 271.491344 
L 526.984973 262.159015 
L 527.751887 187.500384 
L 528.5188 245.360823 
L 529.285713 269.624879 
L 530.052626 202.43211 
L 530.819539 221.096768 
L 531.586452 271.491344 
L 532.353365 269.624879 
L 533.120278 271.491344 
L 549.225454 271.491344 
L 549.992367 260.29255 
L 550.75928 258.426084 
L 551.526193 271.491344 
L 552.293106 269.624879 
L 553.060019 269.624879 
L 553.826932 264.025481 
L 554.593845 269.624879 
L 555.360758 271.491344 
L 556.894585 271.491344 
L 557.661498 269.624879 
L 558.428411 245.360823 
L 559.195324 250.960221 
L 559.962237 271.491344 
L 560.72915 271.491344 
L 561.496063 267.758413 
L 562.262976 260.29255 
L 563.02989 271.491344 
L 570.699021 271.491344 
L 572.232847 264.025481 
L 572.99976 269.624879 
L 572.99976 269.624879 
" clip-path="url(#p19928caead)" style="fill: none; stroke: #000000; stroke-width: 2; stroke-linecap: square"/>
   </g>
   <g id="line2d_15">
    <path d="M 60.701802 271.491344 
L 64.536368 271.491344 
L 65.303281 269.624879 
L 66.070194 264.025481 
L 66.837107 269.624879 
L 67.60402 271.491344 
L 72.205499 271.491344 
L 72.972412 269.624879 
L 73.739325 271.491344 
L 79.87463 271.491344 
L 80.641543 269.624879 
L 81.408456 271.491344 
L 86.776848 271.491344 
L 87.543761 256.559618 
L 88.310674 260.29255 
L 89.077588 271.491344 
L 91.378327 271.491344 
L 92.14524 269.624879 
L 92.912153 264.025481 
L 93.679066 269.624879 
L 94.445979 271.491344 
L 99.814371 271.491344 
L 100.581284 269.624879 
L 101.348197 271.491344 
L 109.784242 271.491344 
L 110.551155 269.624879 
L 111.318068 271.491344 
L 112.084981 271.491344 
L 112.851894 269.624879 
L 113.618807 271.491344 
L 125.889417 271.491344 
L 126.65633 219.230302 
L 127.423243 204.298576 
L 128.190156 269.624879 
L 128.957069 260.29255 
L 129.723982 241.627892 
L 130.490896 269.624879 
L 131.257809 271.491344 
L 132.024722 271.491344 
L 132.791635 269.624879 
L 133.558548 260.29255 
L 134.325461 267.758413 
L 135.092374 271.491344 
L 148.89681 271.491344 
L 149.663723 249.093755 
L 150.430636 127.773478 
L 151.197549 236.028494 
L 151.964463 271.491344 
L 153.498289 271.491344 
L 154.265202 269.624879 
L 155.032115 271.491344 
L 155.799028 230.429097 
L 156.565941 196.832713 
L 157.332854 267.758413 
L 158.866681 271.491344 
L 161.16742 271.491344 
L 161.934333 269.624879 
L 162.701246 262.159015 
L 163.468159 264.025481 
L 164.235072 271.491344 
L 165.001985 271.491344 
L 165.768899 234.162028 
L 166.535812 187.500384 
L 167.302725 265.891947 
L 168.069638 264.025481 
L 168.836551 269.624879 
L 169.603464 271.491344 
L 170.370377 271.491344 
L 171.13729 269.624879 
L 171.904203 271.491344 
L 174.204943 271.491344 
L 174.971856 269.624879 
L 175.738769 271.491344 
L 176.505682 271.491344 
L 177.272595 267.758413 
L 178.039508 260.29255 
L 178.806421 267.758413 
L 179.573335 271.491344 
L 180.340248 269.624879 
L 181.107161 271.491344 
L 197.979249 271.491344 
L 198.746162 269.624879 
L 199.513075 271.491344 
L 204.881467 271.491344 
L 205.64838 256.559618 
L 206.415293 183.767452 
L 207.182207 254.693152 
L 207.94912 271.491344 
L 208.716033 269.624879 
L 209.482946 271.491344 
L 210.249859 271.491344 
L 211.016772 224.829699 
L 211.783685 109.10882 
L 212.550598 127.773478 
L 213.317511 267.758413 
L 214.084425 269.624879 
L 214.851338 264.025481 
L 215.618251 269.624879 
L 216.385164 271.491344 
L 217.152077 271.491344 
L 217.91899 264.025481 
L 219.452816 271.491344 
L 220.219729 269.624879 
L 220.986642 271.491344 
L 221.753556 269.624879 
L 222.520469 237.89496 
L 223.287382 194.966247 
L 224.054295 241.627892 
L 224.821208 146.438136 
L 225.588121 250.960221 
L 226.355034 258.426084 
L 227.121947 267.758413 
L 228.655774 271.491344 
L 234.024165 271.491344 
L 234.791078 269.624879 
L 235.557992 271.491344 
L 236.324905 260.29255 
L 237.858731 271.491344 
L 241.693296 271.491344 
L 243.227123 264.025481 
L 243.994036 269.624879 
L 244.760949 262.159015 
L 245.527862 269.624879 
L 246.294775 271.491344 
L 249.362428 271.491344 
L 250.896254 267.758413 
L 251.663167 260.29255 
L 252.43008 269.624879 
L 253.196993 271.491344 
L 253.963906 271.491344 
L 254.730819 260.29255 
L 255.497732 267.758413 
L 256.264646 271.491344 
L 257.031559 271.491344 
L 257.798472 269.624879 
L 258.565385 271.491344 
L 259.332298 271.491344 
L 260.099211 264.025481 
L 260.866124 258.426084 
L 261.633037 269.624879 
L 262.39995 269.624879 
L 263.166864 260.29255 
L 263.933777 269.624879 
L 264.70069 271.491344 
L 267.001429 271.491344 
L 268.535255 267.758413 
L 269.302168 264.025481 
L 270.069082 271.491344 
L 270.835995 264.025481 
L 271.602908 243.494357 
L 272.369821 267.758413 
L 273.136734 271.491344 
L 282.339691 271.491344 
L 283.106604 265.891947 
L 283.873518 269.624879 
L 284.640431 271.491344 
L 285.407344 271.491344 
L 286.174257 267.758413 
L 286.94117 265.891947 
L 287.708083 271.491344 
L 288.474996 217.363836 
L 289.241909 142.705205 
L 290.008822 237.89496 
L 290.775736 110.975286 
L 291.542649 249.093755 
L 292.309562 269.624879 
L 293.076475 271.491344 
L 296.91104 271.491344 
L 297.677953 239.761426 
L 298.444867 194.966247 
L 299.21178 265.891947 
L 299.978693 271.491344 
L 308.414737 271.491344 
L 309.18165 269.624879 
L 309.948563 271.491344 
L 319.151521 271.491344 
L 319.918434 264.025481 
L 320.685347 191.233315 
L 321.45226 230.429097 
L 322.219173 157.636931 
L 323.752999 271.491344 
L 324.519912 265.891947 
L 325.286825 264.025481 
L 326.053739 271.491344 
L 327.587565 267.758413 
L 328.354478 249.093755 
L 329.121391 269.624879 
L 329.888304 271.491344 
L 330.655217 271.491344 
L 331.42213 265.891947 
L 332.189043 269.624879 
L 332.955957 271.491344 
L 333.72287 196.832713 
L 334.489783 178.168055 
L 335.256696 271.491344 
L 340.625088 271.491344 
L 341.392001 265.891947 
L 342.158914 267.758413 
L 342.925827 271.491344 
L 349.828045 271.491344 
L 350.594958 269.624879 
L 351.361871 271.491344 
L 355.196437 271.491344 
L 355.96335 269.624879 
L 356.730263 271.491344 
L 360.564829 271.491344 
L 361.331742 249.093755 
L 362.098655 252.826686 
L 363.632481 148.304602 
L 364.399394 267.758413 
L 365.166307 271.491344 
L 372.068525 271.491344 
L 372.835438 265.891947 
L 373.602351 258.426084 
L 374.369265 269.624879 
L 375.136178 271.491344 
L 379.737656 271.491344 
L 380.504569 267.758413 
L 381.271482 260.29255 
L 382.038396 264.025481 
L 382.805309 271.491344 
L 383.572222 271.491344 
L 384.339135 269.624879 
L 385.106048 262.159015 
L 385.872961 262.159015 
L 386.639874 187.500384 
L 387.406787 245.360823 
L 388.1737 237.89496 
L 388.940614 250.960221 
L 389.707527 269.624879 
L 390.47444 271.491344 
L 392.008266 260.29255 
L 392.775179 271.491344 
L 402.74505 271.491344 
L 403.511963 269.624879 
L 404.278876 271.491344 
L 421.150964 271.491344 
L 421.917877 254.693152 
L 422.68479 187.500384 
L 423.451704 260.29255 
L 424.218617 271.491344 
L 425.752443 271.491344 
L 426.519356 260.29255 
L 427.286269 262.159015 
L 428.053182 265.891947 
L 428.820095 265.891947 
L 429.587008 271.491344 
L 430.353922 271.491344 
L 431.120835 254.693152 
L 431.887748 170.702191 
L 432.654661 178.168055 
L 433.421574 260.29255 
L 434.188487 271.491344 
L 436.489226 271.491344 
L 437.25614 262.159015 
L 438.023053 260.29255 
L 438.789966 239.761426 
L 439.556879 200.565644 
L 440.323792 265.891947 
L 441.090705 271.491344 
L 444.158358 271.491344 
L 444.925271 163.236328 
L 445.692184 211.764439 
L 446.459097 271.491344 
L 467.932664 271.491344 
L 468.699577 152.037534 
L 469.46649 222.963234 
L 470.233403 215.497371 
L 471.000316 271.491344 
L 471.767229 198.699178 
L 472.534143 157.636931 
L 473.301056 265.891947 
L 474.067969 208.031507 
L 474.834882 88.577697 
L 475.601795 198.699178 
L 476.368708 271.491344 
L 478.669447 271.491344 
L 479.436361 157.636931 
L 480.203274 271.491344 
L 482.504013 271.491344 
L 483.270926 237.89496 
L 484.037839 157.636931 
L 484.804752 144.57167 
L 485.571665 213.630905 
L 486.338579 271.491344 
L 498.609188 271.491344 
L 499.376101 172.568657 
L 500.143015 250.960221 
L 500.909928 271.491344 
L 503.97758 271.491344 
L 504.744493 247.227289 
L 505.511406 172.568657 
L 506.278319 196.832713 
L 507.045233 269.624879 
L 507.812146 271.491344 
L 510.879798 271.491344 
L 511.646711 267.758413 
L 513.180537 271.491344 
L 513.947451 271.491344 
L 514.714364 267.758413 
L 515.481277 262.159015 
L 516.24819 271.491344 
L 517.782016 271.491344 
L 518.548929 245.360823 
L 519.315842 148.304602 
L 520.082755 222.963234 
L 520.849669 269.624879 
L 521.616582 271.491344 
L 526.21806 271.491344 
L 526.984973 262.159015 
L 527.751887 187.500384 
L 528.5188 245.360823 
L 529.285713 269.624879 
L 530.052626 202.43211 
L 530.819539 221.096768 
L 531.586452 271.491344 
L 532.353365 269.624879 
L 533.120278 271.491344 
L 549.225454 271.491344 
L 549.992367 260.29255 
L 550.75928 258.426084 
L 551.526193 271.491344 
L 552.293106 269.624879 
L 553.060019 269.624879 
L 553.826932 264.025481 
L 554.593845 269.624879 
L 555.360758 271.491344 
L 556.894585 271.491344 
L 557.661498 269.624879 
L 558.428411 245.360823 
L 559.195324 250.960221 
L 559.962237 271.491344 
L 560.72915 271.491344 
L 561.496063 267.758413 
L 562.262976 260.29255 
L 563.02989 271.491344 
L 570.699021 271.491344 
L 572.232847 264.025481 
L 572.99976 269.624879 
L 572.99976 269.624879 
" clip-path="url(#p19928caead)" style="fill: none; stroke: #d62728; stroke-width: 1.8; stroke-linecap: square"/>
   </g>
   <g id="patch_3">
    <path d="M 60.701802 284.276635 
L 60.701802 3.00024 
" style="fill: none; stroke: #000000; stroke-linejoin: miter; stroke-linecap: square"/>
   </g>
   <g id="patch_4">
    <path d="M 572.99976 284.276635 
L 572.99976 3.00024 
" style="fill: none; stroke: #000000; stroke-linejoin: miter; stroke-linecap: square"/>
   </g>
   <g id="patch_5">
    <path d="M 60.701802 284.276635 
L 572.99976 284.276635 
" style="fill: none; stroke: #000000; stroke-linejoin: miter; stroke-linecap: square"/>
   </g>
   <g id="patch_6">
    <path d="M 60.701802 3.00024 
L 572.99976 3.00024 
" style="fill: none; stroke: #000000; stroke-linejoin: miter; stroke-linecap: square"/>
   </g>
   <g id="legend_1">
    <g id="patch_7">
     <path d="M 319.69476 68.74524 
L 560.39976 68.74524 
Q 563.99976 68.74524 563.99976 65.14524 
L 563.99976 15.60024 
Q 563.99976 12.00024 560.39976 12.00024 
L 319.69476 12.00024 
Q 316.09476 12.00024 316.09476 15.60024 
L 316.09476 65.14524 
Q 316.09476 68.74524 319.69476 68.74524 
z
" style="fill: #ffffff; opacity: 0.8; stroke: #cccccc; stroke-linejoin: miter"/>
    </g>
    <g id="line2d_16">
     <path d="M 323.29476 25.784302 
L 341.29476 25.784302 
L 359.29476 25.784302 
" style="fill: none; stroke: #000000; stroke-width: 2; stroke-linecap: square"/>
    </g>
    <g id="text_16">
     <text style="font: 18px 'Arial'; text-anchor: start" x="373.69476" y="32.084302" transform="rotate(-0, 373.69476, 32.084302)">raw intensity</text>
    </g>
    <g id="line2d_17">
     <path d="M 323.29476 51.456802 
L 341.29476 51.456802 
L 359.29476 51.456802 
" style="fill: none; stroke: #d62728; stroke-width: 1.8; stroke-linecap: square"/>
    </g>
    <g id="text_17">
     <text style="font: 18px 'Arial'; text-anchor: start" x="373.69476" y="57.756802" transform="rotate(-0, 373.69476, 57.756802)">background subtracted</text>
    </g>
   </g>
  </g>
 </g>
 <defs>
  <clipPath id="p19928caead">
   <rect x="60.701802" y="3.00024" width="512.297958" height="281.276395"/>
  </clipPath>
 </defs>
</svg>
