<?xml version="1.0" encoding="utf-8" standalone="no"?>
<!DOCTYPE svg PUBLIC "-//W3C//DTD SVG 1.1//EN"
  "http://www.w3.org/Graphics/SVG/1.1/DTD/svg11.dtd">
<svg xmlns:xlink="http://www.w3.org/1999/xlink" width="576pt" height="331.2pt" viewBox="0 0 576 331.2" xmlns="http://www.w3.org/2000/svg" version="1.1">
 <metadata>
  <rdf:RDF xmlns:dc="http://purl.org/dc/elements/1.1/" xmlns:cc="http://creativecommons.org/ns#" xmlns:rdf="http://www.w3.org/1999/02/22-rdf-syntax-ns#">
   <cc:Work>
    <dc:type rdf:resource="http://purl.org/dc/dcmitype/StillImage"/>
    <dc:date>2026-07-11T15:46:12.086208</dc:date>
    <dc:format>image/svg+xml</dc:format>
    <dc:creator>
     <cc:Agent>
      <dc:title>Matplotlib v3.5.1, https://matplotlib.org/</dc:title>
     </cc:Agent>
    </dc:creator>
   </cc:Work>
  </rdf:RDF>
 </metadata>
 <defs>
  <style type="text/css">*{stroke-linejoin: round; stroke-linecap: butt}</style>
 </defs>
 <g id="figure_1">
  <g id="patch_1">
   <path d="M 0 331.2 
L 576 331.2 
L 576 0 
L 0 0 
z
" style="fill: #ffffff"/>
  </g>
  <g id="axes_1">
   <g id="patch_2">
    <path d="M 60.701802 284.276635 
L 572.99976 284.276635 
L 572.99976 3.00024 
L 60.701802 3.00024 
z
" style="fill: #ffffff"/>
   </g>
   <g id="matplotlib.axis_1">
    <g id="xtick_1">
     <g id="line2d_1">
      <defs>
       <path id="mf26597e465" d="M 0 0 
L 0 3.5 
" style="stroke: #000000; stroke-width: 0.8"/>
      </defs>
      <g>
       <use xlink:href="#mf26597e465" x="60.701802" y="284.276635" style="stroke: #000000; stroke-width: 0.8"/>
      </g>
     </g>
     <g id="text_1">
      <text style="font: 18px 'Arial'; text-anchor: middle" x="60.701802" y="304.160697" transform="rotate(-0, 60.701802, 304.160697)">0</text>
     </g>
    </g>
    <g id="xtick_2">
     <g id="line2d_2">
      <g>
       <use xlink:href="#mf26597e465" x="137.393114" y="284.276635" style="stroke: #000000; stroke-width: 0.8"/>
      </g>
     </g>
     <g id="text_2">
      <text style="font: 18px 'Arial'; text-anchor: middle" x="137.393114" y="304.160697" transform="rotate(-0, 137.393114, 304.160697)">100</text>
     </g>
    </g>
    <g id="xtick_3">
     <g id="line2d_3">
      <g>
       <use xlink:href="#mf26597e465" x="214.084425" y="284.276635" style="stroke: #000000; stroke-width: 0.8"/>
      </g>
     </g>
     <g id="text_3">
      <text style="font: 18px 'Arial'; text-anchor: middle" x="214.084425" y="304.160697" transform="rotate(-0, 214.084425, 304.160697)">200</text>
     </g>
    </g>
    <g id="xtick_4">
     <g id="line2d_4">
      <g>
       <use xlink:href="#mf26597e465" x="290.775736" y="284.276635" style="stroke: #000000; stroke-width: 0.8"/>
      </g>
     </g>
     <g id="text_4">
      <text style="font: 18px 'Arial'; text-anchor: middle" x="290.775736" y="304.160697" transform="rotate(-0, 290.775736, 304.160697)">300</text>
     </g>
    </g>
    <g id="xtick_5">
     <g id="line2d_5">
      <g>
       <use xlink:href="#mf26597e465" x="367.467047" y="284.276635" style="stroke: #000000; stroke-width: 0.8"/>
      </g>
     </g>
     <g id="text_5">
      <text style="font: 18px 'Arial'; text-anchor: middle" x="367.467047" y="304.160697" transform="rotate(-0, 367.467047, 304.160697)">400</text>
     </g>
    </g>
    <g id="xtick_6">
     <g id="line2d_6">
      <g>
       <use xlink:href="#mf26597e465" x="444.158358" y="284.276635" style="stroke: #000000; stroke-width: 0.8"/>
      </g>
     </g>
     <g id="text_6">
      <text style="font: 18px 'Arial'; text-anchor: middle" x="444.158358" y="304.160697" transform="rotate(-0, 444.158358, 304.160697)">500</text>
     </g>
    </g>
    <g id="xtick_7">
     <g id="line2d_7">
      <g>
       <use xlink:href="#mf26597e465" x="520.849669" y="284.276635" style="stroke: #000000; stroke-width: 0.8"/>
      </g>
     </g>
     <g id="text_7">
      <text style="font: 18px 'Arial'; text-anchor: middle" x="520.849669" y="304.160697" transform="rotate(-0, 520.849669, 304.160697)">600</text>
     </g>
    </g>
    <g id="text_8">
     <text style="font: 18px 'Arial'; text-anchor: middle" x="316.850781" y="324.62226" transform="rotate(-0, 316.850781, 324.62226)">x pixel</text>
    </g>
   </g>
   <g id="matplotlib.axis_2">
    <g id="ytick_1">
     <g id="line2d_8">
      <defs>
       <path id="m6f87a5a886" d="M 0 0 
L -3.5 0 
" style="stroke: #000000; stroke-width: 0.8"/>
      </defs>
      <g>
       <use xlink:href="#m6f87a5a886" x="60.701802" y="271.491344" style="stroke: #000000; stroke-width: 0.8"/>
      </g>
     </g>
     <g id="text_9">
      <text style="font: 18px 'Arial'; text-anchor: end" x="53.701802" y="277.933376" transform="rotate(-0, 53.701802, 277.933376)">0</text>
     </g>
    </g>
    <g id="ytick_2">
     <g id="line2d_9">
      <g>
       <use xlink:href="#m6f87a5a886" x="60.701802" y="225.167827" style="stroke: #000000; stroke-width: 0.8"/>
      </g>
     </g>
     <g id="text_10">
      <text style="font: 18px 'Arial'; text-anchor: end" x="53.701802" y="231.609859" transform="rotate(-0, 53.701802, 231.609859)">25</text>
     </g>
    </g>
    <g id="ytick_3">
     <g id="line2d_10">
      <g>
       <use xlink:href="#m6f87a5a886" x="60.701802" y="178.84431" style="stroke: #000000; stroke-width: 0.8"/>
      </g>
     </g>
     <g id="text_11">
      <text style="font: 18px 'Arial'; text-anchor: end" x="53.701802" y="185.286342" transform="rotate(-0, 53.701802, 185.286342)">50</text>
     </g>
    </g>
    <g id="ytick_4">
     <g id="line2d_11">
      <g>
       <use xlink:href="#m6f87a5a886" x="60.701802" y="132.520793" style="stroke: #000000; stroke-width: 0.8"/>
      </g>
     </g>
     <g id="text_12">
      <text style="font: 18px 'Arial'; text-anchor: end" x="53.701802" y="138.962825" transform="rotate(-0, 53.701802, 138.962825)">75</text>
     </g>
    </g>
    <g id="ytick_5">
     <g id="line2d_12">
      <g>
       <use xlink:href="#m6f87a5a886" x="60.701802" y="86.197276" style="stroke: #000000; stroke-width: 0.8"/>
      </g>
     </g>
     <g id="text_13">
      <text style="font: 18px 'Arial'; text-anchor: end" x="53.701802" y="92.639308" transform="rotate(-0, 53.701802, 92.639308)">100</text>
     </g>
    </g>
    <g id="ytick_6">
     <g id="line2d_13">
      <g>
       <use xlink:href="#m6f87a5a886" x="60.701802" y="39.87376" style="stroke: #000000; stroke-width: 0.8"/>
      </g>
     </g>
     <g id="text_14">
      <text style="font: 18px 'Arial'; text-anchor: end" x="53.701802" y="46.315791" transform="rotate(-0, 53.701802, 46.315791)">125</text>
     </g>
    </g>
    <g id="text_15">
     <text style="font: 18px 'Arial'; text-anchor: middle" x="15.884303" y="143.638437" transform="rotate(-90, 15.884303, 143.638437)">Intensity [a.u.]</text>
    </g>
   </g>
   <g id="line2d_14">
    <path d="M 60.701802 225.167827 
L 61.468716 210.344302 
L 62.235629 269.638404 
L 63.002542 271.491344 
L 65.303281 271.491344 
L 66.070194 269.638404 
L 66.837107 269.638404 
L 67.60402 243.697234 
L 68.370934 256.667819 
L 69.137847 252.961938 
L 69.90476 252.961938 
L 70.671673 271.491344 
L 71.438586 271.491344 
L 72.205499 269.638404 
L 72.972412 271.491344 
L 78.340804 271.491344 
L 79.107717 195.520776 
L 79.87463 189.961954 
L 80.641543 269.638404 
L 81.408456 269.638404 
L 82.17537 251.108997 
L 82.942283 195.520776 
L 83.709196 258.52076 
L 84.476109 238.138412 
L 85.243022 264.079582 
L 86.009935 269.638404 
L 86.776848 271.491344 
L 88.310674 271.491344 
L 89.077588 251.108997 
L 89.844501 245.550175 
L 90.611414 271.491344 
L 93.679066 271.491344 
L 95.212892 267.785463 
L 95.979806 201.079599 
L 97.513632 269.638404 
L 98.280545 271.491344 
L 99.047458 232.57959 
L 99.814371 202.932539 
L 100.581284 267.785463 
L 101.348197 271.491344 
L 102.882024 271.491344 
L 103.648937 265.932522 
L 104.41585 219.609005 
L 105.182763 256.667819 
L 105.949676 165.873726 
L 106.716589 201.079599 
L 107.483502 271.491344 
L 109.784242 271.491344 
L 110.551155 262.226641 
L 111.318068 239.991353 
L 112.084981 265.932522 
L 112.851894 271.491344 
L 113.618807 264.079582 
L 114.38572 152.903141 
L 115.152633 217.756065 
L 115.919546 217.756065 
L 116.68646 227.020768 
L 117.453373 269.638404 
L 118.220286 271.491344 
L 122.054851 271.491344 
L 122.821764 269.638404 
L 123.588678 271.491344 
L 129.723982 271.491344 
L 130.490896 251.108997 
L 131.257809 160.314904 
L 132.024722 247.403115 
L 132.791635 271.491344 
L 133.558548 269.638404 
L 134.325461 271.491344 
L 135.092374 271.491344 
L 135.859287 223.314887 
L 136.6262 212.197243 
L 137.393114 271.491344 
L 138.160027 269.638404 
L 138.92694 271.491344 
L 142.761505 271.491344 
L 143.528418 269.638404 
L 144.295331 188.109014 
L 145.062245 201.079599 
L 145.829158 271.491344 
L 158.099767 271.491344 
L 158.866681 262.226641 
L 159.633594 215.903124 
L 160.400507 258.52076 
L 161.16742 269.638404 
L 161.934333 267.785463 
L 162.701246 121.403149 
L 163.468159 171.432548 
L 164.235072 184.403132 
L 165.001985 149.19726 
L 165.768899 269.638404 
L 166.535812 271.491344 
L 167.302725 238.138412 
L 168.069638 139.932556 
L 168.836551 252.961938 
L 169.603464 271.491344 
L 170.370377 269.638404 
L 171.13729 271.491344 
L 173.43803 271.491344 
L 174.204943 230.726649 
L 174.971856 208.491361 
L 175.738769 269.638404 
L 176.505682 271.491344 
L 177.272595 264.079582 
L 178.039508 241.844293 
L 178.806421 256.667819 
L 179.573335 117.697268 
L 180.340248 195.520776 
L 181.107161 199.226658 
L 182.640987 269.638404 
L 183.4079 271.491344 
L 184.174813 269.638404 
L 184.941726 271.491344 
L 188.009379 271.491344 
L 188.776292 264.079582 
L 189.543205 164.020785 
L 190.310118 228.873709 
L 191.077031 230.726649 
L 191.843944 239.991353 
L 192.610857 269.638404 
L 194.144684 269.638404 
L 194.911597 271.491344 
L 195.67851 269.638404 
L 196.445423 269.638404 
L 197.212336 251.108997 
L 197.979249 106.579624 
L 198.746162 223.314887 
L 199.513075 208.491361 
L 200.279989 234.432531 
L 201.046902 271.491344 
L 201.813815 271.491344 
L 202.580728 269.638404 
L 203.347641 271.491344 
L 204.114554 252.961938 
L 204.881467 225.167827 
L 205.64838 267.785463 
L 206.415293 271.491344 
L 207.182207 264.079582 
L 207.94912 197.373717 
L 208.716033 245.550175 
L 209.482946 234.432531 
L 210.249859 247.403115 
L 211.016772 199.226658 
L 211.783685 186.256073 
L 212.550598 271.491344 
L 213.317511 269.638404 
L 214.084425 236.285471 
L 214.851338 152.903141 
L 215.618251 254.814878 
L 216.385164 271.491344 
L 217.152077 269.638404 
L 217.91899 241.844293 
L 219.452816 269.638404 
L 220.219729 271.491344 
L 221.753556 271.491344 
L 222.520469 239.991353 
L 223.287382 197.373717 
L 224.054295 260.3737 
L 224.821208 241.844293 
L 225.588121 262.226641 
L 226.355034 195.520776 
L 227.121947 247.403115 
L 227.88886 269.638404 
L 228.655774 269.638404 
L 229.422687 271.491344 
L 230.1896 271.491344 
L 230.956513 215.903124 
L 231.723426 175.138429 
L 232.490339 267.785463 
L 233.257252 271.491344 
L 234.791078 271.491344 
L 235.557992 267.785463 
L 236.324905 225.167827 
L 237.091818 254.814878 
L 237.858731 271.491344 
L 241.693296 271.491344 
L 242.46021 269.638404 
L 243.227123 269.638404 
L 243.994036 271.491344 
L 244.760949 271.491344 
L 245.527862 265.932522 
L 246.294775 167.726666 
L 247.828601 269.638404 
L 248.595514 271.491344 
L 249.362428 245.550175 
L 250.129341 236.285471 
L 250.896254 269.638404 
L 251.663167 269.638404 
L 252.43008 271.491344 
L 256.264646 271.491344 
L 257.031559 247.403115 
L 257.798472 228.873709 
L 258.565385 251.108997 
L 259.332298 269.638404 
L 260.099211 271.491344 
L 261.633037 271.491344 
L 262.39995 251.108997 
L 263.166864 156.609022 
L 263.933777 247.403115 
L 264.70069 227.020768 
L 265.467603 252.961938 
L 266.234516 210.344302 
L 267.001429 227.020768 
L 267.768342 269.638404 
L 270.069082 269.638404 
L 270.835995 264.079582 
L 271.602908 238.138412 
L 272.369821 265.932522 
L 273.136734 271.491344 
L 273.903647 269.638404 
L 274.67056 215.903124 
L 276.204386 271.491344 
L 280.038952 271.491344 
L 280.805865 264.079582 
L 281.572778 238.138412 
L 282.339691 264.079582 
L 283.106604 271.491344 
L 283.873518 267.785463 
L 284.640431 210.344302 
L 285.407344 232.57959 
L 286.174257 269.638404 
L 286.94117 271.491344 
L 288.474996 165.873726 
L 289.241909 201.079599 
L 290.008822 128.814912 
L 290.775736 254.814878 
L 291.542649 269.638404 
L 292.309562 269.638404 
L 293.076475 271.491344 
L 293.843388 267.785463 
L 294.610301 234.432531 
L 295.377214 243.697234 
L 296.144127 269.638404 
L 296.91104 269.638404 
L 297.677953 212.197243 
L 298.444867 139.932556 
L 299.21178 251.108997 
L 299.978693 197.373717 
L 300.745606 252.961938 
L 301.512519 143.638437 
L 302.279432 236.285471 
L 303.046345 206.638421 
L 303.813258 241.844293 
L 304.580171 193.667836 
L 305.347085 208.491361 
L 306.113998 182.550192 
L 306.880911 126.961971 
L 307.647824 232.57959 
L 308.414737 145.491378 
L 309.18165 260.3737 
L 309.948563 271.491344 
L 310.715476 271.491344 
L 311.482389 269.638404 
L 312.249303 269.638404 
L 313.016216 206.638421 
L 313.783129 208.491361 
L 314.550042 232.57959 
L 315.316955 232.57959 
L 316.083868 247.403115 
L 316.850781 269.638404 
L 319.151521 269.638404 
L 319.918434 271.491344 
L 320.685347 269.638404 
L 321.45226 239.991353 
L 322.219173 260.3737 
L 322.986086 138.079615 
L 323.752999 175.138429 
L 324.519912 269.638404 
L 325.286825 271.491344 
L 326.053739 264.079582 
L 327.587565 138.079615 
L 328.354478 258.52076 
L 329.121391 219.609005 
L 329.888304 206.638421 
L 330.655217 256.667819 
L 331.42213 269.638404 
L 332.189043 271.491344 
L 332.955957 217.756065 
L 333.72287 221.461946 
L 334.489783 269.638404 
L 335.256696 269.638404 
L 336.023609 245.550175 
L 336.790522 195.520776 
L 337.557435 264.079582 
L 338.324348 271.491344 
L 339.091261 269.638404 
L 339.858175 269.638404 
L 340.625088 271.491344 
L 344.459653 271.491344 
L 345.993479 267.785463 
L 346.760393 271.491344 
L 355.196437 271.491344 
L 355.96335 258.52076 
L 356.730263 210.344302 
L 357.497176 260.3737 
L 358.264089 271.491344 
L 359.031002 269.638404 
L 359.797915 243.697234 
L 360.564829 254.814878 
L 361.331742 271.491344 
L 362.098655 271.491344 
L 362.865568 230.726649 
L 363.632481 206.638421 
L 364.399394 249.256056 
L 365.166307 195.520776 
L 365.93322 264.079582 
L 366.700133 269.638404 
L 367.467047 271.491344 
L 368.23396 269.638404 
L 369.000873 271.491344 
L 369.767786 271.491344 
L 370.534699 269.638404 
L 371.301612 221.461946 
L 372.068525 214.050183 
L 372.835438 271.491344 
L 373.602351 271.491344 
L 374.369265 241.844293 
L 375.136178 158.461963 
L 375.903091 254.814878 
L 376.670004 271.491344 
L 377.436917 269.638404 
L 378.20383 271.491344 
L 378.970743 269.638404 
L 379.737656 271.491344 
L 382.805309 271.491344 
L 383.572222 269.638404 
L 384.339135 271.491344 
L 386.639874 271.491344 
L 387.406787 269.638404 
L 388.1737 225.167827 
L 388.940614 243.697234 
L 389.707527 269.638404 
L 390.47444 269.638404 
L 391.241353 254.814878 
L 392.008266 243.697234 
L 392.775179 262.226641 
L 393.542092 239.991353 
L 394.309005 267.785463 
L 395.075918 269.638404 
L 395.842832 267.785463 
L 396.609745 241.844293 
L 397.376658 262.226641 
L 398.143571 210.344302 
L 398.910484 225.167827 
L 399.677397 271.491344 
L 400.44431 269.638404 
L 401.211223 271.491344 
L 401.978136 271.491344 
L 402.74505 251.108997 
L 403.511963 191.814895 
L 404.278876 260.3737 
L 405.045789 269.638404 
L 405.812702 269.638404 
L 406.579615 236.285471 
L 407.346528 214.050183 
L 408.113441 247.403115 
L 408.880354 271.491344 
L 409.647268 252.961938 
L 410.414181 243.697234 
L 411.181094 269.638404 
L 411.948007 271.491344 
L 412.71492 254.814878 
L 413.481833 191.814895 
L 414.248746 258.52076 
L 415.015659 271.491344 
L 415.782572 265.932522 
L 416.549486 165.873726 
L 417.316399 204.78548 
L 418.083312 271.491344 
L 421.150964 271.491344 
L 421.917877 269.638404 
L 422.68479 269.638404 
L 423.451704 271.491344 
L 424.218617 264.079582 
L 424.98553 164.020785 
L 425.752443 227.020768 
L 426.519356 271.491344 
L 427.286269 269.638404 
L 428.053182 193.667836 
L 428.820095 173.285488 
L 429.587008 254.814878 
L 430.353922 232.57959 
L 431.120835 223.314887 
L 431.887748 73.226692 
L 432.654661 239.991353 
L 433.421574 267.785463 
L 434.188487 230.726649 
L 434.9554 130.667853 
L 435.722313 212.197243 
L 436.489226 271.491344 
L 437.25614 254.814878 
L 438.789966 123.25609 
L 439.556879 147.344319 
L 440.323792 202.932539 
L 441.090705 239.991353 
L 441.857618 106.579624 
L 442.624531 239.991353 
L 443.391444 112.138446 
L 444.925271 236.285471 
L 445.692184 264.079582 
L 446.459097 230.726649 
L 447.22601 227.020768 
L 447.992923 197.373717 
L 448.759836 136.226675 
L 449.526749 234.432531 
L 450.293662 95.46198 
L 451.060576 113.991387 
L 451.827489 82.491395 
L 452.594402 234.432531 
L 453.361315 210.344302 
L 454.128228 245.550175 
L 454.895141 252.961938 
L 455.662054 258.52076 
L 456.428967 212.197243 
L 457.19588 147.344319 
L 457.962793 197.373717 
L 458.729707 234.432531 
L 459.49662 238.138412 
L 460.263533 139.932556 
L 461.030446 247.403115 
L 461.797359 151.0502 
L 462.564272 236.285471 
L 463.331185 234.432531 
L 464.098098 252.961938 
L 464.865011 256.667819 
L 465.631925 256.667819 
L 466.398838 243.697234 
L 467.165751 223.314887 
L 467.932664 254.814878 
L 468.699577 214.050183 
L 469.46649 251.108997 
L 470.233403 149.19726 
L 471.000316 67.66787 
L 471.767229 108.432565 
L 472.534143 199.226658 
L 473.301056 63.961988 
L 474.067969 149.19726 
L 474.834882 271.491344 
L 475.601795 251.108997 
L 476.368708 156.609022 
L 477.135621 119.550209 
L 477.902534 189.961954 
L 478.669447 15.785531 
L 479.436361 115.844327 
L 480.203274 78.785514 
L 480.970187 167.726666 
L 482.504013 258.52076 
L 483.270926 132.520793 
L 484.037839 69.52081 
L 484.804752 162.167844 
L 485.571665 204.78548 
L 486.338579 156.609022 
L 487.105492 134.373734 
L 487.872405 227.020768 
L 488.639318 23.197293 
L 489.406231 151.0502 
L 490.173144 119.550209 
L 490.940057 130.667853 
L 492.473883 217.756065 
L 493.240797 223.314887 
L 494.774623 269.638404 
L 495.541536 249.256056 
L 496.308449 160.314904 
L 497.075362 149.19726 
L 497.842275 247.403115 
L 498.609188 130.667853 
L 499.376101 241.844293 
L 500.143015 149.19726 
L 500.909928 223.314887 
L 501.676841 258.52076 
L 502.443754 178.84431 
L 503.210667 180.697251 
L 503.97758 256.667819 
L 504.744493 258.52076 
L 505.511406 243.697234 
L 506.278319 245.550175 
L 507.045233 149.19726 
L 507.812146 180.697251 
L 508.579059 258.52076 
L 509.345972 269.638404 
L 510.112885 225.167827 
L 511.646711 271.491344 
L 513.180537 271.491344 
L 513.947451 269.638404 
L 514.714364 258.52076 
L 515.481277 241.844293 
L 516.24819 247.403115 
L 517.015103 162.167844 
L 517.782016 252.961938 
L 518.548929 265.932522 
L 519.315842 199.226658 
L 520.082755 214.050183 
L 520.849669 260.3737 
L 521.616582 188.109014 
L 522.383495 184.403132 
L 523.150408 269.638404 
L 523.917321 271.491344 
L 524.684234 247.403115 
L 525.451147 195.520776 
L 526.21806 262.226641 
L 526.984973 271.491344 
L 527.751887 262.226641 
L 528.5188 154.756082 
L 529.285713 223.314887 
L 530.052626 271.491344 
L 530.819539 269.638404 
L 531.586452 269.638404 
L 532.353365 271.491344 
L 533.120278 227.020768 
L 533.887191 171.432548 
L 534.654104 265.932522 
L 535.421018 271.491344 
L 536.187931 249.256056 
L 536.954844 110.285505 
L 537.721757 227.020768 
L 538.48867 232.57959 
L 539.255583 249.256056 
L 540.022496 271.491344 
L 540.789409 271.491344 
L 541.556322 245.550175 
L 542.323236 234.432531 
L 543.090149 221.461946 
L 543.857062 132.520793 
L 544.623975 258.52076 
L 545.390888 260.3737 
L 546.157801 191.814895 
L 546.924714 252.961938 
L 547.691627 269.638404 
L 548.45854 271.491344 
L 549.225454 247.403115 
L 549.992367 228.873709 
L 550.75928 251.108997 
L 551.526193 251.108997 
L 552.293106 228.873709 
L 553.060019 269.638404 
L 553.826932 269.638404 
L 554.593845 264.079582 
L 555.360758 225.167827 
L 556.127672 260.3737 
L 556.894585 199.226658 
L 557.661498 239.991353 
L 558.428411 271.491344 
L 559.195324 271.491344 
L 559.962237 251.108997 
L 560.72915 245.550175 
L 561.496063 269.638404 
L 562.262976 271.491344 
L 565.330629 271.491344 
L 566.097542 267.785463 
L 566.864455 204.78548 
L 568.398281 271.491344 
L 569.165194 271.491344 
L 569.932108 269.638404 
L 570.699021 271.491344 
L 571.465934 245.550175 
L 572.232847 195.520776 
L 572.99976 260.3737 
L 572.99976 260.3737 
" clip-path="url(#p758a0d18a8)" style="fill: none; stroke: #000000; stroke-width: 2; stroke-linecap: square"/>
   </g>
   <g id="line2d_15">
    <path d="M 60.701802 225.167827 
L 61.468716 210.344302 
L 62.235629 269.638404 
L 63.002542 271.491344 
L 65.303281 271.491344 
L 66.070194 269.638404 
L 66.837107 269.638404 
L 67.60402 243.697234 
L 68.370934 256.667819 
L 69.137847 252.961938 
L 69.90476 252.961938 
L 70.671673 271.491344 
L 71.438586 271.491344 
L 72.205499 269.638404 
L 72.972412 271.491344 
L 78.340804 271.491344 
L 79.107717 195.520776 
L 79.87463 189.961954 
L 80.641543 269.638404 
L 81.408456 269.638404 
L 82.17537 251.108997 
L 82.942283 195.520776 
L 83.709196 258.52076 
L 84.476109 238.138412 
L 85.243022 264.079582 
L 86.009935 269.638404 
L 86.776848 271.491344 
L 88.310674 271.491344 
L 89.077588 251.108997 
L 89.844501 245.550175 
L 90.611414 271.491344 
L 93.679066 271.491344 
L 95.212892 267.785463 
L 95.979806 201.079599 
L 97.513632 269.638404 
L 98.280545 271.491344 
L 99.047458 232.57959 
L 99.814371 202.932539 
L 100.581284 267.785463 
L 101.348197 271.491344 
L 102.882024 271.491344 
L 103.648937 265.932522 
L 104.41585 219.609005 
L 105.182763 256.667819 
L 105.949676 165.873726 
L 106.716589 201.079599 
L 107.483502 271.491344 
L 109.784242 271.491344 
L 110.551155 262.226641 
L 111.318068 239.991353 
L 112.084981 265.932522 
L 112.851894 271.491344 
L 113.618807 264.079582 
L 114.38572 152.903141 
L 115.152633 217.756065 
L 115.919546 217.756065 
L 116.68646 227.020768 
L 117.453373 269.638404 
L 118.220286 271.491344 
L 122.054851 271.491344 
L 122.821764 269.638404 
L 123.588678 271.491344 
L 129.723982 271.491344 
L 130.490896 251.108997 
L 131.257809 160.314904 
L 132.024722 247.403115 
L 132.791635 271.491344 
L 133.558548 269.638404 
L 134.325461 271.491344 
L 135.092374 271.491344 
L 135.859287 223.314887 
L 136.6262 212.197243 
L 137.393114 271.491344 
L 138.160027 269.638404 
L 138.92694 271.491344 
L 142.761505 271.491344 
L 143.528418 269.638404 
L 144.295331 188.109014 
L 145.062245 201.079599 
L 145.829158 271.491344 
L 158.099767 271.491344 
L 158.866681 262.226641 
L 159.633594 215.903124 
L 160.400507 258.52076 
L 161.16742 269.638404 
L 161.934333 267.785463 
L 162.701246 121.403149 
L 163.468159 171.432548 
L 164.235072 184.403132 
L 165.001985 149.19726 
L 165.768899 269.638404 
L 166.535812 271.491344 
L 167.302725 238.138412 
L 168.069638 139.932556 
L 168.836551 252.961938 
L 169.603464 271.491344 
L 170.370377 269.638404 
L 171.13729 271.491344 
L 173.43803 271.491344 
L 174.204943 230.726649 
L 174.971856 208.491361 
L 175.738769 269.638404 
L 176.505682 271.491344 
L 177.272595 264.079582 
L 178.039508 241.844293 
L 178.806421 256.667819 
L 179.573335 117.697268 
L 180.340248 195.520776 
L 181.107161 199.226658 
L 182.640987 269.638404 
L 183.4079 271.491344 
L 184.174813 269.638404 
L 184.941726 271.491344 
L 188.009379 271.491344 
L 188.776292 264.079582 
L 189.543205 164.020785 
L 190.310118 228.873709 
L 191.077031 230.726649 
L 191.843944 239.991353 
L 192.610857 269.638404 
L 194.144684 269.638404 
L 194.911597 271.491344 
L 195.67851 269.638404 
L 196.445423 269.638404 
L 197.212336 251.108997 
L 197.979249 106.579624 
L 198.746162 223.314887 
L 199.513075 208.491361 
L 200.279989 234.432531 
L 201.046902 271.491344 
L 201.813815 271.491344 
L 202.580728 269.638404 
L 203.347641 271.491344 
L 204.114554 252.961938 
L 204.881467 225.167827 
L 205.64838 267.785463 
L 206.415293 271.491344 
L 207.182207 264.079582 
L 207.94912 197.373717 
L 208.716033 245.550175 
L 209.482946 234.432531 
L 210.249859 247.403115 
L 211.016772 199.226658 
L 211.783685 186.256073 
L 212.550598 271.491344 
L 213.317511 269.638404 
L 214.084425 236.285471 
L 214.851338 152.903141 
L 215.618251 254.814878 
L 216.385164 271.491344 
L 217.152077 269.638404 
L 217.91899 241.844293 
L 219.452816 269.638404 
L 220.219729 271.491344 
L 221.753556 271.491344 
L 222.520469 239.991353 
L 223.287382 197.373717 
L 224.054295 260.3737 
L 224.821208 241.844293 
L 225.588121 262.226641 
L 226.355034 195.520776 
L 227.121947 247.403115 
L 227.88886 269.638404 
L 228.655774 269.638404 
L 229.422687 271.491344 
L 230.1896 271.491344 
L 230.956513 215.903124 
L 231.723426 175.138429 
L 232.490339 267.785463 
L 233.257252 271.491344 
L 234.791078 271.491344 
L 235.557992 267.785463 
L 236.324905 225.167827 
L 237.091818 254.814878 
L 237.858731 271.491344 
L 241.693296 271.491344 
L 242.46021 269.638404 
L 243.227123 269.638404 
L 243.994036 271.491344 
L 244.760949 271.491344 
L 245.527862 265.932522 
L 246.294775 167.726666 
L 247.828601 269.638404 
L 248.595514 271.491344 
L 249.362428 245.550175 
L 250.129341 236.285471 
L 250.896254 269.638404 
L 251.663167 269.638404 
L 252.43008 271.491344 
L 256.264646 271.491344 
L 257.031559 247.403115 
L 257.798472 228.873709 
L 258.565385 251.108997 
L 259.332298 269.638404 
L 260.099211 271.491344 
L 261.633037 271.491344 
L 262.39995 251.108997 
L 263.166864 156.609022 
L 263.933777 247.403115 
L 264.70069 227.020768 
L 265.467603 252.961938 
L 266.234516 210.344302 
L 267.001429 227.020768 
L 267.768342 269.638404 
L 270.069082 269.638404 
L 270.835995 264.079582 
L 271.602908 238.138412 
L 272.369821 265.932522 
L 273.136734 271.491344 
L 273.903647 269.638404 
L 274.67056 215.903124 
L 276.204386 271.491344 
L 280.038952 271.491344 
L 280.805865 265.932522 
L 281.572778 239.991353 
L 282.339691 267.785463 
L 283.106604 271.491344 
L 283.873518 271.491344 
L 284.640431 214.050183 
L 285.407344 236.285471 
L 286.174257 271.491344 
L 286.94117 271.491344 
L 288.474996 171.432548 
L 289.241909 206.638421 
L 290.008822 136.226675 
L 290.775736 262.226641 
L 291.542649 271.491344 
L 293.843388 271.491344 
L 294.610301 243.697234 
L 295.377214 251.108997 
L 296.144127 271.491344 
L 296.91104 271.491344 
L 297.677953 217.756065 
L 298.444867 145.491378 
L 299.21178 256.667819 
L 299.978693 202.932539 
L 300.745606 256.667819 
L 301.512519 147.344319 
L 302.279432 238.138412 
L 303.046345 208.491361 
L 303.813258 243.697234 
L 304.580171 195.520776 
L 305.347085 210.344302 
L 306.113998 184.403132 
L 306.880911 128.814912 
L 307.647824 234.432531 
L 308.414737 147.344319 
L 309.18165 262.226641 
L 309.948563 271.491344 
L 312.249303 271.491344 
L 313.016216 208.491361 
L 313.783129 210.344302 
L 314.550042 234.432531 
L 315.316955 234.432531 
L 316.083868 249.256056 
L 316.850781 271.491344 
L 320.685347 271.491344 
L 321.45226 243.697234 
L 322.219173 265.932522 
L 322.986086 143.638437 
L 323.752999 180.697251 
L 324.519912 271.491344 
L 326.053739 271.491344 
L 327.587565 145.491378 
L 328.354478 267.785463 
L 329.121391 228.873709 
L 329.888304 215.903124 
L 330.655217 265.932522 
L 331.42213 271.491344 
L 332.189043 271.491344 
L 332.955957 227.020768 
L 333.72287 228.873709 
L 334.489783 271.491344 
L 335.256696 271.491344 
L 336.023609 251.108997 
L 336.790522 201.079599 
L 337.557435 269.638404 
L 338.324348 271.491344 
L 344.459653 271.491344 
L 345.993479 267.785463 
L 346.760393 271.491344 
L 355.196437 271.491344 
L 355.96335 258.52076 
L 356.730263 210.344302 
L 357.497176 260.3737 
L 358.264089 271.491344 
L 359.031002 269.638404 
L 359.797915 243.697234 
L 360.564829 254.814878 
L 361.331742 271.491344 
L 362.098655 271.491344 
L 362.865568 230.726649 
L 363.632481 206.638421 
L 364.399394 249.256056 
L 365.166307 195.520776 
L 365.93322 264.079582 
L 366.700133 269.638404 
L 367.467047 271.491344 
L 368.23396 269.638404 
L 369.000873 271.491344 
L 369.767786 271.491344 
L 370.534699 269.638404 
L 371.301612 221.461946 
L 372.068525 214.050183 
L 372.835438 271.491344 
L 373.602351 271.491344 
L 374.369265 241.844293 
L 375.136178 158.461963 
L 375.903091 254.814878 
L 376.670004 271.491344 
L 377.436917 269.638404 
L 378.20383 271.491344 
L 378.970743 269.638404 
L 379.737656 271.491344 
L 382.805309 271.491344 
L 383.572222 269.638404 
L 384.339135 271.491344 
L 386.639874 271.491344 
L 387.406787 269.638404 
L 388.1737 225.167827 
L 388.940614 243.697234 
L 389.707527 269.638404 
L 390.47444 269.638404 
L 391.241353 254.814878 
L 392.008266 243.697234 
L 392.775179 262.226641 
L 393.542092 239.991353 
L 394.309005 267.785463 
L 395.075918 269.638404 
L 395.842832 267.785463 
L 396.609745 241.844293 
L 397.376658 262.226641 
L 398.143571 210.344302 
L 398.910484 225.167827 
L 399.677397 271.491344 
L 400.44431 269.638404 
L 401.211223 271.491344 
L 401.978136 271.491344 
L 402.74505 251.108997 
L 403.511963 191.814895 
L 404.278876 260.3737 
L 405.045789 269.638404 
L 405.812702 269.638404 
L 406.579615 236.285471 
L 407.346528 214.050183 
L 408.113441 247.403115 
L 408.880354 271.491344 
L 409.647268 252.961938 
L 410.414181 243.697234 
L 411.181094 269.638404 
L 411.948007 271.491344 
L 412.71492 254.814878 
L 413.481833 191.814895 
L 414.248746 258.52076 
L 415.015659 271.491344 
L 415.782572 265.932522 
L 416.549486 165.873726 
L 417.316399 206.638421 
L 418.083312 271.491344 
L 423.451704 271.491344 
L 424.218617 265.932522 
L 424.98553 165.873726 
L 425.752443 228.873709 
L 426.519356 271.491344 
L 427.286269 271.491344 
L 428.053182 195.520776 
L 428.820095 175.138429 
L 429.587008 258.52076 
L 430.353922 236.285471 
L 431.120835 228.873709 
L 431.887748 78.785514 
L 432.654661 247.403115 
L 433.421574 271.491344 
L 434.188487 239.991353 
L 434.9554 141.785497 
L 435.722313 225.167827 
L 436.489226 271.491344 
L 437.25614 267.785463 
L 438.789966 138.079615 
L 439.556879 164.020785 
L 440.323792 219.609005 
L 441.090705 256.667819 
L 441.857618 125.109031 
L 442.624531 260.3737 
L 443.391444 134.373734 
L 444.925271 258.52076 
L 445.692184 271.491344 
L 446.459097 254.814878 
L 447.22601 252.961938 
L 447.992923 225.167827 
L 448.759836 164.020785 
L 449.526749 262.226641 
L 450.293662 125.109031 
L 451.060576 145.491378 
L 451.827489 113.991387 
L 452.594402 267.785463 
L 453.361315 247.403115 
L 454.128228 271.491344 
L 455.662054 271.491344 
L 456.428967 252.961938 
L 457.19588 188.109014 
L 457.962793 238.138412 
L 458.729707 271.491344 
L 459.49662 271.491344 
L 460.263533 182.550192 
L 461.030446 271.491344 
L 461.797359 197.373717 
L 462.564272 271.491344 
L 469.46649 271.491344 
L 470.233403 212.197243 
L 471.000316 132.520793 
L 471.767229 175.138429 
L 472.534143 267.785463 
L 473.301056 134.373734 
L 474.067969 219.609005 
L 474.834882 271.491344 
L 475.601795 271.491344 
L 476.368708 227.020768 
L 477.135621 189.961954 
L 477.902534 260.3737 
L 478.669447 86.197276 
L 479.436361 186.256073 
L 480.203274 149.19726 
L 480.970187 236.285471 
L 481.7371 271.491344 
L 482.504013 271.491344 
L 483.270926 197.373717 
L 484.037839 134.373734 
L 484.804752 227.020768 
L 485.571665 269.638404 
L 486.338579 219.609005 
L 487.105492 193.667836 
L 487.872405 271.491344 
L 488.639318 75.079632 
L 489.406231 201.079599 
L 490.173144 169.579607 
L 490.940057 182.550192 
L 492.473883 264.079582 
L 494.00771 271.491344 
L 495.541536 271.491344 
L 496.308449 193.667836 
L 497.075362 178.84431 
L 497.842275 271.491344 
L 498.609188 156.609022 
L 499.376101 265.932522 
L 500.143015 171.432548 
L 500.909928 243.697234 
L 501.676841 271.491344 
L 502.443754 195.520776 
L 503.210667 195.520776 
L 503.97758 271.491344 
L 504.744493 271.491344 
L 505.511406 256.667819 
L 506.278319 256.667819 
L 507.045233 160.314904 
L 507.812146 191.814895 
L 508.579059 267.785463 
L 509.345972 271.491344 
L 510.112885 232.57959 
L 510.879798 256.667819 
L 511.646711 271.491344 
L 513.947451 271.491344 
L 514.714364 262.226641 
L 515.481277 245.550175 
L 516.24819 249.256056 
L 517.015103 164.020785 
L 517.782016 254.814878 
L 518.548929 267.785463 
L 519.315842 201.079599 
L 520.082755 215.903124 
L 520.849669 262.226641 
L 521.616582 189.961954 
L 522.383495 186.256073 
L 523.150408 271.491344 
L 523.917321 271.491344 
L 524.684234 249.256056 
L 525.451147 197.373717 
L 526.21806 264.079582 
L 526.984973 271.491344 
L 527.751887 264.079582 
L 528.5188 154.756082 
L 529.285713 223.314887 
L 530.052626 271.491344 
L 530.819539 269.638404 
L 531.586452 269.638404 
L 532.353365 271.491344 
L 533.120278 227.020768 
L 533.887191 171.432548 
L 534.654104 265.932522 
L 535.421018 271.491344 
L 536.187931 249.256056 
L 536.954844 110.285505 
L 537.721757 227.020768 
L 538.48867 232.57959 
L 539.255583 249.256056 
L 540.022496 271.491344 
L 540.789409 271.491344 
L 541.556322 245.550175 
L 542.323236 234.432531 
L 543.090149 221.461946 
L 543.857062 132.520793 
L 544.623975 258.52076 
L 545.390888 260.3737 
L 546.157801 191.814895 
L 546.924714 252.961938 
L 547.691627 269.638404 
L 548.45854 271.491344 
L 549.225454 247.403115 
L 549.992367 228.873709 
L 550.75928 251.108997 
L 551.526193 251.108997 
L 552.293106 228.873709 
L 553.060019 269.638404 
L 553.826932 269.638404 
L 554.593845 264.079582 
L 555.360758 225.167827 
L 556.127672 260.3737 
L 556.894585 199.226658 
L 557.661498 239.991353 
L 558.428411 271.491344 
L 559.195324 271.491344 
L 559.962237 251.108997 
L 560.72915 245.550175 
L 561.496063 269.638404 
L 562.262976 271.491344 
L 565.330629 271.491344 
L 566.097542 267.785463 
L 566.864455 204.78548 
L 568.398281 271.491344 
L 569.165194 271.491344 
L 569.932108 269.638404 
L 570.699021 271.491344 
L 571.465934 245.550175 
L 572.232847 195.520776 
L 572.99976 260.3737 
L 572.99976 260.3737 
" clip-path="url(#p758a0d18a8)" style="fill: none; stroke: #d62728; stroke-width: 1.8; stroke-linecap: square"/>
   </g>
   <g id="patch_3">
    <path d="M 60.701802 284.276635 
L 60.701802 3.00024 
" style="fill: none; stroke: #000000; stroke-linejoin: miter; stroke-linecap: square"/>
   </g>
   <g id="patch_4">
    <path d="M 572.99976 284.276635 
L 572.99976 3.00024 
" style="fill: none; stroke: #000000; stroke-linejoin: miter; stroke-linecap: square"/>
   </g>
   <g id="patch_5">
    <path d="M 60.701802 284.276635 
L 572.99976 284.276635 
" style="fill: none; stroke: #000000; stroke-linejoin: miter; stroke-linecap: square"/>
   </g>
   <g id="patch_6">
    <path d="M 60.701802 3.00024 
L 572.99976 3.00024 
" style="fill: none; stroke: #000000; stroke-linejoin: miter; stroke-linecap: square"/>
   </g>
   <g id="legend_1">
    <g id="patch_7">
     <path d="M 319.69476 68.74524 
L 560.39976 68.74524 
Q 563.99976 68.74524 563.99976 65.14524 
L 563.99976 15.60024 
Q 563.99976 12.00024 560.39976 12.00024 
L 319.69476 12.00024 
Q 316.09476 12.00024 316.09476 15.60024 
L 316.09476 65.14524 
Q 316.09476 68.74524 319.69476 68.74524 
z
" style="fill: #ffffff; opacity: 0.8; stroke: #cccccc; stroke-linejoin: miter"/>
    </g>
    <g id="line2d_16">
     <path d="M 323.29476 25.784302 
L 341.29476 25.784302 
L 359.29476 25.784302 
" style="fill: none; stroke: #000000; stroke-width: 2; stroke-linecap: square"/>
    </g>
    <g id="text_16">
     <text style="font: 18px 'Arial'; text-anchor: start" x="373.69476" y="32.084302" transform="rotate(-0, 373.69476, 32.084302)">raw intensity</text>
    </g>
    <g id="line2d_17">
     <path d="M 323.29476 51.456802 
L 341.29476 51.456802 
L 359.29476 51.456802 
" style="fill: none; stroke: #d62728; stroke-width: 1.8; stroke-linecap: square"/>
    </g>
    <g id="text_17">
     <text style="font: 18px 'Arial'; text-anchor: start" x="373.69476" y="57.756802" transform="rotate(-0, 373.69476, 57.756802)">background subtracted</text>
    </g>
   </g>
  </g>
 </g>
 <defs>
  <clipPath id="p758a0d18a8">
   <rect x="60.701802" y="3.00024" width="512.297958" height="281.276395"/>
  </clipPath>
 </defs>
</svg>
