<?xml version="1.0" encoding="utf-8" standalone="no"?>
<!DOCTYPE svg PUBLIC "-//W3C//DTD SVG 1.1//EN"
  "http://www.w3.org/Graphics/SVG/1.1/DTD/svg11.dtd">
<svg xmlns:xlink="http://www.w3.org/1999/xlink" width="576pt" height="331.2pt" viewBox="0 0 576 331.2" xmlns="http://www.w3.org/2000/svg" version="1.1">
 <metadata>
  <rdf:RDF xmlns:dc="http://purl.org/dc/elements/1.1/" xmlns:cc="http://creativecommons.org/ns#" xmlns:rdf="http://www.w3.org/1999/02/22-rdf-syntax-ns#">
   <cc:Work>
    <dc:type rdf:resource="http://purl.org/dc/dcmitype/StillImage"/>
    <dc:date>2026-07-11T15:46:30.648492</dc:date>
    <dc:format>image/svg+xml</dc:format>
    <dc:creator>
     <cc:Agent>
      <dc:title>Matplotlib v3.5.1, https://matplotlib.org/</dc:title>
     </cc:Agent>
    </dc:creator>
   </cc:Work>
  </rdf:RDF>
 </metadata>
 <defs>
  <style type="text/css">*{stroke-linejoin: round; stroke-linecap: butt}</style>
 </defs>
 <g id="figure_1">
  <g id="patch_1">
   <path d="M 0 331.2 
L 576 331.2 
L 576 0 
L 0 0 
z
" style="fill: #ffffff"/>
  </g>
  <g id="axes_1">
   <g id="patch_2">
    <path d="M 60.701802 284.276635 
L 572.99976 284.276635 
L 572.99976 3.00024 
L 60.701802 3.00024 
z
" style="fill: #ffffff"/>
   </g>
   <g id="matplotlib.axis_1">
    <g id="xtick_1">
     <g id="line2d_1">
      <defs>
       <path id="m07254d3fe0" d="M 0 0 
L 0 3.5 
" style="stroke: #000000; stroke-width: 0.8"/>
      </defs>
      <g>
       <use xlink:href="#m07254d3fe0" x="60.701802" y="284.276635" style="stroke: #000000; stroke-width: 0.8"/>
      </g>
     </g>
     <g id="text_1">
      <text style="font: 18px 'Arial'; text-anchor: middle" x="60.701802" y="304.160697" transform="rotate(-0, 60.701802, 304.160697)">0</text>
     </g>
    </g>
    <g id="xtick_2">
     <g id="line2d_2">
      <g>
       <use xlink:href="#m07254d3fe0" x="137.393114" y="284.276635" style="stroke: #000000; stroke-width: 0.8"/>
      </g>
     </g>
     <g id="text_2">
      <text style="font: 18px 'Arial'; text-anchor: middle" x="137.393114" y="304.160697" transform="rotate(-0, 137.393114, 304.160697)">100</text>
     </g>
    </g>
    <g id="xtick_3">
     <g id="line2d_3">
      <g>
       <use xlink:href="#m07254d3fe0" x="214.084425" y="284.276635" style="stroke: #000000; stroke-width: 0.8"/>
      </g>
     </g>
     <g id="text_3">
      <text style="font: 18px 'Arial'; text-anchor: middle" x="214.084425" y="304.160697" transform="rotate(-0, 214.084425, 304.160697)">200</text>
     </g>
    </g>
    <g id="xtick_4">
     <g id="line2d_4">
      <g>
       <use xlink:href="#m07254d3fe0" x="290.775736" y="284.276635" style="stroke: #000000; stroke-width: 0.8"/>
      </g>
     </g>
     <g id="text_4">
      <text style="font: 18px 'Arial'; text-anchor: middle" x="290.775736" y="304.160697" transform="rotate(-0, 290.775736, 304.160697)">300</text>
     </g>
    </g>
    <g id="xtick_5">
     <g id="line2d_5">
      <g>
       <use xlink:href="#m07254d3fe0" x="367.467047" y="284.276635" style="stroke: #000000; stroke-width: 0.8"/>
      </g>
     </g>
     <g id="text_5">
      <text style="font: 18px 'Arial'; text-anchor: middle" x="367.467047" y="304.160697" transform="rotate(-0, 367.467047, 304.160697)">400</text>
     </g>
    </g>
    <g id="xtick_6">
     <g id="line2d_6">
      <g>
       <use xlink:href="#m07254d3fe0" x="444.158358" y="284.276635" style="stroke: #000000; stroke-width: 0.8"/>
      </g>
     </g>
     <g id="text_6">
      <text style="font: 18px 'Arial'; text-anchor: middle" x="444.158358" y="304.160697" transform="rotate(-0, 444.158358, 304.160697)">500</text>
     </g>
    </g>
    <g id="xtick_7">
     <g id="line2d_7">
      <g>
       <use xlink:href="#m07254d3fe0" x="520.849669" y="284.276635" style="stroke: #000000; stroke-width: 0.8"/>
      </g>
     </g>
     <g id="text_7">
      <text style="font: 18px 'Arial'; text-anchor: middle" x="520.849669" y="304.160697" transform="rotate(-0, 520.849669, 304.160697)">600</text>
     </g>
    </g>
    <g id="text_8">
     <text style="font: 18px 'Arial'; text-anchor: middle" x="316.850781" y="324.62226" transform="rotate(-0, 316.850781, 324.62226)">x pixel</text>
    </g>
   </g>
   <g id="matplotlib.axis_2">
    <g id="ytick_1">
     <g id="line2d_8">
      <defs>
       <path id="mf099150c0d" d="M 0 0 
L -3.5 0 
" style="stroke: #000000; stroke-width: 0.8"/>
      </defs>
      <g>
       <use xlink:href="#mf099150c0d" x="60.701802" y="271.491344" style="stroke: #000000; stroke-width: 0.8"/>
      </g>
     </g>
     <g id="text_9">
      <text style="font: 18px 'Arial'; text-anchor: end" x="53.701802" y="277.933376" transform="rotate(-0, 53.701802, 277.933376)">0</text>
     </g>
    </g>
    <g id="ytick_2">
     <g id="line2d_9">
      <g>
       <use xlink:href="#mf099150c0d" x="60.701802" y="223.785036" style="stroke: #000000; stroke-width: 0.8"/>
      </g>
     </g>
     <g id="text_10">
      <text style="font: 18px 'Arial'; text-anchor: end" x="53.701802" y="230.227067" transform="rotate(-0, 53.701802, 230.227067)">25</text>
     </g>
    </g>
    <g id="ytick_3">
     <g id="line2d_10">
      <g>
       <use xlink:href="#mf099150c0d" x="60.701802" y="176.078727" style="stroke: #000000; stroke-width: 0.8"/>
      </g>
     </g>
     <g id="text_11">
      <text style="font: 18px 'Arial'; text-anchor: end" x="53.701802" y="182.520759" transform="rotate(-0, 53.701802, 182.520759)">50</text>
     </g>
    </g>
    <g id="ytick_4">
     <g id="line2d_11">
      <g>
       <use xlink:href="#mf099150c0d" x="60.701802" y="128.372419" style="stroke: #000000; stroke-width: 0.8"/>
      </g>
     </g>
     <g id="text_12">
      <text style="font: 18px 'Arial'; text-anchor: end" x="53.701802" y="134.81445" transform="rotate(-0, 53.701802, 134.81445)">75</text>
     </g>
    </g>
    <g id="ytick_5">
     <g id="line2d_12">
      <g>
       <use xlink:href="#mf099150c0d" x="60.701802" y="80.66611" style="stroke: #000000; stroke-width: 0.8"/>
      </g>
     </g>
     <g id="text_13">
      <text style="font: 18px 'Arial'; text-anchor: end" x="53.701802" y="87.108142" transform="rotate(-0, 53.701802, 87.108142)">100</text>
     </g>
    </g>
    <g id="ytick_6">
     <g id="line2d_13">
      <g>
       <use xlink:href="#mf099150c0d" x="60.701802" y="32.959802" style="stroke: #000000; stroke-width: 0.8"/>
      </g>
     </g>
     <g id="text_14">
      <text style="font: 18px 'Arial'; text-anchor: end" x="53.701802" y="39.401833" transform="rotate(-0, 53.701802, 39.401833)">125</text>
     </g>
    </g>
    <g id="text_15">
     <text style="font: 18px 'Arial'; text-anchor: middle" x="15.884303" y="143.638438" transform="rotate(-90, 15.884303, 143.638438)">Intensity [a.u.]</text>
    </g>
   </g>
   <g id="line2d_14">
    <path d="M 60.701802 271.491344 
L 61.468716 271.491344 
L 63.002542 256.225326 
L 63.769455 269.583092 
L 64.536368 269.583092 
L 65.303281 267.67484 
L 66.070194 242.867559 
L 66.837107 263.858335 
L 67.60402 271.491344 
L 76.806978 271.491344 
L 77.573891 269.583092 
L 78.340804 258.133578 
L 79.107717 260.04183 
L 79.87463 271.491344 
L 83.709196 271.491344 
L 84.476109 269.583092 
L 85.243022 269.583092 
L 86.009935 248.592316 
L 86.776848 261.950083 
L 87.543761 269.583092 
L 88.310674 271.491344 
L 95.212892 271.491344 
L 95.979806 269.583092 
L 96.746719 250.500569 
L 97.513632 258.133578 
L 98.280545 263.858335 
L 99.047458 258.133578 
L 99.814371 271.491344 
L 116.68646 271.491344 
L 117.453373 265.766587 
L 118.220286 265.766587 
L 118.987199 260.04183 
L 119.754112 248.592316 
L 120.521025 269.583092 
L 121.287938 271.491344 
L 131.257809 271.491344 
L 132.024722 269.583092 
L 132.791635 271.491344 
L 133.558548 269.583092 
L 134.325461 271.491344 
L 138.160027 271.491344 
L 138.92694 263.858335 
L 139.693853 244.775812 
L 140.460766 265.766587 
L 141.227679 271.491344 
L 141.994592 269.583092 
L 142.761505 248.592316 
L 143.528418 260.04183 
L 144.295331 269.583092 
L 145.062245 258.133578 
L 145.829158 258.133578 
L 146.596071 271.491344 
L 148.129897 271.491344 
L 148.89681 267.67484 
L 149.663723 256.225326 
L 150.430636 267.67484 
L 151.197549 271.491344 
L 152.731376 271.491344 
L 153.498289 269.583092 
L 154.265202 271.491344 
L 155.032115 271.491344 
L 155.799028 256.225326 
L 156.565941 246.684064 
L 157.332854 269.583092 
L 158.099767 271.491344 
L 185.708639 271.491344 
L 186.475553 265.766587 
L 187.242466 244.775812 
L 188.009379 265.766587 
L 188.776292 271.491344 
L 191.843944 271.491344 
L 192.610857 261.950083 
L 193.377771 260.04183 
L 194.144684 265.766587 
L 194.911597 256.225326 
L 195.67851 271.491344 
L 200.279989 271.491344 
L 201.046902 252.408821 
L 201.813815 254.317073 
L 202.580728 269.583092 
L 203.347641 271.491344 
L 214.851338 271.491344 
L 215.618251 269.583092 
L 216.385164 263.858335 
L 217.152077 269.583092 
L 217.91899 271.491344 
L 223.287382 271.491344 
L 224.054295 265.766587 
L 224.821208 240.959307 
L 225.588121 265.766587 
L 226.355034 271.491344 
L 227.121947 269.583092 
L 227.88886 271.491344 
L 250.896254 271.491344 
L 252.43008 267.67484 
L 253.196993 254.317073 
L 253.963906 267.67484 
L 254.730819 271.491344 
L 261.633037 271.491344 
L 262.39995 248.592316 
L 263.166864 139.821933 
L 263.933777 244.775812 
L 264.70069 271.491344 
L 268.535255 271.491344 
L 270.069082 260.04183 
L 270.835995 269.583092 
L 271.602908 271.491344 
L 278.505126 271.491344 
L 279.272039 265.766587 
L 280.038952 256.225326 
L 280.805865 269.583092 
L 281.572778 271.491344 
L 283.106604 271.491344 
L 283.873518 269.583092 
L 284.640431 271.491344 
L 285.407344 271.491344 
L 286.174257 198.977755 
L 286.94117 198.977755 
L 287.708083 263.858335 
L 288.474996 258.133578 
L 289.241909 265.766587 
L 290.008822 256.225326 
L 290.775736 258.133578 
L 291.542649 179.895232 
L 292.309562 250.500569 
L 293.076475 269.583092 
L 293.843388 271.491344 
L 294.610301 271.491344 
L 295.377214 269.583092 
L 296.91104 258.133578 
L 297.677953 256.225326 
L 298.444867 271.491344 
L 300.745606 271.491344 
L 301.512519 269.583092 
L 302.279432 256.225326 
L 303.813258 271.491344 
L 305.347085 271.491344 
L 306.113998 263.858335 
L 306.880911 218.060279 
L 307.647824 185.619989 
L 308.414737 252.408821 
L 309.18165 269.583092 
L 309.948563 271.491344 
L 318.384607 271.491344 
L 319.151521 269.583092 
L 319.918434 248.592316 
L 320.685347 265.766587 
L 321.45226 242.867559 
L 322.219173 261.950083 
L 322.986086 122.647662 
L 323.752999 15.785531 
L 325.286825 239.051055 
L 326.053739 229.509793 
L 326.820652 237.142802 
L 327.587565 269.583092 
L 328.354478 269.583092 
L 329.121391 271.491344 
L 329.888304 261.950083 
L 330.655217 265.766587 
L 331.42213 170.35397 
L 332.189043 197.069503 
L 332.955957 185.619989 
L 333.72287 103.565138 
L 334.489783 84.482615 
L 335.256696 158.904456 
L 336.023609 179.895232 
L 336.790522 38.684559 
L 337.557435 218.060279 
L 338.324348 239.051055 
L 339.091261 229.509793 
L 339.858175 145.54669 
L 340.625088 128.372419 
L 341.392001 94.023877 
L 342.158914 191.344746 
L 342.925827 271.491344 
L 346.760393 271.491344 
L 347.527306 269.583092 
L 348.294219 254.317073 
L 349.061132 267.67484 
L 349.828045 271.491344 
L 350.594958 269.583092 
L 351.361871 261.950083 
L 352.128784 263.858335 
L 352.895697 256.225326 
L 353.662611 250.500569 
L 354.429524 271.491344 
L 357.497176 271.491344 
L 358.264089 269.583092 
L 359.031002 254.317073 
L 359.797915 265.766587 
L 360.564829 271.491344 
L 362.098655 271.491344 
L 362.865568 216.152026 
L 363.632481 179.895232 
L 364.399394 267.67484 
L 365.166307 271.491344 
L 369.767786 271.491344 
L 370.534699 269.583092 
L 371.301612 256.225326 
L 372.068525 252.408821 
L 372.835438 269.583092 
L 373.602351 271.491344 
L 375.136178 271.491344 
L 375.903091 254.317073 
L 376.670004 139.821933 
L 377.436917 237.142802 
L 378.20383 271.491344 
L 378.970743 269.583092 
L 379.737656 252.408821 
L 380.504569 256.225326 
L 381.271482 271.491344 
L 382.038396 269.583092 
L 382.805309 263.858335 
L 383.572222 256.225326 
L 384.339135 263.858335 
L 385.106048 242.867559 
L 385.872961 265.766587 
L 386.639874 271.491344 
L 387.406787 254.317073 
L 388.1737 265.766587 
L 388.940614 271.491344 
L 390.47444 271.491344 
L 391.241353 261.950083 
L 392.008266 256.225326 
L 392.775179 271.491344 
L 393.542092 271.491344 
L 394.309005 269.583092 
L 395.075918 252.408821 
L 395.842832 250.500569 
L 396.609745 246.684064 
L 397.376658 263.858335 
L 398.143571 271.491344 
L 399.677397 271.491344 
L 400.44431 260.04183 
L 401.211223 237.142802 
L 401.978136 248.592316 
L 402.74505 265.766587 
L 403.511963 254.317073 
L 404.278876 269.583092 
L 405.045789 271.491344 
L 407.346528 271.491344 
L 408.113441 263.858335 
L 409.647268 271.491344 
L 411.948007 271.491344 
L 412.71492 254.317073 
L 413.481833 179.895232 
L 414.248746 256.225326 
L 415.015659 271.491344 
L 415.782572 269.583092 
L 416.549486 256.225326 
L 417.316399 261.950083 
L 418.083312 269.583092 
L 418.850225 271.491344 
L 419.617138 271.491344 
L 420.384051 261.950083 
L 421.150964 239.051055 
L 422.68479 269.583092 
L 423.451704 271.491344 
L 424.218617 271.491344 
L 424.98553 254.317073 
L 425.752443 265.766587 
L 426.519356 250.500569 
L 427.286269 258.133578 
L 428.053182 269.583092 
L 428.820095 271.491344 
L 430.353922 271.491344 
L 431.120835 265.766587 
L 431.887748 254.317073 
L 432.654661 267.67484 
L 433.421574 248.592316 
L 434.188487 263.858335 
L 434.9554 260.04183 
L 435.722313 265.766587 
L 436.489226 269.583092 
L 437.25614 271.491344 
L 438.023053 263.858335 
L 438.789966 258.133578 
L 439.556879 269.583092 
L 440.323792 263.858335 
L 441.090705 242.867559 
L 441.857618 252.408821 
L 442.624531 267.67484 
L 443.391444 271.491344 
L 444.158358 267.67484 
L 444.925271 113.1064 
L 445.692184 160.812709 
L 446.459097 261.950083 
L 447.992923 269.583092 
L 448.759836 271.491344 
L 449.526749 265.766587 
L 450.293662 244.775812 
L 451.060576 267.67484 
L 451.827489 254.317073 
L 452.594402 267.67484 
L 453.361315 271.491344 
L 456.428967 271.491344 
L 457.19588 263.858335 
L 458.729707 109.289895 
L 459.49662 258.133578 
L 460.263533 246.684064 
L 461.030446 237.142802 
L 461.797359 116.922905 
L 462.564272 227.60154 
L 463.331185 260.04183 
L 464.098098 261.950083 
L 464.865011 271.491344 
L 466.398838 271.491344 
L 467.165751 269.583092 
L 467.932664 263.858335 
L 468.699577 239.051055 
L 469.46649 240.959307 
L 470.233403 265.766587 
L 471.000316 240.959307 
L 471.767229 242.867559 
L 472.534143 263.858335 
L 473.301056 141.730185 
L 474.067969 181.803484 
L 474.834882 158.904456 
L 475.601795 126.464166 
L 476.368708 256.225326 
L 477.135621 263.858335 
L 478.669447 181.803484 
L 479.436361 261.950083 
L 480.203274 258.133578 
L 480.970187 124.555914 
L 481.7371 206.610765 
L 482.504013 256.225326 
L 483.270926 250.500569 
L 484.037839 141.730185 
L 484.804752 69.216596 
L 485.571665 164.629213 
L 486.338579 240.959307 
L 487.105492 233.326298 
L 487.872405 181.803484 
L 488.639318 244.775812 
L 489.406231 242.867559 
L 490.173144 239.051055 
L 490.940057 263.858335 
L 491.70697 240.959307 
L 492.473883 248.592316 
L 493.240797 183.711737 
L 494.00771 103.565138 
L 494.774623 166.537466 
L 495.541536 254.317073 
L 496.308449 263.858335 
L 497.075362 244.775812 
L 497.842275 256.225326 
L 498.609188 183.711737 
L 499.376101 237.142802 
L 500.143015 240.959307 
L 500.909928 261.950083 
L 501.676841 261.950083 
L 502.443754 265.766587 
L 503.210667 218.060279 
L 503.97758 191.344746 
L 504.744493 248.592316 
L 505.511406 263.858335 
L 506.278319 269.583092 
L 507.045233 271.491344 
L 509.345972 271.491344 
L 510.112885 246.684064 
L 510.879798 261.950083 
L 511.646711 271.491344 
L 512.413624 271.491344 
L 513.947451 256.225326 
L 514.714364 271.491344 
L 515.481277 271.491344 
L 516.24819 269.583092 
L 517.015103 271.491344 
L 522.383495 271.491344 
L 523.150408 258.133578 
L 523.917321 250.500569 
L 524.684234 265.766587 
L 525.451147 254.317073 
L 526.21806 269.583092 
L 526.984973 271.491344 
L 530.819539 271.491344 
L 531.586452 177.98698 
L 532.353365 156.996204 
L 533.120278 267.67484 
L 533.887191 271.491344 
L 537.721757 271.491344 
L 538.48867 269.583092 
L 539.255583 271.491344 
L 540.022496 265.766587 
L 540.789409 263.858335 
L 541.556322 263.858335 
L 542.323236 250.500569 
L 543.090149 256.225326 
L 543.857062 271.491344 
L 547.691627 271.491344 
L 548.45854 256.225326 
L 549.225454 263.858335 
L 549.992367 254.317073 
L 550.75928 252.408821 
L 551.526193 271.491344 
L 553.826932 271.491344 
L 554.593845 267.67484 
L 555.360758 252.408821 
L 556.127672 267.67484 
L 556.894585 271.491344 
L 557.661498 271.491344 
L 558.428411 258.133578 
L 559.195324 260.04183 
L 559.962237 271.491344 
L 563.796803 271.491344 
L 564.563716 269.583092 
L 565.330629 244.775812 
L 566.097542 263.858335 
L 566.864455 248.592316 
L 568.398281 271.491344 
L 572.99976 271.491344 
L 572.99976 271.491344 
" clip-path="url(#p7bd7b77060)" style="fill: none; stroke: #000000; stroke-width: 2; stroke-linecap: square"/>
   </g>
   <g id="line2d_15">
    <path d="M 60.701802 271.491344 
L 61.468716 271.491344 
L 63.002542 256.225326 
L 63.769455 269.583092 
L 64.536368 269.583092 
L 65.303281 267.67484 
L 66.070194 242.867559 
L 66.837107 263.858335 
L 67.60402 271.491344 
L 76.806978 271.491344 
L 77.573891 269.583092 
L 78.340804 258.133578 
L 79.107717 260.04183 
L 79.87463 271.491344 
L 83.709196 271.491344 
L 84.476109 269.583092 
L 85.243022 269.583092 
L 86.009935 248.592316 
L 86.776848 261.950083 
L 87.543761 269.583092 
L 88.310674 271.491344 
L 95.212892 271.491344 
L 95.979806 269.583092 
L 96.746719 250.500569 
L 97.513632 258.133578 
L 98.280545 263.858335 
L 99.047458 258.133578 
L 99.814371 271.491344 
L 116.68646 271.491344 
L 117.453373 265.766587 
L 118.220286 265.766587 
L 118.987199 260.04183 
L 119.754112 248.592316 
L 120.521025 269.583092 
L 121.287938 271.491344 
L 131.257809 271.491344 
L 132.024722 269.583092 
L 132.791635 271.491344 
L 133.558548 269.583092 
L 134.325461 271.491344 
L 138.160027 271.491344 
L 138.92694 263.858335 
L 139.693853 244.775812 
L 140.460766 265.766587 
L 141.227679 271.491344 
L 141.994592 269.583092 
L 142.761505 248.592316 
L 143.528418 260.04183 
L 144.295331 269.583092 
L 145.062245 258.133578 
L 145.829158 258.133578 
L 146.596071 271.491344 
L 148.129897 271.491344 
L 148.89681 267.67484 
L 149.663723 256.225326 
L 150.430636 267.67484 
L 151.197549 271.491344 
L 152.731376 271.491344 
L 153.498289 269.583092 
L 154.265202 271.491344 
L 155.032115 271.491344 
L 155.799028 256.225326 
L 156.565941 246.684064 
L 157.332854 269.583092 
L 158.099767 271.491344 
L 185.708639 271.491344 
L 186.475553 265.766587 
L 187.242466 244.775812 
L 188.009379 265.766587 
L 188.776292 271.491344 
L 191.843944 271.491344 
L 192.610857 261.950083 
L 193.377771 260.04183 
L 194.144684 265.766587 
L 194.911597 256.225326 
L 195.67851 271.491344 
L 200.279989 271.491344 
L 201.046902 252.408821 
L 201.813815 254.317073 
L 202.580728 269.583092 
L 203.347641 271.491344 
L 214.851338 271.491344 
L 215.618251 269.583092 
L 216.385164 263.858335 
L 217.152077 269.583092 
L 217.91899 271.491344 
L 223.287382 271.491344 
L 224.054295 265.766587 
L 224.821208 240.959307 
L 225.588121 265.766587 
L 226.355034 271.491344 
L 227.121947 269.583092 
L 227.88886 271.491344 
L 250.896254 271.491344 
L 252.43008 267.67484 
L 253.196993 254.317073 
L 253.963906 267.67484 
L 254.730819 271.491344 
L 261.633037 271.491344 
L 262.39995 248.592316 
L 263.166864 139.821933 
L 263.933777 244.775812 
L 264.70069 271.491344 
L 268.535255 271.491344 
L 270.069082 260.04183 
L 270.835995 269.583092 
L 271.602908 271.491344 
L 278.505126 271.491344 
L 279.272039 265.766587 
L 280.038952 256.225326 
L 280.805865 271.491344 
L 285.407344 271.491344 
L 286.174257 202.79426 
L 286.94117 204.702512 
L 287.708083 269.583092 
L 288.474996 263.858335 
L 289.241909 271.491344 
L 290.008822 263.858335 
L 290.775736 267.67484 
L 291.542649 189.436494 
L 292.309562 258.133578 
L 293.076475 271.491344 
L 296.144127 271.491344 
L 296.91104 265.766587 
L 297.677953 263.858335 
L 298.444867 271.491344 
L 301.512519 271.491344 
L 302.279432 261.950083 
L 303.046345 267.67484 
L 303.813258 271.491344 
L 305.347085 271.491344 
L 306.113998 265.766587 
L 306.880911 219.968531 
L 307.647824 187.528241 
L 308.414737 254.317073 
L 309.18165 271.491344 
L 319.151521 271.491344 
L 319.918434 250.500569 
L 320.685347 269.583092 
L 321.45226 248.592316 
L 322.219173 269.583092 
L 322.986086 132.188923 
L 323.752999 27.235045 
L 325.286825 256.225326 
L 326.053739 250.500569 
L 326.820652 261.950083 
L 327.587565 271.491344 
L 330.655217 271.491344 
L 331.42213 225.693288 
L 332.189043 252.408821 
L 332.955957 240.959307 
L 333.72287 158.904456 
L 334.489783 139.821933 
L 335.256696 214.243774 
L 336.023609 229.509793 
L 336.790522 84.482615 
L 337.557435 260.04183 
L 338.324348 271.491344 
L 339.091261 265.766587 
L 339.858175 179.895232 
L 340.625088 162.720961 
L 341.392001 126.464166 
L 342.158914 221.876783 
L 342.925827 271.491344 
L 347.527306 271.491344 
L 348.294219 260.04183 
L 349.061132 271.491344 
L 350.594958 271.491344 
L 351.361871 263.858335 
L 352.128784 265.766587 
L 352.895697 258.133578 
L 353.662611 252.408821 
L 354.429524 271.491344 
L 357.497176 271.491344 
L 358.264089 269.583092 
L 359.031002 254.317073 
L 359.797915 265.766587 
L 360.564829 271.491344 
L 362.098655 271.491344 
L 362.865568 216.152026 
L 363.632481 179.895232 
L 364.399394 267.67484 
L 365.166307 271.491344 
L 369.767786 271.491344 
L 370.534699 269.583092 
L 371.301612 256.225326 
L 372.068525 252.408821 
L 372.835438 269.583092 
L 373.602351 271.491344 
L 375.136178 271.491344 
L 375.903091 254.317073 
L 376.670004 139.821933 
L 377.436917 237.142802 
L 378.20383 271.491344 
L 378.970743 269.583092 
L 379.737656 252.408821 
L 380.504569 256.225326 
L 381.271482 271.491344 
L 382.038396 269.583092 
L 382.805309 263.858335 
L 383.572222 256.225326 
L 384.339135 263.858335 
L 385.106048 242.867559 
L 385.872961 265.766587 
L 386.639874 271.491344 
L 387.406787 254.317073 
L 388.1737 265.766587 
L 388.940614 271.491344 
L 390.47444 271.491344 
L 391.241353 261.950083 
L 392.008266 256.225326 
L 392.775179 271.491344 
L 393.542092 271.491344 
L 394.309005 269.583092 
L 395.075918 252.408821 
L 395.842832 250.500569 
L 396.609745 246.684064 
L 397.376658 263.858335 
L 398.143571 271.491344 
L 399.677397 271.491344 
L 400.44431 260.04183 
L 401.211223 237.142802 
L 401.978136 248.592316 
L 402.74505 265.766587 
L 403.511963 254.317073 
L 404.278876 269.583092 
L 405.045789 271.491344 
L 407.346528 271.491344 
L 408.113441 263.858335 
L 409.647268 271.491344 
L 411.948007 271.491344 
L 412.71492 254.317073 
L 413.481833 179.895232 
L 414.248746 256.225326 
L 415.015659 271.491344 
L 415.782572 269.583092 
L 416.549486 256.225326 
L 417.316399 261.950083 
L 418.083312 269.583092 
L 418.850225 271.491344 
L 419.617138 271.491344 
L 420.384051 261.950083 
L 421.150964 239.051055 
L 422.68479 271.491344 
L 424.218617 271.491344 
L 424.98553 256.225326 
L 425.752443 267.67484 
L 426.519356 252.408821 
L 427.286269 260.04183 
L 428.053182 271.491344 
L 430.353922 271.491344 
L 431.120835 269.583092 
L 431.887748 260.04183 
L 432.654661 271.491344 
L 433.421574 254.317073 
L 434.188487 269.583092 
L 434.9554 265.766587 
L 435.722313 271.491344 
L 438.023053 271.491344 
L 438.789966 267.67484 
L 439.556879 271.491344 
L 440.323792 271.491344 
L 441.090705 254.317073 
L 441.857618 263.858335 
L 442.624531 271.491344 
L 444.158358 271.491344 
L 444.925271 126.464166 
L 445.692184 174.170475 
L 446.459097 271.491344 
L 449.526749 271.491344 
L 450.293662 260.04183 
L 451.060576 271.491344 
L 457.19588 271.491344 
L 458.729707 130.280671 
L 459.49662 271.491344 
L 460.263533 267.67484 
L 461.030446 260.04183 
L 461.797359 139.821933 
L 462.564272 250.500569 
L 463.331185 271.491344 
L 467.932664 271.491344 
L 468.699577 269.583092 
L 469.46649 271.491344 
L 472.534143 271.491344 
L 473.301056 181.803484 
L 474.067969 223.785036 
L 474.834882 200.886008 
L 475.601795 168.445718 
L 476.368708 271.491344 
L 477.135621 271.491344 
L 477.902534 267.67484 
L 478.669447 225.693288 
L 479.436361 271.491344 
L 480.203274 271.491344 
L 480.970187 170.35397 
L 481.7371 254.317073 
L 482.504013 271.491344 
L 483.270926 271.491344 
L 484.804752 118.831157 
L 485.571665 214.243774 
L 486.338579 271.491344 
L 487.105492 271.491344 
L 487.872405 225.693288 
L 488.639318 271.491344 
L 492.473883 271.491344 
L 493.240797 219.968531 
L 494.00771 139.821933 
L 494.774623 200.886008 
L 495.541536 271.491344 
L 497.842275 271.491344 
L 498.609188 210.427269 
L 499.376101 263.858335 
L 500.143015 265.766587 
L 500.909928 271.491344 
L 502.443754 271.491344 
L 503.97758 208.519017 
L 504.744493 263.858335 
L 505.511406 271.491344 
L 509.345972 271.491344 
L 510.112885 258.133578 
L 510.879798 271.491344 
L 512.413624 271.491344 
L 513.180537 269.583092 
L 513.947451 261.950083 
L 514.714364 271.491344 
L 522.383495 271.491344 
L 523.150408 258.133578 
L 523.917321 250.500569 
L 524.684234 265.766587 
L 525.451147 254.317073 
L 526.21806 269.583092 
L 526.984973 271.491344 
L 530.819539 271.491344 
L 531.586452 177.98698 
L 532.353365 156.996204 
L 533.120278 267.67484 
L 533.887191 271.491344 
L 537.721757 271.491344 
L 538.48867 269.583092 
L 539.255583 271.491344 
L 540.022496 265.766587 
L 540.789409 263.858335 
L 541.556322 263.858335 
L 542.323236 250.500569 
L 543.090149 256.225326 
L 543.857062 271.491344 
L 547.691627 271.491344 
L 548.45854 256.225326 
L 549.225454 263.858335 
L 549.992367 254.317073 
L 550.75928 252.408821 
L 551.526193 271.491344 
L 553.826932 271.491344 
L 554.593845 267.67484 
L 555.360758 252.408821 
L 556.127672 267.67484 
L 556.894585 271.491344 
L 557.661498 271.491344 
L 558.428411 258.133578 
L 559.195324 260.04183 
L 559.962237 271.491344 
L 563.796803 271.491344 
L 564.563716 269.583092 
L 565.330629 244.775812 
L 566.097542 263.858335 
L 566.864455 248.592316 
L 568.398281 271.491344 
L 572.99976 271.491344 
L 572.99976 271.491344 
" clip-path="url(#p7bd7b77060)" style="fill: none; stroke: #d62728; stroke-width: 1.8; stroke-linecap: square"/>
   </g>
   <g id="patch_3">
    <path d="M 60.701802 284.276635 
L 60.701802 3.00024 
" style="fill: none; stroke: #000000; stroke-linejoin: miter; stroke-linecap: square"/>
   </g>
   <g id="patch_4">
    <path d="M 572.99976 284.276635 
L 572.99976 3.00024 
" style="fill: none; stroke: #000000; stroke-linejoin: miter; stroke-linecap: square"/>
   </g>
   <g id="patch_5">
    <path d="M 60.701802 284.276635 
L 572.99976 284.276635 
" style="fill: none; stroke: #000000; stroke-linejoin: miter; stroke-linecap: square"/>
   </g>
   <g id="patch_6">
    <path d="M 60.701802 3.00024 
L 572.99976 3.00024 
" style="fill: none; stroke: #000000; stroke-linejoin: miter; stroke-linecap: square"/>
   </g>
   <g id="legend_1">
    <g id="patch_7">
     <path d="M 319.69476 68.74524 
L 560.39976 68.74524 
Q 563.99976 68.74524 563.99976 65.14524 
L 563.99976 15.60024 
Q 563.99976 12.00024 560.39976 12.00024 
L 319.69476 12.00024 
Q 316.09476 12.00024 316.09476 15.60024 
L 316.09476 65.14524 
Q 316.09476 68.74524 319.69476 68.74524 
z
" style="fill: #ffffff; opacity: 0.8; stroke: #cccccc; stroke-linejoin: miter"/>
    </g>
    <g id="line2d_16">
     <path d="M 323.29476 25.784303 
L 341.29476 25.784303 
L 359.29476 25.784303 
" style="fill: none; stroke: #000000; stroke-width: 2; stroke-linecap: square"/>
    </g>
    <g id="text_16">
     <text style="font: 18px 'Arial'; text-anchor: start" x="373.69476" y="32.084303" transform="rotate(-0, 373.69476, 32.084303)">raw intensity</text>
    </g>
    <g id="line2d_17">
     <path d="M 323.29476 51.456803 
L 341.29476 51.456803 
L 359.29476 51.456803 
" style="fill: none; stroke: #d62728; stroke-width: 1.8; stroke-linecap: square"/>
    </g>
    <g id="text_17">
     <text style="font: 18px 'Arial'; text-anchor: start" x="373.69476" y="57.756803" transform="rotate(-0, 373.69476, 57.756803)">background subtracted</text>
    </g>
   </g>
  </g>
 </g>
 <defs>
  <clipPath id="p7bd7b77060">
   <rect x="60.701802" y="3.00024" width="512.297958" height="281.276395"/>
  </clipPath>
 </defs>
</svg>
