<?xml version="1.0" encoding="utf-8" standalone="no"?>
<!DOCTYPE svg PUBLIC "-//W3C//DTD SVG 1.1//EN"
  "http://www.w3.org/Graphics/SVG/1.1/DTD/svg11.dtd">
<svg xmlns:xlink="http://www.w3.org/1999/xlink" width="576pt" height="331.2pt" viewBox="0 0 576 331.2" xmlns="http://www.w3.org/2000/svg" version="1.1">
 <metadata>
  <rdf:RDF xmlns:dc="http://purl.org/dc/elements/1.1/" xmlns:cc="http://creativecommons.org/ns#" xmlns:rdf="http://www.w3.org/1999/02/22-rdf-syntax-ns#">
   <cc:Work>
    <dc:type rdf:resource="http://purl.org/dc/dcmitype/StillImage"/>
    <dc:date>2026-07-11T15:45:15.268273</dc:date>
    <dc:format>image/svg+xml</dc:format>
    <dc:creator>
     <cc:Agent>
      <dc:title>Matplotlib v3.5.1, https://matplotlib.org/</dc:title>
     </cc:Agent>
    </dc:creator>
   </cc:Work>
  </rdf:RDF>
 </metadata>
 <defs>
  <style type="text/css">*{stroke-linejoin: round; stroke-linecap: butt}</style>
 </defs>
 <g id="figure_1">
  <g id="patch_1">
   <path d="M 0 331.2 
L 576 331.2 
L 576 0 
L 0 0 
z
" style="fill: #ffffff"/>
  </g>
  <g id="axes_1">
   <g id="patch_2">
    <path d="M 50.692115 284.276635 
L 572.99976 284.276635 
L 572.99976 3.00024 
L 50.692115 3.00024 
z
" style="fill: #ffffff"/>
   </g>
   <g id="matplotlib.axis_1">
    <g id="xtick_1">
     <g id="line2d_1">
      <defs>
       <path id="mf5b15b50fa" d="M 0 0 
L 0 3.5 
" style="stroke: #000000; stroke-width: 0.8"/>
      </defs>
      <g>
       <use xlink:href="#mf5b15b50fa" x="50.692115" y="284.276635" style="stroke: #000000; stroke-width: 0.8"/>
      </g>
     </g>
     <g id="text_1">
      <text style="font: 18px 'Arial'; text-anchor: middle" x="50.692115" y="304.160697" transform="rotate(-0, 50.692115, 304.160697)">0</text>
     </g>
    </g>
    <g id="xtick_2">
     <g id="line2d_2">
      <g>
       <use xlink:href="#mf5b15b50fa" x="128.881882" y="284.276635" style="stroke: #000000; stroke-width: 0.8"/>
      </g>
     </g>
     <g id="text_2">
      <text style="font: 18px 'Arial'; text-anchor: middle" x="128.881882" y="304.160697" transform="rotate(-0, 128.881882, 304.160697)">100</text>
     </g>
    </g>
    <g id="xtick_3">
     <g id="line2d_3">
      <g>
       <use xlink:href="#mf5b15b50fa" x="207.071649" y="284.276635" style="stroke: #000000; stroke-width: 0.8"/>
      </g>
     </g>
     <g id="text_3">
      <text style="font: 18px 'Arial'; text-anchor: middle" x="207.071649" y="304.160697" transform="rotate(-0, 207.071649, 304.160697)">200</text>
     </g>
    </g>
    <g id="xtick_4">
     <g id="line2d_4">
      <g>
       <use xlink:href="#mf5b15b50fa" x="285.261417" y="284.276635" style="stroke: #000000; stroke-width: 0.8"/>
      </g>
     </g>
     <g id="text_4">
      <text style="font: 18px 'Arial'; text-anchor: middle" x="285.261417" y="304.160697" transform="rotate(-0, 285.261417, 304.160697)">300</text>
     </g>
    </g>
    <g id="xtick_5">
     <g id="line2d_5">
      <g>
       <use xlink:href="#mf5b15b50fa" x="363.451184" y="284.276635" style="stroke: #000000; stroke-width: 0.8"/>
      </g>
     </g>
     <g id="text_5">
      <text style="font: 18px 'Arial'; text-anchor: middle" x="363.451184" y="304.160697" transform="rotate(-0, 363.451184, 304.160697)">400</text>
     </g>
    </g>
    <g id="xtick_6">
     <g id="line2d_6">
      <g>
       <use xlink:href="#mf5b15b50fa" x="441.640951" y="284.276635" style="stroke: #000000; stroke-width: 0.8"/>
      </g>
     </g>
     <g id="text_6">
      <text style="font: 18px 'Arial'; text-anchor: middle" x="441.640951" y="304.160697" transform="rotate(-0, 441.640951, 304.160697)">500</text>
     </g>
    </g>
    <g id="xtick_7">
     <g id="line2d_7">
      <g>
       <use xlink:href="#mf5b15b50fa" x="519.830718" y="284.276635" style="stroke: #000000; stroke-width: 0.8"/>
      </g>
     </g>
     <g id="text_7">
      <text style="font: 18px 'Arial'; text-anchor: middle" x="519.830718" y="304.160697" transform="rotate(-0, 519.830718, 304.160697)">600</text>
     </g>
    </g>
    <g id="text_8">
     <text style="font: 18px 'Arial'; text-anchor: middle" x="311.845937" y="324.62226" transform="rotate(-0, 311.845937, 324.62226)">x pixel</text>
    </g>
   </g>
   <g id="matplotlib.axis_2">
    <g id="ytick_1">
     <g id="line2d_8">
      <defs>
       <path id="m4c6b0b0f9c" d="M 0 0 
L -3.5 0 
" style="stroke: #000000; stroke-width: 0.8"/>
      </defs>
      <g>
       <use xlink:href="#m4c6b0b0f9c" x="50.692115" y="271.491344" style="stroke: #000000; stroke-width: 0.8"/>
      </g>
     </g>
     <g id="text_9">
      <text style="font: 18px 'Arial'; text-anchor: end" x="43.692115" y="277.933376" transform="rotate(-0, 43.692115, 277.933376)">0</text>
     </g>
    </g>
    <g id="ytick_2">
     <g id="line2d_9">
      <g>
       <use xlink:href="#m4c6b0b0f9c" x="50.692115" y="213.376387" style="stroke: #000000; stroke-width: 0.8"/>
      </g>
     </g>
     <g id="text_10">
      <text style="font: 18px 'Arial'; text-anchor: end" x="43.692115" y="219.818418" transform="rotate(-0, 43.692115, 219.818418)">20</text>
     </g>
    </g>
    <g id="ytick_3">
     <g id="line2d_10">
      <g>
       <use xlink:href="#m4c6b0b0f9c" x="50.692115" y="155.261429" style="stroke: #000000; stroke-width: 0.8"/>
      </g>
     </g>
     <g id="text_11">
      <text style="font: 18px 'Arial'; text-anchor: end" x="43.692115" y="161.70346" transform="rotate(-0, 43.692115, 161.70346)">40</text>
     </g>
    </g>
    <g id="ytick_4">
     <g id="line2d_11">
      <g>
       <use xlink:href="#m4c6b0b0f9c" x="50.692115" y="97.146471" style="stroke: #000000; stroke-width: 0.8"/>
      </g>
     </g>
     <g id="text_12">
      <text style="font: 18px 'Arial'; text-anchor: end" x="43.692115" y="103.588503" transform="rotate(-0, 43.692115, 103.588503)">60</text>
     </g>
    </g>
    <g id="ytick_5">
     <g id="line2d_12">
      <g>
       <use xlink:href="#m4c6b0b0f9c" x="50.692115" y="39.031514" style="stroke: #000000; stroke-width: 0.8"/>
      </g>
     </g>
     <g id="text_13">
      <text style="font: 18px 'Arial'; text-anchor: end" x="43.692115" y="45.473545" transform="rotate(-0, 43.692115, 45.473545)">80</text>
     </g>
    </g>
    <g id="text_14">
     <text style="font: 18px 'Arial'; text-anchor: middle" x="15.884303" y="143.638437" transform="rotate(-90, 15.884303, 143.638437)">Intensity [a.u.]</text>
    </g>
   </g>
   <g id="line2d_13">
    <path d="M 50.692115 271.491344 
L 53.037808 271.491344 
L 53.819706 268.585596 
L 54.601603 248.245361 
L 55.383501 268.585596 
L 56.165399 271.491344 
L 60.856785 271.491344 
L 61.638682 187.224656 
L 62.42058 88.429228 
L 63.202478 259.868353 
L 63.984375 268.585596 
L 64.766273 271.491344 
L 65.548171 271.491344 
L 66.330068 259.868353 
L 67.111966 88.429228 
L 68.675761 271.491344 
L 70.239557 271.491344 
L 71.803352 265.679849 
L 72.58525 256.962605 
L 73.367147 268.585596 
L 74.149045 271.491344 
L 74.930943 268.585596 
L 75.712841 248.245361 
L 76.494738 262.774101 
L 77.276636 271.491344 
L 79.622329 271.491344 
L 80.404227 259.868353 
L 81.186124 251.151109 
L 81.968022 201.753395 
L 82.74992 47.748757 
L 83.531817 245.339613 
L 84.313715 268.585596 
L 85.095613 268.585596 
L 85.87751 248.245361 
L 86.659408 262.774101 
L 87.441306 271.491344 
L 94.478385 271.491344 
L 95.260282 248.245361 
L 96.04218 262.774101 
L 96.824078 271.491344 
L 106.20685 271.491344 
L 106.988747 242.433865 
L 107.770645 248.245361 
L 108.552543 268.585596 
L 109.33444 271.491344 
L 124.972394 271.491344 
L 125.754292 251.151109 
L 126.536189 256.962605 
L 127.318087 271.491344 
L 129.66378 271.491344 
L 130.445678 268.585596 
L 131.227575 230.810874 
L 132.009473 70.99474 
L 132.791371 230.810874 
L 133.573268 271.491344 
L 138.264654 271.491344 
L 139.82845 265.679849 
L 140.610347 248.245361 
L 141.392245 265.679849 
L 142.174143 271.491344 
L 146.083631 271.491344 
L 146.865529 245.339613 
L 147.647426 236.62237 
L 148.429324 268.585596 
L 149.211222 271.491344 
L 150.775017 271.491344 
L 151.556915 268.585596 
L 152.338812 248.245361 
L 153.12071 265.679849 
L 153.902608 271.491344 
L 154.684505 268.585596 
L 155.466403 256.962605 
L 156.248301 254.056857 
L 157.030198 262.774101 
L 157.812096 256.962605 
L 158.593994 271.491344 
L 160.157789 265.679849 
L 160.939687 236.62237 
L 161.721584 265.679849 
L 162.503482 271.491344 
L 175.013845 271.491344 
L 175.795743 195.941899 
L 176.57764 161.072925 
L 177.359538 268.585596 
L 178.141436 271.491344 
L 179.705231 271.491344 
L 180.487129 268.585596 
L 181.269026 271.491344 
L 183.614719 271.491344 
L 184.396617 132.015446 
L 185.178515 134.921194 
L 185.960412 268.585596 
L 186.74231 271.491344 
L 187.524208 265.679849 
L 188.306105 254.056857 
L 189.088003 268.585596 
L 189.869901 271.491344 
L 190.651798 271.491344 
L 191.433696 268.585596 
L 192.215594 271.491344 
L 203.944059 271.491344 
L 204.725956 195.941899 
L 205.507854 169.790168 
L 206.289752 201.753395 
L 207.071649 82.617732 
L 207.853547 254.056857 
L 208.635445 271.491344 
L 216.454421 271.491344 
L 217.236319 265.679849 
L 218.018217 248.245361 
L 218.800115 268.585596 
L 219.582012 271.491344 
L 222.709603 271.491344 
L 223.491501 245.339613 
L 224.273398 239.528118 
L 225.055296 271.491344 
L 225.837194 271.491344 
L 226.619091 239.528118 
L 227.400989 134.921194 
L 228.182887 248.245361 
L 228.964784 271.491344 
L 231.310477 271.491344 
L 232.092375 172.695916 
L 232.874273 184.318908 
L 233.65617 271.491344 
L 236.001863 271.491344 
L 236.783761 245.339613 
L 237.565659 132.015446 
L 238.347556 245.339613 
L 239.129454 268.585596 
L 239.911352 271.491344 
L 250.076021 271.491344 
L 250.857919 251.151109 
L 251.639817 256.962605 
L 252.421714 259.868353 
L 253.203612 254.056857 
L 253.98551 271.491344 
L 272.751054 271.491344 
L 273.532952 265.679849 
L 274.314849 256.962605 
L 275.096747 271.491344 
L 283.697621 271.491344 
L 284.479519 222.09363 
L 285.261417 39.031514 
L 286.043314 236.62237 
L 286.825212 271.491344 
L 288.389007 271.491344 
L 289.170905 268.585596 
L 289.952803 175.601664 
L 290.7347 190.130404 
L 291.516598 161.072925 
L 292.298496 76.806236 
L 293.080393 262.774101 
L 293.862291 271.491344 
L 296.989882 271.491344 
L 297.771779 251.151109 
L 298.553677 259.868353 
L 299.335575 271.491344 
L 300.117472 172.695916 
L 300.89937 155.261429 
L 301.681268 262.774101 
L 302.463165 251.151109 
L 303.245063 271.491344 
L 304.026961 271.491344 
L 304.808858 268.585596 
L 305.590756 271.491344 
L 318.101119 271.491344 
L 318.883017 245.339613 
L 319.664914 242.433865 
L 320.446812 271.491344 
L 329.047686 271.491344 
L 329.829584 268.585596 
L 330.611482 262.774101 
L 331.393379 245.339613 
L 332.175277 236.62237 
L 332.957175 268.585596 
L 333.739072 248.245361 
L 334.52097 73.900488 
L 335.302868 219.187882 
L 336.084765 97.146471 
L 336.866663 190.130404 
L 337.648561 178.507412 
L 338.430458 184.318908 
L 339.212356 268.585596 
L 339.994254 271.491344 
L 353.286514 271.491344 
L 354.068412 254.056857 
L 354.850309 39.031514 
L 355.632207 175.601664 
L 356.414105 271.491344 
L 360.323593 271.491344 
L 361.105491 265.679849 
L 361.887389 251.151109 
L 362.669286 265.679849 
L 363.451184 233.716622 
L 364.233082 259.868353 
L 365.014979 271.491344 
L 366.578775 271.491344 
L 367.360672 259.868353 
L 368.14257 259.868353 
L 368.924468 265.679849 
L 369.706365 256.962605 
L 370.488263 271.491344 
L 383.780523 271.491344 
L 384.562421 268.585596 
L 385.344319 254.056857 
L 386.126216 256.962605 
L 386.908114 271.491344 
L 388.471909 271.491344 
L 389.253807 268.585596 
L 390.035705 224.999378 
L 390.817602 70.99474 
L 391.5995 239.528118 
L 392.381398 271.491344 
L 395.508988 271.491344 
L 396.290886 268.585596 
L 397.072784 152.355681 
L 397.854681 76.806236 
L 398.636579 262.774101 
L 399.418477 271.491344 
L 404.109863 271.491344 
L 404.89176 268.585596 
L 405.673658 184.318908 
L 406.455556 172.695916 
L 407.237454 268.585596 
L 408.019351 271.491344 
L 408.801249 262.774101 
L 409.583147 233.716622 
L 410.365044 245.339613 
L 411.146942 265.679849 
L 411.92884 271.491344 
L 412.710737 251.151109 
L 413.492635 262.774101 
L 414.274533 268.585596 
L 415.05643 271.491344 
L 416.620226 271.491344 
L 418.184021 254.056857 
L 418.965919 213.376387 
L 419.747816 15.785531 
L 420.529714 224.999378 
L 421.311612 79.711984 
L 422.093509 210.470639 
L 422.875407 271.491344 
L 429.912486 271.491344 
L 430.694384 268.585596 
L 431.476281 251.151109 
L 432.258179 236.62237 
L 433.040077 256.962605 
L 433.821974 175.601664 
L 434.603872 181.41316 
L 435.38577 271.491344 
L 447.896132 271.491344 
L 448.67803 268.585596 
L 449.459928 251.151109 
L 450.241825 79.711984 
L 451.023723 207.564891 
L 451.805621 271.491344 
L 454.151314 271.491344 
L 454.933212 251.151109 
L 455.715109 242.433865 
L 456.497007 230.810874 
L 457.278905 140.73269 
L 458.060802 227.905126 
L 458.8427 114.580959 
L 459.624598 236.62237 
L 460.406495 271.491344 
L 462.752188 271.491344 
L 463.534086 190.130404 
L 464.315984 166.884421 
L 465.097881 271.491344 
L 467.443574 271.491344 
L 468.225472 268.585596 
L 469.00737 256.962605 
L 469.789267 265.679849 
L 470.571165 271.491344 
L 483.081528 271.491344 
L 484.645323 132.015446 
L 485.427221 265.679849 
L 486.209118 271.491344 
L 490.118607 271.491344 
L 490.900504 245.339613 
L 491.682402 251.151109 
L 492.4643 265.679849 
L 493.246197 161.072925 
L 494.028095 100.052219 
L 494.809993 265.679849 
L 495.59189 222.09363 
L 496.373788 68.088993 
L 497.155686 242.433865 
L 497.937583 268.585596 
L 498.719481 271.491344 
L 499.501379 271.491344 
L 500.283276 268.585596 
L 501.065174 254.056857 
L 502.62897 259.868353 
L 503.410867 251.151109 
L 504.192765 271.491344 
L 504.974663 268.585596 
L 505.75656 227.905126 
L 506.538458 41.937262 
L 507.320356 227.905126 
L 508.102253 271.491344 
L 508.884151 268.585596 
L 509.666049 256.962605 
L 510.447946 254.056857 
L 511.229844 169.790168 
L 512.011742 172.695916 
L 512.793639 271.491344 
L 515.139332 271.491344 
L 515.92123 236.62237 
L 516.703128 47.748757 
L 517.485025 216.282135 
L 518.266923 271.491344 
L 519.048821 271.491344 
L 519.830718 268.585596 
L 520.612616 259.868353 
L 521.394514 155.261429 
L 522.176411 18.691279 
L 522.958309 108.769463 
L 523.740207 262.774101 
L 524.522104 245.339613 
L 525.304002 239.528118 
L 526.0859 265.679849 
L 526.867797 271.491344 
L 527.649695 268.585596 
L 528.431593 242.433865 
L 529.995388 271.491344 
L 530.777286 271.491344 
L 531.559183 262.774101 
L 532.341081 256.962605 
L 533.122979 254.056857 
L 533.904876 230.810874 
L 534.686774 265.679849 
L 535.468672 271.491344 
L 537.032467 271.491344 
L 537.814365 254.056857 
L 538.596262 239.528118 
L 539.37816 251.151109 
L 540.160058 259.868353 
L 540.941955 259.868353 
L 541.723853 181.41316 
L 542.505751 91.334976 
L 543.287648 259.868353 
L 544.069546 271.491344 
L 544.851444 271.491344 
L 545.633341 268.585596 
L 546.415239 248.245361 
L 547.197137 262.774101 
L 547.979034 271.491344 
L 549.54283 271.491344 
L 550.324728 268.585596 
L 551.106625 268.585596 
L 551.888523 271.491344 
L 558.925602 271.491344 
L 559.7075 268.585596 
L 560.489397 271.491344 
L 564.398886 271.491344 
L 565.180783 262.774101 
L 565.962681 143.638437 
L 566.744579 230.810874 
L 567.526476 111.675211 
L 568.308374 161.072925 
L 569.090272 271.491344 
L 572.217862 271.491344 
L 572.99976 265.679849 
L 572.99976 265.679849 
" clip-path="url(#p47b043e1ff)" style="fill: none; stroke: #000000; stroke-width: 2; stroke-linecap: square"/>
   </g>
   <g id="line2d_14">
    <path d="M 50.692115 271.491344 
L 53.037808 271.491344 
L 53.819706 268.585596 
L 54.601603 248.245361 
L 55.383501 268.585596 
L 56.165399 271.491344 
L 60.856785 271.491344 
L 61.638682 187.224656 
L 62.42058 88.429228 
L 63.202478 259.868353 
L 63.984375 268.585596 
L 64.766273 271.491344 
L 65.548171 271.491344 
L 66.330068 259.868353 
L 67.111966 88.429228 
L 68.675761 271.491344 
L 70.239557 271.491344 
L 71.803352 265.679849 
L 72.58525 256.962605 
L 73.367147 268.585596 
L 74.149045 271.491344 
L 74.930943 268.585596 
L 75.712841 248.245361 
L 76.494738 262.774101 
L 77.276636 271.491344 
L 79.622329 271.491344 
L 80.404227 259.868353 
L 81.186124 251.151109 
L 81.968022 201.753395 
L 82.74992 47.748757 
L 83.531817 245.339613 
L 84.313715 268.585596 
L 85.095613 268.585596 
L 85.87751 248.245361 
L 86.659408 262.774101 
L 87.441306 271.491344 
L 94.478385 271.491344 
L 95.260282 248.245361 
L 96.04218 262.774101 
L 96.824078 271.491344 
L 106.20685 271.491344 
L 106.988747 242.433865 
L 107.770645 248.245361 
L 108.552543 268.585596 
L 109.33444 271.491344 
L 124.972394 271.491344 
L 125.754292 251.151109 
L 126.536189 256.962605 
L 127.318087 271.491344 
L 129.66378 271.491344 
L 130.445678 268.585596 
L 131.227575 230.810874 
L 132.009473 70.99474 
L 132.791371 230.810874 
L 133.573268 271.491344 
L 138.264654 271.491344 
L 139.82845 265.679849 
L 140.610347 248.245361 
L 141.392245 265.679849 
L 142.174143 271.491344 
L 146.083631 271.491344 
L 146.865529 245.339613 
L 147.647426 236.62237 
L 148.429324 268.585596 
L 149.211222 271.491344 
L 150.775017 271.491344 
L 151.556915 268.585596 
L 152.338812 248.245361 
L 153.12071 265.679849 
L 153.902608 271.491344 
L 154.684505 268.585596 
L 155.466403 256.962605 
L 156.248301 254.056857 
L 157.030198 262.774101 
L 157.812096 256.962605 
L 158.593994 271.491344 
L 160.157789 265.679849 
L 160.939687 236.62237 
L 161.721584 265.679849 
L 162.503482 271.491344 
L 175.013845 271.491344 
L 175.795743 195.941899 
L 176.57764 161.072925 
L 177.359538 268.585596 
L 178.141436 271.491344 
L 179.705231 271.491344 
L 180.487129 268.585596 
L 181.269026 271.491344 
L 183.614719 271.491344 
L 184.396617 132.015446 
L 185.178515 134.921194 
L 185.960412 268.585596 
L 186.74231 271.491344 
L 187.524208 265.679849 
L 188.306105 254.056857 
L 189.088003 268.585596 
L 189.869901 271.491344 
L 190.651798 271.491344 
L 191.433696 268.585596 
L 192.215594 271.491344 
L 203.944059 271.491344 
L 204.725956 195.941899 
L 205.507854 169.790168 
L 206.289752 201.753395 
L 207.071649 82.617732 
L 207.853547 254.056857 
L 208.635445 271.491344 
L 216.454421 271.491344 
L 217.236319 265.679849 
L 218.018217 248.245361 
L 218.800115 268.585596 
L 219.582012 271.491344 
L 222.709603 271.491344 
L 223.491501 245.339613 
L 224.273398 239.528118 
L 225.055296 271.491344 
L 225.837194 271.491344 
L 226.619091 239.528118 
L 227.400989 134.921194 
L 228.182887 248.245361 
L 228.964784 271.491344 
L 231.310477 271.491344 
L 232.092375 172.695916 
L 232.874273 184.318908 
L 233.65617 271.491344 
L 236.001863 271.491344 
L 236.783761 245.339613 
L 237.565659 132.015446 
L 238.347556 245.339613 
L 239.129454 268.585596 
L 239.911352 271.491344 
L 250.076021 271.491344 
L 250.857919 251.151109 
L 251.639817 256.962605 
L 252.421714 259.868353 
L 253.203612 254.056857 
L 253.98551 271.491344 
L 272.751054 271.491344 
L 273.532952 265.679849 
L 274.314849 256.962605 
L 275.096747 271.491344 
L 283.697621 271.491344 
L 284.479519 222.09363 
L 285.261417 39.031514 
L 286.043314 236.62237 
L 286.825212 271.491344 
L 288.389007 271.491344 
L 289.170905 268.585596 
L 289.952803 175.601664 
L 290.7347 190.130404 
L 291.516598 161.072925 
L 292.298496 76.806236 
L 293.080393 262.774101 
L 293.862291 271.491344 
L 296.989882 271.491344 
L 297.771779 251.151109 
L 298.553677 259.868353 
L 299.335575 271.491344 
L 300.117472 172.695916 
L 300.89937 155.261429 
L 301.681268 262.774101 
L 302.463165 251.151109 
L 303.245063 271.491344 
L 304.026961 271.491344 
L 304.808858 268.585596 
L 305.590756 271.491344 
L 318.101119 271.491344 
L 318.883017 245.339613 
L 319.664914 242.433865 
L 320.446812 271.491344 
L 329.047686 271.491344 
L 329.829584 268.585596 
L 330.611482 262.774101 
L 331.393379 245.339613 
L 332.175277 236.62237 
L 332.957175 268.585596 
L 333.739072 248.245361 
L 334.52097 73.900488 
L 335.302868 219.187882 
L 336.084765 97.146471 
L 336.866663 190.130404 
L 337.648561 178.507412 
L 338.430458 184.318908 
L 339.212356 268.585596 
L 339.994254 271.491344 
L 353.286514 271.491344 
L 354.068412 254.056857 
L 354.850309 39.031514 
L 355.632207 175.601664 
L 356.414105 271.491344 
L 360.323593 271.491344 
L 361.105491 265.679849 
L 361.887389 251.151109 
L 362.669286 265.679849 
L 363.451184 233.716622 
L 364.233082 259.868353 
L 365.014979 271.491344 
L 366.578775 271.491344 
L 367.360672 259.868353 
L 368.14257 259.868353 
L 368.924468 265.679849 
L 369.706365 256.962605 
L 370.488263 271.491344 
L 383.780523 271.491344 
L 384.562421 268.585596 
L 385.344319 254.056857 
L 386.126216 256.962605 
L 386.908114 271.491344 
L 388.471909 271.491344 
L 389.253807 268.585596 
L 390.035705 224.999378 
L 390.817602 70.99474 
L 391.5995 239.528118 
L 392.381398 271.491344 
L 395.508988 271.491344 
L 396.290886 268.585596 
L 397.072784 152.355681 
L 397.854681 76.806236 
L 398.636579 262.774101 
L 399.418477 271.491344 
L 404.109863 271.491344 
L 404.89176 268.585596 
L 405.673658 184.318908 
L 406.455556 172.695916 
L 407.237454 268.585596 
L 408.019351 271.491344 
L 408.801249 262.774101 
L 409.583147 233.716622 
L 410.365044 245.339613 
L 411.146942 265.679849 
L 411.92884 271.491344 
L 412.710737 251.151109 
L 413.492635 262.774101 
L 414.274533 268.585596 
L 415.05643 271.491344 
L 416.620226 271.491344 
L 418.184021 254.056857 
L 418.965919 213.376387 
L 419.747816 15.785531 
L 420.529714 224.999378 
L 421.311612 79.711984 
L 422.093509 210.470639 
L 422.875407 271.491344 
L 429.912486 271.491344 
L 430.694384 268.585596 
L 431.476281 251.151109 
L 432.258179 236.62237 
L 433.040077 256.962605 
L 433.821974 175.601664 
L 434.603872 181.41316 
L 435.38577 271.491344 
L 447.896132 271.491344 
L 448.67803 268.585596 
L 449.459928 251.151109 
L 450.241825 79.711984 
L 451.023723 207.564891 
L 451.805621 271.491344 
L 454.151314 271.491344 
L 454.933212 251.151109 
L 455.715109 242.433865 
L 456.497007 230.810874 
L 457.278905 140.73269 
L 458.060802 227.905126 
L 458.8427 114.580959 
L 459.624598 236.62237 
L 460.406495 271.491344 
L 462.752188 271.491344 
L 463.534086 190.130404 
L 464.315984 166.884421 
L 465.097881 271.491344 
L 467.443574 271.491344 
L 468.225472 268.585596 
L 469.00737 256.962605 
L 469.789267 265.679849 
L 470.571165 271.491344 
L 483.081528 271.491344 
L 484.645323 132.015446 
L 485.427221 265.679849 
L 486.209118 271.491344 
L 490.118607 271.491344 
L 490.900504 245.339613 
L 491.682402 251.151109 
L 492.4643 265.679849 
L 493.246197 161.072925 
L 494.028095 100.052219 
L 494.809993 265.679849 
L 495.59189 222.09363 
L 496.373788 68.088993 
L 497.155686 242.433865 
L 497.937583 271.491344 
L 500.283276 271.491344 
L 501.065174 256.962605 
L 502.62897 262.774101 
L 503.410867 254.056857 
L 504.192765 271.491344 
L 504.974663 271.491344 
L 505.75656 233.716622 
L 506.538458 47.748757 
L 507.320356 233.716622 
L 508.102253 271.491344 
L 508.884151 271.491344 
L 509.666049 262.774101 
L 510.447946 259.868353 
L 511.229844 175.601664 
L 512.011742 178.507412 
L 512.793639 271.491344 
L 515.139332 271.491344 
L 515.92123 242.433865 
L 516.703128 53.560253 
L 517.485025 222.09363 
L 518.266923 271.491344 
L 519.830718 271.491344 
L 520.612616 262.774101 
L 521.394514 161.072925 
L 522.176411 24.502774 
L 522.958309 114.580959 
L 523.740207 265.679849 
L 524.522104 248.245361 
L 525.304002 242.433865 
L 526.0859 268.585596 
L 526.867797 271.491344 
L 527.649695 271.491344 
L 528.431593 245.339613 
L 529.21349 259.868353 
L 529.995388 271.491344 
L 530.777286 271.491344 
L 531.559183 265.679849 
L 532.341081 256.962605 
L 533.122979 254.056857 
L 533.904876 230.810874 
L 534.686774 265.679849 
L 535.468672 271.491344 
L 537.032467 271.491344 
L 537.814365 254.056857 
L 538.596262 239.528118 
L 539.37816 251.151109 
L 540.160058 259.868353 
L 540.941955 259.868353 
L 541.723853 181.41316 
L 542.505751 91.334976 
L 543.287648 259.868353 
L 544.069546 271.491344 
L 544.851444 271.491344 
L 545.633341 268.585596 
L 546.415239 248.245361 
L 547.197137 262.774101 
L 547.979034 271.491344 
L 549.54283 271.491344 
L 550.324728 268.585596 
L 551.106625 268.585596 
L 551.888523 271.491344 
L 558.925602 271.491344 
L 559.7075 268.585596 
L 560.489397 271.491344 
L 564.398886 271.491344 
L 565.180783 262.774101 
L 565.962681 143.638437 
L 566.744579 230.810874 
L 567.526476 111.675211 
L 568.308374 161.072925 
L 569.090272 271.491344 
L 572.217862 271.491344 
L 572.99976 265.679849 
L 572.99976 265.679849 
" clip-path="url(#p47b043e1ff)" style="fill: none; stroke: #d62728; stroke-width: 1.8; stroke-linecap: square"/>
   </g>
   <g id="patch_3">
    <path d="M 50.692115 284.276635 
L 50.692115 3.00024 
" style="fill: none; stroke: #000000; stroke-linejoin: miter; stroke-linecap: square"/>
   </g>
   <g id="patch_4">
    <path d="M 572.99976 284.276635 
L 572.99976 3.00024 
" style="fill: none; stroke: #000000; stroke-linejoin: miter; stroke-linecap: square"/>
   </g>
   <g id="patch_5">
    <path d="M 50.692115 284.276635 
L 572.99976 284.276635 
" style="fill: none; stroke: #000000; stroke-linejoin: miter; stroke-linecap: square"/>
   </g>
   <g id="patch_6">
    <path d="M 50.692115 3.00024 
L 572.99976 3.00024 
" style="fill: none; stroke: #000000; stroke-linejoin: miter; stroke-linecap: square"/>
   </g>
   <g id="legend_1">
    <g id="patch_7">
     <path d="M 319.69476 68.74524 
L 560.39976 68.74524 
Q 563.99976 68.74524 563.99976 65.14524 
L 563.99976 15.60024 
Q 563.99976 12.00024 560.39976 12.00024 
L 319.69476 12.00024 
Q 316.09476 12.00024 316.09476 15.60024 
L 316.09476 65.14524 
Q 316.09476 68.74524 319.69476 68.74524 
z
" style="fill: #ffffff; opacity: 0.8; stroke: #cccccc; stroke-linejoin: miter"/>
    </g>
    <g id="line2d_15">
     <path d="M 323.29476 25.784302 
L 341.29476 25.784302 
L 359.29476 25.784302 
" style="fill: none; stroke: #000000; stroke-width: 2; stroke-linecap: square"/>
    </g>
    <g id="text_15">
     <text style="font: 18px 'Arial'; text-anchor: start" x="373.69476" y="32.084302" transform="rotate(-0, 373.69476, 32.084302)">raw intensity</text>
    </g>
    <g id="line2d_16">
     <path d="M 323.29476 51.456802 
L 341.29476 51.456802 
L 359.29476 51.456802 
" style="fill: none; stroke: #d62728; stroke-width: 1.8; stroke-linecap: square"/>
    </g>
    <g id="text_16">
     <text style="font: 18px 'Arial'; text-anchor: start" x="373.69476" y="57.756802" transform="rotate(-0, 373.69476, 57.756802)">background subtracted</text>
    </g>
   </g>
  </g>
 </g>
 <defs>
  <clipPath id="p47b043e1ff">
   <rect x="50.692115" y="3.00024" width="522.307645" height="281.276395"/>
  </clipPath>
 </defs>
</svg>
