<?xml version="1.0" encoding="utf-8" standalone="no"?>
<!DOCTYPE svg PUBLIC "-//W3C//DTD SVG 1.1//EN"
  "http://www.w3.org/Graphics/SVG/1.1/DTD/svg11.dtd">
<svg xmlns:xlink="http://www.w3.org/1999/xlink" width="576pt" height="331.2pt" viewBox="0 0 576 331.2" xmlns="http://www.w3.org/2000/svg" version="1.1">
 <metadata>
  <rdf:RDF xmlns:dc="http://purl.org/dc/elements/1.1/" xmlns:cc="http://creativecommons.org/ns#" xmlns:rdf="http://www.w3.org/1999/02/22-rdf-syntax-ns#">
   <cc:Work>
    <dc:type rdf:resource="http://purl.org/dc/dcmitype/StillImage"/>
    <dc:date>2026-07-11T15:46:22.128779</dc:date>
    <dc:format>image/svg+xml</dc:format>
    <dc:creator>
     <cc:Agent>
      <dc:title>Matplotlib v3.5.1, https://matplotlib.org/</dc:title>
     </cc:Agent>
    </dc:creator>
   </cc:Work>
  </rdf:RDF>
 </metadata>
 <defs>
  <style type="text/css">*{stroke-linejoin: round; stroke-linecap: butt}</style>
 </defs>
 <g id="figure_1">
  <g id="patch_1">
   <path d="M 0 331.2 
L 576 331.2 
L 576 0 
L 0 0 
z
" style="fill: #ffffff"/>
  </g>
  <g id="axes_1">
   <g id="patch_2">
    <path d="M 60.701802 284.276635 
L 572.99976 284.276635 
L 572.99976 3.00024 
L 60.701802 3.00024 
z
" style="fill: #ffffff"/>
   </g>
   <g id="matplotlib.axis_1">
    <g id="xtick_1">
     <g id="line2d_1">
      <defs>
       <path id="m38279384c2" d="M 0 0 
L 0 3.5 
" style="stroke: #000000; stroke-width: 0.8"/>
      </defs>
      <g>
       <use xlink:href="#m38279384c2" x="60.701802" y="284.276635" style="stroke: #000000; stroke-width: 0.8"/>
      </g>
     </g>
     <g id="text_1">
      <text style="font: 18px 'Arial'; text-anchor: middle" x="60.701802" y="304.160697" transform="rotate(-0, 60.701802, 304.160697)">0</text>
     </g>
    </g>
    <g id="xtick_2">
     <g id="line2d_2">
      <g>
       <use xlink:href="#m38279384c2" x="137.393114" y="284.276635" style="stroke: #000000; stroke-width: 0.8"/>
      </g>
     </g>
     <g id="text_2">
      <text style="font: 18px 'Arial'; text-anchor: middle" x="137.393114" y="304.160697" transform="rotate(-0, 137.393114, 304.160697)">100</text>
     </g>
    </g>
    <g id="xtick_3">
     <g id="line2d_3">
      <g>
       <use xlink:href="#m38279384c2" x="214.084425" y="284.276635" style="stroke: #000000; stroke-width: 0.8"/>
      </g>
     </g>
     <g id="text_3">
      <text style="font: 18px 'Arial'; text-anchor: middle" x="214.084425" y="304.160697" transform="rotate(-0, 214.084425, 304.160697)">200</text>
     </g>
    </g>
    <g id="xtick_4">
     <g id="line2d_4">
      <g>
       <use xlink:href="#m38279384c2" x="290.775736" y="284.276635" style="stroke: #000000; stroke-width: 0.8"/>
      </g>
     </g>
     <g id="text_4">
      <text style="font: 18px 'Arial'; text-anchor: middle" x="290.775736" y="304.160697" transform="rotate(-0, 290.775736, 304.160697)">300</text>
     </g>
    </g>
    <g id="xtick_5">
     <g id="line2d_5">
      <g>
       <use xlink:href="#m38279384c2" x="367.467047" y="284.276635" style="stroke: #000000; stroke-width: 0.8"/>
      </g>
     </g>
     <g id="text_5">
      <text style="font: 18px 'Arial'; text-anchor: middle" x="367.467047" y="304.160697" transform="rotate(-0, 367.467047, 304.160697)">400</text>
     </g>
    </g>
    <g id="xtick_6">
     <g id="line2d_6">
      <g>
       <use xlink:href="#m38279384c2" x="444.158358" y="284.276635" style="stroke: #000000; stroke-width: 0.8"/>
      </g>
     </g>
     <g id="text_6">
      <text style="font: 18px 'Arial'; text-anchor: middle" x="444.158358" y="304.160697" transform="rotate(-0, 444.158358, 304.160697)">500</text>
     </g>
    </g>
    <g id="xtick_7">
     <g id="line2d_7">
      <g>
       <use xlink:href="#m38279384c2" x="520.849669" y="284.276635" style="stroke: #000000; stroke-width: 0.8"/>
      </g>
     </g>
     <g id="text_7">
      <text style="font: 18px 'Arial'; text-anchor: middle" x="520.849669" y="304.160697" transform="rotate(-0, 520.849669, 304.160697)">600</text>
     </g>
    </g>
    <g id="text_8">
     <text style="font: 18px 'Arial'; text-anchor: middle" x="316.850781" y="324.62226" transform="rotate(-0, 316.850781, 324.62226)">x pixel</text>
    </g>
   </g>
   <g id="matplotlib.axis_2">
    <g id="ytick_1">
     <g id="line2d_8">
      <defs>
       <path id="m888854db3b" d="M 0 0 
L -3.5 0 
" style="stroke: #000000; stroke-width: 0.8"/>
      </defs>
      <g>
       <use xlink:href="#m888854db3b" x="60.701802" y="271.491344" style="stroke: #000000; stroke-width: 0.8"/>
      </g>
     </g>
     <g id="text_9">
      <text style="font: 18px 'Arial'; text-anchor: end" x="53.701802" y="277.933376" transform="rotate(-0, 53.701802, 277.933376)">0</text>
     </g>
    </g>
    <g id="ytick_2">
     <g id="line2d_9">
      <g>
       <use xlink:href="#m888854db3b" x="60.701802" y="225.167827" style="stroke: #000000; stroke-width: 0.8"/>
      </g>
     </g>
     <g id="text_10">
      <text style="font: 18px 'Arial'; text-anchor: end" x="53.701802" y="231.609859" transform="rotate(-0, 53.701802, 231.609859)">25</text>
     </g>
    </g>
    <g id="ytick_3">
     <g id="line2d_10">
      <g>
       <use xlink:href="#m888854db3b" x="60.701802" y="178.84431" style="stroke: #000000; stroke-width: 0.8"/>
      </g>
     </g>
     <g id="text_11">
      <text style="font: 18px 'Arial'; text-anchor: end" x="53.701802" y="185.286342" transform="rotate(-0, 53.701802, 185.286342)">50</text>
     </g>
    </g>
    <g id="ytick_4">
     <g id="line2d_11">
      <g>
       <use xlink:href="#m888854db3b" x="60.701802" y="132.520793" style="stroke: #000000; stroke-width: 0.8"/>
      </g>
     </g>
     <g id="text_12">
      <text style="font: 18px 'Arial'; text-anchor: end" x="53.701802" y="138.962825" transform="rotate(-0, 53.701802, 138.962825)">75</text>
     </g>
    </g>
    <g id="ytick_5">
     <g id="line2d_12">
      <g>
       <use xlink:href="#m888854db3b" x="60.701802" y="86.197276" style="stroke: #000000; stroke-width: 0.8"/>
      </g>
     </g>
     <g id="text_13">
      <text style="font: 18px 'Arial'; text-anchor: end" x="53.701802" y="92.639308" transform="rotate(-0, 53.701802, 92.639308)">100</text>
     </g>
    </g>
    <g id="ytick_6">
     <g id="line2d_13">
      <g>
       <use xlink:href="#m888854db3b" x="60.701802" y="39.87376" style="stroke: #000000; stroke-width: 0.8"/>
      </g>
     </g>
     <g id="text_14">
      <text style="font: 18px 'Arial'; text-anchor: end" x="53.701802" y="46.315791" transform="rotate(-0, 53.701802, 46.315791)">125</text>
     </g>
    </g>
    <g id="text_15">
     <text style="font: 18px 'Arial'; text-anchor: middle" x="15.884303" y="143.638437" transform="rotate(-90, 15.884303, 143.638437)">Intensity [a.u.]</text>
    </g>
   </g>
   <g id="line2d_14">
    <path d="M 60.701802 239.991353 
L 61.468716 271.491344 
L 68.370934 271.491344 
L 69.137847 269.638404 
L 69.90476 271.491344 
L 72.205499 271.491344 
L 72.972412 238.138412 
L 73.739325 134.373734 
L 74.506238 254.814878 
L 75.273152 271.491344 
L 79.107717 271.491344 
L 79.87463 243.697234 
L 80.641543 232.57959 
L 81.408456 269.638404 
L 82.17537 254.814878 
L 82.942283 210.344302 
L 83.709196 262.226641 
L 84.476109 271.491344 
L 90.611414 271.491344 
L 91.378327 258.52076 
L 92.14524 223.314887 
L 92.912153 265.932522 
L 93.679066 269.638404 
L 94.445979 271.491344 
L 95.212892 271.491344 
L 95.979806 269.638404 
L 96.746719 232.57959 
L 97.513632 241.844293 
L 98.280545 271.491344 
L 100.581284 271.491344 
L 101.348197 258.52076 
L 102.11511 221.461946 
L 102.882024 264.079582 
L 103.648937 271.491344 
L 104.41585 271.491344 
L 105.182763 269.638404 
L 105.949676 219.609005 
L 106.716589 239.991353 
L 107.483502 271.491344 
L 111.318068 271.491344 
L 112.084981 269.638404 
L 112.851894 269.638404 
L 113.618807 271.491344 
L 114.38572 269.638404 
L 115.152633 271.491344 
L 127.423243 271.491344 
L 128.190156 239.991353 
L 128.957069 193.667836 
L 129.723982 267.785463 
L 131.257809 271.491344 
L 144.295331 271.491344 
L 145.062245 269.638404 
L 145.829158 271.491344 
L 146.596071 249.256056 
L 147.362984 230.726649 
L 148.129897 269.638404 
L 148.89681 271.491344 
L 151.197549 271.491344 
L 151.964463 269.638404 
L 152.731376 232.57959 
L 153.498289 245.550175 
L 154.265202 269.638404 
L 155.032115 234.432531 
L 155.799028 223.314887 
L 156.565941 271.491344 
L 157.332854 271.491344 
L 158.099767 262.226641 
L 158.866681 227.020768 
L 159.633594 254.814878 
L 160.400507 126.961971 
L 161.16742 176.99137 
L 161.934333 191.814895 
L 162.701246 238.138412 
L 163.468159 269.638404 
L 164.235072 271.491344 
L 171.13729 271.491344 
L 171.904203 236.285471 
L 172.671117 247.403115 
L 173.43803 271.491344 
L 174.971856 271.491344 
L 175.738769 256.667819 
L 176.505682 225.167827 
L 177.272595 265.932522 
L 178.039508 252.961938 
L 178.806421 136.226675 
L 179.573335 236.285471 
L 180.340248 271.491344 
L 188.776292 271.491344 
L 189.543205 269.638404 
L 190.310118 212.197243 
L 191.843944 269.638404 
L 192.610857 271.491344 
L 193.377771 228.873709 
L 194.144684 197.373717 
L 194.911597 269.638404 
L 195.67851 269.638404 
L 196.445423 271.491344 
L 215.618251 271.491344 
L 216.385164 265.932522 
L 217.152077 223.314887 
L 217.91899 254.814878 
L 218.685903 219.609005 
L 219.452816 239.991353 
L 220.219729 271.491344 
L 226.355034 271.491344 
L 227.121947 269.638404 
L 227.88886 271.491344 
L 231.723426 271.491344 
L 232.490339 252.961938 
L 233.257252 215.903124 
L 234.024165 265.932522 
L 234.791078 262.226641 
L 235.557992 188.109014 
L 236.324905 247.403115 
L 237.091818 269.638404 
L 237.858731 271.491344 
L 240.15947 271.491344 
L 241.693296 227.020768 
L 242.46021 269.638404 
L 243.227123 271.491344 
L 243.994036 271.491344 
L 244.760949 269.638404 
L 245.527862 271.491344 
L 246.294775 271.491344 
L 247.061688 269.638404 
L 247.828601 217.756065 
L 248.595514 230.726649 
L 249.362428 271.491344 
L 250.896254 271.491344 
L 251.663167 269.638404 
L 252.43008 269.638404 
L 253.196993 271.491344 
L 256.264646 271.491344 
L 257.031559 230.726649 
L 257.798472 241.844293 
L 258.565385 271.491344 
L 259.332298 245.550175 
L 260.099211 228.873709 
L 260.866124 269.638404 
L 261.633037 269.638404 
L 262.39995 258.52076 
L 263.166864 199.226658 
L 263.933777 258.52076 
L 264.70069 271.491344 
L 275.437473 271.491344 
L 276.204386 227.020768 
L 276.9713 238.138412 
L 277.738213 269.638404 
L 278.505126 271.491344 
L 279.272039 271.491344 
L 280.038952 269.638404 
L 280.805865 271.491344 
L 281.572778 267.785463 
L 282.339691 223.314887 
L 283.106604 260.3737 
L 283.873518 228.873709 
L 284.640431 152.903141 
L 285.407344 215.903124 
L 286.174257 269.638404 
L 286.94117 243.697234 
L 287.708083 206.638421 
L 288.474996 228.873709 
L 289.241909 269.638404 
L 290.008822 252.961938 
L 290.775736 197.373717 
L 291.542649 260.3737 
L 292.309562 271.491344 
L 295.377214 271.491344 
L 296.144127 227.020768 
L 296.91104 214.050183 
L 297.677953 269.638404 
L 298.444867 271.491344 
L 300.745606 271.491344 
L 301.512519 269.638404 
L 302.279432 271.491344 
L 303.046345 271.491344 
L 303.813258 214.050183 
L 304.580171 230.726649 
L 305.347085 271.491344 
L 309.18165 271.491344 
L 309.948563 265.932522 
L 310.715476 225.167827 
L 311.482389 258.52076 
L 312.249303 271.491344 
L 315.316955 271.491344 
L 316.083868 269.638404 
L 316.850781 271.491344 
L 318.384607 271.491344 
L 319.151521 269.638404 
L 319.918434 271.491344 
L 320.685347 271.491344 
L 321.45226 267.785463 
L 322.219173 191.814895 
L 322.986086 225.167827 
L 323.752999 271.491344 
L 324.519912 269.638404 
L 325.286825 271.491344 
L 326.053739 271.491344 
L 326.820652 249.256056 
L 327.587565 206.638421 
L 328.354478 264.079582 
L 329.121391 269.638404 
L 329.888304 271.491344 
L 334.489783 271.491344 
L 335.256696 269.638404 
L 336.023609 271.491344 
L 342.158914 271.491344 
L 342.925827 202.932539 
L 343.69274 193.667836 
L 344.459653 271.491344 
L 347.527306 271.491344 
L 348.294219 267.785463 
L 349.061132 223.314887 
L 349.828045 254.814878 
L 350.594958 271.491344 
L 353.662611 271.491344 
L 354.429524 249.256056 
L 355.196437 212.197243 
L 355.96335 267.785463 
L 356.730263 271.491344 
L 357.497176 269.638404 
L 358.264089 271.491344 
L 359.031002 269.638404 
L 359.797915 227.020768 
L 360.564829 247.403115 
L 361.331742 271.491344 
L 377.436917 271.491344 
L 378.20383 267.785463 
L 378.970743 228.873709 
L 379.737656 249.256056 
L 380.504569 219.609005 
L 381.271482 212.197243 
L 382.038396 271.491344 
L 383.572222 271.491344 
L 384.339135 269.638404 
L 385.106048 271.491344 
L 385.872961 271.491344 
L 386.639874 265.932522 
L 387.406787 208.491361 
L 388.1737 243.697234 
L 388.940614 271.491344 
L 391.241353 271.491344 
L 392.008266 269.638404 
L 392.775179 271.491344 
L 393.542092 271.491344 
L 394.309005 269.638404 
L 395.075918 271.491344 
L 395.842832 269.638404 
L 396.609745 271.491344 
L 398.143571 271.491344 
L 398.910484 239.991353 
L 399.677397 241.844293 
L 400.44431 269.638404 
L 401.211223 271.491344 
L 401.978136 271.491344 
L 402.74505 269.638404 
L 403.511963 271.491344 
L 404.278876 269.638404 
L 405.045789 271.491344 
L 405.812702 271.491344 
L 406.579615 267.785463 
L 407.346528 175.138429 
L 408.113441 208.491361 
L 408.880354 269.638404 
L 409.647268 271.491344 
L 413.481833 271.491344 
L 414.248746 269.638404 
L 415.015659 271.491344 
L 416.549486 271.491344 
L 417.316399 269.638404 
L 418.083312 238.138412 
L 418.850225 234.432531 
L 419.617138 271.491344 
L 420.384051 252.961938 
L 421.150964 225.167827 
L 421.917877 267.785463 
L 422.68479 271.491344 
L 423.451704 269.638404 
L 424.218617 271.491344 
L 424.98553 267.785463 
L 425.752443 208.491361 
L 427.286269 271.491344 
L 428.053182 271.491344 
L 428.820095 241.844293 
L 429.587008 175.138429 
L 430.353922 178.84431 
L 431.120835 223.314887 
L 431.887748 256.667819 
L 432.654661 178.84431 
L 433.421574 173.285488 
L 434.188487 251.108997 
L 434.9554 219.609005 
L 435.722313 245.550175 
L 436.489226 228.873709 
L 437.25614 234.432531 
L 438.023053 271.491344 
L 438.789966 271.491344 
L 439.556879 256.667819 
L 440.323792 204.78548 
L 441.090705 175.138429 
L 441.857618 197.373717 
L 442.624531 212.197243 
L 443.391444 258.52076 
L 444.158358 269.638404 
L 444.925271 227.020768 
L 445.692184 245.550175 
L 446.459097 271.491344 
L 447.22601 225.167827 
L 447.992923 202.932539 
L 448.759836 267.785463 
L 449.526749 271.491344 
L 450.293662 271.491344 
L 451.060576 260.3737 
L 451.827489 162.167844 
L 452.594402 162.167844 
L 453.361315 245.550175 
L 454.128228 215.903124 
L 454.895141 239.991353 
L 455.662054 271.491344 
L 456.428967 271.491344 
L 457.19588 256.667819 
L 457.962793 219.609005 
L 458.729707 201.079599 
L 459.49662 171.432548 
L 461.030446 254.814878 
L 461.797359 115.844327 
L 462.564272 228.873709 
L 463.331185 184.403132 
L 464.098098 121.403149 
L 464.865011 208.491361 
L 465.631925 271.491344 
L 466.398838 241.844293 
L 467.165751 145.491378 
L 467.932664 93.609039 
L 468.699577 152.903141 
L 469.46649 189.961954 
L 470.233403 260.3737 
L 471.000316 176.99137 
L 471.767229 69.52081 
L 473.301056 262.226641 
L 474.067969 212.197243 
L 474.834882 154.756082 
L 475.601795 154.756082 
L 476.368708 130.667853 
L 477.135621 136.226675 
L 477.902534 265.932522 
L 478.669447 258.52076 
L 479.436361 167.726666 
L 480.203274 171.432548 
L 480.970187 251.108997 
L 481.7371 176.99137 
L 482.504013 232.57959 
L 483.270926 206.638421 
L 484.037839 152.903141 
L 484.804752 223.314887 
L 485.571665 195.520776 
L 486.338579 82.491395 
L 487.105492 184.403132 
L 487.872405 149.19726 
L 488.639318 54.697285 
L 489.406231 15.785531 
L 490.173144 65.814929 
L 490.940057 227.020768 
L 491.70697 269.638404 
L 493.240797 164.020785 
L 494.00771 212.197243 
L 494.774623 271.491344 
L 495.541536 254.814878 
L 496.308449 234.432531 
L 497.075362 269.638404 
L 497.842275 264.079582 
L 498.609188 221.461946 
L 499.376101 260.3737 
L 500.143015 193.667836 
L 500.909928 239.991353 
L 501.676841 184.403132 
L 502.443754 208.491361 
L 503.210667 271.491344 
L 503.97758 271.491344 
L 504.744493 269.638404 
L 505.511406 271.491344 
L 512.413624 271.491344 
L 513.180537 228.873709 
L 513.947451 176.99137 
L 515.481277 267.785463 
L 516.24819 271.491344 
L 517.015103 271.491344 
L 517.782016 265.932522 
L 518.548929 210.344302 
L 519.315842 204.78548 
L 520.082755 254.814878 
L 520.849669 225.167827 
L 521.616582 232.57959 
L 522.383495 271.491344 
L 524.684234 271.491344 
L 525.451147 249.256056 
L 526.21806 178.84431 
L 526.984973 256.667819 
L 527.751887 271.491344 
L 534.654104 271.491344 
L 535.421018 269.638404 
L 536.187931 271.491344 
L 536.954844 271.491344 
L 537.721757 269.638404 
L 538.48867 271.491344 
L 549.225454 271.491344 
L 549.992367 269.638404 
L 550.75928 271.491344 
L 552.293106 271.491344 
L 553.060019 247.403115 
L 553.826932 191.814895 
L 554.593845 262.226641 
L 555.360758 271.491344 
L 556.127672 269.638404 
L 556.894585 269.638404 
L 557.661498 230.726649 
L 558.428411 249.256056 
L 559.195324 271.491344 
L 572.99976 271.491344 
L 572.99976 271.491344 
" clip-path="url(#p65f1cfd75c)" style="fill: none; stroke: #000000; stroke-width: 2; stroke-linecap: square"/>
   </g>
   <g id="line2d_15">
    <path d="M 60.701802 239.991353 
L 61.468716 271.491344 
L 68.370934 271.491344 
L 69.137847 269.638404 
L 69.90476 271.491344 
L 72.205499 271.491344 
L 72.972412 238.138412 
L 73.739325 134.373734 
L 74.506238 254.814878 
L 75.273152 271.491344 
L 79.107717 271.491344 
L 79.87463 243.697234 
L 80.641543 232.57959 
L 81.408456 269.638404 
L 82.17537 254.814878 
L 82.942283 210.344302 
L 83.709196 262.226641 
L 84.476109 271.491344 
L 90.611414 271.491344 
L 91.378327 258.52076 
L 92.14524 223.314887 
L 92.912153 265.932522 
L 93.679066 269.638404 
L 94.445979 271.491344 
L 95.212892 271.491344 
L 95.979806 269.638404 
L 96.746719 232.57959 
L 97.513632 241.844293 
L 98.280545 271.491344 
L 100.581284 271.491344 
L 101.348197 258.52076 
L 102.11511 221.461946 
L 102.882024 264.079582 
L 103.648937 271.491344 
L 104.41585 271.491344 
L 105.182763 269.638404 
L 105.949676 219.609005 
L 106.716589 239.991353 
L 107.483502 271.491344 
L 111.318068 271.491344 
L 112.084981 269.638404 
L 112.851894 269.638404 
L 113.618807 271.491344 
L 114.38572 269.638404 
L 115.152633 271.491344 
L 127.423243 271.491344 
L 128.190156 239.991353 
L 128.957069 193.667836 
L 129.723982 267.785463 
L 131.257809 271.491344 
L 144.295331 271.491344 
L 145.062245 269.638404 
L 145.829158 271.491344 
L 146.596071 249.256056 
L 147.362984 230.726649 
L 148.129897 269.638404 
L 148.89681 271.491344 
L 151.197549 271.491344 
L 151.964463 269.638404 
L 152.731376 232.57959 
L 153.498289 245.550175 
L 154.265202 269.638404 
L 155.032115 234.432531 
L 155.799028 223.314887 
L 156.565941 271.491344 
L 157.332854 271.491344 
L 158.099767 262.226641 
L 158.866681 227.020768 
L 159.633594 254.814878 
L 160.400507 126.961971 
L 161.16742 176.99137 
L 161.934333 191.814895 
L 162.701246 238.138412 
L 163.468159 269.638404 
L 164.235072 271.491344 
L 171.13729 271.491344 
L 171.904203 236.285471 
L 172.671117 247.403115 
L 173.43803 271.491344 
L 174.971856 271.491344 
L 175.738769 256.667819 
L 176.505682 225.167827 
L 177.272595 265.932522 
L 178.039508 252.961938 
L 178.806421 136.226675 
L 179.573335 236.285471 
L 180.340248 271.491344 
L 188.776292 271.491344 
L 189.543205 269.638404 
L 190.310118 212.197243 
L 191.843944 269.638404 
L 192.610857 271.491344 
L 193.377771 228.873709 
L 194.144684 197.373717 
L 194.911597 269.638404 
L 195.67851 269.638404 
L 196.445423 271.491344 
L 215.618251 271.491344 
L 216.385164 265.932522 
L 217.152077 223.314887 
L 217.91899 254.814878 
L 218.685903 219.609005 
L 219.452816 239.991353 
L 220.219729 271.491344 
L 226.355034 271.491344 
L 227.121947 269.638404 
L 227.88886 271.491344 
L 231.723426 271.491344 
L 232.490339 252.961938 
L 233.257252 215.903124 
L 234.024165 265.932522 
L 234.791078 262.226641 
L 235.557992 188.109014 
L 236.324905 247.403115 
L 237.091818 269.638404 
L 237.858731 271.491344 
L 240.15947 271.491344 
L 241.693296 227.020768 
L 242.46021 269.638404 
L 243.227123 271.491344 
L 243.994036 271.491344 
L 244.760949 269.638404 
L 245.527862 271.491344 
L 246.294775 271.491344 
L 247.061688 269.638404 
L 247.828601 217.756065 
L 248.595514 230.726649 
L 249.362428 271.491344 
L 250.896254 271.491344 
L 251.663167 269.638404 
L 252.43008 269.638404 
L 253.196993 271.491344 
L 256.264646 271.491344 
L 257.031559 230.726649 
L 257.798472 241.844293 
L 258.565385 271.491344 
L 259.332298 245.550175 
L 260.099211 228.873709 
L 260.866124 269.638404 
L 261.633037 269.638404 
L 262.39995 258.52076 
L 263.166864 199.226658 
L 263.933777 258.52076 
L 264.70069 271.491344 
L 275.437473 271.491344 
L 276.204386 228.873709 
L 276.9713 239.991353 
L 277.738213 271.491344 
L 280.805865 271.491344 
L 281.572778 269.638404 
L 282.339691 227.020768 
L 283.106604 262.226641 
L 283.873518 230.726649 
L 284.640431 154.756082 
L 285.407344 217.756065 
L 286.174257 271.491344 
L 286.94117 245.550175 
L 287.708083 208.491361 
L 288.474996 230.726649 
L 289.241909 271.491344 
L 290.008822 254.814878 
L 290.775736 199.226658 
L 291.542649 262.226641 
L 292.309562 271.491344 
L 295.377214 271.491344 
L 296.144127 228.873709 
L 296.91104 215.903124 
L 297.677953 271.491344 
L 300.745606 271.491344 
L 301.512519 269.638404 
L 302.279432 271.491344 
L 303.046345 271.491344 
L 303.813258 214.050183 
L 304.580171 230.726649 
L 305.347085 271.491344 
L 309.18165 271.491344 
L 309.948563 265.932522 
L 310.715476 227.020768 
L 311.482389 260.3737 
L 312.249303 271.491344 
L 320.685347 271.491344 
L 321.45226 269.638404 
L 322.219173 193.667836 
L 322.986086 227.020768 
L 323.752999 271.491344 
L 326.053739 271.491344 
L 326.820652 251.108997 
L 327.587565 208.491361 
L 328.354478 265.932522 
L 329.121391 271.491344 
L 342.158914 271.491344 
L 342.925827 202.932539 
L 343.69274 193.667836 
L 344.459653 271.491344 
L 347.527306 271.491344 
L 348.294219 267.785463 
L 349.061132 223.314887 
L 349.828045 254.814878 
L 350.594958 271.491344 
L 353.662611 271.491344 
L 354.429524 249.256056 
L 355.196437 212.197243 
L 355.96335 267.785463 
L 356.730263 271.491344 
L 357.497176 269.638404 
L 358.264089 271.491344 
L 359.031002 269.638404 
L 359.797915 227.020768 
L 360.564829 247.403115 
L 361.331742 271.491344 
L 377.436917 271.491344 
L 378.20383 267.785463 
L 378.970743 228.873709 
L 379.737656 249.256056 
L 380.504569 219.609005 
L 381.271482 212.197243 
L 382.038396 271.491344 
L 383.572222 271.491344 
L 384.339135 269.638404 
L 385.106048 271.491344 
L 385.872961 271.491344 
L 386.639874 265.932522 
L 387.406787 208.491361 
L 388.1737 243.697234 
L 388.940614 271.491344 
L 391.241353 271.491344 
L 392.008266 269.638404 
L 392.775179 271.491344 
L 393.542092 271.491344 
L 394.309005 269.638404 
L 395.075918 271.491344 
L 395.842832 269.638404 
L 396.609745 271.491344 
L 398.143571 271.491344 
L 398.910484 239.991353 
L 399.677397 241.844293 
L 400.44431 269.638404 
L 401.211223 271.491344 
L 401.978136 271.491344 
L 402.74505 269.638404 
L 403.511963 271.491344 
L 404.278876 269.638404 
L 405.045789 271.491344 
L 405.812702 271.491344 
L 406.579615 267.785463 
L 407.346528 175.138429 
L 408.113441 208.491361 
L 408.880354 269.638404 
L 409.647268 271.491344 
L 413.481833 271.491344 
L 414.248746 269.638404 
L 415.015659 271.491344 
L 416.549486 271.491344 
L 417.316399 269.638404 
L 418.083312 239.991353 
L 418.850225 236.285471 
L 419.617138 271.491344 
L 420.384051 254.814878 
L 421.150964 227.020768 
L 421.917877 269.638404 
L 422.68479 271.491344 
L 424.218617 271.491344 
L 424.98553 269.638404 
L 425.752443 210.344302 
L 427.286269 271.491344 
L 428.053182 271.491344 
L 428.820095 243.697234 
L 429.587008 176.99137 
L 430.353922 180.697251 
L 431.120835 225.167827 
L 431.887748 260.3737 
L 432.654661 182.550192 
L 433.421574 176.99137 
L 434.188487 256.667819 
L 434.9554 225.167827 
L 435.722313 252.961938 
L 436.489226 236.285471 
L 437.25614 241.844293 
L 438.023053 271.491344 
L 438.789966 271.491344 
L 439.556879 265.932522 
L 440.323792 215.903124 
L 441.090705 186.256073 
L 441.857618 210.344302 
L 442.624531 225.167827 
L 443.391444 271.491344 
L 444.158358 271.491344 
L 444.925271 241.844293 
L 445.692184 260.3737 
L 446.459097 271.491344 
L 447.22601 245.550175 
L 447.992923 225.167827 
L 448.759836 271.491344 
L 451.060576 271.491344 
L 451.827489 189.961954 
L 452.594402 191.814895 
L 453.361315 271.491344 
L 454.128228 251.108997 
L 454.895141 271.491344 
L 457.19588 271.491344 
L 457.962793 260.3737 
L 458.729707 241.844293 
L 459.49662 214.050183 
L 460.263533 256.667819 
L 461.030446 271.491344 
L 461.797359 165.873726 
L 462.564272 271.491344 
L 463.331185 238.138412 
L 464.098098 178.84431 
L 464.865011 265.932522 
L 465.631925 271.491344 
L 466.398838 271.491344 
L 467.165751 204.78548 
L 467.932664 154.756082 
L 468.699577 217.756065 
L 469.46649 254.814878 
L 470.233403 271.491344 
L 471.000316 243.697234 
L 471.767229 138.079615 
L 472.534143 241.844293 
L 473.301056 271.491344 
L 474.067969 271.491344 
L 474.834882 227.020768 
L 475.601795 227.020768 
L 476.368708 202.932539 
L 477.135621 208.491361 
L 477.902534 271.491344 
L 478.669447 271.491344 
L 479.436361 239.991353 
L 480.203274 243.697234 
L 480.970187 271.491344 
L 481.7371 245.550175 
L 482.504013 271.491344 
L 483.270926 271.491344 
L 484.037839 217.756065 
L 484.804752 271.491344 
L 485.571665 254.814878 
L 486.338579 141.785497 
L 487.105492 239.991353 
L 487.872405 199.226658 
L 488.639318 102.873743 
L 489.406231 62.109048 
L 490.173144 112.138446 
L 490.940057 271.491344 
L 491.70697 271.491344 
L 492.473883 262.226641 
L 493.240797 204.78548 
L 494.00771 249.256056 
L 494.774623 271.491344 
L 495.541536 271.491344 
L 496.308449 264.079582 
L 497.075362 271.491344 
L 497.842275 271.491344 
L 498.609188 241.844293 
L 499.376101 271.491344 
L 500.143015 210.344302 
L 500.909928 254.814878 
L 501.676841 197.373717 
L 502.443754 219.609005 
L 503.210667 271.491344 
L 512.413624 271.491344 
L 513.180537 230.726649 
L 513.947451 178.84431 
L 515.481277 269.638404 
L 516.24819 271.491344 
L 517.015103 271.491344 
L 517.782016 267.785463 
L 518.548929 212.197243 
L 519.315842 204.78548 
L 520.082755 254.814878 
L 520.849669 225.167827 
L 521.616582 232.57959 
L 522.383495 271.491344 
L 524.684234 271.491344 
L 525.451147 249.256056 
L 526.21806 178.84431 
L 526.984973 256.667819 
L 527.751887 271.491344 
L 534.654104 271.491344 
L 535.421018 269.638404 
L 536.187931 271.491344 
L 536.954844 271.491344 
L 537.721757 269.638404 
L 538.48867 271.491344 
L 549.225454 271.491344 
L 549.992367 269.638404 
L 550.75928 271.491344 
L 552.293106 271.491344 
L 553.060019 247.403115 
L 553.826932 191.814895 
L 554.593845 262.226641 
L 555.360758 271.491344 
L 556.127672 269.638404 
L 556.894585 269.638404 
L 557.661498 230.726649 
L 558.428411 249.256056 
L 559.195324 271.491344 
L 572.99976 271.491344 
L 572.99976 271.491344 
" clip-path="url(#p65f1cfd75c)" style="fill: none; stroke: #d62728; stroke-width: 1.8; stroke-linecap: square"/>
   </g>
   <g id="patch_3">
    <path d="M 60.701802 284.276635 
L 60.701802 3.00024 
" style="fill: none; stroke: #000000; stroke-linejoin: miter; stroke-linecap: square"/>
   </g>
   <g id="patch_4">
    <path d="M 572.99976 284.276635 
L 572.99976 3.00024 
" style="fill: none; stroke: #000000; stroke-linejoin: miter; stroke-linecap: square"/>
   </g>
   <g id="patch_5">
    <path d="M 60.701802 284.276635 
L 572.99976 284.276635 
" style="fill: none; stroke: #000000; stroke-linejoin: miter; stroke-linecap: square"/>
   </g>
   <g id="patch_6">
    <path d="M 60.701802 3.00024 
L 572.99976 3.00024 
" style="fill: none; stroke: #000000; stroke-linejoin: miter; stroke-linecap: square"/>
   </g>
   <g id="legend_1">
    <g id="patch_7">
     <path d="M 319.69476 68.74524 
L 560.39976 68.74524 
Q 563.99976 68.74524 563.99976 65.14524 
L 563.99976 15.60024 
Q 563.99976 12.00024 560.39976 12.00024 
L 319.69476 12.00024 
Q 316.09476 12.00024 316.09476 15.60024 
L 316.09476 65.14524 
Q 316.09476 68.74524 319.69476 68.74524 
z
" style="fill: #ffffff; opacity: 0.8; stroke: #cccccc; stroke-linejoin: miter"/>
    </g>
    <g id="line2d_16">
     <path d="M 323.29476 25.784302 
L 341.29476 25.784302 
L 359.29476 25.784302 
" style="fill: none; stroke: #000000; stroke-width: 2; stroke-linecap: square"/>
    </g>
    <g id="text_16">
     <text style="font: 18px 'Arial'; text-anchor: start" x="373.69476" y="32.084302" transform="rotate(-0, 373.69476, 32.084302)">raw intensity</text>
    </g>
    <g id="line2d_17">
     <path d="M 323.29476 51.456802 
L 341.29476 51.456802 
L 359.29476 51.456802 
" style="fill: none; stroke: #d62728; stroke-width: 1.8; stroke-linecap: square"/>
    </g>
    <g id="text_17">
     <text style="font: 18px 'Arial'; text-anchor: start" x="373.69476" y="57.756802" transform="rotate(-0, 373.69476, 57.756802)">background subtracted</text>
    </g>
   </g>
  </g>
 </g>
 <defs>
  <clipPath id="p65f1cfd75c">
   <rect x="60.701802" y="3.00024" width="512.297958" height="281.276395"/>
  </clipPath>
 </defs>
</svg>
