<?xml version="1.0" encoding="utf-8" standalone="no"?>
<!DOCTYPE svg PUBLIC "-//W3C//DTD SVG 1.1//EN"
  "http://www.w3.org/Graphics/SVG/1.1/DTD/svg11.dtd">
<svg xmlns:xlink="http://www.w3.org/1999/xlink" width="576pt" height="331.2pt" viewBox="0 0 576 331.2" xmlns="http://www.w3.org/2000/svg" version="1.1">
 <metadata>
  <rdf:RDF xmlns:dc="http://purl.org/dc/elements/1.1/" xmlns:cc="http://creativecommons.org/ns#" xmlns:rdf="http://www.w3.org/1999/02/22-rdf-syntax-ns#">
   <cc:Work>
    <dc:type rdf:resource="http://purl.org/dc/dcmitype/StillImage"/>
    <dc:date>2026-07-11T15:46:07.307479</dc:date>
    <dc:format>image/svg+xml</dc:format>
    <dc:creator>
     <cc:Agent>
      <dc:title>Matplotlib v3.5.1, https://matplotlib.org/</dc:title>
     </cc:Agent>
    </dc:creator>
   </cc:Work>
  </rdf:RDF>
 </metadata>
 <defs>
  <style type="text/css">*{stroke-linejoin: round; stroke-linecap: butt}</style>
 </defs>
 <g id="figure_1">
  <g id="patch_1">
   <path d="M 0 331.2 
L 576 331.2 
L 576 0 
L 0 0 
z
" style="fill: #ffffff"/>
  </g>
  <g id="axes_1">
   <g id="patch_2">
    <path d="M 60.701802 284.276635 
L 572.99976 284.276635 
L 572.99976 3.00024 
L 60.701802 3.00024 
z
" style="fill: #ffffff"/>
   </g>
   <g id="matplotlib.axis_1">
    <g id="xtick_1">
     <g id="line2d_1">
      <defs>
       <path id="mcd24074b9e" d="M 0 0 
L 0 3.5 
" style="stroke: #000000; stroke-width: 0.8"/>
      </defs>
      <g>
       <use xlink:href="#mcd24074b9e" x="60.701802" y="284.276635" style="stroke: #000000; stroke-width: 0.8"/>
      </g>
     </g>
     <g id="text_1">
      <text style="font: 18px 'Arial'; text-anchor: middle" x="60.701802" y="304.160697" transform="rotate(-0, 60.701802, 304.160697)">0</text>
     </g>
    </g>
    <g id="xtick_2">
     <g id="line2d_2">
      <g>
       <use xlink:href="#mcd24074b9e" x="137.393114" y="284.276635" style="stroke: #000000; stroke-width: 0.8"/>
      </g>
     </g>
     <g id="text_2">
      <text style="font: 18px 'Arial'; text-anchor: middle" x="137.393114" y="304.160697" transform="rotate(-0, 137.393114, 304.160697)">100</text>
     </g>
    </g>
    <g id="xtick_3">
     <g id="line2d_3">
      <g>
       <use xlink:href="#mcd24074b9e" x="214.084425" y="284.276635" style="stroke: #000000; stroke-width: 0.8"/>
      </g>
     </g>
     <g id="text_3">
      <text style="font: 18px 'Arial'; text-anchor: middle" x="214.084425" y="304.160697" transform="rotate(-0, 214.084425, 304.160697)">200</text>
     </g>
    </g>
    <g id="xtick_4">
     <g id="line2d_4">
      <g>
       <use xlink:href="#mcd24074b9e" x="290.775736" y="284.276635" style="stroke: #000000; stroke-width: 0.8"/>
      </g>
     </g>
     <g id="text_4">
      <text style="font: 18px 'Arial'; text-anchor: middle" x="290.775736" y="304.160697" transform="rotate(-0, 290.775736, 304.160697)">300</text>
     </g>
    </g>
    <g id="xtick_5">
     <g id="line2d_5">
      <g>
       <use xlink:href="#mcd24074b9e" x="367.467047" y="284.276635" style="stroke: #000000; stroke-width: 0.8"/>
      </g>
     </g>
     <g id="text_5">
      <text style="font: 18px 'Arial'; text-anchor: middle" x="367.467047" y="304.160697" transform="rotate(-0, 367.467047, 304.160697)">400</text>
     </g>
    </g>
    <g id="xtick_6">
     <g id="line2d_6">
      <g>
       <use xlink:href="#mcd24074b9e" x="444.158358" y="284.276635" style="stroke: #000000; stroke-width: 0.8"/>
      </g>
     </g>
     <g id="text_6">
      <text style="font: 18px 'Arial'; text-anchor: middle" x="444.158358" y="304.160697" transform="rotate(-0, 444.158358, 304.160697)">500</text>
     </g>
    </g>
    <g id="xtick_7">
     <g id="line2d_7">
      <g>
       <use xlink:href="#mcd24074b9e" x="520.849669" y="284.276635" style="stroke: #000000; stroke-width: 0.8"/>
      </g>
     </g>
     <g id="text_7">
      <text style="font: 18px 'Arial'; text-anchor: middle" x="520.849669" y="304.160697" transform="rotate(-0, 520.849669, 304.160697)">600</text>
     </g>
    </g>
    <g id="text_8">
     <text style="font: 18px 'Arial'; text-anchor: middle" x="316.850781" y="324.62226" transform="rotate(-0, 316.850781, 324.62226)">x pixel</text>
    </g>
   </g>
   <g id="matplotlib.axis_2">
    <g id="ytick_1">
     <g id="line2d_8">
      <defs>
       <path id="m2883075b94" d="M 0 0 
L -3.5 0 
" style="stroke: #000000; stroke-width: 0.8"/>
      </defs>
      <g>
       <use xlink:href="#m2883075b94" x="60.701802" y="271.491344" style="stroke: #000000; stroke-width: 0.8"/>
      </g>
     </g>
     <g id="text_9">
      <text style="font: 18px 'Arial'; text-anchor: end" x="53.701802" y="277.933376" transform="rotate(-0, 53.701802, 277.933376)">0</text>
     </g>
    </g>
    <g id="ytick_2">
     <g id="line2d_9">
      <g>
       <use xlink:href="#m2883075b94" x="60.701802" y="223.695865" style="stroke: #000000; stroke-width: 0.8"/>
      </g>
     </g>
     <g id="text_10">
      <text style="font: 18px 'Arial'; text-anchor: end" x="53.701802" y="230.137896" transform="rotate(-0, 53.701802, 230.137896)">20</text>
     </g>
    </g>
    <g id="ytick_3">
     <g id="line2d_10">
      <g>
       <use xlink:href="#m2883075b94" x="60.701802" y="175.900386" style="stroke: #000000; stroke-width: 0.8"/>
      </g>
     </g>
     <g id="text_11">
      <text style="font: 18px 'Arial'; text-anchor: end" x="53.701802" y="182.342417" transform="rotate(-0, 53.701802, 182.342417)">40</text>
     </g>
    </g>
    <g id="ytick_4">
     <g id="line2d_11">
      <g>
       <use xlink:href="#m2883075b94" x="60.701802" y="128.104907" style="stroke: #000000; stroke-width: 0.8"/>
      </g>
     </g>
     <g id="text_12">
      <text style="font: 18px 'Arial'; text-anchor: end" x="53.701802" y="134.546938" transform="rotate(-0, 53.701802, 134.546938)">60</text>
     </g>
    </g>
    <g id="ytick_5">
     <g id="line2d_12">
      <g>
       <use xlink:href="#m2883075b94" x="60.701802" y="80.309428" style="stroke: #000000; stroke-width: 0.8"/>
      </g>
     </g>
     <g id="text_13">
      <text style="font: 18px 'Arial'; text-anchor: end" x="53.701802" y="86.751459" transform="rotate(-0, 53.701802, 86.751459)">80</text>
     </g>
    </g>
    <g id="ytick_6">
     <g id="line2d_13">
      <g>
       <use xlink:href="#m2883075b94" x="60.701802" y="32.513948" style="stroke: #000000; stroke-width: 0.8"/>
      </g>
     </g>
     <g id="text_14">
      <text style="font: 18px 'Arial'; text-anchor: end" x="53.701802" y="38.95598" transform="rotate(-0, 53.701802, 38.95598)">100</text>
     </g>
    </g>
    <g id="text_15">
     <text style="font: 18px 'Arial'; text-anchor: middle" x="15.884303" y="143.638437" transform="rotate(-90, 15.884303, 143.638437)">Intensity [a.u.]</text>
    </g>
   </g>
   <g id="line2d_14">
    <path d="M 60.701802 271.491344 
L 77.573891 271.491344 
L 78.340804 233.254961 
L 79.107717 238.034509 
L 79.87463 271.491344 
L 92.912153 271.491344 
L 93.679066 269.10157 
L 95.212892 269.10157 
L 95.979806 271.491344 
L 99.814371 271.491344 
L 100.581284 269.10157 
L 101.348197 271.491344 
L 119.754112 271.491344 
L 120.521025 242.814057 
L 121.287938 137.664003 
L 122.054851 249.983379 
L 122.821764 271.491344 
L 123.588678 269.10157 
L 124.355591 269.10157 
L 125.122504 214.136769 
L 125.889417 230.865187 
L 126.65633 242.814057 
L 127.423243 230.865187 
L 128.190156 252.373153 
L 128.957069 221.306091 
L 129.723982 266.711796 
L 130.490896 271.491344 
L 138.92694 271.491344 
L 139.693853 252.373153 
L 140.460766 178.29016 
L 141.227679 252.373153 
L 141.994592 271.491344 
L 160.400507 271.491344 
L 161.16742 269.10157 
L 161.934333 226.085639 
L 163.468159 269.10157 
L 164.235072 271.491344 
L 165.768899 271.491344 
L 166.535812 245.203831 
L 167.302725 192.628804 
L 168.069638 261.932248 
L 168.836551 271.491344 
L 187.242466 271.491344 
L 188.009379 269.10157 
L 188.776292 271.491344 
L 195.67851 271.491344 
L 196.445423 257.152701 
L 197.212336 190.23903 
L 197.979249 252.373153 
L 198.746162 269.10157 
L 199.513075 269.10157 
L 200.279989 228.475413 
L 201.046902 240.424283 
L 201.813815 271.491344 
L 220.986642 271.491344 
L 221.753556 269.10157 
L 222.520469 271.491344 
L 227.121947 271.491344 
L 227.88886 269.10157 
L 228.655774 271.491344 
L 229.422687 230.865187 
L 230.1896 235.644735 
L 230.956513 271.491344 
L 231.723426 271.491344 
L 232.490339 269.10157 
L 233.257252 259.542475 
L 234.024165 216.526543 
L 234.791078 261.932248 
L 235.557992 271.491344 
L 270.069082 271.491344 
L 270.835995 269.10157 
L 271.602908 261.932248 
L 272.369821 216.526543 
L 273.136734 259.542475 
L 273.903647 271.491344 
L 274.67056 269.10157 
L 275.437473 197.408352 
L 276.204386 226.085639 
L 276.9713 269.10157 
L 277.738213 271.491344 
L 279.272039 271.491344 
L 280.038952 247.593605 
L 280.805865 183.069708 
L 281.572778 259.542475 
L 282.339691 271.491344 
L 283.106604 269.10157 
L 284.640431 269.10157 
L 285.407344 204.577673 
L 286.174257 223.695865 
L 286.94117 211.746995 
L 287.708083 61.191236 
L 288.474996 82.699202 
L 289.241909 264.322022 
L 290.008822 240.424283 
L 290.775736 130.494681 
L 291.542649 249.983379 
L 292.309562 269.10157 
L 293.076475 271.491344 
L 295.377214 271.491344 
L 296.144127 238.034509 
L 296.91104 228.475413 
L 297.677953 271.491344 
L 300.745606 271.491344 
L 301.512519 266.711796 
L 302.279432 192.628804 
L 303.046345 245.203831 
L 303.813258 271.491344 
L 304.580171 269.10157 
L 305.347085 238.034509 
L 306.113998 228.475413 
L 306.880911 271.491344 
L 316.083868 271.491344 
L 316.850781 223.695865 
L 317.617694 144.833324 
L 318.384607 261.932248 
L 319.151521 271.491344 
L 323.752999 271.491344 
L 324.519912 269.10157 
L 325.286825 249.983379 
L 326.053739 223.695865 
L 326.820652 266.711796 
L 327.587565 266.711796 
L 328.354478 257.152701 
L 329.121391 190.23903 
L 329.888304 252.373153 
L 330.655217 266.711796 
L 331.42213 190.23903 
L 332.189043 235.644735 
L 332.955957 190.23903 
L 333.72287 154.39242 
L 334.489783 242.814057 
L 335.256696 233.254961 
L 336.023609 187.849256 
L 336.790522 264.322022 
L 337.557435 269.10157 
L 338.324348 271.491344 
L 340.625088 271.491344 
L 341.392001 269.10157 
L 342.158914 204.577673 
L 342.925827 214.136769 
L 343.69274 271.491344 
L 357.497176 271.491344 
L 358.264089 269.10157 
L 359.031002 271.491344 
L 375.903091 271.491344 
L 376.670004 269.10157 
L 378.970743 269.10157 
L 379.737656 271.491344 
L 392.775179 271.491344 
L 393.542092 249.983379 
L 394.309005 183.069708 
L 395.075918 252.373153 
L 395.842832 218.916317 
L 396.609745 254.762927 
L 397.376658 271.491344 
L 404.278876 271.491344 
L 405.045789 266.711796 
L 405.812702 221.306091 
L 406.579615 252.373153 
L 407.346528 269.10157 
L 408.113441 271.491344 
L 428.053182 271.491344 
L 428.820095 223.695865 
L 429.587008 190.23903 
L 430.353922 269.10157 
L 431.120835 269.10157 
L 431.887748 271.491344 
L 441.090705 271.491344 
L 441.857618 259.542475 
L 442.624531 195.018578 
L 443.391444 247.593605 
L 444.158358 192.628804 
L 444.925271 235.644735 
L 445.692184 233.254961 
L 446.459097 240.424283 
L 447.22601 269.10157 
L 447.992923 214.136769 
L 448.759836 125.715133 
L 449.526749 187.849256 
L 450.293662 266.711796 
L 451.060576 271.491344 
L 451.827489 261.932248 
L 452.594402 192.628804 
L 453.361315 247.593605 
L 454.128228 271.491344 
L 454.895141 271.491344 
L 455.662054 269.10157 
L 456.428967 269.10157 
L 457.19588 226.085639 
L 457.962793 190.23903 
L 458.729707 269.10157 
L 459.49662 271.491344 
L 460.263533 254.762927 
L 461.030446 173.510612 
L 461.797359 249.983379 
L 462.564272 271.491344 
L 463.331185 271.491344 
L 464.098098 206.967447 
L 464.865011 228.475413 
L 466.398838 204.577673 
L 467.165751 230.865187 
L 467.932664 183.069708 
L 468.699577 266.711796 
L 469.46649 247.593605 
L 470.233403 156.782194 
L 471.000316 252.373153 
L 472.534143 137.664003 
L 473.301056 175.900386 
L 474.067969 254.762927 
L 474.834882 154.39242 
L 475.601795 75.52988 
L 476.368708 204.577673 
L 477.135621 249.983379 
L 477.902534 199.798126 
L 478.669447 261.932248 
L 480.203274 190.23903 
L 480.970187 259.542475 
L 481.7371 271.491344 
L 482.504013 269.10157 
L 483.270926 206.967447 
L 484.037839 216.526543 
L 484.804752 269.10157 
L 486.338579 116.156037 
L 487.105492 261.932248 
L 487.872405 271.491344 
L 488.639318 271.491344 
L 489.406231 266.711796 
L 490.173144 185.459482 
L 490.940057 15.785531 
L 491.70697 180.679934 
L 492.473883 211.746995 
L 493.240797 218.916317 
L 494.00771 271.491344 
L 494.774623 271.491344 
L 495.541536 238.034509 
L 496.308449 161.561742 
L 497.075362 159.171968 
L 497.842275 173.510612 
L 498.609188 257.152701 
L 499.376101 271.491344 
L 500.143015 271.491344 
L 500.909928 266.711796 
L 501.676841 171.120838 
L 502.443754 199.798126 
L 503.210667 271.491344 
L 506.278319 271.491344 
L 507.045233 259.542475 
L 507.812146 195.018578 
L 508.579059 254.762927 
L 509.345972 271.491344 
L 513.180537 271.491344 
L 514.714364 190.23903 
L 515.481277 266.711796 
L 516.24819 271.491344 
L 521.616582 271.491344 
L 522.383495 269.10157 
L 523.150408 271.491344 
L 523.917321 269.10157 
L 524.684234 269.10157 
L 525.451147 259.542475 
L 526.21806 223.695865 
L 526.984973 261.932248 
L 527.751887 271.491344 
L 528.5188 269.10157 
L 529.285713 199.798126 
L 530.819539 271.491344 
L 540.022496 271.491344 
L 540.789409 235.644735 
L 541.556322 230.865187 
L 542.323236 269.10157 
L 543.090149 271.491344 
L 553.826932 271.491344 
L 555.360758 266.711796 
L 556.127672 223.695865 
L 556.894585 257.152701 
L 557.661498 271.491344 
L 558.428411 271.491344 
L 559.195324 209.357221 
L 559.962237 211.746995 
L 560.72915 269.10157 
L 561.496063 271.491344 
L 564.563716 271.491344 
L 565.330629 266.711796 
L 566.097542 218.916317 
L 566.864455 252.373153 
L 567.631368 271.491344 
L 572.99976 271.491344 
L 572.99976 271.491344 
" clip-path="url(#p810da93b5e)" style="fill: none; stroke: #000000; stroke-width: 2; stroke-linecap: square"/>
   </g>
   <g id="line2d_15">
    <path d="M 60.701802 271.491344 
L 77.573891 271.491344 
L 78.340804 233.254961 
L 79.107717 238.034509 
L 79.87463 271.491344 
L 92.912153 271.491344 
L 93.679066 269.10157 
L 95.212892 269.10157 
L 95.979806 271.491344 
L 99.814371 271.491344 
L 100.581284 269.10157 
L 101.348197 271.491344 
L 119.754112 271.491344 
L 120.521025 242.814057 
L 121.287938 137.664003 
L 122.054851 249.983379 
L 122.821764 271.491344 
L 123.588678 269.10157 
L 124.355591 269.10157 
L 125.122504 214.136769 
L 125.889417 230.865187 
L 126.65633 242.814057 
L 127.423243 230.865187 
L 128.190156 252.373153 
L 128.957069 221.306091 
L 129.723982 266.711796 
L 130.490896 271.491344 
L 138.92694 271.491344 
L 139.693853 252.373153 
L 140.460766 178.29016 
L 141.227679 252.373153 
L 141.994592 271.491344 
L 160.400507 271.491344 
L 161.16742 269.10157 
L 161.934333 226.085639 
L 163.468159 269.10157 
L 164.235072 271.491344 
L 165.768899 271.491344 
L 166.535812 245.203831 
L 167.302725 192.628804 
L 168.069638 261.932248 
L 168.836551 271.491344 
L 187.242466 271.491344 
L 188.009379 269.10157 
L 188.776292 271.491344 
L 195.67851 271.491344 
L 196.445423 257.152701 
L 197.212336 190.23903 
L 197.979249 252.373153 
L 198.746162 269.10157 
L 199.513075 269.10157 
L 200.279989 228.475413 
L 201.046902 240.424283 
L 201.813815 271.491344 
L 220.986642 271.491344 
L 221.753556 269.10157 
L 222.520469 271.491344 
L 227.121947 271.491344 
L 227.88886 269.10157 
L 228.655774 271.491344 
L 229.422687 230.865187 
L 230.1896 235.644735 
L 230.956513 271.491344 
L 231.723426 271.491344 
L 232.490339 269.10157 
L 233.257252 259.542475 
L 234.024165 216.526543 
L 234.791078 261.932248 
L 235.557992 271.491344 
L 270.835995 271.491344 
L 271.602908 264.322022 
L 272.369821 218.916317 
L 273.136734 261.932248 
L 273.903647 271.491344 
L 274.67056 271.491344 
L 275.437473 199.798126 
L 276.204386 228.475413 
L 276.9713 271.491344 
L 279.272039 271.491344 
L 280.038952 254.762927 
L 280.805865 190.23903 
L 281.572778 269.10157 
L 282.339691 271.491344 
L 284.640431 271.491344 
L 285.407344 216.526543 
L 286.174257 240.424283 
L 286.94117 230.865187 
L 287.708083 80.309428 
L 288.474996 101.817393 
L 289.241909 271.491344 
L 290.008822 259.542475 
L 290.775736 152.002646 
L 291.542649 271.491344 
L 295.377214 271.491344 
L 296.144127 264.322022 
L 296.91104 254.762927 
L 297.677953 271.491344 
L 301.512519 271.491344 
L 302.279432 204.577673 
L 303.046345 257.152701 
L 303.813258 271.491344 
L 304.580171 271.491344 
L 305.347085 245.203831 
L 306.113998 235.644735 
L 306.880911 271.491344 
L 316.083868 271.491344 
L 316.850781 230.865187 
L 317.617694 152.002646 
L 318.384607 271.491344 
L 325.286825 271.491344 
L 326.053739 247.593605 
L 326.820652 271.491344 
L 328.354478 271.491344 
L 329.121391 218.916317 
L 329.888304 271.491344 
L 330.655217 271.491344 
L 331.42213 223.695865 
L 332.189043 271.491344 
L 332.955957 226.085639 
L 333.72287 187.849256 
L 334.489783 271.491344 
L 335.256696 264.322022 
L 336.023609 216.526543 
L 336.790522 271.491344 
L 341.392001 271.491344 
L 342.158914 209.357221 
L 342.925827 216.526543 
L 343.69274 271.491344 
L 357.497176 271.491344 
L 358.264089 269.10157 
L 359.031002 271.491344 
L 375.903091 271.491344 
L 376.670004 269.10157 
L 378.970743 269.10157 
L 379.737656 271.491344 
L 392.775179 271.491344 
L 393.542092 249.983379 
L 394.309005 183.069708 
L 395.075918 252.373153 
L 395.842832 218.916317 
L 396.609745 254.762927 
L 397.376658 271.491344 
L 404.278876 271.491344 
L 405.045789 269.10157 
L 405.812702 223.695865 
L 406.579615 252.373153 
L 407.346528 269.10157 
L 408.113441 271.491344 
L 428.053182 271.491344 
L 428.820095 230.865187 
L 429.587008 197.408352 
L 430.353922 271.491344 
L 441.857618 271.491344 
L 442.624531 226.085639 
L 443.391444 271.491344 
L 444.158358 226.085639 
L 444.925271 269.10157 
L 445.692184 266.711796 
L 446.459097 271.491344 
L 447.22601 271.491344 
L 447.992923 252.373153 
L 448.759836 163.951516 
L 449.526749 228.475413 
L 450.293662 271.491344 
L 451.827489 271.491344 
L 452.594402 235.644735 
L 453.361315 271.491344 
L 457.19588 271.491344 
L 457.962793 242.814057 
L 458.729707 271.491344 
L 460.263533 271.491344 
L 461.030446 228.475413 
L 461.797359 271.491344 
L 467.165751 271.491344 
L 467.932664 257.152701 
L 468.699577 271.491344 
L 469.46649 271.491344 
L 470.233403 238.034509 
L 471.000316 271.491344 
L 471.767229 271.491344 
L 472.534143 226.085639 
L 473.301056 266.711796 
L 474.067969 271.491344 
L 474.834882 247.593605 
L 475.601795 168.731064 
L 476.368708 271.491344 
L 485.571665 271.491344 
L 486.338579 202.1879 
L 487.105492 271.491344 
L 489.406231 271.491344 
L 490.173144 261.932248 
L 490.940057 92.258297 
L 491.70697 254.762927 
L 492.473883 271.491344 
L 495.541536 271.491344 
L 496.308449 214.136769 
L 497.075362 206.967447 
L 497.842275 216.526543 
L 498.609188 271.491344 
L 500.909928 271.491344 
L 501.676841 204.577673 
L 502.443754 233.254961 
L 503.210667 271.491344 
L 507.045233 271.491344 
L 507.812146 211.746995 
L 508.579059 271.491344 
L 513.180537 271.491344 
L 513.947451 238.034509 
L 514.714364 197.408352 
L 515.481277 271.491344 
L 524.684234 271.491344 
L 525.451147 261.932248 
L 526.21806 226.085639 
L 526.984973 264.322022 
L 527.751887 271.491344 
L 528.5188 269.10157 
L 529.285713 199.798126 
L 530.819539 271.491344 
L 540.022496 271.491344 
L 540.789409 235.644735 
L 541.556322 230.865187 
L 542.323236 269.10157 
L 543.090149 271.491344 
L 553.826932 271.491344 
L 555.360758 266.711796 
L 556.127672 223.695865 
L 556.894585 257.152701 
L 557.661498 271.491344 
L 558.428411 271.491344 
L 559.195324 209.357221 
L 559.962237 211.746995 
L 560.72915 269.10157 
L 561.496063 271.491344 
L 564.563716 271.491344 
L 565.330629 266.711796 
L 566.097542 218.916317 
L 566.864455 252.373153 
L 567.631368 271.491344 
L 572.99976 271.491344 
L 572.99976 271.491344 
" clip-path="url(#p810da93b5e)" style="fill: none; stroke: #d62728; stroke-width: 1.8; stroke-linecap: square"/>
   </g>
   <g id="patch_3">
    <path d="M 60.701802 284.276635 
L 60.701802 3.00024 
" style="fill: none; stroke: #000000; stroke-linejoin: miter; stroke-linecap: square"/>
   </g>
   <g id="patch_4">
    <path d="M 572.99976 284.276635 
L 572.99976 3.00024 
" style="fill: none; stroke: #000000; stroke-linejoin: miter; stroke-linecap: square"/>
   </g>
   <g id="patch_5">
    <path d="M 60.701802 284.276635 
L 572.99976 284.276635 
" style="fill: none; stroke: #000000; stroke-linejoin: miter; stroke-linecap: square"/>
   </g>
   <g id="patch_6">
    <path d="M 60.701802 3.00024 
L 572.99976 3.00024 
" style="fill: none; stroke: #000000; stroke-linejoin: miter; stroke-linecap: square"/>
   </g>
   <g id="legend_1">
    <g id="patch_7">
     <path d="M 319.69476 68.74524 
L 560.39976 68.74524 
Q 563.99976 68.74524 563.99976 65.14524 
L 563.99976 15.60024 
Q 563.99976 12.00024 560.39976 12.00024 
L 319.69476 12.00024 
Q 316.09476 12.00024 316.09476 15.60024 
L 316.09476 65.14524 
Q 316.09476 68.74524 319.69476 68.74524 
z
" style="fill: #ffffff; opacity: 0.8; stroke: #cccccc; stroke-linejoin: miter"/>
    </g>
    <g id="line2d_16">
     <path d="M 323.29476 25.784302 
L 341.29476 25.784302 
L 359.29476 25.784302 
" style="fill: none; stroke: #000000; stroke-width: 2; stroke-linecap: square"/>
    </g>
    <g id="text_16">
     <text style="font: 18px 'Arial'; text-anchor: start" x="373.69476" y="32.084302" transform="rotate(-0, 373.69476, 32.084302)">raw intensity</text>
    </g>
    <g id="line2d_17">
     <path d="M 323.29476 51.456802 
L 341.29476 51.456802 
L 359.29476 51.456802 
" style="fill: none; stroke: #d62728; stroke-width: 1.8; stroke-linecap: square"/>
    </g>
    <g id="text_17">
     <text style="font: 18px 'Arial'; text-anchor: start" x="373.69476" y="57.756802" transform="rotate(-0, 373.69476, 57.756802)">background subtracted</text>
    </g>
   </g>
  </g>
 </g>
 <defs>
  <clipPath id="p810da93b5e">
   <rect x="60.701802" y="3.00024" width="512.297958" height="281.276395"/>
  </clipPath>
 </defs>
</svg>
