<?xml version="1.0" encoding="utf-8" standalone="no"?>
<!DOCTYPE svg PUBLIC "-//W3C//DTD SVG 1.1//EN"
  "http://www.w3.org/Graphics/SVG/1.1/DTD/svg11.dtd">
<svg xmlns:xlink="http://www.w3.org/1999/xlink" width="576pt" height="331.2pt" viewBox="0 0 576 331.2" xmlns="http://www.w3.org/2000/svg" version="1.1">
 <metadata>
  <rdf:RDF xmlns:dc="http://purl.org/dc/elements/1.1/" xmlns:cc="http://creativecommons.org/ns#" xmlns:rdf="http://www.w3.org/1999/02/22-rdf-syntax-ns#">
   <cc:Work>
    <dc:type rdf:resource="http://purl.org/dc/dcmitype/StillImage"/>
    <dc:date>2026-07-11T15:46:00.725889</dc:date>
    <dc:format>image/svg+xml</dc:format>
    <dc:creator>
     <cc:Agent>
      <dc:title>Matplotlib v3.5.1, https://matplotlib.org/</dc:title>
     </cc:Agent>
    </dc:creator>
   </cc:Work>
  </rdf:RDF>
 </metadata>
 <defs>
  <style type="text/css">*{stroke-linejoin: round; stroke-linecap: butt}</style>
 </defs>
 <g id="figure_1">
  <g id="patch_1">
   <path d="M 0 331.2 
L 576 331.2 
L 576 0 
L 0 0 
z
" style="fill: #ffffff"/>
  </g>
  <g id="axes_1">
   <g id="patch_2">
    <path d="M 60.701802 284.276635 
L 572.99976 284.276635 
L 572.99976 7.344313 
L 60.701802 7.344313 
z
" style="fill: #ffffff"/>
   </g>
   <g id="matplotlib.axis_1">
    <g id="xtick_1">
     <g id="line2d_1">
      <defs>
       <path id="meb9accef19" d="M 0 0 
L 0 3.5 
" style="stroke: #000000; stroke-width: 0.8"/>
      </defs>
      <g>
       <use xlink:href="#meb9accef19" x="60.701802" y="284.276635" style="stroke: #000000; stroke-width: 0.8"/>
      </g>
     </g>
     <g id="text_1">
      <text style="font: 18px 'Arial'; text-anchor: middle" x="60.701802" y="304.160697" transform="rotate(-0, 60.701802, 304.160697)">0</text>
     </g>
    </g>
    <g id="xtick_2">
     <g id="line2d_2">
      <g>
       <use xlink:href="#meb9accef19" x="137.393114" y="284.276635" style="stroke: #000000; stroke-width: 0.8"/>
      </g>
     </g>
     <g id="text_2">
      <text style="font: 18px 'Arial'; text-anchor: middle" x="137.393114" y="304.160697" transform="rotate(-0, 137.393114, 304.160697)">100</text>
     </g>
    </g>
    <g id="xtick_3">
     <g id="line2d_3">
      <g>
       <use xlink:href="#meb9accef19" x="214.084425" y="284.276635" style="stroke: #000000; stroke-width: 0.8"/>
      </g>
     </g>
     <g id="text_3">
      <text style="font: 18px 'Arial'; text-anchor: middle" x="214.084425" y="304.160697" transform="rotate(-0, 214.084425, 304.160697)">200</text>
     </g>
    </g>
    <g id="xtick_4">
     <g id="line2d_4">
      <g>
       <use xlink:href="#meb9accef19" x="290.775736" y="284.276635" style="stroke: #000000; stroke-width: 0.8"/>
      </g>
     </g>
     <g id="text_4">
      <text style="font: 18px 'Arial'; text-anchor: middle" x="290.775736" y="304.160697" transform="rotate(-0, 290.775736, 304.160697)">300</text>
     </g>
    </g>
    <g id="xtick_5">
     <g id="line2d_5">
      <g>
       <use xlink:href="#meb9accef19" x="367.467047" y="284.276635" style="stroke: #000000; stroke-width: 0.8"/>
      </g>
     </g>
     <g id="text_5">
      <text style="font: 18px 'Arial'; text-anchor: middle" x="367.467047" y="304.160697" transform="rotate(-0, 367.467047, 304.160697)">400</text>
     </g>
    </g>
    <g id="xtick_6">
     <g id="line2d_6">
      <g>
       <use xlink:href="#meb9accef19" x="444.158358" y="284.276635" style="stroke: #000000; stroke-width: 0.8"/>
      </g>
     </g>
     <g id="text_6">
      <text style="font: 18px 'Arial'; text-anchor: middle" x="444.158358" y="304.160697" transform="rotate(-0, 444.158358, 304.160697)">500</text>
     </g>
    </g>
    <g id="xtick_7">
     <g id="line2d_7">
      <g>
       <use xlink:href="#meb9accef19" x="520.849669" y="284.276635" style="stroke: #000000; stroke-width: 0.8"/>
      </g>
     </g>
     <g id="text_7">
      <text style="font: 18px 'Arial'; text-anchor: middle" x="520.849669" y="304.160697" transform="rotate(-0, 520.849669, 304.160697)">600</text>
     </g>
    </g>
    <g id="text_8">
     <text style="font: 18px 'Arial'; text-anchor: middle" x="316.850781" y="324.62226" transform="rotate(-0, 316.850781, 324.62226)">x pixel</text>
    </g>
   </g>
   <g id="matplotlib.axis_2">
    <g id="ytick_1">
     <g id="line2d_8">
      <defs>
       <path id="mf9edcd5b97" d="M 0 0 
L -3.5 0 
" style="stroke: #000000; stroke-width: 0.8"/>
      </defs>
      <g>
       <use xlink:href="#mf9edcd5b97" x="60.701802" y="271.688802" style="stroke: #000000; stroke-width: 0.8"/>
      </g>
     </g>
     <g id="text_9">
      <text style="font: 18px 'Arial'; text-anchor: end" x="53.701802" y="278.130833" transform="rotate(-0, 53.701802, 278.130833)">0</text>
     </g>
    </g>
    <g id="ytick_2">
     <g id="line2d_9">
      <g>
       <use xlink:href="#mf9edcd5b97" x="60.701802" y="227.981049" style="stroke: #000000; stroke-width: 0.8"/>
      </g>
     </g>
     <g id="text_10">
      <text style="font: 18px 'Arial'; text-anchor: end" x="53.701802" y="234.423081" transform="rotate(-0, 53.701802, 234.423081)">25</text>
     </g>
    </g>
    <g id="ytick_3">
     <g id="line2d_10">
      <g>
       <use xlink:href="#mf9edcd5b97" x="60.701802" y="184.273296" style="stroke: #000000; stroke-width: 0.8"/>
      </g>
     </g>
     <g id="text_11">
      <text style="font: 18px 'Arial'; text-anchor: end" x="53.701802" y="190.715328" transform="rotate(-0, 53.701802, 190.715328)">50</text>
     </g>
    </g>
    <g id="ytick_4">
     <g id="line2d_11">
      <g>
       <use xlink:href="#mf9edcd5b97" x="60.701802" y="140.565543" style="stroke: #000000; stroke-width: 0.8"/>
      </g>
     </g>
     <g id="text_12">
      <text style="font: 18px 'Arial'; text-anchor: end" x="53.701802" y="147.007575" transform="rotate(-0, 53.701802, 147.007575)">75</text>
     </g>
    </g>
    <g id="ytick_5">
     <g id="line2d_12">
      <g>
       <use xlink:href="#mf9edcd5b97" x="60.701802" y="96.857791" style="stroke: #000000; stroke-width: 0.8"/>
      </g>
     </g>
     <g id="text_13">
      <text style="font: 18px 'Arial'; text-anchor: end" x="53.701802" y="103.299822" transform="rotate(-0, 53.701802, 103.299822)">100</text>
     </g>
    </g>
    <g id="ytick_6">
     <g id="line2d_13">
      <g>
       <use xlink:href="#mf9edcd5b97" x="60.701802" y="53.150038" style="stroke: #000000; stroke-width: 0.8"/>
      </g>
     </g>
     <g id="text_14">
      <text style="font: 18px 'Arial'; text-anchor: end" x="53.701802" y="59.592069" transform="rotate(-0, 53.701802, 59.592069)">125</text>
     </g>
    </g>
    <g id="ytick_7">
     <g id="line2d_14">
      <g>
       <use xlink:href="#mf9edcd5b97" x="60.701802" y="9.442285" style="stroke: #000000; stroke-width: 0.8"/>
      </g>
     </g>
     <g id="text_15">
      <text style="font: 18px 'Arial'; text-anchor: end" x="53.701802" y="15.884316" transform="rotate(-0, 53.701802, 15.884316)">150</text>
     </g>
    </g>
    <g id="text_16">
     <text style="font: 18px 'Arial'; text-anchor: middle" x="15.884303" y="145.810474" transform="rotate(-90, 15.884303, 145.810474)">Intensity [a.u.]</text>
    </g>
   </g>
   <g id="line2d_15">
    <path d="M 60.701802 271.688802 
L 62.235629 271.688802 
L 63.002542 269.940492 
L 63.769455 269.940492 
L 64.536368 271.688802 
L 71.438586 271.688802 
L 72.972412 261.198941 
L 73.739325 269.940492 
L 74.506238 271.688802 
L 75.273152 271.688802 
L 76.040065 269.940492 
L 76.806978 271.688802 
L 79.107717 271.688802 
L 79.87463 269.940492 
L 80.641543 271.688802 
L 81.408456 269.940492 
L 82.17537 271.688802 
L 82.942283 254.205701 
L 83.709196 187.769917 
L 84.476109 255.954011 
L 85.243022 271.688802 
L 86.009935 271.688802 
L 86.776848 259.450631 
L 87.543761 259.450631 
L 88.310674 264.695562 
L 89.077588 271.688802 
L 109.784242 271.688802 
L 110.551155 269.940492 
L 111.318068 269.940492 
L 112.084981 271.688802 
L 128.190156 271.688802 
L 128.957069 269.940492 
L 129.723982 271.688802 
L 130.490896 271.688802 
L 131.257809 269.940492 
L 132.024722 262.947252 
L 132.791635 268.192182 
L 133.558548 271.688802 
L 139.693853 271.688802 
L 140.460766 269.940492 
L 141.227679 254.205701 
L 141.994592 266.443872 
L 142.761505 271.688802 
L 148.129897 271.688802 
L 148.89681 269.940492 
L 149.663723 271.688802 
L 154.265202 271.688802 
L 155.032115 222.736119 
L 155.799028 203.504708 
L 156.565941 269.940492 
L 157.332854 269.940492 
L 158.099767 271.688802 
L 161.934333 271.688802 
L 162.701246 269.940492 
L 163.468159 271.688802 
L 164.235072 271.688802 
L 165.001985 269.940492 
L 166.535812 262.947252 
L 167.302725 271.688802 
L 169.603464 271.688802 
L 170.370377 269.940492 
L 171.13729 271.688802 
L 171.904203 269.940492 
L 172.671117 271.688802 
L 178.806421 271.688802 
L 179.573335 269.940492 
L 180.340248 271.688802 
L 184.941726 271.688802 
L 185.708639 266.443872 
L 186.475553 248.960771 
L 187.242466 269.940492 
L 188.009379 269.940492 
L 188.776292 271.688802 
L 201.813815 271.688802 
L 202.580728 268.192182 
L 203.347641 227.981049 
L 204.114554 196.511467 
L 204.881467 266.443872 
L 205.64838 271.688802 
L 207.182207 271.688802 
L 207.94912 268.192182 
L 208.716033 196.511467 
L 209.482946 227.981049 
L 210.249859 266.443872 
L 211.016772 269.940492 
L 211.783685 269.940492 
L 212.550598 271.688802 
L 213.317511 240.21922 
L 214.084425 194.763157 
L 214.851338 252.457391 
L 215.618251 189.518227 
L 216.385164 257.702321 
L 217.152077 269.940492 
L 217.91899 271.688802 
L 218.685903 271.688802 
L 219.452816 262.947252 
L 220.219729 264.695562 
L 220.986642 269.940492 
L 221.753556 268.192182 
L 222.520469 262.947252 
L 223.287382 269.940492 
L 224.054295 271.688802 
L 225.588121 271.688802 
L 226.355034 264.695562 
L 227.121947 156.300335 
L 227.88886 226.232739 
L 228.655774 269.940492 
L 229.422687 271.688802 
L 230.1896 271.688802 
L 230.956513 269.940492 
L 231.723426 271.688802 
L 243.227123 271.688802 
L 243.994036 269.940492 
L 244.760949 259.450631 
L 245.527862 268.192182 
L 246.294775 271.688802 
L 247.061688 269.940492 
L 247.828601 269.940492 
L 248.595514 271.688802 
L 251.663167 271.688802 
L 252.43008 269.940492 
L 253.196993 271.688802 
L 253.963906 269.940492 
L 254.730819 271.688802 
L 257.031559 271.688802 
L 257.798472 269.940492 
L 258.565385 180.776676 
L 259.332298 147.558784 
L 260.099211 269.940492 
L 260.866124 268.192182 
L 261.633037 261.198941 
L 262.39995 269.940492 
L 263.166864 271.688802 
L 269.302168 271.688802 
L 270.069082 269.940492 
L 270.835995 271.688802 
L 271.602908 268.192182 
L 272.369821 255.954011 
L 273.136734 269.940492 
L 273.903647 271.688802 
L 275.437473 271.688802 
L 276.204386 269.940492 
L 276.9713 271.688802 
L 278.505126 271.688802 
L 279.272039 268.192182 
L 280.038952 261.198941 
L 280.805865 269.940492 
L 281.572778 269.940492 
L 282.339691 261.198941 
L 283.106604 269.940492 
L 283.873518 271.688802 
L 286.94117 271.688802 
L 287.708083 268.192182 
L 288.474996 234.97429 
L 289.241909 170.286815 
L 290.008822 182.524986 
L 290.775736 257.702321 
L 291.542649 152.803714 
L 292.309562 74.129759 
L 293.076475 100.354411 
L 293.843388 145.810474 
L 294.610301 131.823993 
L 295.377214 189.518227 
L 296.144127 201.756398 
L 296.91104 207.001328 
L 297.677953 238.47091 
L 298.444867 152.803714 
L 299.21178 186.021606 
L 299.978693 247.212461 
L 300.745606 254.205701 
L 301.512519 268.192182 
L 302.279432 259.450631 
L 303.046345 266.443872 
L 303.813258 261.198941 
L 304.580171 198.259777 
L 305.347085 212.246258 
L 306.113998 271.688802 
L 307.647824 196.511467 
L 308.414737 264.695562 
L 309.18165 257.702321 
L 309.948563 269.940492 
L 310.715476 271.688802 
L 311.482389 269.940492 
L 312.249303 255.954011 
L 313.016216 264.695562 
L 313.783129 271.688802 
L 314.550042 266.443872 
L 315.316955 262.947252 
L 316.083868 271.688802 
L 316.850781 271.688802 
L 317.617694 269.940492 
L 318.384607 271.688802 
L 320.685347 271.688802 
L 321.45226 268.192182 
L 322.219173 201.756398 
L 322.986086 229.729359 
L 323.752999 271.688802 
L 324.519912 271.688802 
L 325.286825 262.947252 
L 326.053739 255.954011 
L 326.820652 257.702321 
L 327.587565 255.954011 
L 328.354478 245.46415 
L 329.121391 259.450631 
L 329.888304 250.709081 
L 330.655217 107.347651 
L 331.42213 19.932146 
L 332.189043 60.143278 
L 332.955957 203.504708 
L 333.72287 259.450631 
L 334.489783 245.46415 
L 335.256696 252.457391 
L 336.023609 254.205701 
L 336.790522 264.695562 
L 337.557435 245.46415 
L 338.324348 102.102721 
L 339.091261 79.374689 
L 339.858175 234.97429 
L 340.625088 259.450631 
L 341.392001 266.443872 
L 342.158914 168.538505 
L 342.925827 165.041885 
L 343.69274 257.702321 
L 344.459653 271.688802 
L 345.993479 268.192182 
L 346.760393 255.954011 
L 347.527306 268.192182 
L 348.294219 269.940492 
L 349.061132 269.940492 
L 349.828045 271.688802 
L 352.895697 271.688802 
L 353.662611 269.940492 
L 354.429524 222.736119 
L 355.196437 154.552024 
L 355.96335 262.947252 
L 356.730263 271.688802 
L 360.564829 271.688802 
L 361.331742 264.695562 
L 362.098655 264.695562 
L 362.865568 271.688802 
L 365.93322 271.688802 
L 366.700133 269.940492 
L 367.467047 271.688802 
L 369.767786 271.688802 
L 370.534699 269.940492 
L 371.301612 271.688802 
L 373.602351 271.688802 
L 374.369265 269.940492 
L 375.136178 255.954011 
L 375.903091 186.021606 
L 376.670004 255.954011 
L 377.436917 271.688802 
L 378.20383 271.688802 
L 378.970743 268.192182 
L 380.504569 51.401728 
L 381.271482 152.803714 
L 382.038396 271.688802 
L 382.805309 269.940492 
L 383.572222 271.688802 
L 385.872961 271.688802 
L 386.639874 269.940492 
L 387.406787 271.688802 
L 390.47444 271.688802 
L 391.241353 264.695562 
L 392.008266 259.450631 
L 392.775179 247.212461 
L 393.542092 193.014847 
L 394.309005 262.947252 
L 395.075918 271.688802 
L 400.44431 271.688802 
L 401.211223 269.940492 
L 401.978136 271.688802 
L 402.74505 268.192182 
L 403.511963 261.198941 
L 404.278876 269.940492 
L 405.045789 264.695562 
L 405.812702 193.014847 
L 406.579615 240.21922 
L 407.346528 271.688802 
L 411.948007 271.688802 
L 412.71492 269.940492 
L 413.481833 261.198941 
L 414.248746 269.940492 
L 415.782572 269.940492 
L 416.549486 271.688802 
L 417.316399 269.940492 
L 418.083312 271.688802 
L 418.850225 271.688802 
L 420.384051 268.192182 
L 421.150964 261.198941 
L 421.917877 271.688802 
L 422.68479 271.688802 
L 423.451704 269.940492 
L 424.218617 257.702321 
L 424.98553 266.443872 
L 425.752443 271.688802 
L 426.519356 271.688802 
L 427.286269 261.198941 
L 428.053182 261.198941 
L 428.820095 271.688802 
L 429.587008 266.443872 
L 430.353922 257.702321 
L 431.120835 271.688802 
L 431.887748 269.940492 
L 432.654661 271.688802 
L 433.421574 252.457391 
L 434.188487 135.320613 
L 434.9554 220.987809 
L 435.722313 259.450631 
L 436.489226 252.457391 
L 437.25614 257.702321 
L 438.023053 264.695562 
L 438.789966 257.702321 
L 439.556879 271.688802 
L 440.323792 271.688802 
L 441.090705 268.192182 
L 441.857618 233.22598 
L 442.624531 107.347651 
L 443.391444 227.981049 
L 444.158358 268.192182 
L 445.692184 128.327373 
L 446.459097 142.313854 
L 447.22601 100.354411 
L 447.992923 114.340892 
L 448.759836 257.702321 
L 449.526749 240.21922 
L 450.293662 114.340892 
L 451.060576 140.565543 
L 451.827489 248.960771 
L 452.594402 109.095961 
L 453.361315 82.87131 
L 454.128228 224.484429 
L 454.895141 186.021606 
L 455.662054 140.565543 
L 456.428967 170.286815 
L 457.19588 217.491189 
L 457.962793 210.497948 
L 458.729707 117.837512 
L 459.49662 259.450631 
L 460.263533 269.940492 
L 461.030446 259.450631 
L 461.797359 264.695562 
L 462.564272 193.014847 
L 463.331185 245.46415 
L 464.098098 179.028366 
L 464.865011 67.136519 
L 465.631925 165.041885 
L 466.398838 205.253018 
L 467.165751 142.313854 
L 467.932664 226.232739 
L 468.699577 116.089202 
L 469.46649 142.313854 
L 470.233403 233.22598 
L 471.000316 126.579063 
L 471.767229 219.239499 
L 472.534143 266.443872 
L 473.301056 159.796955 
L 474.834882 215.742878 
L 475.601795 220.987809 
L 476.368708 207.001328 
L 477.135621 128.327373 
L 477.902534 247.212461 
L 479.436361 88.11624 
L 480.970187 238.47091 
L 481.7371 182.524986 
L 482.504013 91.61286 
L 483.270926 191.266537 
L 484.037839 213.994568 
L 485.571665 193.014847 
L 486.338579 142.313854 
L 487.105492 266.443872 
L 487.872405 269.940492 
L 488.639318 245.46415 
L 489.406231 100.354411 
L 490.173144 233.22598 
L 490.940057 151.055404 
L 491.70697 140.565543 
L 492.473883 144.062164 
L 493.240797 91.61286 
L 494.00771 163.293575 
L 494.774623 264.695562 
L 495.541536 203.504708 
L 496.308449 130.075683 
L 497.075362 243.71584 
L 497.842275 268.192182 
L 498.609188 255.954011 
L 499.376101 255.954011 
L 500.143015 266.443872 
L 500.909928 269.940492 
L 501.676841 264.695562 
L 502.443754 266.443872 
L 503.210667 269.940492 
L 503.97758 271.688802 
L 505.511406 271.688802 
L 506.278319 268.192182 
L 507.045233 261.198941 
L 507.812146 257.702321 
L 508.579059 257.702321 
L 509.345972 269.940492 
L 510.112885 271.688802 
L 510.879798 271.688802 
L 511.646711 262.947252 
L 512.413624 264.695562 
L 513.180537 268.192182 
L 513.947451 208.749638 
L 514.714364 163.293575 
L 515.481277 266.443872 
L 516.24819 271.688802 
L 517.015103 271.688802 
L 517.782016 269.940492 
L 518.548929 257.702321 
L 519.315842 266.443872 
L 520.082755 262.947252 
L 521.616582 269.940492 
L 522.383495 271.688802 
L 523.150408 269.940492 
L 523.917321 271.688802 
L 526.21806 271.688802 
L 526.984973 269.940492 
L 527.751887 254.205701 
L 528.5188 266.443872 
L 529.285713 271.688802 
L 533.120278 271.688802 
L 533.887191 269.940492 
L 534.654104 271.688802 
L 538.48867 271.688802 
L 539.255583 262.947252 
L 540.022496 266.443872 
L 540.789409 271.688802 
L 541.556322 264.695562 
L 542.323236 262.947252 
L 543.090149 271.688802 
L 543.857062 247.212461 
L 544.623975 187.769917 
L 545.390888 259.450631 
L 546.157801 271.688802 
L 547.691627 271.688802 
L 548.45854 269.940492 
L 549.225454 271.688802 
L 549.992367 264.695562 
L 550.75928 264.695562 
L 551.526193 266.443872 
L 552.293106 261.198941 
L 553.060019 271.688802 
L 554.593845 271.688802 
L 555.360758 269.940492 
L 556.127672 271.688802 
L 558.428411 271.688802 
L 559.195324 187.769917 
L 559.962237 189.518227 
L 560.72915 271.688802 
L 562.262976 271.688802 
L 563.02989 269.940492 
L 563.796803 271.688802 
L 566.097542 271.688802 
L 566.864455 269.940492 
L 567.631368 252.457391 
L 568.398281 257.702321 
L 569.165194 271.688802 
L 571.465934 271.688802 
L 572.232847 269.940492 
L 572.99976 269.940492 
L 572.99976 269.940492 
" clip-path="url(#pc839e0dc3e)" style="fill: none; stroke: #000000; stroke-width: 2; stroke-linecap: square"/>
   </g>
   <g id="line2d_16">
    <path d="M 60.701802 271.688802 
L 62.235629 271.688802 
L 63.002542 269.940492 
L 63.769455 269.940492 
L 64.536368 271.688802 
L 71.438586 271.688802 
L 72.972412 261.198941 
L 73.739325 269.940492 
L 74.506238 271.688802 
L 75.273152 271.688802 
L 76.040065 269.940492 
L 76.806978 271.688802 
L 79.107717 271.688802 
L 79.87463 269.940492 
L 80.641543 271.688802 
L 81.408456 269.940492 
L 82.17537 271.688802 
L 82.942283 254.205701 
L 83.709196 187.769917 
L 84.476109 255.954011 
L 85.243022 271.688802 
L 86.009935 271.688802 
L 86.776848 259.450631 
L 87.543761 259.450631 
L 88.310674 264.695562 
L 89.077588 271.688802 
L 109.784242 271.688802 
L 110.551155 269.940492 
L 111.318068 269.940492 
L 112.084981 271.688802 
L 128.190156 271.688802 
L 128.957069 269.940492 
L 129.723982 271.688802 
L 130.490896 271.688802 
L 131.257809 269.940492 
L 132.024722 262.947252 
L 132.791635 268.192182 
L 133.558548 271.688802 
L 139.693853 271.688802 
L 140.460766 269.940492 
L 141.227679 254.205701 
L 141.994592 266.443872 
L 142.761505 271.688802 
L 148.129897 271.688802 
L 148.89681 269.940492 
L 149.663723 271.688802 
L 154.265202 271.688802 
L 155.032115 222.736119 
L 155.799028 203.504708 
L 156.565941 269.940492 
L 157.332854 269.940492 
L 158.099767 271.688802 
L 161.934333 271.688802 
L 162.701246 269.940492 
L 163.468159 271.688802 
L 164.235072 271.688802 
L 165.001985 269.940492 
L 166.535812 262.947252 
L 167.302725 271.688802 
L 169.603464 271.688802 
L 170.370377 269.940492 
L 171.13729 271.688802 
L 171.904203 269.940492 
L 172.671117 271.688802 
L 178.806421 271.688802 
L 179.573335 269.940492 
L 180.340248 271.688802 
L 184.941726 271.688802 
L 185.708639 266.443872 
L 186.475553 248.960771 
L 187.242466 269.940492 
L 188.009379 269.940492 
L 188.776292 271.688802 
L 201.813815 271.688802 
L 202.580728 268.192182 
L 203.347641 227.981049 
L 204.114554 196.511467 
L 204.881467 266.443872 
L 205.64838 271.688802 
L 207.182207 271.688802 
L 207.94912 268.192182 
L 208.716033 196.511467 
L 209.482946 227.981049 
L 210.249859 266.443872 
L 211.016772 269.940492 
L 211.783685 269.940492 
L 212.550598 271.688802 
L 213.317511 240.21922 
L 214.084425 194.763157 
L 214.851338 252.457391 
L 215.618251 189.518227 
L 216.385164 257.702321 
L 217.152077 269.940492 
L 217.91899 271.688802 
L 218.685903 271.688802 
L 219.452816 262.947252 
L 220.219729 264.695562 
L 220.986642 269.940492 
L 221.753556 268.192182 
L 222.520469 262.947252 
L 223.287382 269.940492 
L 224.054295 271.688802 
L 225.588121 271.688802 
L 226.355034 264.695562 
L 227.121947 156.300335 
L 227.88886 226.232739 
L 228.655774 269.940492 
L 229.422687 271.688802 
L 230.1896 271.688802 
L 230.956513 269.940492 
L 231.723426 271.688802 
L 243.227123 271.688802 
L 243.994036 269.940492 
L 244.760949 259.450631 
L 245.527862 268.192182 
L 246.294775 271.688802 
L 247.061688 269.940492 
L 247.828601 269.940492 
L 248.595514 271.688802 
L 251.663167 271.688802 
L 252.43008 269.940492 
L 253.196993 271.688802 
L 253.963906 269.940492 
L 254.730819 271.688802 
L 257.031559 271.688802 
L 257.798472 269.940492 
L 258.565385 180.776676 
L 259.332298 147.558784 
L 260.099211 269.940492 
L 260.866124 268.192182 
L 261.633037 261.198941 
L 262.39995 269.940492 
L 263.166864 271.688802 
L 269.302168 271.688802 
L 270.069082 269.940492 
L 270.835995 271.688802 
L 271.602908 269.940492 
L 272.369821 257.702321 
L 273.136734 271.688802 
L 279.272039 271.688802 
L 280.038952 268.192182 
L 280.805865 271.688802 
L 281.572778 271.688802 
L 282.339691 268.192182 
L 283.106604 271.688802 
L 287.708083 271.688802 
L 288.474996 250.709081 
L 289.241909 187.769917 
L 290.008822 200.008087 
L 290.775736 271.688802 
L 291.542649 172.035126 
L 292.309562 95.10948 
L 293.076475 121.334132 
L 293.843388 166.790195 
L 294.610301 154.552024 
L 295.377214 212.246258 
L 296.144127 222.736119 
L 296.91104 227.981049 
L 297.677953 257.702321 
L 298.444867 170.286815 
L 299.21178 203.504708 
L 299.978693 262.947252 
L 300.745606 268.192182 
L 301.512519 271.688802 
L 303.046345 271.688802 
L 303.813258 269.940492 
L 304.580171 205.253018 
L 305.347085 219.239499 
L 306.113998 271.688802 
L 306.880911 240.21922 
L 307.647824 201.756398 
L 308.414737 269.940492 
L 309.18165 262.947252 
L 309.948563 271.688802 
L 311.482389 271.688802 
L 312.249303 261.198941 
L 313.016216 269.940492 
L 313.783129 271.688802 
L 314.550042 271.688802 
L 315.316955 268.192182 
L 316.083868 271.688802 
L 321.45226 271.688802 
L 322.219173 217.491189 
L 322.986086 248.960771 
L 323.752999 271.688802 
L 329.888304 271.688802 
L 330.655217 154.552024 
L 331.42213 68.884829 
L 332.189043 109.095961 
L 332.955957 252.457391 
L 333.72287 271.688802 
L 337.557435 271.688802 
L 338.324348 133.572303 
L 339.091261 107.347651 
L 339.858175 261.198941 
L 340.625088 271.688802 
L 341.392001 271.688802 
L 342.158914 182.524986 
L 342.925827 175.531746 
L 343.69274 266.443872 
L 344.459653 271.688802 
L 345.993479 271.688802 
L 346.760393 257.702321 
L 347.527306 269.940492 
L 348.294219 271.688802 
L 353.662611 271.688802 
L 354.429524 222.736119 
L 355.196437 154.552024 
L 355.96335 262.947252 
L 356.730263 271.688802 
L 360.564829 271.688802 
L 361.331742 264.695562 
L 362.098655 264.695562 
L 362.865568 271.688802 
L 365.93322 271.688802 
L 366.700133 269.940492 
L 367.467047 271.688802 
L 369.767786 271.688802 
L 370.534699 269.940492 
L 371.301612 271.688802 
L 373.602351 271.688802 
L 374.369265 269.940492 
L 375.136178 255.954011 
L 375.903091 186.021606 
L 376.670004 255.954011 
L 377.436917 271.688802 
L 378.20383 271.688802 
L 378.970743 268.192182 
L 380.504569 51.401728 
L 381.271482 152.803714 
L 382.038396 271.688802 
L 382.805309 269.940492 
L 383.572222 271.688802 
L 385.872961 271.688802 
L 386.639874 269.940492 
L 387.406787 271.688802 
L 390.47444 271.688802 
L 391.241353 264.695562 
L 392.008266 259.450631 
L 392.775179 247.212461 
L 393.542092 193.014847 
L 394.309005 262.947252 
L 395.075918 271.688802 
L 400.44431 271.688802 
L 401.211223 269.940492 
L 401.978136 271.688802 
L 402.74505 268.192182 
L 403.511963 261.198941 
L 404.278876 269.940492 
L 405.045789 264.695562 
L 405.812702 194.763157 
L 406.579615 240.21922 
L 407.346528 271.688802 
L 412.71492 271.688802 
L 413.481833 262.947252 
L 414.248746 271.688802 
L 419.617138 271.688802 
L 420.384051 269.940492 
L 421.150964 262.947252 
L 421.917877 271.688802 
L 423.451704 271.688802 
L 424.218617 261.198941 
L 424.98553 269.940492 
L 425.752443 271.688802 
L 426.519356 271.688802 
L 427.286269 264.695562 
L 428.053182 264.695562 
L 428.820095 271.688802 
L 429.587008 271.688802 
L 430.353922 264.695562 
L 431.120835 271.688802 
L 432.654661 271.688802 
L 433.421574 262.947252 
L 434.188487 145.810474 
L 434.9554 233.22598 
L 435.722313 271.688802 
L 436.489226 266.443872 
L 437.25614 271.688802 
L 441.090705 271.688802 
L 441.857618 252.457391 
L 442.624531 128.327373 
L 443.391444 248.960771 
L 444.158358 271.688802 
L 444.925271 220.987809 
L 445.692184 151.055404 
L 446.459097 166.790195 
L 447.22601 126.579063 
L 447.992923 140.565543 
L 448.759836 271.688802 
L 449.526749 266.443872 
L 450.293662 142.313854 
L 451.060576 168.538505 
L 451.827489 271.688802 
L 452.594402 138.817233 
L 453.361315 114.340892 
L 454.128228 255.954011 
L 455.662054 173.783436 
L 456.428967 203.504708 
L 457.19588 250.709081 
L 457.962793 243.71584 
L 458.729707 151.055404 
L 459.49662 271.688802 
L 461.797359 271.688802 
L 462.564272 231.47767 
L 463.331185 271.688802 
L 464.098098 220.987809 
L 464.865011 112.592582 
L 465.631925 213.994568 
L 466.398838 254.205701 
L 467.165751 191.266537 
L 467.932664 271.688802 
L 468.699577 168.538505 
L 469.46649 196.511467 
L 470.233403 271.688802 
L 471.000316 180.776676 
L 471.767229 271.688802 
L 472.534143 271.688802 
L 473.301056 222.736119 
L 474.067969 252.457391 
L 474.834882 271.688802 
L 476.368708 271.688802 
L 477.135621 194.763157 
L 477.902534 271.688802 
L 478.669447 227.981049 
L 479.436361 154.552024 
L 480.203274 231.47767 
L 480.970187 271.688802 
L 481.7371 248.960771 
L 482.504013 158.048645 
L 483.270926 257.702321 
L 484.037839 271.688802 
L 484.804752 268.192182 
L 485.571665 257.702321 
L 486.338579 205.253018 
L 487.105492 271.688802 
L 488.639318 271.688802 
L 489.406231 156.300335 
L 490.173144 271.688802 
L 490.940057 205.253018 
L 491.70697 191.266537 
L 492.473883 194.763157 
L 493.240797 138.817233 
L 494.774623 271.688802 
L 495.541536 241.96753 
L 496.308449 165.041885 
L 497.075362 271.688802 
L 507.812146 271.688802 
L 508.579059 269.940492 
L 509.345972 271.688802 
L 513.180537 271.688802 
L 513.947451 215.742878 
L 514.714364 168.538505 
L 515.481277 271.688802 
L 517.782016 271.688802 
L 518.548929 261.198941 
L 519.315842 268.192182 
L 520.082755 264.695562 
L 521.616582 271.688802 
L 526.984973 271.688802 
L 527.751887 255.954011 
L 528.5188 268.192182 
L 529.285713 271.688802 
L 533.120278 271.688802 
L 533.887191 269.940492 
L 534.654104 271.688802 
L 538.48867 271.688802 
L 539.255583 262.947252 
L 540.022496 266.443872 
L 540.789409 271.688802 
L 541.556322 264.695562 
L 542.323236 262.947252 
L 543.090149 271.688802 
L 543.857062 247.212461 
L 544.623975 187.769917 
L 545.390888 259.450631 
L 546.157801 271.688802 
L 547.691627 271.688802 
L 548.45854 269.940492 
L 549.225454 271.688802 
L 549.992367 264.695562 
L 550.75928 264.695562 
L 551.526193 266.443872 
L 552.293106 261.198941 
L 553.060019 271.688802 
L 554.593845 271.688802 
L 555.360758 269.940492 
L 556.127672 271.688802 
L 558.428411 271.688802 
L 559.195324 187.769917 
L 559.962237 189.518227 
L 560.72915 271.688802 
L 562.262976 271.688802 
L 563.02989 269.940492 
L 563.796803 271.688802 
L 566.097542 271.688802 
L 566.864455 269.940492 
L 567.631368 252.457391 
L 568.398281 257.702321 
L 569.165194 271.688802 
L 571.465934 271.688802 
L 572.232847 269.940492 
L 572.99976 269.940492 
L 572.99976 269.940492 
" clip-path="url(#pc839e0dc3e)" style="fill: none; stroke: #d62728; stroke-width: 1.8; stroke-linecap: square"/>
   </g>
   <g id="patch_3">
    <path d="M 60.701802 284.276635 
L 60.701802 7.344313 
" style="fill: none; stroke: #000000; stroke-linejoin: miter; stroke-linecap: square"/>
   </g>
   <g id="patch_4">
    <path d="M 572.99976 284.276635 
L 572.99976 7.344313 
" style="fill: none; stroke: #000000; stroke-linejoin: miter; stroke-linecap: square"/>
   </g>
   <g id="patch_5">
    <path d="M 60.701802 284.276635 
L 572.99976 284.276635 
" style="fill: none; stroke: #000000; stroke-linejoin: miter; stroke-linecap: square"/>
   </g>
   <g id="patch_6">
    <path d="M 60.701802 7.344313 
L 572.99976 7.344313 
" style="fill: none; stroke: #000000; stroke-linejoin: miter; stroke-linecap: square"/>
   </g>
   <g id="legend_1">
    <g id="patch_7">
     <path d="M 319.69476 73.089313 
L 560.39976 73.089313 
Q 563.99976 73.089313 563.99976 69.489313 
L 563.99976 19.944313 
Q 563.99976 16.344313 560.39976 16.344313 
L 319.69476 16.344313 
Q 316.09476 16.344313 316.09476 19.944313 
L 316.09476 69.489313 
Q 316.09476 73.089313 319.69476 73.089313 
z
" style="fill: #ffffff; opacity: 0.8; stroke: #cccccc; stroke-linejoin: miter"/>
    </g>
    <g id="line2d_17">
     <path d="M 323.29476 30.128375 
L 341.29476 30.128375 
L 359.29476 30.128375 
" style="fill: none; stroke: #000000; stroke-width: 2; stroke-linecap: square"/>
    </g>
    <g id="text_17">
     <text style="font: 18px 'Arial'; text-anchor: start" x="373.69476" y="36.428375" transform="rotate(-0, 373.69476, 36.428375)">raw intensity</text>
    </g>
    <g id="line2d_18">
     <path d="M 323.29476 55.800875 
L 341.29476 55.800875 
L 359.29476 55.800875 
" style="fill: none; stroke: #d62728; stroke-width: 1.8; stroke-linecap: square"/>
    </g>
    <g id="text_18">
     <text style="font: 18px 'Arial'; text-anchor: start" x="373.69476" y="62.100875" transform="rotate(-0, 373.69476, 62.100875)">background subtracted</text>
    </g>
   </g>
  </g>
 </g>
 <defs>
  <clipPath id="pc839e0dc3e">
   <rect x="60.701802" y="7.344313" width="512.297958" height="276.932322"/>
  </clipPath>
 </defs>
</svg>
