<?xml version="1.0" encoding="utf-8" standalone="no"?>
<!DOCTYPE svg PUBLIC "-//W3C//DTD SVG 1.1//EN"
  "http://www.w3.org/Graphics/SVG/1.1/DTD/svg11.dtd">
<svg xmlns:xlink="http://www.w3.org/1999/xlink" width="576pt" height="331.2pt" viewBox="0 0 576 331.2" xmlns="http://www.w3.org/2000/svg" version="1.1">
 <metadata>
  <rdf:RDF xmlns:dc="http://purl.org/dc/elements/1.1/" xmlns:cc="http://creativecommons.org/ns#" xmlns:rdf="http://www.w3.org/1999/02/22-rdf-syntax-ns#">
   <cc:Work>
    <dc:type rdf:resource="http://purl.org/dc/dcmitype/StillImage"/>
    <dc:date>2026-07-11T15:44:20.202416</dc:date>
    <dc:format>image/svg+xml</dc:format>
    <dc:creator>
     <cc:Agent>
      <dc:title>Matplotlib v3.5.1, https://matplotlib.org/</dc:title>
     </cc:Agent>
    </dc:creator>
   </cc:Work>
  </rdf:RDF>
 </metadata>
 <defs>
  <style type="text/css">*{stroke-linejoin: round; stroke-linecap: butt}</style>
 </defs>
 <g id="figure_1">
  <g id="patch_1">
   <path d="M 0 331.2 
L 576 331.2 
L 576 0 
L 0 0 
z
" style="fill: #ffffff"/>
  </g>
  <g id="axes_1">
   <g id="patch_2">
    <path d="M 60.701802 284.276635 
L 572.99976 284.276635 
L 572.99976 3.00024 
L 60.701802 3.00024 
z
" style="fill: #ffffff"/>
   </g>
   <g id="matplotlib.axis_1">
    <g id="xtick_1">
     <g id="line2d_1">
      <defs>
       <path id="m840907625d" d="M 0 0 
L 0 3.5 
" style="stroke: #000000; stroke-width: 0.8"/>
      </defs>
      <g>
       <use xlink:href="#m840907625d" x="60.701802" y="284.276635" style="stroke: #000000; stroke-width: 0.8"/>
      </g>
     </g>
     <g id="text_1">
      <text style="font: 18px 'Arial'; text-anchor: middle" x="60.701802" y="304.160697" transform="rotate(-0, 60.701802, 304.160697)">0</text>
     </g>
    </g>
    <g id="xtick_2">
     <g id="line2d_2">
      <g>
       <use xlink:href="#m840907625d" x="137.393114" y="284.276635" style="stroke: #000000; stroke-width: 0.8"/>
      </g>
     </g>
     <g id="text_2">
      <text style="font: 18px 'Arial'; text-anchor: middle" x="137.393114" y="304.160697" transform="rotate(-0, 137.393114, 304.160697)">100</text>
     </g>
    </g>
    <g id="xtick_3">
     <g id="line2d_3">
      <g>
       <use xlink:href="#m840907625d" x="214.084425" y="284.276635" style="stroke: #000000; stroke-width: 0.8"/>
      </g>
     </g>
     <g id="text_3">
      <text style="font: 18px 'Arial'; text-anchor: middle" x="214.084425" y="304.160697" transform="rotate(-0, 214.084425, 304.160697)">200</text>
     </g>
    </g>
    <g id="xtick_4">
     <g id="line2d_4">
      <g>
       <use xlink:href="#m840907625d" x="290.775736" y="284.276635" style="stroke: #000000; stroke-width: 0.8"/>
      </g>
     </g>
     <g id="text_4">
      <text style="font: 18px 'Arial'; text-anchor: middle" x="290.775736" y="304.160697" transform="rotate(-0, 290.775736, 304.160697)">300</text>
     </g>
    </g>
    <g id="xtick_5">
     <g id="line2d_5">
      <g>
       <use xlink:href="#m840907625d" x="367.467047" y="284.276635" style="stroke: #000000; stroke-width: 0.8"/>
      </g>
     </g>
     <g id="text_5">
      <text style="font: 18px 'Arial'; text-anchor: middle" x="367.467047" y="304.160697" transform="rotate(-0, 367.467047, 304.160697)">400</text>
     </g>
    </g>
    <g id="xtick_6">
     <g id="line2d_6">
      <g>
       <use xlink:href="#m840907625d" x="444.158358" y="284.276635" style="stroke: #000000; stroke-width: 0.8"/>
      </g>
     </g>
     <g id="text_6">
      <text style="font: 18px 'Arial'; text-anchor: middle" x="444.158358" y="304.160697" transform="rotate(-0, 444.158358, 304.160697)">500</text>
     </g>
    </g>
    <g id="xtick_7">
     <g id="line2d_7">
      <g>
       <use xlink:href="#m840907625d" x="520.849669" y="284.276635" style="stroke: #000000; stroke-width: 0.8"/>
      </g>
     </g>
     <g id="text_7">
      <text style="font: 18px 'Arial'; text-anchor: middle" x="520.849669" y="304.160697" transform="rotate(-0, 520.849669, 304.160697)">600</text>
     </g>
    </g>
    <g id="text_8">
     <text style="font: 18px 'Arial'; text-anchor: middle" x="316.850781" y="324.62226" transform="rotate(-0, 316.850781, 324.62226)">x pixel</text>
    </g>
   </g>
   <g id="matplotlib.axis_2">
    <g id="ytick_1">
     <g id="line2d_8">
      <defs>
       <path id="mbd8636e530" d="M 0 0 
L -3.5 0 
" style="stroke: #000000; stroke-width: 0.8"/>
      </defs>
      <g>
       <use xlink:href="#mbd8636e530" x="60.701802" y="271.491344" style="stroke: #000000; stroke-width: 0.8"/>
      </g>
     </g>
     <g id="text_9">
      <text style="font: 18px 'Arial'; text-anchor: end" x="53.701802" y="277.933376" transform="rotate(-0, 53.701802, 277.933376)">0</text>
     </g>
    </g>
    <g id="ytick_2">
     <g id="line2d_9">
      <g>
       <use xlink:href="#mbd8636e530" x="60.701802" y="229.225921" style="stroke: #000000; stroke-width: 0.8"/>
      </g>
     </g>
     <g id="text_10">
      <text style="font: 18px 'Arial'; text-anchor: end" x="53.701802" y="235.667952" transform="rotate(-0, 53.701802, 235.667952)">20</text>
     </g>
    </g>
    <g id="ytick_3">
     <g id="line2d_10">
      <g>
       <use xlink:href="#mbd8636e530" x="60.701802" y="186.960497" style="stroke: #000000; stroke-width: 0.8"/>
      </g>
     </g>
     <g id="text_11">
      <text style="font: 18px 'Arial'; text-anchor: end" x="53.701802" y="193.402528" transform="rotate(-0, 53.701802, 193.402528)">40</text>
     </g>
    </g>
    <g id="ytick_4">
     <g id="line2d_11">
      <g>
       <use xlink:href="#mbd8636e530" x="60.701802" y="144.695073" style="stroke: #000000; stroke-width: 0.8"/>
      </g>
     </g>
     <g id="text_12">
      <text style="font: 18px 'Arial'; text-anchor: end" x="53.701802" y="151.137104" transform="rotate(-0, 53.701802, 151.137104)">60</text>
     </g>
    </g>
    <g id="ytick_5">
     <g id="line2d_12">
      <g>
       <use xlink:href="#mbd8636e530" x="60.701802" y="102.429649" style="stroke: #000000; stroke-width: 0.8"/>
      </g>
     </g>
     <g id="text_13">
      <text style="font: 18px 'Arial'; text-anchor: end" x="53.701802" y="108.871681" transform="rotate(-0, 53.701802, 108.871681)">80</text>
     </g>
    </g>
    <g id="ytick_6">
     <g id="line2d_13">
      <g>
       <use xlink:href="#mbd8636e530" x="60.701802" y="60.164226" style="stroke: #000000; stroke-width: 0.8"/>
      </g>
     </g>
     <g id="text_14">
      <text style="font: 18px 'Arial'; text-anchor: end" x="53.701802" y="66.606257" transform="rotate(-0, 53.701802, 66.606257)">100</text>
     </g>
    </g>
    <g id="ytick_7">
     <g id="line2d_14">
      <g>
       <use xlink:href="#mbd8636e530" x="60.701802" y="17.898802" style="stroke: #000000; stroke-width: 0.8"/>
      </g>
     </g>
     <g id="text_15">
      <text style="font: 18px 'Arial'; text-anchor: end" x="53.701802" y="24.340833" transform="rotate(-0, 53.701802, 24.340833)">120</text>
     </g>
    </g>
    <g id="text_16">
     <text style="font: 18px 'Arial'; text-anchor: middle" x="15.884303" y="143.638437" transform="rotate(-90, 15.884303, 143.638437)">Intensity [a.u.]</text>
    </g>
   </g>
   <g id="line2d_15">
    <path d="M 60.701802 271.491344 
L 61.468716 271.491344 
L 62.235629 235.565734 
L 63.002542 180.620683 
L 63.769455 265.151531 
L 64.536368 269.378073 
L 65.303281 250.358632 
L 66.070194 112.996005 
L 66.837107 224.999378 
L 67.60402 271.491344 
L 71.438586 271.491344 
L 72.205499 269.378073 
L 72.972412 271.491344 
L 73.739325 246.13209 
L 74.506238 129.902175 
L 75.273152 244.018819 
L 76.040065 269.378073 
L 76.806978 271.491344 
L 86.776848 271.491344 
L 87.543761 250.358632 
L 88.310674 256.698446 
L 89.077588 271.491344 
L 89.844501 224.999378 
L 90.611414 189.073768 
L 91.378327 267.264802 
L 92.14524 271.491344 
L 92.912153 269.378073 
L 93.679066 269.378073 
L 94.445979 244.018819 
L 95.212892 260.924988 
L 95.979806 189.073768 
L 96.746719 224.999378 
L 97.513632 269.378073 
L 98.280545 271.491344 
L 99.047458 271.491344 
L 100.581284 267.264802 
L 101.348197 271.491344 
L 102.11511 263.03826 
L 102.882024 233.452463 
L 103.648937 263.03826 
L 104.41585 267.264802 
L 105.182763 237.679005 
L 106.716589 271.491344 
L 111.318068 271.491344 
L 112.084981 269.378073 
L 112.851894 263.03826 
L 114.38572 271.491344 
L 115.152633 269.378073 
L 115.919546 250.358632 
L 116.68646 254.585175 
L 117.453373 271.491344 
L 119.754112 271.491344 
L 120.521025 269.378073 
L 121.287938 269.378073 
L 122.054851 271.491344 
L 123.588678 271.491344 
L 124.355591 269.378073 
L 125.122504 250.358632 
L 125.889417 254.585175 
L 126.65633 269.378073 
L 127.423243 222.886107 
L 128.190156 191.187039 
L 128.957069 265.151531 
L 129.723982 271.491344 
L 148.129897 271.491344 
L 148.89681 267.264802 
L 149.663723 246.13209 
L 150.430636 267.264802 
L 151.197549 271.491344 
L 154.265202 271.491344 
L 155.032115 216.546293 
L 155.799028 195.413582 
L 156.565941 269.378073 
L 157.332854 271.491344 
L 165.001985 271.491344 
L 165.768899 212.319751 
L 166.535812 142.581802 
L 167.302725 260.924988 
L 168.069638 271.491344 
L 168.836551 271.491344 
L 169.603464 269.378073 
L 170.370377 246.13209 
L 171.13729 263.03826 
L 171.904203 239.792277 
L 172.671117 250.358632 
L 173.43803 269.378073 
L 174.204943 271.491344 
L 181.107161 271.491344 
L 181.874074 269.378073 
L 182.640987 271.491344 
L 183.4079 220.772836 
L 184.174813 182.733954 
L 184.941726 250.358632 
L 185.708639 263.03826 
L 186.475553 246.13209 
L 187.242466 267.264802 
L 188.776292 271.491344 
L 191.843944 271.491344 
L 192.610857 256.698446 
L 193.377771 252.471904 
L 194.144684 233.452463 
L 194.911597 180.620683 
L 195.67851 265.151531 
L 196.445423 271.491344 
L 197.212336 271.491344 
L 197.979249 269.378073 
L 198.746162 246.13209 
L 199.513075 239.792277 
L 200.279989 258.811717 
L 201.046902 271.491344 
L 202.580728 271.491344 
L 204.114554 267.264802 
L 204.881467 271.491344 
L 208.716033 271.491344 
L 209.482946 250.358632 
L 210.249859 256.698446 
L 211.016772 271.491344 
L 214.851338 271.491344 
L 215.618251 267.264802 
L 216.385164 244.018819 
L 217.152077 263.03826 
L 217.91899 182.733954 
L 218.685903 233.452463 
L 219.452816 269.378073 
L 220.219729 271.491344 
L 220.986642 216.546293 
L 221.753556 195.413582 
L 222.520469 269.378073 
L 223.287382 269.378073 
L 224.054295 263.03826 
L 224.821208 231.339192 
L 225.588121 263.03826 
L 226.355034 271.491344 
L 227.121947 265.151531 
L 227.88886 115.109276 
L 229.422687 256.698446 
L 230.1896 252.471904 
L 230.956513 269.378073 
L 231.723426 271.491344 
L 232.490339 241.905548 
L 233.257252 178.507412 
L 234.024165 260.924988 
L 234.791078 269.378073 
L 235.557992 271.491344 
L 236.324905 271.491344 
L 237.091818 269.378073 
L 237.858731 250.358632 
L 238.625644 256.698446 
L 239.392557 271.491344 
L 243.227123 271.491344 
L 243.994036 265.151531 
L 244.760949 231.339192 
L 245.527862 260.924988 
L 246.294775 271.491344 
L 248.595514 271.491344 
L 249.362428 252.471904 
L 250.129341 237.679005 
L 250.896254 269.378073 
L 251.663167 271.491344 
L 252.43008 267.264802 
L 253.196993 246.13209 
L 253.963906 267.264802 
L 254.730819 246.13209 
L 255.497732 263.03826 
L 256.264646 271.491344 
L 257.798472 271.491344 
L 258.565385 267.264802 
L 259.332298 265.151531 
L 260.099211 271.491344 
L 263.166864 271.491344 
L 263.933777 269.378073 
L 264.70069 246.13209 
L 265.467603 260.924988 
L 266.234516 271.491344 
L 267.001429 271.491344 
L 267.768342 184.847226 
L 268.535255 163.714514 
L 269.302168 269.378073 
L 270.069082 271.491344 
L 270.835995 265.151531 
L 271.602908 244.018819 
L 272.369821 263.03826 
L 273.136734 269.378073 
L 273.903647 269.378073 
L 274.67056 271.491344 
L 276.9713 271.491344 
L 278.505126 239.792277 
L 279.272039 233.452463 
L 280.038952 229.225921 
L 280.805865 265.151531 
L 281.572778 246.13209 
L 282.339691 265.151531 
L 283.106604 271.491344 
L 283.873518 269.378073 
L 284.640431 271.491344 
L 285.407344 271.491344 
L 286.174257 269.378073 
L 286.94117 271.491344 
L 287.708083 269.378073 
L 288.474996 271.491344 
L 290.775736 271.491344 
L 291.542649 260.924988 
L 292.309562 178.507412 
L 293.076475 244.018819 
L 293.843388 271.491344 
L 296.91104 271.491344 
L 297.677953 214.433022 
L 298.444867 142.581802 
L 299.21178 263.03826 
L 299.978693 246.13209 
L 300.745606 129.902175 
L 301.512519 241.905548 
L 302.279432 269.378073 
L 303.046345 227.112649 
L 303.813258 250.358632 
L 304.580171 201.753395 
L 305.347085 208.093209 
L 306.113998 271.491344 
L 308.414737 271.491344 
L 309.18165 265.151531 
L 309.948563 244.018819 
L 310.715476 260.924988 
L 311.482389 269.378073 
L 312.249303 271.491344 
L 313.783129 271.491344 
L 314.550042 176.394141 
L 315.316955 170.054327 
L 316.083868 269.378073 
L 316.850781 269.378073 
L 317.617694 263.03826 
L 318.384607 227.112649 
L 319.151521 172.167599 
L 319.918434 233.452463 
L 320.685347 260.924988 
L 321.45226 267.264802 
L 322.219173 271.491344 
L 322.986086 265.151531 
L 323.752999 265.151531 
L 324.519912 256.698446 
L 325.286825 252.471904 
L 326.053739 271.491344 
L 328.354478 271.491344 
L 329.121391 267.264802 
L 329.888304 246.13209 
L 330.655217 263.03826 
L 332.955957 269.378073 
L 333.72287 212.319751 
L 334.489783 199.640124 
L 335.256696 269.378073 
L 336.023609 271.491344 
L 336.790522 271.491344 
L 337.557435 267.264802 
L 338.324348 244.018819 
L 339.091261 267.264802 
L 339.858175 271.491344 
L 340.625088 267.264802 
L 341.392001 155.261429 
L 342.158914 193.30031 
L 342.925827 263.03826 
L 343.69274 258.811717 
L 344.459653 252.471904 
L 345.226566 248.245361 
L 345.993479 269.378073 
L 346.760393 271.491344 
L 347.527306 269.378073 
L 348.294219 271.491344 
L 349.828045 271.491344 
L 350.594958 269.378073 
L 351.361871 197.526853 
L 352.128784 212.319751 
L 352.895697 271.491344 
L 353.662611 269.378073 
L 354.429524 260.924988 
L 355.196437 246.13209 
L 355.96335 269.378073 
L 356.730263 271.491344 
L 358.264089 271.491344 
L 359.031002 265.151531 
L 359.797915 269.378073 
L 360.564829 271.491344 
L 369.000873 271.491344 
L 369.767786 265.151531 
L 370.534699 267.264802 
L 371.301612 271.491344 
L 372.068525 269.378073 
L 372.835438 269.378073 
L 373.602351 271.491344 
L 374.369265 269.378073 
L 375.136178 271.491344 
L 380.504569 271.491344 
L 381.271482 172.167599 
L 382.038396 129.902175 
L 382.805309 241.905548 
L 383.572222 180.620683 
L 384.339135 263.03826 
L 385.106048 271.491344 
L 386.639874 271.491344 
L 387.406787 269.378073 
L 388.1737 229.225921 
L 388.940614 246.13209 
L 389.707527 269.378073 
L 390.47444 271.491344 
L 391.241353 224.999378 
L 392.008266 186.960497 
L 392.775179 258.811717 
L 393.542092 227.112649 
L 394.309005 174.28087 
L 395.075918 256.698446 
L 395.842832 258.811717 
L 396.609745 102.429649 
L 397.376658 210.20648 
L 398.143571 146.808344 
L 398.910484 180.620683 
L 399.677397 271.491344 
L 406.579615 271.491344 
L 407.346528 269.378073 
L 408.113441 180.620683 
L 408.880354 197.526853 
L 409.647268 260.924988 
L 410.414181 252.471904 
L 411.181094 263.03826 
L 411.948007 246.13209 
L 412.71492 265.151531 
L 413.481833 252.471904 
L 414.248746 129.902175 
L 415.015659 235.565734 
L 415.782572 269.378073 
L 416.549486 271.491344 
L 417.316399 269.378073 
L 418.083312 271.491344 
L 418.850225 271.491344 
L 419.617138 258.811717 
L 420.384051 212.319751 
L 421.150964 182.733954 
L 421.917877 263.03826 
L 422.68479 271.491344 
L 423.451704 271.491344 
L 424.218617 269.378073 
L 424.98553 235.565734 
L 425.752443 235.565734 
L 426.519356 229.225921 
L 427.286269 248.245361 
L 428.053182 271.491344 
L 428.820095 271.491344 
L 430.353922 237.679005 
L 431.120835 244.018819 
L 431.887748 176.394141 
L 432.654661 256.698446 
L 433.421574 269.378073 
L 434.188487 271.491344 
L 434.9554 269.378073 
L 435.722313 271.491344 
L 440.323792 271.491344 
L 441.857618 267.264802 
L 442.624531 250.358632 
L 443.391444 265.151531 
L 444.158358 269.378073 
L 444.925271 172.167599 
L 445.692184 212.319751 
L 446.459097 191.187039 
L 447.22601 89.750022 
L 447.992923 163.714514 
L 448.759836 267.264802 
L 449.526749 271.491344 
L 450.293662 271.491344 
L 451.060576 267.264802 
L 451.827489 241.905548 
L 452.594402 233.452463 
L 453.361315 260.924988 
L 454.128228 269.378073 
L 454.895141 151.034887 
L 455.662054 159.487971 
L 456.428967 258.811717 
L 457.19588 269.378073 
L 457.962793 220.772836 
L 458.729707 148.921615 
L 459.49662 205.979938 
L 460.263533 70.730582 
L 461.030446 239.792277 
L 461.797359 263.03826 
L 462.564272 159.487971 
L 463.331185 224.999378 
L 464.098098 263.03826 
L 464.865011 250.358632 
L 465.631925 258.811717 
L 466.398838 178.507412 
L 467.165751 28.465158 
L 467.932664 110.882734 
L 468.699577 256.698446 
L 469.46649 269.378073 
L 470.233403 250.358632 
L 471.000316 70.730582 
L 471.767229 15.785531 
L 472.534143 81.296937 
L 473.301056 218.659565 
L 474.067969 263.03826 
L 475.601795 62.277497 
L 476.368708 77.070395 
L 477.135621 41.144785 
L 477.902534 60.164226 
L 478.669447 235.565734 
L 479.436361 241.905548 
L 480.203274 60.164226 
L 480.970187 218.659565 
L 481.7371 68.61731 
L 483.270926 271.491344 
L 484.037839 208.093209 
L 484.804752 186.960497 
L 485.571665 174.28087 
L 486.338579 74.957124 
L 487.105492 83.410209 
L 487.872405 142.581802 
L 488.639318 87.636751 
L 489.406231 241.905548 
L 490.173144 263.03826 
L 490.940057 180.620683 
L 491.70697 197.526853 
L 492.473883 252.471904 
L 493.240797 269.378073 
L 494.00771 267.264802 
L 494.774623 197.526853 
L 495.541536 155.261429 
L 496.308449 241.905548 
L 497.075362 180.620683 
L 497.842275 248.245361 
L 498.609188 178.507412 
L 499.376101 250.358632 
L 500.143015 184.847226 
L 500.909928 231.339192 
L 501.676841 267.264802 
L 502.443754 184.847226 
L 503.210667 197.526853 
L 503.97758 237.679005 
L 504.744493 106.656192 
L 505.511406 93.976565 
L 506.278319 258.811717 
L 507.045233 252.471904 
L 507.812146 174.28087 
L 508.579059 254.585175 
L 509.345972 263.03826 
L 510.112885 144.695073 
L 511.646711 271.491344 
L 515.481277 271.491344 
L 516.24819 222.886107 
L 517.015103 28.465158 
L 517.782016 227.112649 
L 518.548929 271.491344 
L 519.315842 267.264802 
L 520.082755 148.921615 
L 520.849669 201.753395 
L 521.616582 271.491344 
L 523.150408 267.264802 
L 523.917321 271.491344 
L 536.187931 271.491344 
L 536.954844 269.378073 
L 537.721757 265.151531 
L 538.48867 146.808344 
L 540.022496 269.378073 
L 540.789409 269.378073 
L 541.556322 248.245361 
L 542.323236 235.565734 
L 543.090149 267.264802 
L 543.857062 271.491344 
L 547.691627 271.491344 
L 548.45854 269.378073 
L 549.225454 241.905548 
L 549.992367 246.13209 
L 550.75928 271.491344 
L 552.293106 271.491344 
L 553.060019 244.018819 
L 553.826932 176.394141 
L 554.593845 258.811717 
L 555.360758 269.378073 
L 556.127672 271.491344 
L 556.894585 267.264802 
L 557.661498 182.733954 
L 558.428411 220.772836 
L 559.195324 267.264802 
L 559.962237 263.03826 
L 561.496063 271.491344 
L 566.097542 271.491344 
L 566.864455 269.378073 
L 567.631368 271.491344 
L 568.398281 252.471904 
L 569.165194 252.471904 
L 569.932108 271.491344 
L 572.232847 271.491344 
L 572.99976 263.03826 
L 572.99976 263.03826 
" clip-path="url(#p9d13f89748)" style="fill: none; stroke: #000000; stroke-width: 2; stroke-linecap: square"/>
   </g>
   <g id="line2d_16">
    <path d="M 60.701802 271.491344 
L 61.468716 271.491344 
L 62.235629 235.565734 
L 63.002542 180.620683 
L 63.769455 265.151531 
L 64.536368 269.378073 
L 65.303281 250.358632 
L 66.070194 112.996005 
L 66.837107 224.999378 
L 67.60402 271.491344 
L 71.438586 271.491344 
L 72.205499 269.378073 
L 72.972412 271.491344 
L 73.739325 246.13209 
L 74.506238 129.902175 
L 75.273152 244.018819 
L 76.040065 269.378073 
L 76.806978 271.491344 
L 86.776848 271.491344 
L 87.543761 250.358632 
L 88.310674 256.698446 
L 89.077588 271.491344 
L 89.844501 224.999378 
L 90.611414 189.073768 
L 91.378327 267.264802 
L 92.14524 271.491344 
L 92.912153 269.378073 
L 93.679066 269.378073 
L 94.445979 244.018819 
L 95.212892 260.924988 
L 95.979806 189.073768 
L 96.746719 224.999378 
L 97.513632 269.378073 
L 98.280545 271.491344 
L 99.047458 271.491344 
L 100.581284 267.264802 
L 101.348197 271.491344 
L 102.11511 263.03826 
L 102.882024 233.452463 
L 103.648937 263.03826 
L 104.41585 267.264802 
L 105.182763 237.679005 
L 106.716589 271.491344 
L 111.318068 271.491344 
L 112.084981 269.378073 
L 112.851894 263.03826 
L 114.38572 271.491344 
L 115.152633 269.378073 
L 115.919546 250.358632 
L 116.68646 254.585175 
L 117.453373 271.491344 
L 119.754112 271.491344 
L 120.521025 269.378073 
L 121.287938 269.378073 
L 122.054851 271.491344 
L 123.588678 271.491344 
L 124.355591 269.378073 
L 125.122504 250.358632 
L 125.889417 254.585175 
L 126.65633 269.378073 
L 127.423243 222.886107 
L 128.190156 191.187039 
L 128.957069 265.151531 
L 129.723982 271.491344 
L 148.129897 271.491344 
L 148.89681 267.264802 
L 149.663723 246.13209 
L 150.430636 267.264802 
L 151.197549 271.491344 
L 154.265202 271.491344 
L 155.032115 216.546293 
L 155.799028 195.413582 
L 156.565941 269.378073 
L 157.332854 271.491344 
L 165.001985 271.491344 
L 165.768899 212.319751 
L 166.535812 142.581802 
L 167.302725 260.924988 
L 168.069638 271.491344 
L 168.836551 271.491344 
L 169.603464 269.378073 
L 170.370377 246.13209 
L 171.13729 263.03826 
L 171.904203 239.792277 
L 172.671117 250.358632 
L 173.43803 269.378073 
L 174.204943 271.491344 
L 181.107161 271.491344 
L 181.874074 269.378073 
L 182.640987 271.491344 
L 183.4079 220.772836 
L 184.174813 182.733954 
L 184.941726 250.358632 
L 185.708639 263.03826 
L 186.475553 246.13209 
L 187.242466 267.264802 
L 188.776292 271.491344 
L 191.843944 271.491344 
L 192.610857 256.698446 
L 193.377771 252.471904 
L 194.144684 233.452463 
L 194.911597 180.620683 
L 195.67851 265.151531 
L 196.445423 271.491344 
L 197.212336 271.491344 
L 197.979249 269.378073 
L 198.746162 246.13209 
L 199.513075 239.792277 
L 200.279989 258.811717 
L 201.046902 271.491344 
L 202.580728 271.491344 
L 204.114554 267.264802 
L 204.881467 271.491344 
L 208.716033 271.491344 
L 209.482946 250.358632 
L 210.249859 256.698446 
L 211.016772 271.491344 
L 214.851338 271.491344 
L 215.618251 267.264802 
L 216.385164 244.018819 
L 217.152077 263.03826 
L 217.91899 182.733954 
L 218.685903 233.452463 
L 219.452816 269.378073 
L 220.219729 271.491344 
L 220.986642 216.546293 
L 221.753556 195.413582 
L 222.520469 269.378073 
L 223.287382 269.378073 
L 224.054295 263.03826 
L 224.821208 231.339192 
L 225.588121 263.03826 
L 226.355034 271.491344 
L 227.121947 265.151531 
L 227.88886 115.109276 
L 229.422687 256.698446 
L 230.1896 252.471904 
L 230.956513 269.378073 
L 231.723426 271.491344 
L 232.490339 241.905548 
L 233.257252 178.507412 
L 234.024165 260.924988 
L 234.791078 269.378073 
L 235.557992 271.491344 
L 236.324905 271.491344 
L 237.091818 269.378073 
L 237.858731 250.358632 
L 238.625644 256.698446 
L 239.392557 271.491344 
L 243.227123 271.491344 
L 243.994036 265.151531 
L 244.760949 231.339192 
L 245.527862 260.924988 
L 246.294775 271.491344 
L 248.595514 271.491344 
L 249.362428 252.471904 
L 250.129341 237.679005 
L 250.896254 269.378073 
L 251.663167 271.491344 
L 252.43008 269.378073 
L 253.196993 246.13209 
L 253.963906 267.264802 
L 254.730819 246.13209 
L 255.497732 263.03826 
L 256.264646 271.491344 
L 257.798472 271.491344 
L 258.565385 267.264802 
L 259.332298 265.151531 
L 260.099211 271.491344 
L 263.166864 271.491344 
L 263.933777 269.378073 
L 264.70069 246.13209 
L 265.467603 260.924988 
L 266.234516 271.491344 
L 267.001429 271.491344 
L 267.768342 184.847226 
L 268.535255 163.714514 
L 269.302168 269.378073 
L 270.069082 271.491344 
L 270.835995 265.151531 
L 271.602908 244.018819 
L 272.369821 263.03826 
L 273.136734 269.378073 
L 273.903647 269.378073 
L 274.67056 271.491344 
L 276.9713 271.491344 
L 278.505126 239.792277 
L 279.272039 233.452463 
L 280.038952 229.225921 
L 280.805865 265.151531 
L 281.572778 246.13209 
L 282.339691 265.151531 
L 283.106604 271.491344 
L 283.873518 269.378073 
L 284.640431 271.491344 
L 285.407344 271.491344 
L 286.174257 269.378073 
L 286.94117 271.491344 
L 287.708083 269.378073 
L 288.474996 271.491344 
L 290.775736 271.491344 
L 291.542649 260.924988 
L 292.309562 178.507412 
L 293.076475 244.018819 
L 293.843388 271.491344 
L 296.91104 271.491344 
L 297.677953 214.433022 
L 298.444867 142.581802 
L 299.21178 263.03826 
L 299.978693 246.13209 
L 300.745606 129.902175 
L 301.512519 241.905548 
L 302.279432 269.378073 
L 303.046345 227.112649 
L 303.813258 250.358632 
L 304.580171 201.753395 
L 305.347085 208.093209 
L 306.113998 271.491344 
L 308.414737 271.491344 
L 309.18165 265.151531 
L 309.948563 244.018819 
L 310.715476 260.924988 
L 311.482389 269.378073 
L 312.249303 271.491344 
L 313.783129 271.491344 
L 314.550042 176.394141 
L 315.316955 170.054327 
L 316.083868 269.378073 
L 316.850781 269.378073 
L 317.617694 263.03826 
L 318.384607 227.112649 
L 319.151521 174.28087 
L 319.918434 235.565734 
L 320.685347 263.03826 
L 321.45226 269.378073 
L 322.219173 271.491344 
L 322.986086 267.264802 
L 323.752999 267.264802 
L 324.519912 258.811717 
L 325.286825 254.585175 
L 326.053739 271.491344 
L 328.354478 271.491344 
L 329.121391 269.378073 
L 329.888304 248.245361 
L 330.655217 265.151531 
L 332.955957 271.491344 
L 333.72287 214.433022 
L 334.489783 199.640124 
L 335.256696 269.378073 
L 336.023609 271.491344 
L 336.790522 271.491344 
L 337.557435 267.264802 
L 338.324348 244.018819 
L 339.091261 267.264802 
L 339.858175 271.491344 
L 340.625088 267.264802 
L 341.392001 155.261429 
L 342.158914 193.30031 
L 342.925827 263.03826 
L 343.69274 258.811717 
L 344.459653 252.471904 
L 345.226566 248.245361 
L 345.993479 269.378073 
L 346.760393 271.491344 
L 347.527306 269.378073 
L 348.294219 271.491344 
L 349.828045 271.491344 
L 350.594958 269.378073 
L 351.361871 197.526853 
L 352.128784 212.319751 
L 352.895697 271.491344 
L 353.662611 269.378073 
L 354.429524 260.924988 
L 355.196437 246.13209 
L 355.96335 269.378073 
L 356.730263 271.491344 
L 358.264089 271.491344 
L 359.031002 265.151531 
L 359.797915 269.378073 
L 360.564829 271.491344 
L 369.000873 271.491344 
L 369.767786 265.151531 
L 370.534699 267.264802 
L 371.301612 271.491344 
L 372.068525 269.378073 
L 372.835438 269.378073 
L 373.602351 271.491344 
L 374.369265 269.378073 
L 375.136178 271.491344 
L 380.504569 271.491344 
L 381.271482 172.167599 
L 382.038396 129.902175 
L 382.805309 241.905548 
L 383.572222 180.620683 
L 384.339135 263.03826 
L 385.106048 271.491344 
L 386.639874 271.491344 
L 387.406787 269.378073 
L 388.1737 229.225921 
L 388.940614 246.13209 
L 389.707527 269.378073 
L 390.47444 271.491344 
L 391.241353 224.999378 
L 392.008266 186.960497 
L 392.775179 258.811717 
L 393.542092 227.112649 
L 394.309005 174.28087 
L 395.075918 256.698446 
L 395.842832 258.811717 
L 396.609745 102.429649 
L 397.376658 210.20648 
L 398.143571 146.808344 
L 398.910484 180.620683 
L 399.677397 271.491344 
L 406.579615 271.491344 
L 407.346528 269.378073 
L 408.113441 180.620683 
L 408.880354 197.526853 
L 409.647268 260.924988 
L 410.414181 252.471904 
L 411.181094 263.03826 
L 411.948007 246.13209 
L 412.71492 265.151531 
L 413.481833 252.471904 
L 414.248746 129.902175 
L 415.015659 235.565734 
L 415.782572 269.378073 
L 416.549486 271.491344 
L 417.316399 269.378073 
L 418.083312 271.491344 
L 418.850225 271.491344 
L 419.617138 258.811717 
L 420.384051 212.319751 
L 421.150964 182.733954 
L 421.917877 263.03826 
L 422.68479 271.491344 
L 423.451704 271.491344 
L 424.218617 269.378073 
L 424.98553 235.565734 
L 425.752443 235.565734 
L 426.519356 229.225921 
L 427.286269 248.245361 
L 428.053182 271.491344 
L 428.820095 271.491344 
L 430.353922 237.679005 
L 431.120835 244.018819 
L 431.887748 178.507412 
L 432.654661 258.811717 
L 433.421574 271.491344 
L 441.857618 271.491344 
L 442.624531 254.585175 
L 443.391444 269.378073 
L 444.158358 271.491344 
L 444.925271 176.394141 
L 445.692184 218.659565 
L 446.459097 197.526853 
L 447.22601 98.203107 
L 447.992923 172.167599 
L 448.759836 271.491344 
L 451.060576 271.491344 
L 451.827489 260.924988 
L 452.594402 252.471904 
L 453.361315 271.491344 
L 454.128228 271.491344 
L 454.895141 176.394141 
L 455.662054 186.960497 
L 456.428967 271.491344 
L 457.19588 271.491344 
L 457.962793 252.471904 
L 458.729707 180.620683 
L 459.49662 239.792277 
L 460.263533 108.769463 
L 461.030446 271.491344 
L 461.797359 271.491344 
L 462.564272 208.093209 
L 463.331185 271.491344 
L 465.631925 271.491344 
L 466.398838 237.679005 
L 467.165751 87.636751 
L 467.932664 170.054327 
L 468.699577 271.491344 
L 470.233403 271.491344 
L 471.000316 136.241988 
L 471.767229 83.410209 
L 472.534143 148.921615 
L 473.301056 271.491344 
L 474.067969 271.491344 
L 474.834882 237.679005 
L 475.601795 132.015446 
L 476.368708 148.921615 
L 477.135621 110.882734 
L 477.902534 129.902175 
L 478.669447 271.491344 
L 479.436361 271.491344 
L 480.203274 125.675632 
L 480.970187 271.491344 
L 481.7371 132.015446 
L 482.504013 237.679005 
L 483.270926 271.491344 
L 484.037839 265.151531 
L 484.804752 244.018819 
L 485.571665 229.225921 
L 486.338579 125.675632 
L 487.105492 129.902175 
L 487.872405 182.733954 
L 488.639318 127.788904 
L 489.406231 271.491344 
L 490.173144 271.491344 
L 490.940057 218.659565 
L 491.70697 235.565734 
L 492.473883 271.491344 
L 494.00771 271.491344 
L 495.541536 178.507412 
L 496.308449 263.03826 
L 497.075362 199.640124 
L 497.842275 265.151531 
L 498.609188 195.413582 
L 499.376101 265.151531 
L 500.143015 197.526853 
L 500.909928 241.905548 
L 501.676841 271.491344 
L 502.443754 193.30031 
L 503.210667 205.979938 
L 503.97758 246.13209 
L 504.744493 112.996005 
L 505.511406 100.316378 
L 506.278319 265.151531 
L 507.045233 256.698446 
L 507.812146 178.507412 
L 508.579059 258.811717 
L 509.345972 267.264802 
L 510.112885 148.921615 
L 511.646711 271.491344 
L 515.481277 271.491344 
L 516.24819 224.999378 
L 517.015103 30.578429 
L 517.782016 227.112649 
L 518.548929 271.491344 
L 519.315842 267.264802 
L 520.082755 148.921615 
L 520.849669 201.753395 
L 521.616582 271.491344 
L 523.150408 267.264802 
L 523.917321 271.491344 
L 536.187931 271.491344 
L 536.954844 269.378073 
L 537.721757 265.151531 
L 538.48867 146.808344 
L 540.022496 269.378073 
L 540.789409 269.378073 
L 541.556322 248.245361 
L 542.323236 235.565734 
L 543.090149 267.264802 
L 543.857062 271.491344 
L 547.691627 271.491344 
L 548.45854 269.378073 
L 549.225454 241.905548 
L 549.992367 246.13209 
L 550.75928 271.491344 
L 552.293106 271.491344 
L 553.060019 244.018819 
L 553.826932 176.394141 
L 554.593845 258.811717 
L 555.360758 269.378073 
L 556.127672 271.491344 
L 556.894585 267.264802 
L 557.661498 182.733954 
L 558.428411 220.772836 
L 559.195324 267.264802 
L 559.962237 263.03826 
L 561.496063 271.491344 
L 566.097542 271.491344 
L 566.864455 269.378073 
L 567.631368 271.491344 
L 568.398281 252.471904 
L 569.165194 252.471904 
L 569.932108 271.491344 
L 572.232847 271.491344 
L 572.99976 263.03826 
L 572.99976 263.03826 
" clip-path="url(#p9d13f89748)" style="fill: none; stroke: #d62728; stroke-width: 1.8; stroke-linecap: square"/>
   </g>
   <g id="patch_3">
    <path d="M 60.701802 284.276635 
L 60.701802 3.00024 
" style="fill: none; stroke: #000000; stroke-linejoin: miter; stroke-linecap: square"/>
   </g>
   <g id="patch_4">
    <path d="M 572.99976 284.276635 
L 572.99976 3.00024 
" style="fill: none; stroke: #000000; stroke-linejoin: miter; stroke-linecap: square"/>
   </g>
   <g id="patch_5">
    <path d="M 60.701802 284.276635 
L 572.99976 284.276635 
" style="fill: none; stroke: #000000; stroke-linejoin: miter; stroke-linecap: square"/>
   </g>
   <g id="patch_6">
    <path d="M 60.701802 3.00024 
L 572.99976 3.00024 
" style="fill: none; stroke: #000000; stroke-linejoin: miter; stroke-linecap: square"/>
   </g>
   <g id="legend_1">
    <g id="patch_7">
     <path d="M 319.69476 68.74524 
L 560.39976 68.74524 
Q 563.99976 68.74524 563.99976 65.14524 
L 563.99976 15.60024 
Q 563.99976 12.00024 560.39976 12.00024 
L 319.69476 12.00024 
Q 316.09476 12.00024 316.09476 15.60024 
L 316.09476 65.14524 
Q 316.09476 68.74524 319.69476 68.74524 
z
" style="fill: #ffffff; opacity: 0.8; stroke: #cccccc; stroke-linejoin: miter"/>
    </g>
    <g id="line2d_17">
     <path d="M 323.29476 25.784302 
L 341.29476 25.784302 
L 359.29476 25.784302 
" style="fill: none; stroke: #000000; stroke-width: 2; stroke-linecap: square"/>
    </g>
    <g id="text_17">
     <text style="font: 18px 'Arial'; text-anchor: start" x="373.69476" y="32.084302" transform="rotate(-0, 373.69476, 32.084302)">raw intensity</text>
    </g>
    <g id="line2d_18">
     <path d="M 323.29476 51.456802 
L 341.29476 51.456802 
L 359.29476 51.456802 
" style="fill: none; stroke: #d62728; stroke-width: 1.8; stroke-linecap: square"/>
    </g>
    <g id="text_18">
     <text style="font: 18px 'Arial'; text-anchor: start" x="373.69476" y="57.756802" transform="rotate(-0, 373.69476, 57.756802)">background subtracted</text>
    </g>
   </g>
  </g>
 </g>
 <defs>
  <clipPath id="p9d13f89748">
   <rect x="60.701802" y="3.00024" width="512.297958" height="281.276395"/>
  </clipPath>
 </defs>
</svg>
