<?xml version="1.0" encoding="utf-8" standalone="no"?>
<!DOCTYPE svg PUBLIC "-//W3C//DTD SVG 1.1//EN"
  "http://www.w3.org/Graphics/SVG/1.1/DTD/svg11.dtd">
<svg xmlns:xlink="http://www.w3.org/1999/xlink" width="576pt" height="331.2pt" viewBox="0 0 576 331.2" xmlns="http://www.w3.org/2000/svg" version="1.1">
 <metadata>
  <rdf:RDF xmlns:dc="http://purl.org/dc/elements/1.1/" xmlns:cc="http://creativecommons.org/ns#" xmlns:rdf="http://www.w3.org/1999/02/22-rdf-syntax-ns#">
   <cc:Work>
    <dc:type rdf:resource="http://purl.org/dc/dcmitype/StillImage"/>
    <dc:date>2026-07-11T15:46:36.021473</dc:date>
    <dc:format>image/svg+xml</dc:format>
    <dc:creator>
     <cc:Agent>
      <dc:title>Matplotlib v3.5.1, https://matplotlib.org/</dc:title>
     </cc:Agent>
    </dc:creator>
   </cc:Work>
  </rdf:RDF>
 </metadata>
 <defs>
  <style type="text/css">*{stroke-linejoin: round; stroke-linecap: butt}</style>
 </defs>
 <g id="figure_1">
  <g id="patch_1">
   <path d="M 0 331.2 
L 576 331.2 
L 576 0 
L 0 0 
z
" style="fill: #ffffff"/>
  </g>
  <g id="axes_1">
   <g id="patch_2">
    <path d="M 60.701802 284.276635 
L 572.99976 284.276635 
L 572.99976 3.00024 
L 60.701802 3.00024 
z
" style="fill: #ffffff"/>
   </g>
   <g id="matplotlib.axis_1">
    <g id="xtick_1">
     <g id="line2d_1">
      <defs>
       <path id="m3df435d22e" d="M 0 0 
L 0 3.5 
" style="stroke: #000000; stroke-width: 0.8"/>
      </defs>
      <g>
       <use xlink:href="#m3df435d22e" x="60.701802" y="284.276635" style="stroke: #000000; stroke-width: 0.8"/>
      </g>
     </g>
     <g id="text_1">
      <text style="font: 18px 'Arial'; text-anchor: middle" x="60.701802" y="304.160697" transform="rotate(-0, 60.701802, 304.160697)">0</text>
     </g>
    </g>
    <g id="xtick_2">
     <g id="line2d_2">
      <g>
       <use xlink:href="#m3df435d22e" x="137.393114" y="284.276635" style="stroke: #000000; stroke-width: 0.8"/>
      </g>
     </g>
     <g id="text_2">
      <text style="font: 18px 'Arial'; text-anchor: middle" x="137.393114" y="304.160697" transform="rotate(-0, 137.393114, 304.160697)">100</text>
     </g>
    </g>
    <g id="xtick_3">
     <g id="line2d_3">
      <g>
       <use xlink:href="#m3df435d22e" x="214.084425" y="284.276635" style="stroke: #000000; stroke-width: 0.8"/>
      </g>
     </g>
     <g id="text_3">
      <text style="font: 18px 'Arial'; text-anchor: middle" x="214.084425" y="304.160697" transform="rotate(-0, 214.084425, 304.160697)">200</text>
     </g>
    </g>
    <g id="xtick_4">
     <g id="line2d_4">
      <g>
       <use xlink:href="#m3df435d22e" x="290.775736" y="284.276635" style="stroke: #000000; stroke-width: 0.8"/>
      </g>
     </g>
     <g id="text_4">
      <text style="font: 18px 'Arial'; text-anchor: middle" x="290.775736" y="304.160697" transform="rotate(-0, 290.775736, 304.160697)">300</text>
     </g>
    </g>
    <g id="xtick_5">
     <g id="line2d_5">
      <g>
       <use xlink:href="#m3df435d22e" x="367.467047" y="284.276635" style="stroke: #000000; stroke-width: 0.8"/>
      </g>
     </g>
     <g id="text_5">
      <text style="font: 18px 'Arial'; text-anchor: middle" x="367.467047" y="304.160697" transform="rotate(-0, 367.467047, 304.160697)">400</text>
     </g>
    </g>
    <g id="xtick_6">
     <g id="line2d_6">
      <g>
       <use xlink:href="#m3df435d22e" x="444.158358" y="284.276635" style="stroke: #000000; stroke-width: 0.8"/>
      </g>
     </g>
     <g id="text_6">
      <text style="font: 18px 'Arial'; text-anchor: middle" x="444.158358" y="304.160697" transform="rotate(-0, 444.158358, 304.160697)">500</text>
     </g>
    </g>
    <g id="xtick_7">
     <g id="line2d_7">
      <g>
       <use xlink:href="#m3df435d22e" x="520.849669" y="284.276635" style="stroke: #000000; stroke-width: 0.8"/>
      </g>
     </g>
     <g id="text_7">
      <text style="font: 18px 'Arial'; text-anchor: middle" x="520.849669" y="304.160697" transform="rotate(-0, 520.849669, 304.160697)">600</text>
     </g>
    </g>
    <g id="text_8">
     <text style="font: 18px 'Arial'; text-anchor: middle" x="316.850781" y="324.62226" transform="rotate(-0, 316.850781, 324.62226)">x pixel</text>
    </g>
   </g>
   <g id="matplotlib.axis_2">
    <g id="ytick_1">
     <g id="line2d_8">
      <defs>
       <path id="ma843c8a07e" d="M 0 0 
L -3.5 0 
" style="stroke: #000000; stroke-width: 0.8"/>
      </defs>
      <g>
       <use xlink:href="#ma843c8a07e" x="60.701802" y="271.491344" style="stroke: #000000; stroke-width: 0.8"/>
      </g>
     </g>
     <g id="text_9">
      <text style="font: 18px 'Arial'; text-anchor: end" x="53.701802" y="277.933376" transform="rotate(-0, 53.701802, 277.933376)">0</text>
     </g>
    </g>
    <g id="ytick_2">
     <g id="line2d_9">
      <g>
       <use xlink:href="#ma843c8a07e" x="60.701802" y="197.58793" style="stroke: #000000; stroke-width: 0.8"/>
      </g>
     </g>
     <g id="text_10">
      <text style="font: 18px 'Arial'; text-anchor: end" x="53.701802" y="204.029961" transform="rotate(-0, 53.701802, 204.029961)">50</text>
     </g>
    </g>
    <g id="ytick_3">
     <g id="line2d_10">
      <g>
       <use xlink:href="#ma843c8a07e" x="60.701802" y="123.684516" style="stroke: #000000; stroke-width: 0.8"/>
      </g>
     </g>
     <g id="text_11">
      <text style="font: 18px 'Arial'; text-anchor: end" x="53.701802" y="130.126547" transform="rotate(-0, 53.701802, 130.126547)">100</text>
     </g>
    </g>
    <g id="ytick_4">
     <g id="line2d_11">
      <g>
       <use xlink:href="#ma843c8a07e" x="60.701802" y="49.781101" style="stroke: #000000; stroke-width: 0.8"/>
      </g>
     </g>
     <g id="text_12">
      <text style="font: 18px 'Arial'; text-anchor: end" x="53.701802" y="56.223133" transform="rotate(-0, 53.701802, 56.223133)">150</text>
     </g>
    </g>
    <g id="text_13">
     <text style="font: 18px 'Arial'; text-anchor: middle" x="15.884303" y="143.638437" transform="rotate(-90, 15.884303, 143.638437)">Intensity [a.u.]</text>
    </g>
   </g>
   <g id="line2d_12">
    <path d="M 60.701802 270.013276 
L 61.468716 271.491344 
L 62.235629 271.491344 
L 63.002542 253.754525 
L 63.769455 213.846681 
L 64.536368 250.798388 
L 65.303281 157.680086 
L 66.070194 246.364183 
L 66.837107 270.013276 
L 67.60402 221.237023 
L 68.370934 194.631793 
L 69.137847 241.929979 
L 69.90476 271.491344 
L 71.438586 271.491344 
L 72.205499 270.013276 
L 72.972412 255.232593 
L 73.739325 210.890545 
L 74.506238 262.622935 
L 75.273152 271.491344 
L 76.040065 271.491344 
L 76.806978 270.013276 
L 77.573891 271.491344 
L 82.17537 271.491344 
L 82.942283 258.18873 
L 83.709196 209.412476 
L 84.476109 262.622935 
L 85.243022 271.491344 
L 86.776848 271.491344 
L 87.543761 270.013276 
L 88.310674 270.013276 
L 89.077588 271.491344 
L 90.611414 185.763384 
L 91.378327 268.535208 
L 92.14524 256.710661 
L 92.912153 210.890545 
L 93.679066 262.622935 
L 94.445979 271.491344 
L 95.212892 270.013276 
L 95.979806 271.491344 
L 99.047458 271.491344 
L 99.814371 231.583501 
L 100.581284 179.851111 
L 101.348197 265.579071 
L 102.11511 270.013276 
L 102.882024 265.579071 
L 103.648937 231.583501 
L 104.41585 259.666798 
L 105.182763 271.491344 
L 109.017328 271.491344 
L 109.784242 270.013276 
L 110.551155 270.013276 
L 111.318068 265.579071 
L 112.084981 243.408047 
L 112.851894 265.579071 
L 113.618807 271.491344 
L 116.68646 271.491344 
L 117.453373 219.758954 
L 118.220286 141.421335 
L 118.987199 188.71952 
L 119.754112 247.842252 
L 120.521025 182.807247 
L 121.287938 259.666798 
L 122.054851 271.491344 
L 123.588678 271.491344 
L 124.355591 270.013276 
L 125.122504 270.013276 
L 125.889417 271.491344 
L 126.65633 271.491344 
L 127.423243 270.013276 
L 128.190156 270.013276 
L 128.957069 271.491344 
L 132.024722 271.491344 
L 132.791635 267.057139 
L 133.558548 182.807247 
L 134.325461 173.938837 
L 135.092374 243.408047 
L 135.859287 271.491344 
L 136.6262 270.013276 
L 137.393114 271.491344 
L 142.761505 271.491344 
L 143.528418 270.013276 
L 144.295331 270.013276 
L 145.062245 271.491344 
L 148.89681 271.491344 
L 149.663723 258.18873 
L 150.430636 178.373042 
L 151.197549 190.197589 
L 151.964463 230.105432 
L 152.731376 261.144866 
L 153.498289 270.013276 
L 154.265202 271.491344 
L 155.032115 236.017705 
L 155.799028 222.715091 
L 156.565941 270.013276 
L 157.332854 271.491344 
L 158.099767 271.491344 
L 158.866681 256.710661 
L 159.633594 182.807247 
L 160.400507 250.798388 
L 161.16742 271.491344 
L 161.934333 270.013276 
L 162.701246 222.715091 
L 163.468159 237.495774 
L 164.235072 270.013276 
L 165.768899 247.842252 
L 166.535812 270.013276 
L 167.302725 271.491344 
L 168.069638 265.579071 
L 168.836551 224.193159 
L 169.603464 203.500203 
L 170.370377 255.232593 
L 171.13729 271.491344 
L 174.971856 271.491344 
L 175.738769 250.798388 
L 176.505682 215.324749 
L 177.272595 261.144866 
L 178.039508 204.978271 
L 178.806421 200.544067 
L 179.573335 258.18873 
L 180.340248 218.280886 
L 181.107161 247.842252 
L 181.874074 243.408047 
L 182.640987 247.842252 
L 183.4079 271.491344 
L 184.174813 270.013276 
L 186.475553 270.013276 
L 187.242466 259.666798 
L 188.009379 187.241452 
L 188.776292 249.32032 
L 189.543205 271.491344 
L 194.911597 271.491344 
L 195.67851 250.798388 
L 196.445423 182.807247 
L 197.212336 258.18873 
L 197.979249 271.491344 
L 203.347641 271.491344 
L 204.114554 237.495774 
L 204.881467 172.460769 
L 205.64838 262.622935 
L 206.415293 271.491344 
L 207.182207 270.013276 
L 207.94912 265.579071 
L 208.716033 190.197589 
L 210.249859 271.491344 
L 211.016772 271.491344 
L 211.783685 270.013276 
L 212.550598 270.013276 
L 213.317511 271.491344 
L 214.084425 271.491344 
L 214.851338 249.32032 
L 215.618251 168.026564 
L 216.385164 252.276457 
L 217.152077 271.491344 
L 218.685903 271.491344 
L 219.452816 225.671227 
L 220.219729 234.539637 
L 220.986642 271.491344 
L 221.753556 271.491344 
L 222.520469 270.013276 
L 223.287382 262.622935 
L 224.054295 244.886115 
L 224.821208 270.013276 
L 225.588121 270.013276 
L 226.355034 271.491344 
L 227.88886 271.491344 
L 228.655774 270.013276 
L 229.422687 271.491344 
L 230.1896 271.491344 
L 230.956513 270.013276 
L 231.723426 271.491344 
L 234.024165 271.491344 
L 234.791078 267.057139 
L 235.557992 244.886115 
L 236.324905 264.101003 
L 237.091818 271.491344 
L 237.858731 270.013276 
L 238.625644 271.491344 
L 240.15947 271.491344 
L 240.926383 247.842252 
L 241.693296 203.500203 
L 242.46021 231.583501 
L 243.227123 268.535208 
L 243.994036 261.144866 
L 244.760949 181.329179 
L 245.527862 247.842252 
L 246.294775 270.013276 
L 247.061688 225.671227 
L 247.828601 194.631793 
L 248.595514 236.017705 
L 249.362428 270.013276 
L 251.663167 270.013276 
L 252.43008 271.491344 
L 257.798472 271.491344 
L 258.565385 236.017705 
L 259.332298 225.671227 
L 260.099211 249.32032 
L 260.866124 213.846681 
L 261.633037 267.057139 
L 262.39995 270.013276 
L 263.166864 267.057139 
L 263.933777 236.017705 
L 264.70069 261.144866 
L 265.467603 218.280886 
L 267.001429 270.013276 
L 267.768342 271.491344 
L 268.535255 270.013276 
L 271.602908 270.013276 
L 272.369821 271.491344 
L 273.136734 271.491344 
L 273.903647 270.013276 
L 274.67056 270.013276 
L 275.437473 271.491344 
L 276.204386 227.149296 
L 276.9713 233.061569 
L 277.738213 270.013276 
L 278.505126 271.491344 
L 279.272039 271.491344 
L 280.038952 249.32032 
L 280.805865 166.548496 
L 281.572778 170.982701 
L 282.339691 219.758954 
L 283.106604 165.070428 
L 283.873518 145.85554 
L 284.640431 181.329179 
L 285.407344 252.276457 
L 286.174257 225.671227 
L 286.94117 156.202018 
L 287.708083 138.465198 
L 288.474996 176.894974 
L 289.241909 256.710661 
L 290.008822 213.846681 
L 290.775736 246.364183 
L 291.542649 259.666798 
L 292.309562 145.85554 
L 293.076475 233.061569 
L 293.843388 270.013276 
L 294.610301 213.846681 
L 295.377214 119.250311 
L 296.144127 120.728379 
L 296.91104 170.982701 
L 297.677953 157.680086 
L 298.444867 148.811677 
L 299.21178 210.890545 
L 299.978693 259.666798 
L 300.745606 225.671227 
L 301.512519 262.622935 
L 302.279432 270.013276 
L 303.046345 219.758954 
L 303.813258 221.237023 
L 304.580171 262.622935 
L 305.347085 215.324749 
L 306.113998 185.763384 
L 306.880911 255.232593 
L 307.647824 252.276457 
L 308.414737 215.324749 
L 309.18165 265.579071 
L 309.948563 262.622935 
L 310.715476 210.890545 
L 311.482389 255.232593 
L 312.249303 218.280886 
L 313.783129 271.491344 
L 315.316955 271.491344 
L 316.083868 241.929979 
L 316.850781 216.802818 
L 317.617694 268.535208 
L 318.384607 270.013276 
L 319.151521 270.013276 
L 319.918434 259.666798 
L 320.685347 136.98713 
L 321.45226 100.035423 
L 322.219173 173.938837 
L 323.752999 131.074857 
L 324.519912 120.728379 
L 325.286825 74.908262 
L 326.053739 138.465198 
L 326.820652 261.144866 
L 328.354478 162.114291 
L 329.121391 253.754525 
L 329.888304 163.592359 
L 330.655217 204.978271 
L 331.42213 197.58793 
L 332.189043 111.859969 
L 332.955957 40.912692 
L 333.72287 15.785531 
L 334.489783 57.171443 
L 335.256696 83.776672 
L 336.023609 26.132009 
L 336.790522 33.52235 
L 337.557435 60.127579 
L 338.324348 105.947696 
L 339.091261 144.377472 
L 339.858175 150.289745 
L 340.625088 100.035423 
L 341.392001 91.167013 
L 342.158914 216.802818 
L 342.925827 178.373042 
L 343.69274 92.645082 
L 344.459653 162.114291 
L 345.226566 170.982701 
L 345.993479 194.631793 
L 346.760393 252.276457 
L 347.527306 153.245881 
L 348.294219 163.592359 
L 349.061132 253.754525 
L 349.828045 267.057139 
L 350.594958 196.109862 
L 351.361871 209.412476 
L 352.128784 236.017705 
L 352.895697 247.842252 
L 353.662611 271.491344 
L 354.429524 271.491344 
L 355.196437 270.013276 
L 355.96335 252.276457 
L 356.730263 181.329179 
L 357.497176 256.710661 
L 358.264089 271.491344 
L 362.865568 271.491344 
L 364.399394 247.842252 
L 365.166307 262.622935 
L 365.93322 222.715091 
L 366.700133 206.45634 
L 367.467047 259.666798 
L 368.23396 271.491344 
L 369.767786 271.491344 
L 370.534699 255.232593 
L 371.301612 256.710661 
L 372.068525 270.013276 
L 372.835438 270.013276 
L 373.602351 271.491344 
L 375.136178 271.491344 
L 375.903091 270.013276 
L 376.670004 264.101003 
L 377.436917 184.285315 
L 378.20383 240.45191 
L 378.970743 271.491344 
L 379.737656 271.491344 
L 380.504569 270.013276 
L 381.271482 271.491344 
L 382.038396 271.491344 
L 382.805309 270.013276 
L 383.572222 247.842252 
L 384.339135 172.460769 
L 385.106048 200.544067 
L 385.872961 262.622935 
L 386.639874 271.491344 
L 387.406787 271.491344 
L 388.1737 270.013276 
L 388.940614 203.500203 
L 389.707527 218.280886 
L 390.47444 271.491344 
L 392.775179 271.491344 
L 393.542092 256.710661 
L 394.309005 210.890545 
L 395.075918 262.622935 
L 395.842832 271.491344 
L 396.609745 270.013276 
L 398.910484 270.013276 
L 399.677397 271.491344 
L 402.74505 271.491344 
L 403.511963 270.013276 
L 404.278876 270.013276 
L 405.045789 271.491344 
L 405.812702 270.013276 
L 406.579615 271.491344 
L 407.346528 271.491344 
L 408.113441 270.013276 
L 408.880354 215.324749 
L 409.647268 203.500203 
L 410.414181 270.013276 
L 411.181094 271.491344 
L 412.71492 271.491344 
L 413.481833 258.18873 
L 414.248746 184.285315 
L 415.015659 250.798388 
L 415.782572 270.013276 
L 416.549486 271.491344 
L 417.316399 270.013276 
L 418.083312 270.013276 
L 418.850225 271.491344 
L 419.617138 271.491344 
L 421.150964 249.32032 
L 421.917877 256.710661 
L 422.68479 213.846681 
L 423.451704 261.144866 
L 424.218617 244.886115 
L 424.98553 262.622935 
L 425.752443 271.491344 
L 426.519356 227.149296 
L 427.286269 240.45191 
L 428.053182 256.710661 
L 428.820095 165.070428 
L 429.587008 147.333608 
L 430.353922 227.149296 
L 431.120835 120.728379 
L 431.887748 252.276457 
L 432.654661 234.539637 
L 433.421574 240.45191 
L 434.188487 185.763384 
L 434.9554 215.324749 
L 435.722313 173.938837 
L 436.489226 215.324749 
L 437.25614 271.491344 
L 438.023053 271.491344 
L 438.789966 270.013276 
L 439.556879 244.886115 
L 440.323792 188.71952 
L 441.090705 264.101003 
L 441.857618 271.491344 
L 442.624531 268.535208 
L 444.158358 163.592359 
L 444.925271 188.71952 
L 445.692184 233.061569 
L 446.459097 231.583501 
L 447.22601 244.886115 
L 447.992923 249.32032 
L 448.759836 210.890545 
L 449.526749 212.368613 
L 450.293662 176.894974 
L 451.060576 224.193159 
L 451.827489 258.18873 
L 452.594402 159.158155 
L 453.361315 233.061569 
L 454.128228 244.886115 
L 454.895141 253.754525 
L 455.662054 270.013276 
L 456.428967 270.013276 
L 457.19588 259.666798 
L 457.962793 253.754525 
L 458.729707 268.535208 
L 459.49662 258.18873 
L 460.263533 212.368613 
L 461.030446 259.666798 
L 461.797359 159.158155 
L 462.564272 196.109862 
L 463.331185 168.026564 
L 464.098098 227.149296 
L 464.865011 270.013276 
L 466.398838 172.460769 
L 467.165751 230.105432 
L 467.932664 268.535208 
L 468.699577 236.017705 
L 469.46649 114.816106 
L 470.233403 200.544067 
L 471.000316 216.802818 
L 471.767229 154.72395 
L 472.534143 111.859969 
L 473.301056 128.11872 
L 474.067969 150.289745 
L 474.834882 194.631793 
L 475.601795 252.276457 
L 476.368708 261.144866 
L 477.902534 142.899403 
L 478.669447 150.289745 
L 479.436361 145.85554 
L 480.203274 213.846681 
L 480.970187 264.101003 
L 481.7371 197.58793 
L 482.504013 209.412476 
L 483.270926 244.886115 
L 484.037839 265.579071 
L 485.571665 150.289745 
L 486.338579 222.715091 
L 487.105492 194.631793 
L 487.872405 176.894974 
L 488.639318 253.754525 
L 489.406231 156.202018 
L 490.173144 170.982701 
L 490.940057 253.754525 
L 491.70697 231.583501 
L 492.473883 138.465198 
L 493.240797 203.500203 
L 494.00771 219.758954 
L 494.774623 191.675657 
L 495.541536 268.535208 
L 496.308449 241.929979 
L 497.075362 173.938837 
L 497.842275 250.798388 
L 498.609188 163.592359 
L 499.376101 252.276457 
L 500.143015 218.280886 
L 500.909928 256.710661 
L 502.443754 110.381901 
L 503.97758 271.491344 
L 504.744493 252.276457 
L 505.511406 182.807247 
L 506.278319 173.938837 
L 507.045233 262.622935 
L 507.812146 261.144866 
L 508.579059 184.285315 
L 509.345972 202.022135 
L 510.112885 151.767813 
L 510.879798 197.58793 
L 511.646711 219.758954 
L 512.413624 210.890545 
L 513.180537 246.364183 
L 513.947451 240.45191 
L 514.714364 135.509062 
L 515.481277 80.820535 
L 516.24819 144.377472 
L 517.015103 256.710661 
L 517.782016 261.144866 
L 518.548929 165.070428 
L 519.315842 163.592359 
L 520.082755 151.767813 
L 520.849669 187.241452 
L 521.616582 247.842252 
L 522.383495 271.491344 
L 531.586452 271.491344 
L 532.353365 252.276457 
L 533.120278 240.45191 
L 533.887191 270.013276 
L 534.654104 236.017705 
L 535.421018 116.294174 
L 536.187931 215.324749 
L 536.954844 264.101003 
L 537.721757 246.364183 
L 538.48867 261.144866 
L 539.255583 270.013276 
L 540.022496 271.491344 
L 543.090149 271.491344 
L 543.857062 264.101003 
L 544.623975 244.886115 
L 545.390888 267.057139 
L 546.157801 270.013276 
L 546.924714 271.491344 
L 547.691627 270.013276 
L 548.45854 222.715091 
L 549.225454 213.846681 
L 549.992367 191.675657 
L 550.75928 209.412476 
L 551.526193 270.013276 
L 552.293106 262.622935 
L 553.060019 250.798388 
L 553.826932 256.710661 
L 554.593845 212.368613 
L 555.360758 256.710661 
L 556.127672 185.763384 
L 556.894585 188.71952 
L 557.661498 256.710661 
L 558.428411 196.109862 
L 559.195324 210.890545 
L 559.962237 271.491344 
L 560.72915 240.45191 
L 561.496063 219.758954 
L 562.262976 270.013276 
L 563.02989 247.842252 
L 563.796803 181.329179 
L 564.563716 259.666798 
L 565.330629 268.535208 
L 566.097542 244.886115 
L 566.864455 210.890545 
L 567.631368 246.364183 
L 568.398281 271.491344 
L 569.165194 233.061569 
L 569.932108 225.671227 
L 570.699021 270.013276 
L 571.465934 271.491344 
L 572.99976 271.491344 
L 572.99976 271.491344 
" clip-path="url(#p4defa66309)" style="fill: none; stroke: #000000; stroke-width: 2; stroke-linecap: square"/>
   </g>
   <g id="line2d_13">
    <path d="M 60.701802 270.013276 
L 61.468716 271.491344 
L 62.235629 271.491344 
L 63.002542 253.754525 
L 63.769455 213.846681 
L 64.536368 250.798388 
L 65.303281 157.680086 
L 66.070194 246.364183 
L 66.837107 270.013276 
L 67.60402 221.237023 
L 68.370934 194.631793 
L 69.137847 241.929979 
L 69.90476 271.491344 
L 71.438586 271.491344 
L 72.205499 270.013276 
L 72.972412 255.232593 
L 73.739325 210.890545 
L 74.506238 262.622935 
L 75.273152 271.491344 
L 76.040065 271.491344 
L 76.806978 270.013276 
L 77.573891 271.491344 
L 82.17537 271.491344 
L 82.942283 258.18873 
L 83.709196 209.412476 
L 84.476109 262.622935 
L 85.243022 271.491344 
L 86.776848 271.491344 
L 87.543761 270.013276 
L 88.310674 270.013276 
L 89.077588 271.491344 
L 90.611414 185.763384 
L 91.378327 268.535208 
L 92.14524 256.710661 
L 92.912153 210.890545 
L 93.679066 262.622935 
L 94.445979 271.491344 
L 95.212892 270.013276 
L 95.979806 271.491344 
L 99.047458 271.491344 
L 99.814371 231.583501 
L 100.581284 179.851111 
L 101.348197 265.579071 
L 102.11511 270.013276 
L 102.882024 265.579071 
L 103.648937 231.583501 
L 104.41585 259.666798 
L 105.182763 271.491344 
L 109.017328 271.491344 
L 109.784242 270.013276 
L 110.551155 270.013276 
L 111.318068 265.579071 
L 112.084981 243.408047 
L 112.851894 265.579071 
L 113.618807 271.491344 
L 116.68646 271.491344 
L 117.453373 219.758954 
L 118.220286 141.421335 
L 118.987199 188.71952 
L 119.754112 247.842252 
L 120.521025 182.807247 
L 121.287938 259.666798 
L 122.054851 271.491344 
L 123.588678 271.491344 
L 124.355591 270.013276 
L 125.122504 270.013276 
L 125.889417 271.491344 
L 126.65633 271.491344 
L 127.423243 270.013276 
L 128.190156 270.013276 
L 128.957069 271.491344 
L 132.024722 271.491344 
L 132.791635 267.057139 
L 133.558548 182.807247 
L 134.325461 173.938837 
L 135.092374 243.408047 
L 135.859287 271.491344 
L 136.6262 270.013276 
L 137.393114 271.491344 
L 142.761505 271.491344 
L 143.528418 270.013276 
L 144.295331 270.013276 
L 145.062245 271.491344 
L 148.89681 271.491344 
L 149.663723 258.18873 
L 150.430636 178.373042 
L 151.197549 190.197589 
L 151.964463 230.105432 
L 152.731376 261.144866 
L 153.498289 270.013276 
L 154.265202 271.491344 
L 155.032115 236.017705 
L 155.799028 222.715091 
L 156.565941 270.013276 
L 157.332854 271.491344 
L 158.099767 271.491344 
L 158.866681 256.710661 
L 159.633594 182.807247 
L 160.400507 250.798388 
L 161.16742 271.491344 
L 161.934333 270.013276 
L 162.701246 222.715091 
L 163.468159 237.495774 
L 164.235072 270.013276 
L 165.768899 247.842252 
L 166.535812 270.013276 
L 167.302725 271.491344 
L 168.069638 265.579071 
L 168.836551 224.193159 
L 169.603464 203.500203 
L 170.370377 255.232593 
L 171.13729 271.491344 
L 174.971856 271.491344 
L 175.738769 250.798388 
L 176.505682 215.324749 
L 177.272595 261.144866 
L 178.039508 204.978271 
L 178.806421 200.544067 
L 179.573335 258.18873 
L 180.340248 218.280886 
L 181.107161 247.842252 
L 181.874074 243.408047 
L 182.640987 247.842252 
L 183.4079 271.491344 
L 184.174813 270.013276 
L 186.475553 270.013276 
L 187.242466 259.666798 
L 188.009379 187.241452 
L 188.776292 249.32032 
L 189.543205 271.491344 
L 194.911597 271.491344 
L 195.67851 250.798388 
L 196.445423 182.807247 
L 197.212336 258.18873 
L 197.979249 271.491344 
L 203.347641 271.491344 
L 204.114554 237.495774 
L 204.881467 172.460769 
L 205.64838 262.622935 
L 206.415293 271.491344 
L 207.182207 270.013276 
L 207.94912 265.579071 
L 208.716033 190.197589 
L 210.249859 271.491344 
L 211.016772 271.491344 
L 211.783685 270.013276 
L 212.550598 270.013276 
L 213.317511 271.491344 
L 214.084425 271.491344 
L 214.851338 249.32032 
L 215.618251 168.026564 
L 216.385164 252.276457 
L 217.152077 271.491344 
L 218.685903 271.491344 
L 219.452816 225.671227 
L 220.219729 234.539637 
L 220.986642 271.491344 
L 221.753556 271.491344 
L 222.520469 270.013276 
L 223.287382 262.622935 
L 224.054295 244.886115 
L 224.821208 270.013276 
L 225.588121 270.013276 
L 226.355034 271.491344 
L 227.88886 271.491344 
L 228.655774 270.013276 
L 229.422687 271.491344 
L 230.1896 271.491344 
L 230.956513 270.013276 
L 231.723426 271.491344 
L 234.024165 271.491344 
L 234.791078 267.057139 
L 235.557992 244.886115 
L 236.324905 264.101003 
L 237.091818 271.491344 
L 237.858731 270.013276 
L 238.625644 271.491344 
L 240.15947 271.491344 
L 240.926383 247.842252 
L 241.693296 203.500203 
L 242.46021 231.583501 
L 243.227123 268.535208 
L 243.994036 261.144866 
L 244.760949 181.329179 
L 245.527862 247.842252 
L 246.294775 270.013276 
L 247.061688 225.671227 
L 247.828601 194.631793 
L 248.595514 236.017705 
L 249.362428 270.013276 
L 251.663167 270.013276 
L 252.43008 271.491344 
L 257.798472 271.491344 
L 258.565385 236.017705 
L 259.332298 225.671227 
L 260.099211 249.32032 
L 260.866124 213.846681 
L 261.633037 267.057139 
L 262.39995 270.013276 
L 263.166864 267.057139 
L 263.933777 236.017705 
L 264.70069 261.144866 
L 265.467603 218.280886 
L 267.001429 270.013276 
L 267.768342 271.491344 
L 268.535255 270.013276 
L 271.602908 270.013276 
L 272.369821 271.491344 
L 273.136734 271.491344 
L 273.903647 270.013276 
L 274.67056 270.013276 
L 275.437473 271.491344 
L 276.204386 228.627364 
L 276.9713 234.539637 
L 277.738213 271.491344 
L 279.272039 271.491344 
L 280.038952 250.798388 
L 280.805865 168.026564 
L 281.572778 172.460769 
L 282.339691 221.237023 
L 283.106604 166.548496 
L 283.873518 147.333608 
L 284.640431 184.285315 
L 285.407344 256.710661 
L 286.174257 230.105432 
L 286.94117 163.592359 
L 287.708083 145.85554 
L 288.474996 187.241452 
L 289.241909 267.057139 
L 290.008822 224.193159 
L 290.775736 256.710661 
L 291.542649 271.491344 
L 292.309562 156.202018 
L 293.076475 243.408047 
L 293.843388 271.491344 
L 294.610301 225.671227 
L 295.377214 131.074857 
L 296.144127 132.552925 
L 296.91104 182.807247 
L 297.677953 168.026564 
L 298.444867 159.158155 
L 299.21178 219.758954 
L 299.978693 268.535208 
L 300.745606 234.539637 
L 301.512519 270.013276 
L 302.279432 271.491344 
L 303.046345 225.671227 
L 303.813258 225.671227 
L 304.580171 267.057139 
L 305.347085 218.280886 
L 306.113998 188.71952 
L 306.880911 256.710661 
L 307.647824 253.754525 
L 308.414737 216.802818 
L 309.18165 267.057139 
L 309.948563 264.101003 
L 310.715476 212.368613 
L 311.482389 256.710661 
L 312.249303 219.758954 
L 313.783129 271.491344 
L 315.316955 271.491344 
L 316.850781 218.280886 
L 317.617694 271.491344 
L 319.151521 271.491344 
L 319.918434 264.101003 
L 320.685347 142.899403 
L 321.45226 108.903833 
L 322.219173 184.285315 
L 322.986086 166.548496 
L 323.752999 145.85554 
L 324.519912 138.465198 
L 325.286825 95.601218 
L 326.053739 162.114291 
L 326.820652 271.491344 
L 327.587565 240.45191 
L 328.354478 194.631793 
L 329.121391 271.491344 
L 329.888304 204.978271 
L 330.655217 249.32032 
L 331.42213 244.886115 
L 332.189043 159.158155 
L 332.955957 89.688945 
L 333.72287 64.561784 
L 334.489783 104.469628 
L 335.256696 131.074857 
L 336.023609 70.474057 
L 336.790522 76.38633 
L 337.557435 101.513491 
L 338.324348 145.85554 
L 339.091261 181.329179 
L 339.858175 185.763384 
L 340.625088 132.552925 
L 341.392001 120.728379 
L 342.158914 243.408047 
L 342.925827 202.022135 
L 343.69274 111.859969 
L 344.459653 178.373042 
L 345.226566 182.807247 
L 345.993479 202.022135 
L 346.760393 258.18873 
L 347.527306 157.680086 
L 348.294219 168.026564 
L 349.061132 256.710661 
L 349.828045 270.013276 
L 350.594958 197.58793 
L 351.361871 210.890545 
L 352.128784 237.495774 
L 352.895697 249.32032 
L 353.662611 271.491344 
L 355.196437 271.491344 
L 355.96335 252.276457 
L 356.730263 181.329179 
L 357.497176 256.710661 
L 358.264089 271.491344 
L 362.865568 271.491344 
L 364.399394 247.842252 
L 365.166307 262.622935 
L 365.93322 222.715091 
L 366.700133 206.45634 
L 367.467047 259.666798 
L 368.23396 271.491344 
L 369.767786 271.491344 
L 370.534699 255.232593 
L 371.301612 256.710661 
L 372.068525 270.013276 
L 372.835438 270.013276 
L 373.602351 271.491344 
L 375.136178 271.491344 
L 375.903091 270.013276 
L 376.670004 264.101003 
L 377.436917 184.285315 
L 378.20383 240.45191 
L 378.970743 271.491344 
L 379.737656 271.491344 
L 380.504569 270.013276 
L 381.271482 271.491344 
L 382.038396 271.491344 
L 382.805309 270.013276 
L 383.572222 247.842252 
L 384.339135 172.460769 
L 385.106048 200.544067 
L 385.872961 262.622935 
L 386.639874 271.491344 
L 387.406787 271.491344 
L 388.1737 270.013276 
L 388.940614 203.500203 
L 389.707527 218.280886 
L 390.47444 271.491344 
L 392.775179 271.491344 
L 393.542092 256.710661 
L 394.309005 210.890545 
L 395.075918 262.622935 
L 395.842832 271.491344 
L 396.609745 270.013276 
L 398.910484 270.013276 
L 399.677397 271.491344 
L 402.74505 271.491344 
L 403.511963 270.013276 
L 404.278876 270.013276 
L 405.045789 271.491344 
L 405.812702 270.013276 
L 406.579615 271.491344 
L 407.346528 271.491344 
L 408.113441 270.013276 
L 408.880354 215.324749 
L 409.647268 203.500203 
L 410.414181 270.013276 
L 411.181094 271.491344 
L 412.71492 271.491344 
L 413.481833 258.18873 
L 414.248746 184.285315 
L 415.015659 250.798388 
L 415.782572 270.013276 
L 416.549486 271.491344 
L 417.316399 270.013276 
L 418.083312 270.013276 
L 418.850225 271.491344 
L 419.617138 271.491344 
L 420.384051 262.622935 
L 421.150964 250.798388 
L 421.917877 258.18873 
L 422.68479 215.324749 
L 423.451704 262.622935 
L 424.218617 246.364183 
L 424.98553 264.101003 
L 425.752443 271.491344 
L 426.519356 228.627364 
L 427.286269 241.929979 
L 428.053182 258.18873 
L 428.820095 166.548496 
L 429.587008 150.289745 
L 430.353922 230.105432 
L 431.120835 125.162584 
L 431.887748 256.710661 
L 432.654661 240.45191 
L 433.421574 246.364183 
L 434.188487 191.675657 
L 434.9554 222.715091 
L 435.722313 182.807247 
L 437.25614 271.491344 
L 438.789966 271.491344 
L 439.556879 256.710661 
L 440.323792 200.544067 
L 441.090705 271.491344 
L 442.624531 271.491344 
L 443.391444 230.105432 
L 444.158358 178.373042 
L 444.925271 203.500203 
L 445.692184 247.842252 
L 446.459097 247.842252 
L 447.22601 261.144866 
L 447.992923 264.101003 
L 448.759836 225.671227 
L 449.526749 228.627364 
L 450.293662 193.153725 
L 451.060576 240.45191 
L 451.827489 271.491344 
L 452.594402 176.894974 
L 453.361315 250.798388 
L 454.128228 264.101003 
L 454.895141 271.491344 
L 459.49662 271.491344 
L 460.263533 233.061569 
L 461.030446 271.491344 
L 461.797359 179.851111 
L 462.564272 218.280886 
L 463.331185 191.675657 
L 464.098098 252.276457 
L 464.865011 271.491344 
L 465.631925 246.364183 
L 466.398838 202.022135 
L 467.165751 259.666798 
L 467.932664 271.491344 
L 468.699577 268.535208 
L 469.46649 147.333608 
L 470.233403 234.539637 
L 471.000316 252.276457 
L 471.767229 193.153725 
L 472.534143 153.245881 
L 473.301056 169.504633 
L 474.067969 191.675657 
L 474.834882 236.017705 
L 475.601795 271.491344 
L 476.368708 271.491344 
L 477.135621 247.842252 
L 477.902534 185.763384 
L 478.669447 193.153725 
L 479.436361 188.71952 
L 480.203274 258.18873 
L 480.970187 271.491344 
L 481.7371 241.929979 
L 482.504013 253.754525 
L 483.270926 271.491344 
L 484.037839 271.491344 
L 484.804752 247.842252 
L 485.571665 194.631793 
L 486.338579 265.579071 
L 487.105492 236.017705 
L 487.872405 218.280886 
L 488.639318 271.491344 
L 489.406231 196.109862 
L 490.173144 209.412476 
L 490.940057 271.491344 
L 491.70697 270.013276 
L 492.473883 175.416906 
L 493.240797 240.45191 
L 494.00771 255.232593 
L 494.774623 224.193159 
L 495.541536 271.491344 
L 496.308449 270.013276 
L 497.075362 200.544067 
L 497.842275 271.491344 
L 498.609188 190.197589 
L 499.376101 271.491344 
L 500.143015 241.929979 
L 500.909928 271.491344 
L 501.676841 206.45634 
L 502.443754 131.074857 
L 503.210667 213.846681 
L 503.97758 271.491344 
L 504.744493 268.535208 
L 505.511406 197.58793 
L 506.278319 188.71952 
L 507.045233 271.491344 
L 507.812146 271.491344 
L 508.579059 196.109862 
L 509.345972 212.368613 
L 510.112885 162.114291 
L 510.879798 206.45634 
L 511.646711 228.627364 
L 512.413624 218.280886 
L 513.180537 252.276457 
L 513.947451 246.364183 
L 514.714364 139.943267 
L 515.481277 85.25474 
L 516.24819 147.333608 
L 517.015103 259.666798 
L 517.782016 262.622935 
L 518.548929 166.548496 
L 519.315842 165.070428 
L 520.082755 153.245881 
L 520.849669 188.71952 
L 521.616582 249.32032 
L 522.383495 271.491344 
L 531.586452 271.491344 
L 532.353365 252.276457 
L 533.120278 240.45191 
L 533.887191 270.013276 
L 534.654104 236.017705 
L 535.421018 116.294174 
L 536.187931 215.324749 
L 536.954844 264.101003 
L 537.721757 246.364183 
L 538.48867 261.144866 
L 539.255583 270.013276 
L 540.022496 271.491344 
L 543.090149 271.491344 
L 543.857062 264.101003 
L 544.623975 244.886115 
L 545.390888 267.057139 
L 546.157801 270.013276 
L 546.924714 271.491344 
L 547.691627 270.013276 
L 548.45854 222.715091 
L 549.225454 213.846681 
L 549.992367 191.675657 
L 550.75928 209.412476 
L 551.526193 270.013276 
L 552.293106 262.622935 
L 553.060019 250.798388 
L 553.826932 256.710661 
L 554.593845 212.368613 
L 555.360758 256.710661 
L 556.127672 185.763384 
L 556.894585 188.71952 
L 557.661498 256.710661 
L 558.428411 196.109862 
L 559.195324 210.890545 
L 559.962237 271.491344 
L 560.72915 240.45191 
L 561.496063 219.758954 
L 562.262976 270.013276 
L 563.02989 247.842252 
L 563.796803 181.329179 
L 564.563716 259.666798 
L 565.330629 268.535208 
L 566.097542 244.886115 
L 566.864455 210.890545 
L 567.631368 246.364183 
L 568.398281 271.491344 
L 569.165194 233.061569 
L 569.932108 225.671227 
L 570.699021 270.013276 
L 571.465934 271.491344 
L 572.99976 271.491344 
L 572.99976 271.491344 
" clip-path="url(#p4defa66309)" style="fill: none; stroke: #d62728; stroke-width: 1.8; stroke-linecap: square"/>
   </g>
   <g id="patch_3">
    <path d="M 60.701802 284.276635 
L 60.701802 3.00024 
" style="fill: none; stroke: #000000; stroke-linejoin: miter; stroke-linecap: square"/>
   </g>
   <g id="patch_4">
    <path d="M 572.99976 284.276635 
L 572.99976 3.00024 
" style="fill: none; stroke: #000000; stroke-linejoin: miter; stroke-linecap: square"/>
   </g>
   <g id="patch_5">
    <path d="M 60.701802 284.276635 
L 572.99976 284.276635 
" style="fill: none; stroke: #000000; stroke-linejoin: miter; stroke-linecap: square"/>
   </g>
   <g id="patch_6">
    <path d="M 60.701802 3.00024 
L 572.99976 3.00024 
" style="fill: none; stroke: #000000; stroke-linejoin: miter; stroke-linecap: square"/>
   </g>
   <g id="legend_1">
    <g id="patch_7">
     <path d="M 319.69476 68.74524 
L 560.39976 68.74524 
Q 563.99976 68.74524 563.99976 65.14524 
L 563.99976 15.60024 
Q 563.99976 12.00024 560.39976 12.00024 
L 319.69476 12.00024 
Q 316.09476 12.00024 316.09476 15.60024 
L 316.09476 65.14524 
Q 316.09476 68.74524 319.69476 68.74524 
z
" style="fill: #ffffff; opacity: 0.8; stroke: #cccccc; stroke-linejoin: miter"/>
    </g>
    <g id="line2d_14">
     <path d="M 323.29476 25.784302 
L 341.29476 25.784302 
L 359.29476 25.784302 
" style="fill: none; stroke: #000000; stroke-width: 2; stroke-linecap: square"/>
    </g>
    <g id="text_14">
     <text style="font: 18px 'Arial'; text-anchor: start" x="373.69476" y="32.084302" transform="rotate(-0, 373.69476, 32.084302)">raw intensity</text>
    </g>
    <g id="line2d_15">
     <path d="M 323.29476 51.456802 
L 341.29476 51.456802 
L 359.29476 51.456802 
" style="fill: none; stroke: #d62728; stroke-width: 1.8; stroke-linecap: square"/>
    </g>
    <g id="text_15">
     <text style="font: 18px 'Arial'; text-anchor: start" x="373.69476" y="57.756802" transform="rotate(-0, 373.69476, 57.756802)">background subtracted</text>
    </g>
   </g>
  </g>
 </g>
 <defs>
  <clipPath id="p4defa66309">
   <rect x="60.701802" y="3.00024" width="512.297958" height="281.276395"/>
  </clipPath>
 </defs>
</svg>
