<?xml version="1.0" encoding="utf-8" standalone="no"?>
<!DOCTYPE svg PUBLIC "-//W3C//DTD SVG 1.1//EN"
  "http://www.w3.org/Graphics/SVG/1.1/DTD/svg11.dtd">
<svg xmlns:xlink="http://www.w3.org/1999/xlink" width="576pt" height="331.2pt" viewBox="0 0 576 331.2" xmlns="http://www.w3.org/2000/svg" version="1.1">
 <metadata>
  <rdf:RDF xmlns:dc="http://purl.org/dc/elements/1.1/" xmlns:cc="http://creativecommons.org/ns#" xmlns:rdf="http://www.w3.org/1999/02/22-rdf-syntax-ns#">
   <cc:Work>
    <dc:type rdf:resource="http://purl.org/dc/dcmitype/StillImage"/>
    <dc:date>2026-07-11T15:46:25.866339</dc:date>
    <dc:format>image/svg+xml</dc:format>
    <dc:creator>
     <cc:Agent>
      <dc:title>Matplotlib v3.5.1, https://matplotlib.org/</dc:title>
     </cc:Agent>
    </dc:creator>
   </cc:Work>
  </rdf:RDF>
 </metadata>
 <defs>
  <style type="text/css">*{stroke-linejoin: round; stroke-linecap: butt}</style>
 </defs>
 <g id="figure_1">
  <g id="patch_1">
   <path d="M 0 331.2 
L 576 331.2 
L 576 0 
L 0 0 
z
" style="fill: #ffffff"/>
  </g>
  <g id="axes_1">
   <g id="patch_2">
    <path d="M 60.701802 284.276635 
L 572.99976 284.276635 
L 572.99976 3.00024 
L 60.701802 3.00024 
z
" style="fill: #ffffff"/>
   </g>
   <g id="matplotlib.axis_1">
    <g id="xtick_1">
     <g id="line2d_1">
      <defs>
       <path id="mdd23f64572" d="M 0 0 
L 0 3.5 
" style="stroke: #000000; stroke-width: 0.8"/>
      </defs>
      <g>
       <use xlink:href="#mdd23f64572" x="60.701802" y="284.276635" style="stroke: #000000; stroke-width: 0.8"/>
      </g>
     </g>
     <g id="text_1">
      <text style="font: 18px 'Arial'; text-anchor: middle" x="60.701802" y="304.160697" transform="rotate(-0, 60.701802, 304.160697)">0</text>
     </g>
    </g>
    <g id="xtick_2">
     <g id="line2d_2">
      <g>
       <use xlink:href="#mdd23f64572" x="137.393114" y="284.276635" style="stroke: #000000; stroke-width: 0.8"/>
      </g>
     </g>
     <g id="text_2">
      <text style="font: 18px 'Arial'; text-anchor: middle" x="137.393114" y="304.160697" transform="rotate(-0, 137.393114, 304.160697)">100</text>
     </g>
    </g>
    <g id="xtick_3">
     <g id="line2d_3">
      <g>
       <use xlink:href="#mdd23f64572" x="214.084425" y="284.276635" style="stroke: #000000; stroke-width: 0.8"/>
      </g>
     </g>
     <g id="text_3">
      <text style="font: 18px 'Arial'; text-anchor: middle" x="214.084425" y="304.160697" transform="rotate(-0, 214.084425, 304.160697)">200</text>
     </g>
    </g>
    <g id="xtick_4">
     <g id="line2d_4">
      <g>
       <use xlink:href="#mdd23f64572" x="290.775736" y="284.276635" style="stroke: #000000; stroke-width: 0.8"/>
      </g>
     </g>
     <g id="text_4">
      <text style="font: 18px 'Arial'; text-anchor: middle" x="290.775736" y="304.160697" transform="rotate(-0, 290.775736, 304.160697)">300</text>
     </g>
    </g>
    <g id="xtick_5">
     <g id="line2d_5">
      <g>
       <use xlink:href="#mdd23f64572" x="367.467047" y="284.276635" style="stroke: #000000; stroke-width: 0.8"/>
      </g>
     </g>
     <g id="text_5">
      <text style="font: 18px 'Arial'; text-anchor: middle" x="367.467047" y="304.160697" transform="rotate(-0, 367.467047, 304.160697)">400</text>
     </g>
    </g>
    <g id="xtick_6">
     <g id="line2d_6">
      <g>
       <use xlink:href="#mdd23f64572" x="444.158358" y="284.276635" style="stroke: #000000; stroke-width: 0.8"/>
      </g>
     </g>
     <g id="text_6">
      <text style="font: 18px 'Arial'; text-anchor: middle" x="444.158358" y="304.160697" transform="rotate(-0, 444.158358, 304.160697)">500</text>
     </g>
    </g>
    <g id="xtick_7">
     <g id="line2d_7">
      <g>
       <use xlink:href="#mdd23f64572" x="520.849669" y="284.276635" style="stroke: #000000; stroke-width: 0.8"/>
      </g>
     </g>
     <g id="text_7">
      <text style="font: 18px 'Arial'; text-anchor: middle" x="520.849669" y="304.160697" transform="rotate(-0, 520.849669, 304.160697)">600</text>
     </g>
    </g>
    <g id="text_8">
     <text style="font: 18px 'Arial'; text-anchor: middle" x="316.850781" y="324.62226" transform="rotate(-0, 316.850781, 324.62226)">x pixel</text>
    </g>
   </g>
   <g id="matplotlib.axis_2">
    <g id="ytick_1">
     <g id="line2d_8">
      <defs>
       <path id="m9a556d9689" d="M 0 0 
L -3.5 0 
" style="stroke: #000000; stroke-width: 0.8"/>
      </defs>
      <g>
       <use xlink:href="#m9a556d9689" x="60.701802" y="271.491344" style="stroke: #000000; stroke-width: 0.8"/>
      </g>
     </g>
     <g id="text_9">
      <text style="font: 18px 'Arial'; text-anchor: end" x="53.701802" y="277.933376" transform="rotate(-0, 53.701802, 277.933376)">0</text>
     </g>
    </g>
    <g id="ytick_2">
     <g id="line2d_9">
      <g>
       <use xlink:href="#m9a556d9689" x="60.701802" y="225.167827" style="stroke: #000000; stroke-width: 0.8"/>
      </g>
     </g>
     <g id="text_10">
      <text style="font: 18px 'Arial'; text-anchor: end" x="53.701802" y="231.609859" transform="rotate(-0, 53.701802, 231.609859)">25</text>
     </g>
    </g>
    <g id="ytick_3">
     <g id="line2d_10">
      <g>
       <use xlink:href="#m9a556d9689" x="60.701802" y="178.84431" style="stroke: #000000; stroke-width: 0.8"/>
      </g>
     </g>
     <g id="text_11">
      <text style="font: 18px 'Arial'; text-anchor: end" x="53.701802" y="185.286342" transform="rotate(-0, 53.701802, 185.286342)">50</text>
     </g>
    </g>
    <g id="ytick_4">
     <g id="line2d_11">
      <g>
       <use xlink:href="#m9a556d9689" x="60.701802" y="132.520793" style="stroke: #000000; stroke-width: 0.8"/>
      </g>
     </g>
     <g id="text_12">
      <text style="font: 18px 'Arial'; text-anchor: end" x="53.701802" y="138.962825" transform="rotate(-0, 53.701802, 138.962825)">75</text>
     </g>
    </g>
    <g id="ytick_5">
     <g id="line2d_12">
      <g>
       <use xlink:href="#m9a556d9689" x="60.701802" y="86.197276" style="stroke: #000000; stroke-width: 0.8"/>
      </g>
     </g>
     <g id="text_13">
      <text style="font: 18px 'Arial'; text-anchor: end" x="53.701802" y="92.639308" transform="rotate(-0, 53.701802, 92.639308)">100</text>
     </g>
    </g>
    <g id="ytick_6">
     <g id="line2d_13">
      <g>
       <use xlink:href="#m9a556d9689" x="60.701802" y="39.87376" style="stroke: #000000; stroke-width: 0.8"/>
      </g>
     </g>
     <g id="text_14">
      <text style="font: 18px 'Arial'; text-anchor: end" x="53.701802" y="46.315791" transform="rotate(-0, 53.701802, 46.315791)">125</text>
     </g>
    </g>
    <g id="text_15">
     <text style="font: 18px 'Arial'; text-anchor: middle" x="15.884303" y="143.638437" transform="rotate(-90, 15.884303, 143.638437)">Intensity [a.u.]</text>
    </g>
   </g>
   <g id="line2d_14">
    <path d="M 60.701802 269.638404 
L 61.468716 271.491344 
L 65.303281 271.491344 
L 66.070194 269.638404 
L 66.837107 271.491344 
L 67.60402 265.932522 
L 68.370934 267.785463 
L 69.137847 271.491344 
L 69.90476 258.52076 
L 70.671673 230.726649 
L 71.438586 238.138412 
L 72.205499 269.638404 
L 72.972412 271.491344 
L 74.506238 271.491344 
L 75.273152 267.785463 
L 76.040065 236.285471 
L 76.806978 258.52076 
L 77.573891 269.638404 
L 78.340804 271.491344 
L 79.107717 254.814878 
L 79.87463 252.961938 
L 80.641543 271.491344 
L 82.942283 271.491344 
L 83.709196 267.785463 
L 84.476109 245.550175 
L 85.243022 265.932522 
L 86.009935 271.491344 
L 89.077588 271.491344 
L 90.611414 199.226658 
L 91.378327 269.638404 
L 92.14524 264.079582 
L 92.912153 247.403115 
L 93.679066 265.932522 
L 94.445979 271.491344 
L 95.979806 271.491344 
L 96.746719 269.638404 
L 97.513632 245.550175 
L 98.280545 247.403115 
L 99.047458 271.491344 
L 102.882024 271.491344 
L 103.648937 269.638404 
L 104.41585 271.491344 
L 105.182763 269.638404 
L 105.949676 164.020785 
L 106.716589 202.932539 
L 107.483502 271.491344 
L 109.017328 271.491344 
L 109.784242 241.844293 
L 110.551155 191.814895 
L 111.318068 265.932522 
L 112.084981 271.491344 
L 114.38572 271.491344 
L 115.152633 267.785463 
L 115.919546 165.873726 
L 116.68646 186.256073 
L 117.453373 269.638404 
L 118.220286 271.491344 
L 118.987199 214.050183 
L 119.754112 126.961971 
L 120.521025 254.814878 
L 121.287938 234.432531 
L 122.054851 265.932522 
L 122.821764 271.491344 
L 123.588678 271.491344 
L 124.355591 269.638404 
L 125.122504 271.491344 
L 125.889417 243.697234 
L 126.65633 241.844293 
L 127.423243 269.638404 
L 128.190156 271.491344 
L 129.723982 271.491344 
L 130.490896 265.932522 
L 131.257809 234.432531 
L 132.024722 264.079582 
L 132.791635 271.491344 
L 139.693853 271.491344 
L 140.460766 260.3737 
L 141.227679 189.961954 
L 141.994592 249.256056 
L 142.761505 249.256056 
L 144.295331 271.491344 
L 145.062245 271.491344 
L 145.829158 269.638404 
L 146.596071 269.638404 
L 147.362984 271.491344 
L 148.129897 271.491344 
L 148.89681 254.814878 
L 149.663723 189.961954 
L 150.430636 254.814878 
L 151.197549 271.491344 
L 153.498289 271.491344 
L 154.265202 215.903124 
L 155.032115 212.197243 
L 155.799028 271.491344 
L 156.565941 271.491344 
L 157.332854 260.3737 
L 158.099767 234.432531 
L 158.866681 267.785463 
L 159.633594 271.491344 
L 160.400507 264.079582 
L 161.16742 195.520776 
L 161.934333 241.844293 
L 162.701246 210.344302 
L 163.468159 227.020768 
L 164.235072 227.020768 
L 165.001985 210.344302 
L 165.768899 269.638404 
L 166.535812 269.638404 
L 167.302725 251.108997 
L 168.069638 189.961954 
L 168.836551 260.3737 
L 169.603464 245.550175 
L 170.370377 223.314887 
L 171.13729 254.814878 
L 171.904203 271.491344 
L 176.505682 271.491344 
L 177.272595 267.785463 
L 178.039508 247.403115 
L 178.806421 258.52076 
L 179.573335 154.756082 
L 180.340248 230.726649 
L 181.107161 271.491344 
L 181.874074 271.491344 
L 182.640987 254.814878 
L 183.4079 254.814878 
L 184.174813 271.491344 
L 186.475553 271.491344 
L 187.242466 252.961938 
L 188.009379 149.19726 
L 188.776292 241.844293 
L 189.543205 271.491344 
L 196.445423 271.491344 
L 197.212336 262.226641 
L 197.979249 189.961954 
L 198.746162 247.403115 
L 199.513075 271.491344 
L 204.881467 271.491344 
L 205.64838 267.785463 
L 206.415293 247.403115 
L 207.182207 267.785463 
L 207.94912 271.491344 
L 208.716033 267.785463 
L 209.482946 171.432548 
L 210.249859 206.638421 
L 211.016772 269.638404 
L 211.783685 271.491344 
L 230.1896 271.491344 
L 230.956513 258.52076 
L 231.723426 249.256056 
L 232.490339 271.491344 
L 233.257252 271.491344 
L 234.024165 258.52076 
L 234.791078 208.491361 
L 235.557992 256.667819 
L 236.324905 271.491344 
L 237.091818 271.491344 
L 237.858731 249.256056 
L 238.625644 258.52076 
L 239.392557 271.491344 
L 240.15947 271.491344 
L 241.693296 139.932556 
L 242.46021 265.932522 
L 243.227123 271.491344 
L 248.595514 271.491344 
L 249.362428 258.52076 
L 250.129341 252.961938 
L 250.896254 239.991353 
L 251.663167 195.520776 
L 252.43008 260.3737 
L 253.196993 234.432531 
L 253.963906 265.932522 
L 254.730819 271.491344 
L 258.565385 271.491344 
L 260.099211 267.785463 
L 260.866124 269.638404 
L 261.633037 265.932522 
L 262.39995 269.638404 
L 263.166864 271.491344 
L 266.234516 271.491344 
L 267.001429 269.638404 
L 267.768342 256.667819 
L 268.535255 251.108997 
L 269.302168 269.638404 
L 270.069082 271.491344 
L 270.835995 264.079582 
L 271.602908 245.550175 
L 272.369821 267.785463 
L 273.136734 271.491344 
L 273.903647 269.638404 
L 274.67056 236.285471 
L 276.204386 271.491344 
L 276.9713 271.491344 
L 277.738213 258.52076 
L 278.505126 249.256056 
L 279.272039 271.491344 
L 281.572778 271.491344 
L 282.339691 267.785463 
L 283.106604 247.403115 
L 283.873518 262.226641 
L 284.640431 271.491344 
L 285.407344 252.961938 
L 286.174257 239.991353 
L 287.708083 271.491344 
L 290.008822 271.491344 
L 290.775736 252.961938 
L 291.542649 164.020785 
L 292.309562 251.108997 
L 293.076475 249.256056 
L 294.610301 271.491344 
L 299.21178 271.491344 
L 300.745606 267.785463 
L 301.512519 247.403115 
L 302.279432 262.226641 
L 303.046345 199.226658 
L 304.580171 271.491344 
L 312.249303 271.491344 
L 313.016216 269.638404 
L 313.783129 269.638404 
L 314.550042 271.491344 
L 316.850781 271.491344 
L 317.617694 269.638404 
L 318.384607 264.079582 
L 319.151521 208.491361 
L 319.918434 102.873743 
L 320.685347 232.57959 
L 321.45226 271.491344 
L 322.219173 269.638404 
L 322.986086 178.84431 
L 323.752999 201.079599 
L 324.519912 271.491344 
L 325.286825 269.638404 
L 326.053739 239.991353 
L 326.820652 197.373717 
L 327.587565 265.932522 
L 328.354478 271.491344 
L 329.121391 271.491344 
L 329.888304 269.638404 
L 330.655217 265.932522 
L 331.42213 145.491378 
L 332.189043 202.932539 
L 332.955957 269.638404 
L 333.72287 271.491344 
L 334.489783 271.491344 
L 336.023609 267.785463 
L 336.790522 271.491344 
L 340.625088 271.491344 
L 341.392001 251.108997 
L 342.158914 256.667819 
L 342.925827 269.638404 
L 343.69274 271.491344 
L 346.760393 271.491344 
L 347.527306 260.3737 
L 348.294219 189.961954 
L 349.061132 249.256056 
L 349.828045 265.932522 
L 350.594958 269.638404 
L 351.361871 269.638404 
L 352.128784 271.491344 
L 355.196437 271.491344 
L 355.96335 264.079582 
L 356.730263 234.432531 
L 357.497176 264.079582 
L 358.264089 247.403115 
L 359.031002 264.079582 
L 359.797915 269.638404 
L 360.564829 269.638404 
L 361.331742 254.814878 
L 362.098655 254.814878 
L 362.865568 258.52076 
L 363.632481 249.256056 
L 364.399394 271.491344 
L 365.93322 271.491344 
L 366.700133 269.638404 
L 367.467047 264.079582 
L 368.23396 193.667836 
L 369.000873 239.991353 
L 369.767786 271.491344 
L 373.602351 271.491344 
L 374.369265 249.256056 
L 375.136178 189.961954 
L 375.903091 262.226641 
L 376.670004 271.491344 
L 380.504569 271.491344 
L 381.271482 256.667819 
L 382.038396 252.961938 
L 382.805309 219.609005 
L 383.572222 123.25609 
L 384.339135 223.314887 
L 385.106048 265.932522 
L 385.872961 271.491344 
L 388.1737 271.491344 
L 388.940614 269.638404 
L 389.707527 254.814878 
L 390.47444 254.814878 
L 391.241353 269.638404 
L 392.008266 269.638404 
L 392.775179 264.079582 
L 393.542092 247.403115 
L 394.309005 267.785463 
L 395.075918 271.491344 
L 395.842832 267.785463 
L 396.609745 236.285471 
L 397.376658 256.667819 
L 398.143571 269.638404 
L 398.910484 271.491344 
L 399.677397 221.461946 
L 400.44431 208.491361 
L 401.211223 269.638404 
L 401.978136 271.491344 
L 417.316399 271.491344 
L 418.083312 215.903124 
L 418.850225 215.903124 
L 419.617138 238.138412 
L 420.384051 199.226658 
L 421.150964 267.785463 
L 421.917877 271.491344 
L 422.68479 271.491344 
L 423.451704 265.932522 
L 424.218617 228.873709 
L 424.98553 236.285471 
L 425.752443 264.079582 
L 426.519356 271.491344 
L 428.053182 271.491344 
L 428.820095 204.78548 
L 429.587008 152.903141 
L 430.353922 267.785463 
L 431.887748 271.491344 
L 436.489226 271.491344 
L 437.25614 269.638404 
L 438.023053 251.108997 
L 438.789966 243.697234 
L 439.556879 258.52076 
L 440.323792 227.020768 
L 441.090705 249.256056 
L 441.857618 167.726666 
L 442.624531 247.403115 
L 443.391444 158.461963 
L 444.158358 234.432531 
L 444.925271 158.461963 
L 445.692184 206.638421 
L 446.459097 204.78548 
L 447.22601 139.932556 
L 447.992923 210.344302 
L 448.759836 269.638404 
L 449.526749 269.638404 
L 450.293662 271.491344 
L 451.060576 256.667819 
L 451.827489 145.491378 
L 452.594402 164.020785 
L 453.361315 249.256056 
L 454.128228 271.491344 
L 456.428967 271.491344 
L 457.19588 269.638404 
L 457.962793 197.373717 
L 458.729707 67.66787 
L 459.49662 176.99137 
L 460.263533 202.932539 
L 461.797359 60.256107 
L 462.564272 149.19726 
L 463.331185 176.99137 
L 464.098098 239.991353 
L 464.865011 143.638437 
L 465.631925 145.491378 
L 466.398838 271.491344 
L 467.165751 254.814878 
L 467.932664 199.226658 
L 468.699577 171.432548 
L 469.46649 208.491361 
L 470.233403 93.609039 
L 471.000316 238.138412 
L 471.767229 108.432565 
L 472.534143 112.138446 
L 473.301056 23.197293 
L 474.067969 63.961988 
L 474.834882 60.256107 
L 475.601795 117.697268 
L 476.368708 199.226658 
L 477.135621 15.785531 
L 477.902534 82.491395 
L 478.669447 256.667819 
L 479.436361 245.550175 
L 480.203274 88.050217 
L 480.970187 228.873709 
L 481.7371 158.461963 
L 482.504013 225.167827 
L 483.270926 188.109014 
L 484.037839 113.991387 
L 484.804752 162.167844 
L 485.571665 236.285471 
L 486.338579 264.079582 
L 487.105492 241.844293 
L 487.872405 251.108997 
L 488.639318 269.638404 
L 489.406231 267.785463 
L 490.173144 269.638404 
L 490.940057 269.638404 
L 491.70697 239.991353 
L 492.473883 252.961938 
L 493.240797 260.3737 
L 494.00771 238.138412 
L 495.541536 91.756099 
L 496.308449 184.403132 
L 497.075362 234.432531 
L 497.842275 267.785463 
L 498.609188 243.697234 
L 499.376101 230.726649 
L 500.143015 262.226641 
L 500.909928 267.785463 
L 501.676841 160.314904 
L 502.443754 201.079599 
L 503.210667 230.726649 
L 503.97758 215.903124 
L 504.744493 215.903124 
L 505.511406 151.0502 
L 506.278319 239.991353 
L 507.045233 151.0502 
L 507.812146 252.961938 
L 508.579059 271.491344 
L 515.481277 271.491344 
L 516.24819 265.932522 
L 517.015103 245.550175 
L 517.782016 269.638404 
L 518.548929 271.491344 
L 519.315842 269.638404 
L 520.082755 249.256056 
L 520.849669 258.52076 
L 521.616582 269.638404 
L 522.383495 271.491344 
L 528.5188 271.491344 
L 529.285713 269.638404 
L 530.052626 271.491344 
L 533.120278 271.491344 
L 533.887191 269.638404 
L 534.654104 265.932522 
L 535.421018 245.550175 
L 536.187931 265.932522 
L 536.954844 247.403115 
L 537.721757 264.079582 
L 538.48867 267.785463 
L 540.022496 271.491344 
L 540.789409 271.491344 
L 541.556322 251.108997 
L 542.323236 241.844293 
L 543.090149 269.638404 
L 543.857062 271.491344 
L 544.623975 254.814878 
L 545.390888 186.256073 
L 546.157801 256.667819 
L 546.924714 271.491344 
L 547.691627 265.932522 
L 548.45854 169.579607 
L 549.225454 208.491361 
L 549.992367 271.491344 
L 556.894585 271.491344 
L 557.661498 269.638404 
L 558.428411 206.638421 
L 559.195324 221.461946 
L 559.962237 271.491344 
L 562.262976 271.491344 
L 563.02989 265.932522 
L 563.796803 245.550175 
L 564.563716 267.785463 
L 565.330629 271.491344 
L 566.097542 265.932522 
L 566.864455 176.99137 
L 568.398281 271.491344 
L 572.232847 271.491344 
L 572.99976 254.814878 
L 572.99976 254.814878 
" clip-path="url(#p0e75c517e4)" style="fill: none; stroke: #000000; stroke-width: 2; stroke-linecap: square"/>
   </g>
   <g id="line2d_15">
    <path d="M 60.701802 269.638404 
L 61.468716 271.491344 
L 65.303281 271.491344 
L 66.070194 269.638404 
L 66.837107 271.491344 
L 67.60402 265.932522 
L 68.370934 267.785463 
L 69.137847 271.491344 
L 69.90476 258.52076 
L 70.671673 230.726649 
L 71.438586 238.138412 
L 72.205499 269.638404 
L 72.972412 271.491344 
L 74.506238 271.491344 
L 75.273152 267.785463 
L 76.040065 236.285471 
L 76.806978 258.52076 
L 77.573891 269.638404 
L 78.340804 271.491344 
L 79.107717 254.814878 
L 79.87463 252.961938 
L 80.641543 271.491344 
L 82.942283 271.491344 
L 83.709196 267.785463 
L 84.476109 245.550175 
L 85.243022 265.932522 
L 86.009935 271.491344 
L 89.077588 271.491344 
L 90.611414 199.226658 
L 91.378327 269.638404 
L 92.14524 264.079582 
L 92.912153 247.403115 
L 93.679066 265.932522 
L 94.445979 271.491344 
L 95.979806 271.491344 
L 96.746719 269.638404 
L 97.513632 245.550175 
L 98.280545 247.403115 
L 99.047458 271.491344 
L 102.882024 271.491344 
L 103.648937 269.638404 
L 104.41585 271.491344 
L 105.182763 269.638404 
L 105.949676 164.020785 
L 106.716589 202.932539 
L 107.483502 271.491344 
L 109.017328 271.491344 
L 109.784242 241.844293 
L 110.551155 191.814895 
L 111.318068 265.932522 
L 112.084981 271.491344 
L 114.38572 271.491344 
L 115.152633 267.785463 
L 115.919546 165.873726 
L 116.68646 186.256073 
L 117.453373 269.638404 
L 118.220286 271.491344 
L 118.987199 214.050183 
L 119.754112 126.961971 
L 120.521025 254.814878 
L 121.287938 234.432531 
L 122.054851 265.932522 
L 122.821764 271.491344 
L 123.588678 271.491344 
L 124.355591 269.638404 
L 125.122504 271.491344 
L 125.889417 243.697234 
L 126.65633 241.844293 
L 127.423243 269.638404 
L 128.190156 271.491344 
L 129.723982 271.491344 
L 130.490896 265.932522 
L 131.257809 234.432531 
L 132.024722 264.079582 
L 132.791635 271.491344 
L 139.693853 271.491344 
L 140.460766 260.3737 
L 141.227679 189.961954 
L 141.994592 249.256056 
L 142.761505 249.256056 
L 144.295331 271.491344 
L 145.062245 271.491344 
L 145.829158 269.638404 
L 146.596071 269.638404 
L 147.362984 271.491344 
L 148.129897 271.491344 
L 148.89681 254.814878 
L 149.663723 189.961954 
L 150.430636 254.814878 
L 151.197549 271.491344 
L 153.498289 271.491344 
L 154.265202 215.903124 
L 155.032115 212.197243 
L 155.799028 271.491344 
L 156.565941 271.491344 
L 157.332854 260.3737 
L 158.099767 234.432531 
L 158.866681 267.785463 
L 159.633594 271.491344 
L 160.400507 264.079582 
L 161.16742 195.520776 
L 161.934333 241.844293 
L 162.701246 210.344302 
L 163.468159 227.020768 
L 164.235072 227.020768 
L 165.001985 210.344302 
L 165.768899 269.638404 
L 166.535812 269.638404 
L 167.302725 251.108997 
L 168.069638 189.961954 
L 168.836551 260.3737 
L 169.603464 245.550175 
L 170.370377 223.314887 
L 171.13729 254.814878 
L 171.904203 271.491344 
L 176.505682 271.491344 
L 177.272595 267.785463 
L 178.039508 247.403115 
L 178.806421 258.52076 
L 179.573335 154.756082 
L 180.340248 230.726649 
L 181.107161 271.491344 
L 181.874074 271.491344 
L 182.640987 254.814878 
L 183.4079 254.814878 
L 184.174813 271.491344 
L 186.475553 271.491344 
L 187.242466 252.961938 
L 188.009379 149.19726 
L 188.776292 241.844293 
L 189.543205 271.491344 
L 196.445423 271.491344 
L 197.212336 262.226641 
L 197.979249 189.961954 
L 198.746162 247.403115 
L 199.513075 271.491344 
L 204.881467 271.491344 
L 205.64838 267.785463 
L 206.415293 247.403115 
L 207.182207 267.785463 
L 207.94912 271.491344 
L 208.716033 267.785463 
L 209.482946 171.432548 
L 210.249859 206.638421 
L 211.016772 269.638404 
L 211.783685 271.491344 
L 230.1896 271.491344 
L 230.956513 258.52076 
L 231.723426 249.256056 
L 232.490339 271.491344 
L 233.257252 271.491344 
L 234.024165 258.52076 
L 234.791078 208.491361 
L 235.557992 256.667819 
L 236.324905 271.491344 
L 237.091818 271.491344 
L 237.858731 249.256056 
L 238.625644 258.52076 
L 239.392557 271.491344 
L 240.15947 271.491344 
L 241.693296 139.932556 
L 242.46021 265.932522 
L 243.227123 271.491344 
L 248.595514 271.491344 
L 249.362428 258.52076 
L 250.129341 252.961938 
L 250.896254 239.991353 
L 251.663167 195.520776 
L 252.43008 262.226641 
L 253.196993 234.432531 
L 253.963906 265.932522 
L 254.730819 271.491344 
L 258.565385 271.491344 
L 260.099211 267.785463 
L 260.866124 271.491344 
L 261.633037 267.785463 
L 262.39995 271.491344 
L 266.234516 271.491344 
L 267.001429 269.638404 
L 267.768342 256.667819 
L 268.535255 251.108997 
L 269.302168 269.638404 
L 270.069082 271.491344 
L 270.835995 264.079582 
L 271.602908 245.550175 
L 272.369821 267.785463 
L 273.136734 271.491344 
L 273.903647 269.638404 
L 274.67056 238.138412 
L 275.437473 256.667819 
L 276.204386 271.491344 
L 276.9713 271.491344 
L 277.738213 260.3737 
L 278.505126 251.108997 
L 279.272039 271.491344 
L 281.572778 271.491344 
L 282.339691 269.638404 
L 283.106604 249.256056 
L 283.873518 264.079582 
L 284.640431 271.491344 
L 285.407344 254.814878 
L 286.174257 241.844293 
L 287.708083 271.491344 
L 290.008822 271.491344 
L 290.775736 254.814878 
L 291.542649 165.873726 
L 292.309562 252.961938 
L 293.076475 251.108997 
L 293.843388 262.226641 
L 294.610301 271.491344 
L 299.21178 271.491344 
L 300.745606 267.785463 
L 301.512519 247.403115 
L 302.279432 262.226641 
L 303.046345 199.226658 
L 304.580171 271.491344 
L 312.249303 271.491344 
L 313.016216 269.638404 
L 313.783129 269.638404 
L 314.550042 271.491344 
L 317.617694 271.491344 
L 318.384607 265.932522 
L 319.151521 210.344302 
L 319.918434 104.726683 
L 320.685347 234.432531 
L 321.45226 271.491344 
L 322.219173 271.491344 
L 322.986086 180.697251 
L 323.752999 202.932539 
L 324.519912 271.491344 
L 325.286825 271.491344 
L 326.053739 241.844293 
L 326.820652 199.226658 
L 327.587565 267.785463 
L 328.354478 271.491344 
L 329.888304 271.491344 
L 330.655217 267.785463 
L 331.42213 147.344319 
L 332.189043 204.78548 
L 332.955957 271.491344 
L 334.489783 271.491344 
L 336.023609 267.785463 
L 336.790522 271.491344 
L 340.625088 271.491344 
L 341.392001 251.108997 
L 342.158914 256.667819 
L 342.925827 269.638404 
L 343.69274 271.491344 
L 346.760393 271.491344 
L 347.527306 260.3737 
L 348.294219 189.961954 
L 349.061132 249.256056 
L 349.828045 265.932522 
L 350.594958 269.638404 
L 351.361871 269.638404 
L 352.128784 271.491344 
L 355.196437 271.491344 
L 355.96335 264.079582 
L 356.730263 234.432531 
L 357.497176 264.079582 
L 358.264089 247.403115 
L 359.031002 264.079582 
L 359.797915 269.638404 
L 360.564829 269.638404 
L 361.331742 254.814878 
L 362.098655 254.814878 
L 362.865568 258.52076 
L 363.632481 249.256056 
L 364.399394 271.491344 
L 365.93322 271.491344 
L 366.700133 269.638404 
L 367.467047 264.079582 
L 368.23396 193.667836 
L 369.000873 239.991353 
L 369.767786 271.491344 
L 373.602351 271.491344 
L 374.369265 249.256056 
L 375.136178 189.961954 
L 375.903091 262.226641 
L 376.670004 271.491344 
L 380.504569 271.491344 
L 381.271482 256.667819 
L 382.038396 252.961938 
L 382.805309 219.609005 
L 383.572222 123.25609 
L 384.339135 223.314887 
L 385.106048 265.932522 
L 385.872961 271.491344 
L 388.1737 271.491344 
L 388.940614 269.638404 
L 389.707527 254.814878 
L 390.47444 254.814878 
L 391.241353 269.638404 
L 392.008266 269.638404 
L 392.775179 264.079582 
L 393.542092 247.403115 
L 394.309005 267.785463 
L 395.075918 271.491344 
L 395.842832 267.785463 
L 396.609745 236.285471 
L 397.376658 256.667819 
L 398.143571 269.638404 
L 398.910484 271.491344 
L 399.677397 221.461946 
L 400.44431 208.491361 
L 401.211223 269.638404 
L 401.978136 271.491344 
L 417.316399 271.491344 
L 418.083312 215.903124 
L 418.850225 215.903124 
L 419.617138 238.138412 
L 420.384051 201.079599 
L 421.150964 269.638404 
L 421.917877 271.491344 
L 422.68479 271.491344 
L 423.451704 267.785463 
L 424.218617 230.726649 
L 424.98553 238.138412 
L 425.752443 265.932522 
L 426.519356 271.491344 
L 428.053182 271.491344 
L 428.820095 206.638421 
L 429.587008 154.756082 
L 430.353922 269.638404 
L 431.120835 271.491344 
L 437.25614 271.491344 
L 438.023053 254.814878 
L 438.789966 249.256056 
L 439.556879 264.079582 
L 440.323792 234.432531 
L 441.090705 256.667819 
L 441.857618 175.138429 
L 442.624531 254.814878 
L 443.391444 167.726666 
L 444.158358 243.697234 
L 444.925271 167.726666 
L 445.692184 219.609005 
L 446.459097 217.756065 
L 447.22601 154.756082 
L 447.992923 227.020768 
L 448.759836 271.491344 
L 451.060576 271.491344 
L 451.827489 169.579607 
L 452.594402 189.961954 
L 453.361315 271.491344 
L 457.19588 271.491344 
L 457.962793 230.726649 
L 458.729707 102.873743 
L 459.49662 214.050183 
L 460.263533 243.697234 
L 461.797359 104.726683 
L 462.564272 195.520776 
L 463.331185 227.020768 
L 464.098098 271.491344 
L 464.865011 197.373717 
L 465.631925 201.079599 
L 466.398838 271.491344 
L 467.165751 271.491344 
L 467.932664 254.814878 
L 468.699577 228.873709 
L 469.46649 265.932522 
L 470.233403 152.903141 
L 471.000316 271.491344 
L 471.767229 167.726666 
L 472.534143 171.432548 
L 473.301056 88.050217 
L 474.067969 126.961971 
L 474.834882 125.109031 
L 475.601795 182.550192 
L 476.368708 265.932522 
L 477.135621 82.491395 
L 477.902534 151.0502 
L 478.669447 271.491344 
L 479.436361 271.491344 
L 480.203274 151.0502 
L 480.970187 271.491344 
L 481.7371 217.756065 
L 482.504013 271.491344 
L 483.270926 243.697234 
L 484.037839 169.579607 
L 484.804752 214.050183 
L 485.571665 271.491344 
L 493.240797 271.491344 
L 494.00771 265.932522 
L 495.541536 117.697268 
L 496.308449 206.638421 
L 497.075362 254.814878 
L 497.842275 271.491344 
L 498.609188 260.3737 
L 499.376101 245.550175 
L 500.143015 271.491344 
L 500.909928 271.491344 
L 501.676841 169.579607 
L 502.443754 210.344302 
L 503.210667 239.991353 
L 503.97758 223.314887 
L 504.744493 223.314887 
L 505.511406 158.461963 
L 506.278319 247.403115 
L 507.045233 156.609022 
L 507.812146 258.52076 
L 508.579059 271.491344 
L 515.481277 271.491344 
L 516.24819 267.785463 
L 517.015103 247.403115 
L 517.782016 271.491344 
L 518.548929 271.491344 
L 519.315842 269.638404 
L 520.082755 249.256056 
L 520.849669 258.52076 
L 521.616582 269.638404 
L 522.383495 271.491344 
L 528.5188 271.491344 
L 529.285713 269.638404 
L 530.052626 271.491344 
L 533.120278 271.491344 
L 533.887191 269.638404 
L 534.654104 265.932522 
L 535.421018 245.550175 
L 536.187931 265.932522 
L 536.954844 247.403115 
L 537.721757 264.079582 
L 538.48867 267.785463 
L 540.022496 271.491344 
L 540.789409 271.491344 
L 541.556322 251.108997 
L 542.323236 241.844293 
L 543.090149 269.638404 
L 543.857062 271.491344 
L 544.623975 254.814878 
L 545.390888 186.256073 
L 546.157801 256.667819 
L 546.924714 271.491344 
L 547.691627 265.932522 
L 548.45854 169.579607 
L 549.225454 208.491361 
L 549.992367 271.491344 
L 556.894585 271.491344 
L 557.661498 269.638404 
L 558.428411 206.638421 
L 559.195324 221.461946 
L 559.962237 271.491344 
L 562.262976 271.491344 
L 563.02989 265.932522 
L 563.796803 245.550175 
L 564.563716 267.785463 
L 565.330629 271.491344 
L 566.097542 265.932522 
L 566.864455 176.99137 
L 568.398281 271.491344 
L 572.232847 271.491344 
L 572.99976 254.814878 
L 572.99976 254.814878 
" clip-path="url(#p0e75c517e4)" style="fill: none; stroke: #d62728; stroke-width: 1.8; stroke-linecap: square"/>
   </g>
   <g id="patch_3">
    <path d="M 60.701802 284.276635 
L 60.701802 3.00024 
" style="fill: none; stroke: #000000; stroke-linejoin: miter; stroke-linecap: square"/>
   </g>
   <g id="patch_4">
    <path d="M 572.99976 284.276635 
L 572.99976 3.00024 
" style="fill: none; stroke: #000000; stroke-linejoin: miter; stroke-linecap: square"/>
   </g>
   <g id="patch_5">
    <path d="M 60.701802 284.276635 
L 572.99976 284.276635 
" style="fill: none; stroke: #000000; stroke-linejoin: miter; stroke-linecap: square"/>
   </g>
   <g id="patch_6">
    <path d="M 60.701802 3.00024 
L 572.99976 3.00024 
" style="fill: none; stroke: #000000; stroke-linejoin: miter; stroke-linecap: square"/>
   </g>
   <g id="legend_1">
    <g id="patch_7">
     <path d="M 319.69476 68.74524 
L 560.39976 68.74524 
Q 563.99976 68.74524 563.99976 65.14524 
L 563.99976 15.60024 
Q 563.99976 12.00024 560.39976 12.00024 
L 319.69476 12.00024 
Q 316.09476 12.00024 316.09476 15.60024 
L 316.09476 65.14524 
Q 316.09476 68.74524 319.69476 68.74524 
z
" style="fill: #ffffff; opacity: 0.8; stroke: #cccccc; stroke-linejoin: miter"/>
    </g>
    <g id="line2d_16">
     <path d="M 323.29476 25.784302 
L 341.29476 25.784302 
L 359.29476 25.784302 
" style="fill: none; stroke: #000000; stroke-width: 2; stroke-linecap: square"/>
    </g>
    <g id="text_16">
     <text style="font: 18px 'Arial'; text-anchor: start" x="373.69476" y="32.084302" transform="rotate(-0, 373.69476, 32.084302)">raw intensity</text>
    </g>
    <g id="line2d_17">
     <path d="M 323.29476 51.456802 
L 341.29476 51.456802 
L 359.29476 51.456802 
" style="fill: none; stroke: #d62728; stroke-width: 1.8; stroke-linecap: square"/>
    </g>
    <g id="text_17">
     <text style="font: 18px 'Arial'; text-anchor: start" x="373.69476" y="57.756802" transform="rotate(-0, 373.69476, 57.756802)">background subtracted</text>
    </g>
   </g>
  </g>
 </g>
 <defs>
  <clipPath id="p0e75c517e4">
   <rect x="60.701802" y="3.00024" width="512.297958" height="281.276395"/>
  </clipPath>
 </defs>
</svg>
