<?xml version="1.0" encoding="utf-8" standalone="no"?>
<!DOCTYPE svg PUBLIC "-//W3C//DTD SVG 1.1//EN"
  "http://www.w3.org/Graphics/SVG/1.1/DTD/svg11.dtd">
<svg xmlns:xlink="http://www.w3.org/1999/xlink" width="1203.129844pt" height="287.421562pt" viewBox="0 0 1203.129844 287.421562" xmlns="http://www.w3.org/2000/svg" version="1.1">
 <metadata>
  <rdf:RDF xmlns:dc="http://purl.org/dc/elements/1.1/" xmlns:cc="http://creativecommons.org/ns#" xmlns:rdf="http://www.w3.org/1999/02/22-rdf-syntax-ns#">
   <cc:Work>
    <dc:type rdf:resource="http://purl.org/dc/dcmitype/StillImage"/>
    <dc:date>2026-06-26T16:16:09.613087</dc:date>
    <dc:format>image/svg+xml</dc:format>
    <dc:creator>
     <cc:Agent>
      <dc:title>Matplotlib v3.5.1, https://matplotlib.org/</dc:title>
     </cc:Agent>
    </dc:creator>
   </cc:Work>
  </rdf:RDF>
 </metadata>
 <defs>
  <style type="text/css">*{stroke-linejoin: round; stroke-linecap: butt}</style>
 </defs>
 <g id="figure_1">
  <g id="patch_1">
   <path d="M 0 287.421562 
L 1203.129844 287.421562 
L 1203.129844 0 
L 0 0 
z
" style="fill: #ffffff"/>
  </g>
  <g id="axes_1">
   <g id="patch_2">
    <path d="M 12.204844 254.26 
L 1195.929844 254.26 
L 1195.929844 7.2 
L 12.204844 7.2 
L 12.204844 254.26 
z
" style="fill: none"/>
   </g>
   <g id="patch_3">
    <path d="M 12.204844 53.991667 
L 628.481672 53.991667 
L 628.481672 27.788333 
L 12.204844 27.788333 
z
" clip-path="url(#pd0f66b8f3d)" style="fill: #c7b8ff; stroke: #000000; stroke-width: 2; stroke-linejoin: miter"/>
   </g>
   <g id="patch_4">
    <path d="M 628.481672 53.991667 
L 801.108234 53.991667 
L 801.108234 27.788333 
L 628.481672 27.788333 
z
" clip-path="url(#pd0f66b8f3d)" style="fill: #a38aff; stroke: #000000; stroke-width: 2; stroke-linejoin: miter"/>
   </g>
   <g id="patch_5">
    <path d="M 801.108234 53.991667 
L 825.275953 53.991667 
L 825.275953 27.788333 
L 801.108234 27.788333 
z
" clip-path="url(#pd0f66b8f3d)" style="fill: #7f5cff; stroke: #000000; stroke-width: 2; stroke-linejoin: miter"/>
   </g>
   <g id="patch_6">
    <path d="M 825.275953 53.991667 
L 875.337656 53.991667 
L 875.337656 27.788333 
L 825.275953 27.788333 
z
" clip-path="url(#pd0f66b8f3d)" style="fill: #3700ff; stroke: #000000; stroke-width: 2; stroke-linejoin: miter"/>
   </g>
   <g id="patch_7">
    <path d="M 12.204844 91.425 
L 278.840955 91.425 
L 278.840955 65.221667 
L 12.204844 65.221667 
z
" clip-path="url(#pd0f66b8f3d)" style="fill: #b9bdff; stroke: #000000; stroke-width: 2; stroke-linejoin: miter"/>
   </g>
   <g id="patch_8">
    <path d="M 278.840955 91.425 
L 521.23742 91.425 
L 521.23742 65.221667 
L 278.840955 65.221667 
z
" clip-path="url(#pd0f66b8f3d)" style="fill: #8c92ff; stroke: #000000; stroke-width: 2; stroke-linejoin: miter"/>
   </g>
   <g id="patch_9">
    <path d="M 521.23742 91.425 
L 545.477066 91.425 
L 545.477066 65.221667 
L 521.23742 65.221667 
z
" clip-path="url(#pd0f66b8f3d)" style="fill: #5e68ff; stroke: #000000; stroke-width: 2; stroke-linejoin: miter"/>
   </g>
   <g id="patch_10">
    <path d="M 545.477066 91.425 
L 593.956359 91.425 
L 593.956359 65.221667 
L 545.477066 65.221667 
z
" clip-path="url(#pd0f66b8f3d)" style="fill: #0413ff; stroke: #000000; stroke-width: 2; stroke-linejoin: miter"/>
   </g>
   <g id="patch_11">
    <path d="M 12.204844 128.858333 
L 172.327644 128.858333 
L 172.327644 102.655 
L 12.204844 102.655 
z
" clip-path="url(#pd0f66b8f3d)" style="fill: #b8ffe0; stroke: #000000; stroke-width: 2; stroke-linejoin: miter"/>
   </g>
   <g id="patch_12">
    <path d="M 172.327644 128.858333 
L 394.036138 128.858333 
L 394.036138 102.655 
L 172.327644 102.655 
z
" clip-path="url(#pd0f66b8f3d)" style="fill: #8affcc; stroke: #000000; stroke-width: 2; stroke-linejoin: miter"/>
   </g>
   <g id="patch_13">
    <path d="M 394.036138 128.858333 
L 406.353276 128.858333 
L 406.353276 102.655 
L 394.036138 102.655 
z
" clip-path="url(#pd0f66b8f3d)" style="fill: #5cffb8; stroke: #000000; stroke-width: 2; stroke-linejoin: miter"/>
   </g>
   <g id="patch_14">
    <path d="M 406.353276 128.858333 
L 467.938969 128.858333 
L 467.938969 102.655 
L 406.353276 102.655 
z
" clip-path="url(#pd0f66b8f3d)" style="fill: #00ff90; stroke: #000000; stroke-width: 2; stroke-linejoin: miter"/>
   </g>
   <g id="patch_15">
    <path d="M 12.204844 166.291667 
L 86.187656 166.291667 
L 86.187656 140.088333 
L 12.204844 140.088333 
z
" clip-path="url(#pd0f66b8f3d)" style="fill: #ffb8bc; stroke: #000000; stroke-width: 2; stroke-linejoin: miter"/>
   </g>
   <g id="patch_16">
    <path d="M 86.187656 166.291667 
L 258.814219 166.291667 
L 258.814219 140.088333 
L 86.187656 140.088333 
z
" clip-path="url(#pd0f66b8f3d)" style="fill: #ff8a90; stroke: #000000; stroke-width: 2; stroke-linejoin: miter"/>
   </g>
   <g id="patch_17">
    <path d="M 258.814219 166.291667 
L 268.678594 166.291667 
L 268.678594 140.088333 
L 258.814219 140.088333 
z
" clip-path="url(#pd0f66b8f3d)" style="fill: #ff5c65; stroke: #000000; stroke-width: 2; stroke-linejoin: miter"/>
   </g>
   <g id="patch_18">
    <path d="M 268.678594 166.291667 
L 299.997984 166.291667 
L 299.997984 140.088333 
L 268.678594 140.088333 
z
" clip-path="url(#pd0f66b8f3d)" style="fill: #ff000e; stroke: #000000; stroke-width: 2; stroke-linejoin: miter"/>
   </g>
   <g id="patch_19">
    <path d="M 12.204844 203.725 
L 30.700547 203.725 
L 30.700547 177.521667 
L 12.204844 177.521667 
z
" clip-path="url(#pd0f66b8f3d)" style="fill: #ffccbe; stroke: #000000; stroke-width: 2; stroke-linejoin: miter"/>
   </g>
   <g id="patch_20">
    <path d="M 30.700547 203.725 
L 166.335703 203.725 
L 166.335703 177.521667 
L 30.700547 177.521667 
z
" clip-path="url(#pd0f66b8f3d)" style="fill: #ffac94; stroke: #000000; stroke-width: 2; stroke-linejoin: miter"/>
   </g>
   <g id="patch_21">
    <path d="M 166.335703 203.725 
L 178.666172 203.725 
L 178.666172 177.521667 
L 166.335703 177.521667 
z
" clip-path="url(#pd0f66b8f3d)" style="fill: #ff8c6b; stroke: #000000; stroke-width: 2; stroke-linejoin: miter"/>
   </g>
   <g id="patch_22">
    <path d="M 178.666172 203.725 
L 232.920234 203.725 
L 232.920234 177.521667 
L 178.666172 177.521667 
z
" clip-path="url(#pd0f66b8f3d)" style="fill: #ff6b41; stroke: #000000; stroke-width: 2; stroke-linejoin: miter"/>
   </g>
   <g id="patch_23">
    <path d="M 232.920234 203.725 
L 256.594734 203.725 
L 256.594734 177.521667 
L 232.920234 177.521667 
z
" clip-path="url(#pd0f66b8f3d)" style="fill: #ff4b17; stroke: #000000; stroke-width: 2; stroke-linejoin: miter"/>
   </g>
   <g id="patch_24">
    <path d="M 12.204844 241.158333 
L 24.535313 241.158333 
L 24.535313 214.955 
L 12.204844 214.955 
z
" clip-path="url(#pd0f66b8f3d)" style="fill: #f0dbff; stroke: #000000; stroke-width: 2; stroke-linejoin: miter"/>
   </g>
   <g id="patch_25">
    <path d="M 24.535313 241.158333 
L 197.161875 241.158333 
L 197.161875 214.955 
L 24.535313 214.955 
z
" clip-path="url(#pd0f66b8f3d)" style="fill: #e6c3ff; stroke: #000000; stroke-width: 2; stroke-linejoin: miter"/>
   </g>
   <g id="patch_26">
    <path d="M 197.161875 241.158333 
L 209.492344 241.158333 
L 209.492344 214.955 
L 197.161875 214.955 
z
" clip-path="url(#pd0f66b8f3d)" style="fill: #dcacff; stroke: #000000; stroke-width: 2; stroke-linejoin: miter"/>
   </g>
   <g id="patch_27">
    <path d="M 209.492344 241.158333 
L 263.746406 241.158333 
L 263.746406 214.955 
L 209.492344 214.955 
z
" clip-path="url(#pd0f66b8f3d)" style="fill: #d294ff; stroke: #000000; stroke-width: 2; stroke-linejoin: miter"/>
   </g>
   <g id="patch_28">
    <path d="M 263.746406 241.158333 
L 291.120047 241.158333 
L 291.120047 214.955 
L 263.746406 214.955 
z
" clip-path="url(#pd0f66b8f3d)" style="fill: #c87dff; stroke: #000000; stroke-width: 2; stroke-linejoin: miter"/>
   </g>
   <g id="matplotlib.axis_1">
    <g id="xtick_1">
     <g id="line2d_1">
      <defs>
       <path id="m259eda3893" d="M 0 0 
L 0 6 
" style="stroke: #000000; stroke-width: 1.5"/>
      </defs>
      <g>
       <use xlink:href="#m259eda3893" x="12.204844" y="254.26" style="stroke: #000000; stroke-width: 1.5"/>
      </g>
     </g>
     <g id="text_1">
      <!-- 0 -->
      <g transform="translate(7.2 276.644063)scale(0.18 -0.18)">
       <defs>
        <path id="ArialMT-30" d="M 266 2259 
Q 266 3072 433 3567 
Q 600 4063 929 4331 
Q 1259 4600 1759 4600 
Q 2128 4600 2406 4451 
Q 2684 4303 2865 4023 
Q 3047 3744 3150 3342 
Q 3253 2941 3253 2259 
Q 3253 1453 3087 958 
Q 2922 463 2592 192 
Q 2263 -78 1759 -78 
Q 1097 -78 719 397 
Q 266 969 266 2259 
z
M 844 2259 
Q 844 1131 1108 757 
Q 1372 384 1759 384 
Q 2147 384 2411 759 
Q 2675 1134 2675 2259 
Q 2675 3391 2411 3762 
Q 2147 4134 1753 4134 
Q 1366 4134 1134 3806 
Q 844 3388 844 2259 
z
" transform="scale(0.015625)"/>
       </defs>
       <use xlink:href="#ArialMT-30"/>
      </g>
     </g>
    </g>
    <g id="xtick_2">
     <g id="line2d_2">
      <g>
       <use xlink:href="#m259eda3893" x="135.509531" y="254.26" style="stroke: #000000; stroke-width: 1.5"/>
      </g>
     </g>
     <g id="text_2">
      <!-- 5 -->
      <g transform="translate(130.504688 276.644063)scale(0.18 -0.18)">
       <defs>
        <path id="ArialMT-35" d="M 266 1200 
L 856 1250 
Q 922 819 1161 601 
Q 1400 384 1738 384 
Q 2144 384 2425 690 
Q 2706 997 2706 1503 
Q 2706 1984 2436 2262 
Q 2166 2541 1728 2541 
Q 1456 2541 1237 2417 
Q 1019 2294 894 2097 
L 366 2166 
L 809 4519 
L 3088 4519 
L 3088 3981 
L 1259 3981 
L 1013 2750 
Q 1425 3038 1878 3038 
Q 2478 3038 2890 2622 
Q 3303 2206 3303 1553 
Q 3303 931 2941 478 
Q 2500 -78 1738 -78 
Q 1113 -78 717 272 
Q 322 622 266 1200 
z
" transform="scale(0.015625)"/>
       </defs>
       <use xlink:href="#ArialMT-35"/>
      </g>
     </g>
    </g>
    <g id="xtick_3">
     <g id="line2d_3">
      <g>
       <use xlink:href="#m259eda3893" x="258.814219" y="254.26" style="stroke: #000000; stroke-width: 1.5"/>
      </g>
     </g>
     <g id="text_3">
      <!-- 10 -->
      <g transform="translate(248.804531 276.644063)scale(0.18 -0.18)">
       <defs>
        <path id="ArialMT-31" d="M 2384 0 
L 1822 0 
L 1822 3584 
Q 1619 3391 1289 3197 
Q 959 3003 697 2906 
L 697 3450 
Q 1169 3672 1522 3987 
Q 1875 4303 2022 4600 
L 2384 4600 
L 2384 0 
z
" transform="scale(0.015625)"/>
       </defs>
       <use xlink:href="#ArialMT-31"/>
       <use xlink:href="#ArialMT-30" x="55.615234"/>
      </g>
     </g>
    </g>
    <g id="xtick_4">
     <g id="line2d_4">
      <g>
       <use xlink:href="#m259eda3893" x="382.118906" y="254.26" style="stroke: #000000; stroke-width: 1.5"/>
      </g>
     </g>
     <g id="text_4">
      <!-- 15 -->
      <g transform="translate(372.109219 276.644063)scale(0.18 -0.18)">
       <use xlink:href="#ArialMT-31"/>
       <use xlink:href="#ArialMT-35" x="55.615234"/>
      </g>
     </g>
    </g>
    <g id="xtick_5">
     <g id="line2d_5">
      <g>
       <use xlink:href="#m259eda3893" x="505.423594" y="254.26" style="stroke: #000000; stroke-width: 1.5"/>
      </g>
     </g>
     <g id="text_5">
      <!-- 20 -->
      <g transform="translate(495.413906 276.644063)scale(0.18 -0.18)">
       <defs>
        <path id="ArialMT-32" d="M 3222 541 
L 3222 0 
L 194 0 
Q 188 203 259 391 
Q 375 700 629 1000 
Q 884 1300 1366 1694 
Q 2113 2306 2375 2664 
Q 2638 3022 2638 3341 
Q 2638 3675 2398 3904 
Q 2159 4134 1775 4134 
Q 1369 4134 1125 3890 
Q 881 3647 878 3216 
L 300 3275 
Q 359 3922 746 4261 
Q 1134 4600 1788 4600 
Q 2447 4600 2831 4234 
Q 3216 3869 3216 3328 
Q 3216 3053 3103 2787 
Q 2991 2522 2730 2228 
Q 2469 1934 1863 1422 
Q 1356 997 1212 845 
Q 1069 694 975 541 
L 3222 541 
z
" transform="scale(0.015625)"/>
       </defs>
       <use xlink:href="#ArialMT-32"/>
       <use xlink:href="#ArialMT-30" x="55.615234"/>
      </g>
     </g>
    </g>
    <g id="xtick_6">
     <g id="line2d_6">
      <g>
       <use xlink:href="#m259eda3893" x="628.728281" y="254.26" style="stroke: #000000; stroke-width: 1.5"/>
      </g>
     </g>
     <g id="text_6">
      <!-- 25 -->
      <g transform="translate(618.718594 276.644063)scale(0.18 -0.18)">
       <use xlink:href="#ArialMT-32"/>
       <use xlink:href="#ArialMT-35" x="55.615234"/>
      </g>
     </g>
    </g>
    <g id="xtick_7">
     <g id="line2d_7">
      <g>
       <use xlink:href="#m259eda3893" x="752.032969" y="254.26" style="stroke: #000000; stroke-width: 1.5"/>
      </g>
     </g>
     <g id="text_7">
      <!-- 30 -->
      <g transform="translate(742.023281 276.644063)scale(0.18 -0.18)">
       <defs>
        <path id="ArialMT-33" d="M 269 1209 
L 831 1284 
Q 928 806 1161 595 
Q 1394 384 1728 384 
Q 2125 384 2398 659 
Q 2672 934 2672 1341 
Q 2672 1728 2419 1979 
Q 2166 2231 1775 2231 
Q 1616 2231 1378 2169 
L 1441 2663 
Q 1497 2656 1531 2656 
Q 1891 2656 2178 2843 
Q 2466 3031 2466 3422 
Q 2466 3731 2256 3934 
Q 2047 4138 1716 4138 
Q 1388 4138 1169 3931 
Q 950 3725 888 3313 
L 325 3413 
Q 428 3978 793 4289 
Q 1159 4600 1703 4600 
Q 2078 4600 2393 4439 
Q 2709 4278 2876 4000 
Q 3044 3722 3044 3409 
Q 3044 3113 2884 2869 
Q 2725 2625 2413 2481 
Q 2819 2388 3044 2092 
Q 3269 1797 3269 1353 
Q 3269 753 2831 336 
Q 2394 -81 1725 -81 
Q 1122 -81 723 278 
Q 325 638 269 1209 
z
" transform="scale(0.015625)"/>
       </defs>
       <use xlink:href="#ArialMT-33"/>
       <use xlink:href="#ArialMT-30" x="55.615234"/>
      </g>
     </g>
    </g>
    <g id="xtick_8">
     <g id="line2d_8">
      <g>
       <use xlink:href="#m259eda3893" x="875.337656" y="254.26" style="stroke: #000000; stroke-width: 1.5"/>
      </g>
     </g>
     <g id="text_8">
      <!-- 35 -->
      <g transform="translate(865.327969 276.644063)scale(0.18 -0.18)">
       <use xlink:href="#ArialMT-33"/>
       <use xlink:href="#ArialMT-35" x="55.615234"/>
      </g>
     </g>
    </g>
    <g id="xtick_9">
     <g id="line2d_9">
      <g>
       <use xlink:href="#m259eda3893" x="998.642344" y="254.26" style="stroke: #000000; stroke-width: 1.5"/>
      </g>
     </g>
     <g id="text_9">
      <!-- 40 -->
      <g transform="translate(988.632656 276.644063)scale(0.18 -0.18)">
       <defs>
        <path id="ArialMT-34" d="M 2069 0 
L 2069 1097 
L 81 1097 
L 81 1613 
L 2172 4581 
L 2631 4581 
L 2631 1613 
L 3250 1613 
L 3250 1097 
L 2631 1097 
L 2631 0 
L 2069 0 
z
M 2069 1613 
L 2069 3678 
L 634 1613 
L 2069 1613 
z
" transform="scale(0.015625)"/>
       </defs>
       <use xlink:href="#ArialMT-34"/>
       <use xlink:href="#ArialMT-30" x="55.615234"/>
      </g>
     </g>
    </g>
    <g id="xtick_10">
     <g id="line2d_10">
      <g>
       <use xlink:href="#m259eda3893" x="1121.947031" y="254.26" style="stroke: #000000; stroke-width: 1.5"/>
      </g>
     </g>
     <g id="text_10">
      <!-- 45 -->
      <g transform="translate(1111.937344 276.644063)scale(0.18 -0.18)">
       <use xlink:href="#ArialMT-34"/>
       <use xlink:href="#ArialMT-35" x="55.615234"/>
      </g>
     </g>
    </g>
   </g>
   <g id="patch_29">
    <path d="M 12.204844 254.26 
L 1195.929844 254.26 
" style="fill: none; stroke: #000000; stroke-width: 1.5; stroke-linejoin: miter; stroke-linecap: square"/>
   </g>
   <g id="text_11">
    <!-- 405 nm  |  35.00 dB -->
    <g transform="translate(890.134219 45.5475)scale(0.18 -0.18)">
     <defs>
      <path id="Arial-ItalicMT-34" d="M 1913 0 
L 2159 1169 
L 291 1169 
L 409 1728 
L 2975 4581 
L 3438 4581 
L 2828 1669 
L 3472 1669 
L 3369 1169 
L 2725 1169 
L 2478 0 
L 1913 0 
z
M 2263 1669 
L 2663 3581 
L 956 1669 
L 2263 1669 
z
" transform="scale(0.015625)"/>
      <path id="Arial-ItalicMT-30" d="M 453 1503 
Q 453 2084 626 2684 
Q 800 3284 1012 3643 
Q 1225 4003 1453 4206 
Q 1681 4409 1901 4504 
Q 2122 4600 2391 4600 
Q 2916 4600 3267 4209 
Q 3619 3819 3619 3081 
Q 3619 2322 3375 1578 
Q 3088 697 2575 256 
Q 2181 -78 1678 -78 
Q 1163 -78 808 326 
Q 453 731 453 1503 
z
M 1000 1359 
Q 1000 938 1141 700 
Q 1331 372 1706 372 
Q 2034 372 2303 669 
Q 2691 1088 2886 1895 
Q 3081 2703 3081 3216 
Q 3081 3709 2892 3928 
Q 2703 4147 2394 4147 
Q 2169 4147 1973 4031 
Q 1778 3916 1600 3634 
Q 1347 3238 1159 2447 
Q 1000 1772 1000 1359 
z
" transform="scale(0.015625)"/>
      <path id="Arial-ItalicMT-35" d="M 447 1309 
L 1022 1366 
Q 1016 1244 1016 1219 
Q 1016 1013 1120 803 
Q 1225 594 1404 483 
Q 1584 372 1784 372 
Q 2047 372 2319 553 
Q 2591 734 2759 1081 
Q 2928 1428 2928 1769 
Q 2928 2153 2701 2384 
Q 2475 2616 2106 2616 
Q 1859 2616 1639 2497 
Q 1419 2378 1228 2141 
L 734 2175 
L 1425 4519 
L 3663 4519 
L 3553 4000 
L 1813 4000 
L 1469 2834 
Q 1663 2975 1867 3045 
Q 2072 3116 2288 3116 
Q 2813 3116 3150 2769 
Q 3488 2422 3488 1819 
Q 3488 1291 3256 845 
Q 3025 400 2620 161 
Q 2216 -78 1747 -78 
Q 1353 -78 1050 100 
Q 747 278 595 590 
Q 444 903 444 1216 
Q 444 1247 447 1309 
z
" transform="scale(0.015625)"/>
      <path id="Arial-ItalicMT-20" transform="scale(0.015625)"/>
      <path id="Arial-ItalicMT-6e" d="M 213 0 
L 906 3319 
L 1419 3319 
L 1297 2741 
Q 1631 3081 1922 3237 
Q 2213 3394 2516 3394 
Q 2919 3394 3148 3175 
Q 3378 2956 3378 2591 
Q 3378 2406 3297 2009 
L 2875 0 
L 2309 0 
L 2750 2103 
Q 2816 2409 2816 2556 
Q 2816 2722 2702 2825 
Q 2588 2928 2372 2928 
Q 1938 2928 1598 2615 
Q 1259 2303 1100 1544 
L 778 0 
L 213 0 
z
" transform="scale(0.015625)"/>
      <path id="Arial-ItalicMT-6d" d="M 209 0 
L 903 3319 
L 1469 3319 
L 1353 2772 
Q 1669 3125 1917 3259 
Q 2166 3394 2456 3394 
Q 2766 3394 2973 3230 
Q 3181 3066 3247 2772 
Q 3500 3084 3779 3239 
Q 4059 3394 4369 3394 
Q 4784 3394 4992 3197 
Q 5200 3000 5200 2644 
Q 5200 2491 5128 2138 
L 4681 0 
L 4116 0 
L 4572 2194 
Q 4631 2463 4631 2578 
Q 4631 2741 4528 2834 
Q 4425 2928 4238 2928 
Q 3984 2928 3721 2775 
Q 3459 2622 3314 2373 
Q 3169 2125 3059 1609 
L 2722 0 
L 2156 0 
L 2625 2241 
Q 2675 2469 2675 2566 
Q 2675 2728 2573 2828 
Q 2472 2928 2309 2928 
Q 2069 2928 1805 2775 
Q 1541 2622 1375 2348 
Q 1209 2075 1103 1569 
L 775 0 
L 209 0 
z
" transform="scale(0.015625)"/>
      <path id="Arial-ItalicMT-7c" d="M 588 -1347 
L 588 4659 
L 1078 4659 
L 1078 -1347 
L 588 -1347 
z
" transform="scale(0.015625)"/>
      <path id="Arial-ItalicMT-33" d="M 350 1200 
L 900 1269 
Q 963 788 1177 580 
Q 1391 372 1738 372 
Q 2156 372 2461 672 
Q 2766 972 2766 1359 
Q 2766 1697 2537 1917 
Q 2309 2138 1925 2138 
Q 1881 2138 1744 2125 
L 1841 2597 
Q 1922 2584 1997 2584 
Q 2481 2584 2742 2820 
Q 3003 3056 3003 3400 
Q 3003 3716 2789 3931 
Q 2575 4147 2266 4147 
Q 1963 4147 1720 3926 
Q 1478 3706 1409 3303 
L 853 3416 
Q 991 3981 1381 4290 
Q 1772 4600 2306 4600 
Q 2869 4600 3217 4259 
Q 3566 3919 3566 3422 
Q 3566 3059 3377 2789 
Q 3188 2519 2809 2341 
Q 3078 2181 3211 1956 
Q 3344 1731 3344 1441 
Q 3344 825 2883 373 
Q 2422 -78 1781 -78 
Q 1159 -78 776 270 
Q 394 619 350 1200 
z
" transform="scale(0.015625)"/>
      <path id="Arial-ItalicMT-2e" d="M 369 0 
L 503 641 
L 1144 641 
L 1006 0 
L 369 0 
z
" transform="scale(0.015625)"/>
      <path id="Arial-ItalicMT-64" d="M 2450 481 
Q 1966 -75 1438 -75 
Q 966 -75 652 273 
Q 338 622 338 1284 
Q 338 1891 586 2392 
Q 834 2894 1207 3144 
Q 1581 3394 1956 3394 
Q 2575 3394 2891 2797 
L 3266 4581 
L 3828 4581 
L 2872 0 
L 2350 0 
L 2450 481 
z
M 900 1391 
Q 900 1044 969 844 
Q 1038 644 1203 511 
Q 1369 378 1600 378 
Q 1984 378 2297 778 
Q 2716 1309 2716 2091 
Q 2716 2484 2509 2706 
Q 2303 2928 1991 2928 
Q 1788 2928 1620 2837 
Q 1453 2747 1289 2530 
Q 1125 2313 1012 1978 
Q 900 1644 900 1391 
z
" transform="scale(0.015625)"/>
      <path id="Arial-ItalicMT-42" d="M 278 0 
L 1238 4581 
L 2656 4581 
Q 3044 4581 3231 4550 
Q 3538 4497 3748 4364 
Q 3959 4231 4075 4001 
Q 4191 3772 4191 3494 
Q 4191 3116 3983 2828 
Q 3775 2541 3347 2391 
Q 3719 2269 3903 2023 
Q 4088 1778 4088 1450 
Q 4088 1072 3870 725 
Q 3653 378 3295 189 
Q 2938 0 2497 0 
L 278 0 
z
M 1441 2625 
L 2369 2625 
Q 3034 2625 3326 2837 
Q 3619 3050 3619 3456 
Q 3619 3650 3528 3790 
Q 3438 3931 3286 3995 
Q 3134 4059 2716 4059 
L 1741 4059 
L 1441 2625 
z
M 1000 519 
L 2044 519 
Q 2459 519 2603 547 
Q 2894 597 3075 717 
Q 3256 838 3359 1034 
Q 3463 1231 3463 1447 
Q 3463 1769 3261 1936 
Q 3059 2103 2494 2103 
L 1331 2103 
L 1000 519 
z
" transform="scale(0.015625)"/>
     </defs>
     <use xlink:href="#Arial-ItalicMT-34"/>
     <use xlink:href="#Arial-ItalicMT-30" x="55.615234"/>
     <use xlink:href="#Arial-ItalicMT-35" x="111.230469"/>
     <use xlink:href="#Arial-ItalicMT-20" x="166.845703"/>
     <use xlink:href="#Arial-ItalicMT-6e" x="194.628906"/>
     <use xlink:href="#Arial-ItalicMT-6d" x="250.244141"/>
     <use xlink:href="#Arial-ItalicMT-20" x="333.544922"/>
     <use xlink:href="#Arial-ItalicMT-20" x="361.328125"/>
     <use xlink:href="#Arial-ItalicMT-7c" x="389.111328"/>
     <use xlink:href="#Arial-ItalicMT-20" x="415.087891"/>
     <use xlink:href="#Arial-ItalicMT-20" x="442.871094"/>
     <use xlink:href="#Arial-ItalicMT-33" x="470.654297"/>
     <use xlink:href="#Arial-ItalicMT-35" x="526.269531"/>
     <use xlink:href="#Arial-ItalicMT-2e" x="581.884766"/>
     <use xlink:href="#Arial-ItalicMT-30" x="609.667969"/>
     <use xlink:href="#Arial-ItalicMT-30" x="665.283203"/>
     <use xlink:href="#Arial-ItalicMT-20" x="720.898438"/>
     <use xlink:href="#Arial-ItalicMT-64" x="748.681641"/>
     <use xlink:href="#Arial-ItalicMT-42" x="804.296875"/>
    </g>
   </g>
   <g id="text_12">
    <!-- 450 nm  |  23.59 dB -->
    <g transform="translate(608.752922 82.980833)scale(0.18 -0.18)">
     <defs>
      <path id="Arial-ItalicMT-32" d="M 375 0 
Q 463 409 617 686 
Q 772 963 1028 1211 
Q 1284 1459 2016 2044 
Q 2459 2397 2622 2566 
Q 2856 2809 2963 3044 
Q 3034 3203 3034 3391 
Q 3034 3706 2811 3926 
Q 2588 4147 2263 4147 
Q 1941 4147 1700 3923 
Q 1459 3700 1356 3206 
L 803 3288 
Q 884 3897 1276 4248 
Q 1669 4600 2253 4600 
Q 2644 4600 2961 4437 
Q 3278 4275 3437 3981 
Q 3597 3688 3597 3375 
Q 3597 2919 3272 2497 
Q 3072 2234 2097 1463 
Q 1678 1131 1473 918 
Q 1269 706 1166 519 
L 3216 519 
L 3106 0 
L 375 0 
z
" transform="scale(0.015625)"/>
      <path id="Arial-ItalicMT-39" d="M 431 1050 
L 963 1103 
Q 1016 719 1181 556 
Q 1347 394 1575 394 
Q 1900 394 2178 675 
Q 2588 1088 2781 1859 
Q 2497 1647 2276 1556 
Q 2056 1466 1825 1466 
Q 1406 1466 1075 1747 
Q 638 2113 638 2797 
Q 638 3572 1144 4125 
Q 1578 4600 2209 4600 
Q 2778 4600 3153 4179 
Q 3528 3759 3528 2991 
Q 3528 2244 3278 1516 
Q 2981 659 2475 253 
Q 2063 -78 1547 -78 
Q 1072 -78 770 217 
Q 469 513 431 1050 
z
M 1184 2863 
Q 1184 2431 1414 2175 
Q 1644 1919 1959 1919 
Q 2194 1919 2425 2078 
Q 2656 2238 2822 2555 
Q 2988 2872 2988 3206 
Q 2988 3469 2878 3694 
Q 2769 3919 2580 4033 
Q 2391 4147 2197 4147 
Q 2009 4147 1828 4047 
Q 1647 3947 1492 3753 
Q 1338 3559 1261 3307 
Q 1184 3056 1184 2863 
z
" transform="scale(0.015625)"/>
     </defs>
     <use xlink:href="#Arial-ItalicMT-34"/>
     <use xlink:href="#Arial-ItalicMT-35" x="55.615234"/>
     <use xlink:href="#Arial-ItalicMT-30" x="111.230469"/>
     <use xlink:href="#Arial-ItalicMT-20" x="166.845703"/>
     <use xlink:href="#Arial-ItalicMT-6e" x="194.628906"/>
     <use xlink:href="#Arial-ItalicMT-6d" x="250.244141"/>
     <use xlink:href="#Arial-ItalicMT-20" x="333.544922"/>
     <use xlink:href="#Arial-ItalicMT-20" x="361.328125"/>
     <use xlink:href="#Arial-ItalicMT-7c" x="389.111328"/>
     <use xlink:href="#Arial-ItalicMT-20" x="415.087891"/>
     <use xlink:href="#Arial-ItalicMT-20" x="442.871094"/>
     <use xlink:href="#Arial-ItalicMT-32" x="470.654297"/>
     <use xlink:href="#Arial-ItalicMT-33" x="526.269531"/>
     <use xlink:href="#Arial-ItalicMT-2e" x="581.884766"/>
     <use xlink:href="#Arial-ItalicMT-35" x="609.667969"/>
     <use xlink:href="#Arial-ItalicMT-39" x="665.283203"/>
     <use xlink:href="#Arial-ItalicMT-20" x="720.898438"/>
     <use xlink:href="#Arial-ItalicMT-64" x="748.681641"/>
     <use xlink:href="#Arial-ItalicMT-42" x="804.296875"/>
    </g>
   </g>
   <g id="text_13">
    <!-- 515 nm  |  18.48 dB -->
    <g transform="translate(482.735531 120.414167)scale(0.18 -0.18)">
     <defs>
      <path id="Arial-ItalicMT-31" d="M 1541 0 
L 2266 3459 
Q 1797 3091 947 2869 
L 1053 3381 
Q 1475 3550 1886 3822 
Q 2297 4094 2503 4297 
Q 2628 4422 2741 4600 
L 3069 4600 
L 2109 0 
L 1541 0 
z
" transform="scale(0.015625)"/>
      <path id="Arial-ItalicMT-38" d="M 1444 2519 
Q 1188 2659 1059 2879 
Q 931 3100 931 3353 
Q 931 3769 1231 4122 
Q 1631 4600 2316 4600 
Q 2919 4600 3266 4276 
Q 3613 3953 3613 3484 
Q 3613 3150 3425 2881 
Q 3238 2613 2838 2453 
Q 3113 2281 3231 2088 
Q 3384 1834 3384 1497 
Q 3384 881 2948 400 
Q 2513 -81 1788 -81 
Q 1209 -81 843 275 
Q 478 631 478 1166 
Q 478 1669 737 2030 
Q 997 2391 1444 2519 
z
M 1488 3328 
Q 1488 3034 1677 2854 
Q 1866 2675 2197 2675 
Q 2584 2675 2826 2911 
Q 3069 3147 3069 3491 
Q 3069 3781 2880 3964 
Q 2691 4147 2359 4147 
Q 2109 4147 1900 4031 
Q 1691 3916 1589 3717 
Q 1488 3519 1488 3328 
z
M 1047 1119 
Q 1047 928 1139 753 
Q 1231 578 1418 475 
Q 1606 372 1847 372 
Q 2306 372 2591 803 
Q 2816 1141 2816 1531 
Q 2816 1850 2608 2053 
Q 2400 2256 2063 2256 
Q 1638 2256 1342 1940 
Q 1047 1625 1047 1119 
z
" transform="scale(0.015625)"/>
     </defs>
     <use xlink:href="#Arial-ItalicMT-35"/>
     <use xlink:href="#Arial-ItalicMT-31" x="55.615234"/>
     <use xlink:href="#Arial-ItalicMT-35" x="111.230469"/>
     <use xlink:href="#Arial-ItalicMT-20" x="166.845703"/>
     <use xlink:href="#Arial-ItalicMT-6e" x="194.628906"/>
     <use xlink:href="#Arial-ItalicMT-6d" x="250.244141"/>
     <use xlink:href="#Arial-ItalicMT-20" x="333.544922"/>
     <use xlink:href="#Arial-ItalicMT-20" x="361.328125"/>
     <use xlink:href="#Arial-ItalicMT-7c" x="389.111328"/>
     <use xlink:href="#Arial-ItalicMT-20" x="415.087891"/>
     <use xlink:href="#Arial-ItalicMT-20" x="442.871094"/>
     <use xlink:href="#Arial-ItalicMT-31" x="470.654297"/>
     <use xlink:href="#Arial-ItalicMT-38" x="526.269531"/>
     <use xlink:href="#Arial-ItalicMT-2e" x="581.884766"/>
     <use xlink:href="#Arial-ItalicMT-34" x="609.667969"/>
     <use xlink:href="#Arial-ItalicMT-38" x="665.283203"/>
     <use xlink:href="#Arial-ItalicMT-20" x="720.898438"/>
     <use xlink:href="#Arial-ItalicMT-64" x="748.681641"/>
     <use xlink:href="#Arial-ItalicMT-42" x="804.296875"/>
    </g>
   </g>
   <g id="text_14">
    <!-- 635 nm  |  11.67 dB -->
    <g transform="translate(314.794547 157.8475)scale(0.18 -0.18)">
     <defs>
      <path id="Arial-ItalicMT-36" d="M 1288 2656 
Q 1525 2853 1761 2951 
Q 1997 3050 2228 3050 
Q 2750 3050 3090 2694 
Q 3431 2338 3431 1734 
Q 3431 956 2925 400 
Q 2488 -78 1863 -78 
Q 1294 -78 914 339 
Q 534 756 534 1528 
Q 534 2219 778 2956 
Q 966 3522 1242 3889 
Q 1519 4256 1830 4428 
Q 2141 4600 2531 4600 
Q 3000 4600 3297 4308 
Q 3594 4016 3634 3472 
L 3109 3422 
Q 3066 3794 2898 3959 
Q 2731 4125 2491 4125 
Q 2238 4125 1981 3928 
Q 1725 3731 1540 3345 
Q 1356 2959 1288 2656 
z
M 1091 1288 
Q 1091 900 1331 636 
Q 1572 372 1875 372 
Q 2088 372 2325 533 
Q 2563 694 2728 1022 
Q 2894 1350 2894 1675 
Q 2894 2094 2664 2345 
Q 2434 2597 2109 2597 
Q 1734 2597 1412 2230 
Q 1091 1863 1091 1288 
z
" transform="scale(0.015625)"/>
      <path id="Arial-ItalicMT-37" d="M 928 0 
Q 1003 463 1247 1113 
Q 1538 1897 2009 2670 
Q 2481 3444 3059 4000 
L 775 4000 
L 884 4519 
L 3809 4519 
L 3703 4000 
Q 2959 3347 2403 2316 
Q 1756 1125 1519 0 
L 928 0 
z
" transform="scale(0.015625)"/>
     </defs>
     <use xlink:href="#Arial-ItalicMT-36"/>
     <use xlink:href="#Arial-ItalicMT-33" x="55.615234"/>
     <use xlink:href="#Arial-ItalicMT-35" x="111.230469"/>
     <use xlink:href="#Arial-ItalicMT-20" x="166.845703"/>
     <use xlink:href="#Arial-ItalicMT-6e" x="194.628906"/>
     <use xlink:href="#Arial-ItalicMT-6d" x="250.244141"/>
     <use xlink:href="#Arial-ItalicMT-20" x="333.544922"/>
     <use xlink:href="#Arial-ItalicMT-20" x="361.328125"/>
     <use xlink:href="#Arial-ItalicMT-7c" x="389.111328"/>
     <use xlink:href="#Arial-ItalicMT-20" x="415.087891"/>
     <use xlink:href="#Arial-ItalicMT-20" x="442.871094"/>
     <use xlink:href="#Arial-ItalicMT-31" x="470.654297"/>
     <use xlink:href="#Arial-ItalicMT-31" x="518.894531"/>
     <use xlink:href="#Arial-ItalicMT-2e" x="574.509766"/>
     <use xlink:href="#Arial-ItalicMT-36" x="602.292969"/>
     <use xlink:href="#Arial-ItalicMT-37" x="657.908203"/>
     <use xlink:href="#Arial-ItalicMT-20" x="713.523438"/>
     <use xlink:href="#Arial-ItalicMT-64" x="741.306641"/>
     <use xlink:href="#Arial-ItalicMT-42" x="796.921875"/>
    </g>
   </g>
   <g id="text_15">
    <!-- 730 nm  |  9.91 dB -->
    <g transform="translate(271.391297 195.280833)scale(0.18 -0.18)">
     <use xlink:href="#Arial-ItalicMT-37"/>
     <use xlink:href="#Arial-ItalicMT-33" x="55.615234"/>
     <use xlink:href="#Arial-ItalicMT-30" x="111.230469"/>
     <use xlink:href="#Arial-ItalicMT-20" x="166.845703"/>
     <use xlink:href="#Arial-ItalicMT-6e" x="194.628906"/>
     <use xlink:href="#Arial-ItalicMT-6d" x="250.244141"/>
     <use xlink:href="#Arial-ItalicMT-20" x="333.544922"/>
     <use xlink:href="#Arial-ItalicMT-20" x="361.328125"/>
     <use xlink:href="#Arial-ItalicMT-7c" x="389.111328"/>
     <use xlink:href="#Arial-ItalicMT-20" x="415.087891"/>
     <use xlink:href="#Arial-ItalicMT-20" x="442.871094"/>
     <use xlink:href="#Arial-ItalicMT-39" x="470.654297"/>
     <use xlink:href="#Arial-ItalicMT-2e" x="526.269531"/>
     <use xlink:href="#Arial-ItalicMT-39" x="554.052734"/>
     <use xlink:href="#Arial-ItalicMT-31" x="609.667969"/>
     <use xlink:href="#Arial-ItalicMT-20" x="665.283203"/>
     <use xlink:href="#Arial-ItalicMT-64" x="693.066406"/>
     <use xlink:href="#Arial-ItalicMT-42" x="748.681641"/>
    </g>
   </g>
   <g id="text_16">
    <!-- 880 nm  |  11.31 dB -->
    <g transform="translate(305.916609 232.714167)scale(0.18 -0.18)">
     <use xlink:href="#Arial-ItalicMT-38"/>
     <use xlink:href="#Arial-ItalicMT-38" x="55.615234"/>
     <use xlink:href="#Arial-ItalicMT-30" x="111.230469"/>
     <use xlink:href="#Arial-ItalicMT-20" x="166.845703"/>
     <use xlink:href="#Arial-ItalicMT-6e" x="194.628906"/>
     <use xlink:href="#Arial-ItalicMT-6d" x="250.244141"/>
     <use xlink:href="#Arial-ItalicMT-20" x="333.544922"/>
     <use xlink:href="#Arial-ItalicMT-20" x="361.328125"/>
     <use xlink:href="#Arial-ItalicMT-7c" x="389.111328"/>
     <use xlink:href="#Arial-ItalicMT-20" x="415.087891"/>
     <use xlink:href="#Arial-ItalicMT-20" x="442.871094"/>
     <use xlink:href="#Arial-ItalicMT-31" x="470.654297"/>
     <use xlink:href="#Arial-ItalicMT-31" x="518.894531"/>
     <use xlink:href="#Arial-ItalicMT-2e" x="574.509766"/>
     <use xlink:href="#Arial-ItalicMT-33" x="602.292969"/>
     <use xlink:href="#Arial-ItalicMT-31" x="657.908203"/>
     <use xlink:href="#Arial-ItalicMT-20" x="713.523438"/>
     <use xlink:href="#Arial-ItalicMT-64" x="741.306641"/>
     <use xlink:href="#Arial-ItalicMT-42" x="796.921875"/>
    </g>
   </g>
  </g>
 </g>
 <defs>
  <clipPath id="pd0f66b8f3d">
   <rect x="12.204844" y="7.2" width="1183.725" height="247.06"/>
  </clipPath>
 </defs>
</svg>
